<?xml version="1.0" encoding="UTF-8" standalone="no"?>
<!-- Created with Inkscape (http://www.inkscape.org/) -->

<svg
   xmlns:dc="http://purl.org/dc/elements/1.1/"
   xmlns:cc="http://creativecommons.org/ns#"
   xmlns:rdf="http://www.w3.org/1999/02/22-rdf-syntax-ns#"
   xmlns:svg="http://www.w3.org/2000/svg"
   xmlns="http://www.w3.org/2000/svg"
   xmlns:sodipodi="http://sodipodi.sourceforge.net/DTD/sodipodi-0.dtd"
   xmlns:inkscape="http://www.inkscape.org/namespaces/inkscape"
   version="1.1"
   id="svg987"
   xml:space="preserve"
   width="416.44519"
   height="256.07373"
   viewBox="0 0 416.44518 256.07374"
   sodipodi:docname="acv-method.svg"
   inkscape:version="0.92.3 (2405546, 2018-03-11)"><metadata
     id="metadata993"><rdf:RDF><cc:Work
         rdf:about=""><dc:format>image/svg+xml</dc:format><dc:type
           rdf:resource="http://purl.org/dc/dcmitype/StillImage" /><dc:title></dc:title></cc:Work></rdf:RDF></metadata><defs
     id="defs991"><clipPath
       clipPathUnits="userSpaceOnUse"
       id="clipPath1015"><path
         d="M 0,792 H 612 V 0 H 0 Z"
         id="path1013"
         inkscape:connector-curvature="0" /></clipPath><clipPath
       clipPathUnits="userSpaceOnUse"
       id="clipPath1083"><path
         d="M 0,792 H 612 V 0 H 0 Z"
         id="path1081"
         inkscape:connector-curvature="0" /></clipPath><clipPath
       clipPathUnits="userSpaceOnUse"
       id="clipPath1103"><path
         d="M 0,792 H 612 V 0 H 0 Z"
         id="path1101"
         inkscape:connector-curvature="0" /></clipPath><clipPath
       clipPathUnits="userSpaceOnUse"
       id="clipPath1121"><path
         d="M 0,792 H 612 V 0 H 0 Z"
         id="path1119"
         inkscape:connector-curvature="0" /></clipPath><clipPath
       clipPathUnits="userSpaceOnUse"
       id="clipPath1157"><path
         d="M 0,792 H 612 V 0 H 0 Z"
         id="path1155"
         inkscape:connector-curvature="0" /></clipPath><clipPath
       clipPathUnits="userSpaceOnUse"
       id="clipPath1177"><path
         d="M 0,792 H 612 V 0 H 0 Z"
         id="path1175"
         inkscape:connector-curvature="0" /></clipPath><clipPath
       clipPathUnits="userSpaceOnUse"
       id="clipPath1199"><path
         d="M 0,792 H 612 V 0 H 0 Z"
         id="path1197"
         inkscape:connector-curvature="0" /></clipPath><clipPath
       clipPathUnits="userSpaceOnUse"
       id="clipPath1227"><path
         d="M 0,792 H 612 V 0 H 0 Z"
         id="path1225"
         inkscape:connector-curvature="0" /></clipPath><clipPath
       clipPathUnits="userSpaceOnUse"
       id="clipPath1249"><path
         d="M 0,792 H 612 V 0 H 0 Z"
         id="path1247"
         inkscape:connector-curvature="0" /></clipPath><clipPath
       clipPathUnits="userSpaceOnUse"
       id="clipPath1277"><path
         d="M 0,792 H 612 V 0 H 0 Z"
         id="path1275"
         inkscape:connector-curvature="0" /></clipPath><clipPath
       clipPathUnits="userSpaceOnUse"
       id="clipPath1301"><path
         d="M 0,792 H 612 V 0 H 0 Z"
         id="path1299"
         inkscape:connector-curvature="0" /></clipPath><clipPath
       clipPathUnits="userSpaceOnUse"
       id="clipPath1321"><path
         d="M 0,792 H 612 V 0 H 0 Z"
         id="path1319"
         inkscape:connector-curvature="0" /></clipPath><clipPath
       clipPathUnits="userSpaceOnUse"
       id="clipPath1351"><path
         d="M 0,792 H 612 V 0 H 0 Z"
         id="path1349"
         inkscape:connector-curvature="0" /></clipPath><clipPath
       clipPathUnits="userSpaceOnUse"
       id="clipPath1371"><path
         d="M 0,792 H 612 V 0 H 0 Z"
         id="path1369"
         inkscape:connector-curvature="0" /></clipPath><clipPath
       clipPathUnits="userSpaceOnUse"
       id="clipPath1391"><path
         d="M 0,792 H 612 V 0 H 0 Z"
         id="path1389"
         inkscape:connector-curvature="0" /></clipPath><clipPath
       clipPathUnits="userSpaceOnUse"
       id="clipPath1411"><path
         d="M 0,792 H 612 V 0 H 0 Z"
         id="path1409"
         inkscape:connector-curvature="0" /></clipPath><clipPath
       clipPathUnits="userSpaceOnUse"
       id="clipPath1469"><path
         d="M 0,792 H 612 V 0 H 0 Z"
         id="path1467"
         inkscape:connector-curvature="0" /></clipPath><clipPath
       clipPathUnits="userSpaceOnUse"
       id="clipPath1529"><path
         d="M 0,792 H 612 V 0 H 0 Z"
         id="path1527"
         inkscape:connector-curvature="0" /></clipPath><clipPath
       clipPathUnits="userSpaceOnUse"
       id="clipPath1541"><path
         d="m 497.282,66.173 h 38.14 v 38.268 h -38.14 z"
         id="path1539"
         inkscape:connector-curvature="0" /></clipPath><clipPath
       clipPathUnits="userSpaceOnUse"
       id="clipPath1549"><path
         d="m 490.986,103.566 h 50.961 V 67.1649 h -50.961 z"
         id="path1547"
         inkscape:connector-curvature="0" /></clipPath><clipPath
       clipPathUnits="userSpaceOnUse"
       id="clipPath1733"><path
         d="M 0,792 H 612 V 0 H 0 Z"
         id="path1731"
         inkscape:connector-curvature="0" /></clipPath><clipPath
       clipPathUnits="userSpaceOnUse"
       id="clipPath1785"><path
         d="M 0,792 H 612 V 0 H 0 Z"
         id="path1783"
         inkscape:connector-curvature="0" /></clipPath><clipPath
       clipPathUnits="userSpaceOnUse"
       id="clipPath3184"><path
         d="M 0,792 H 612 V 0 H 0 Z"
         id="path3182"
         inkscape:connector-curvature="0" /></clipPath><clipPath
       clipPathUnits="userSpaceOnUse"
       id="clipPath3170"><path
         d="M 0,792 H 612 V 0 H 0 Z"
         id="path3168"
         inkscape:connector-curvature="0" /></clipPath><clipPath
       clipPathUnits="userSpaceOnUse"
       id="clipPath3100"><path
         d="M 0,792 H 612 V 0 H 0 Z"
         id="path3098"
         inkscape:connector-curvature="0" /></clipPath><clipPath
       clipPathUnits="userSpaceOnUse"
       id="clipPath3078"><path
         d="M 0,792 H 612 V 0 H 0 Z"
         id="path3076"
         inkscape:connector-curvature="0" /></clipPath><clipPath
       clipPathUnits="userSpaceOnUse"
       id="clipPath2958"><path
         d="M 0,792 H 612 V 0 H 0 Z"
         id="path2956"
         inkscape:connector-curvature="0" /></clipPath><clipPath
       clipPathUnits="userSpaceOnUse"
       id="clipPath2944"><path
         d="M 0,792 H 612 V 0 H 0 Z"
         id="path2942"
         inkscape:connector-curvature="0" /></clipPath><clipPath
       clipPathUnits="userSpaceOnUse"
       id="clipPath2928"><path
         d="M 0,792 H 612 V 0 H 0 Z"
         id="path2926"
         inkscape:connector-curvature="0" /></clipPath><clipPath
       clipPathUnits="userSpaceOnUse"
       id="clipPath2912"><path
         d="M 0,792 H 612 V 0 H 0 Z"
         id="path2910"
         inkscape:connector-curvature="0" /></clipPath><clipPath
       clipPathUnits="userSpaceOnUse"
       id="clipPath2852"><path
         d="M 0,792 H 612 V 0 H 0 Z"
         id="path2850"
         inkscape:connector-curvature="0" /></clipPath><clipPath
       clipPathUnits="userSpaceOnUse"
       id="clipPath2838"><path
         d="M 0,792 H 612 V 0 H 0 Z"
         id="path2836"
         inkscape:connector-curvature="0" /></clipPath><clipPath
       clipPathUnits="userSpaceOnUse"
       id="clipPath2824"><path
         d="M 0,792 H 612 V 0 H 0 Z"
         id="path2822"
         inkscape:connector-curvature="0" /></clipPath><clipPath
       clipPathUnits="userSpaceOnUse"
       id="clipPath2810"><path
         d="M 0,792 H 612 V 0 H 0 Z"
         id="path2808"
         inkscape:connector-curvature="0" /></clipPath><clipPath
       clipPathUnits="userSpaceOnUse"
       id="clipPath2796"><path
         d="M 0,792 H 612 V 0 H 0 Z"
         id="path2794"
         inkscape:connector-curvature="0" /></clipPath><clipPath
       clipPathUnits="userSpaceOnUse"
       id="clipPath2754"><path
         d="M 0,792 H 612 V 0 H 0 Z"
         id="path2752"
         inkscape:connector-curvature="0" /></clipPath><clipPath
       clipPathUnits="userSpaceOnUse"
       id="clipPath5082"><path
         d="m 162.339,604.88 h 0.713 v -0.713 h -0.713 z"
         id="path5080"
         inkscape:connector-curvature="0" /></clipPath><clipPath
       clipPathUnits="userSpaceOnUse"
       id="clipPath7398"><path
         d="M 0,792 H 612 V 0 H 0 Z"
         id="path7396"
         inkscape:connector-curvature="0" /></clipPath><clipPath
       clipPathUnits="userSpaceOnUse"
       id="clipPath7398-1"><path
         d="M 0,792 H 612 V 0 H 0 Z"
         id="path7396-1"
         inkscape:connector-curvature="0" /></clipPath><clipPath
       clipPathUnits="userSpaceOnUse"
       id="clipPath9920"><path
         d="M 0,792 H 612 V 0 H 0 Z"
         id="path9918"
         inkscape:connector-curvature="0" /></clipPath><clipPath
       clipPathUnits="userSpaceOnUse"
       id="clipPath9876"><path
         d="M 0,792 H 612 V 0 H 0 Z"
         id="path9874"
         inkscape:connector-curvature="0" /></clipPath><clipPath
       clipPathUnits="userSpaceOnUse"
       id="clipPath12069"><path
         d="M 0,792 H 612 V 0 H 0 Z"
         id="path12067"
         inkscape:connector-curvature="0" /></clipPath><clipPath
       clipPathUnits="userSpaceOnUse"
       id="clipPath12069-1"><path
         d="M 0,792 H 612 V 0 H 0 Z"
         id="path12067-7"
         inkscape:connector-curvature="0" /></clipPath><clipPath
       clipPathUnits="userSpaceOnUse"
       id="clipPath12069-7"><path
         d="M 0,792 H 612 V 0 H 0 Z"
         id="path12067-9"
         inkscape:connector-curvature="0" /></clipPath><clipPath
       clipPathUnits="userSpaceOnUse"
       id="clipPath14532"><path
         d="M 308.646,596.43 H 325.45 V 566.797 H 308.646 Z"
         id="path14530"
         inkscape:connector-curvature="0" /></clipPath><clipPath
       clipPathUnits="userSpaceOnUse"
       id="clipPath14514"><path
         d="m 249.863,556.921 h 36.613 v -26.858 h -36.613 z"
         id="path14512"
         inkscape:connector-curvature="0" /></clipPath><clipPath
       clipPathUnits="userSpaceOnUse"
       id="clipPath14498"><path
         d="m 232.302,488.231 h 45.029 v -20.132 h -45.029 z"
         id="path14496"
         inkscape:connector-curvature="0" /></clipPath><clipPath
       clipPathUnits="userSpaceOnUse"
       id="clipPath14482"><path
         d="m 280.568,445.376 h 22.228 v -23.077 h -22.228 z"
         id="path14480"
         inkscape:connector-curvature="0" /></clipPath><clipPath
       clipPathUnits="userSpaceOnUse"
       id="clipPath14464"><path
         d="m 342.046,423.139 h 13.667 v -22.952 h -13.667 z"
         id="path14462"
         inkscape:connector-curvature="0" /></clipPath><clipPath
       clipPathUnits="userSpaceOnUse"
       id="clipPath14448"><path
         d="m 396.828,444.685 h 25.734 v -26.778 h -25.734 z"
         id="path14446"
         inkscape:connector-curvature="0" /></clipPath><clipPath
       clipPathUnits="userSpaceOnUse"
       id="clipPath14430"><path
         d="m 423.54,493.272 h 44.589 V 476.881 H 423.54 Z"
         id="path14428"
         inkscape:connector-curvature="0" /></clipPath><clipPath
       clipPathUnits="userSpaceOnUse"
       id="clipPath14414"><path
         d="m 412.908,552.69 h 32 v -19.615 h -32 z"
         id="path14412"
         inkscape:connector-curvature="0" /></clipPath><clipPath
       clipPathUnits="userSpaceOnUse"
       id="clipPath14398"><path
         d="m 371.834,610.56 h 22.778 v -44.724 h -22.778 z"
         id="path14396"
         inkscape:connector-curvature="0" /></clipPath><clipPath
       clipPathUnits="userSpaceOnUse"
       id="clipPath20272"><path
         d="M 0,792 H 612 V 0 H 0 Z"
         id="path20270"
         inkscape:connector-curvature="0" /></clipPath><clipPath
       clipPathUnits="userSpaceOnUse"
       id="clipPath20226"><path
         d="M 0,792 H 612 V 0 H 0 Z"
         id="path20224"
         inkscape:connector-curvature="0" /></clipPath><clipPath
       clipPathUnits="userSpaceOnUse"
       id="clipPath20192"><path
         d="M 0,792 H 612 V 0 H 0 Z"
         id="path20190"
         inkscape:connector-curvature="0" /></clipPath><clipPath
       clipPathUnits="userSpaceOnUse"
       id="clipPath20176"><path
         d="M 0,792 H 612 V 0 H 0 Z"
         id="path20174"
         inkscape:connector-curvature="0" /></clipPath><clipPath
       clipPathUnits="userSpaceOnUse"
       id="clipPath20148"><path
         d="M 0,792 H 612 V 0 H 0 Z"
         id="path20146"
         inkscape:connector-curvature="0" /></clipPath><clipPath
       clipPathUnits="userSpaceOnUse"
       id="clipPath20128"><path
         d="M 0,792 H 612 V 0 H 0 Z"
         id="path20126"
         inkscape:connector-curvature="0" /></clipPath></defs><sodipodi:namedview
     pagecolor="#ffffff"
     bordercolor="#666666"
     borderopacity="1"
     objecttolerance="10"
     gridtolerance="10"
     guidetolerance="10"
     inkscape:pageopacity="0"
     inkscape:pageshadow="2"
     inkscape:window-width="1296"
     inkscape:window-height="704"
     id="namedview989"
     showgrid="false"
     fit-margin-top="0"
     fit-margin-left="0"
     fit-margin-right="0"
     fit-margin-bottom="0"
     inkscape:zoom="0.89393939"
     inkscape:cx="143.41737"
     inkscape:cy="94.713172"
     inkscape:window-x="70"
     inkscape:window-y="27"
     inkscape:window-maximized="1"
     inkscape:current-layer="g995" /><g
     id="g995"
     inkscape:groupmode="layer"
     inkscape:label="1_2_METODOLOGÍAS"
     transform="matrix(1.3333333,0,0,-1.3333333,-777.05903,1216.8458)"><g
       transform="translate(389.86369,311.20724)"
       id="g20122"><g
         id="g20124"
         clip-path="url(#clipPath20128)"><g
           id="g20130"
           transform="translate(350.0695,568.8474)"><path
             d="m 0,0 c -17.613,0 -33.419,-7.756 -44.19,-20.038 l 1.149,-0.981 c 10.489,11.955 25.88,19.501 43.041,19.501 17.114,0 32.468,-7.508 42.955,-19.407 l 1.748,0.292 C 33.922,-8.009 17.894,0 0,0"
             style="fill:#a81c21;fill-opacity:1;fill-rule:nonzero;stroke:none"
             id="path20132"
             inkscape:connector-curvature="0" /></g><g
           id="g20134"
           transform="translate(300.8653,564.902)"><path
             d="m 0,0 c -3.338,0 -6.539,-1.327 -8.901,-3.686 -2.36,-2.361 -3.686,-5.562 -3.686,-8.901 0,-6.952 5.636,-12.589 12.587,-12.589 0.087,0.003 0.177,0.005 0.264,0.01 3.258,5.383 7.379,10.194 12.2,14.239 C 11.633,-4.679 6.305,-0.007 0,0"
             style="fill:#359c89;fill-opacity:1;fill-rule:nonzero;stroke:none"
             id="path20136"
             inkscape:connector-curvature="0" /></g></g></g><text
       y="-860.53918"
       x="685.78265"
       style="font-variant:normal;font-weight:normal;font-stretch:normal;font-size:13.97399998px;font-family:Raleway;-inkscape-font-specification:Raleway-Regular;writing-mode:lr-tb;fill:#ffffff;fill-opacity:1;fill-rule:nonzero;stroke:none;stroke-width:0.99999994"
       id="text20140"
       transform="scale(1,-1)"><tspan
         style="stroke-width:0.99999994"
         x="685.78265"
         y="-860.53918"
         id="tspan20138">1</tspan></text>
<g
       transform="translate(389.86369,311.20724)"
       id="g20142"><g
         id="g20144"
         clip-path="url(#clipPath20148)"><g
           id="g20150"
           transform="translate(394.7722,548.2139)"><path
             d="m 0,0 -0.586,-1.648 c 8.196,-9.903 13.123,-22.612 13.123,-36.478 0,-14.125 -5.116,-27.053 -13.594,-37.036 l 0.284,-1.769 0.111,-0.08 c 9.156,10.362 14.716,23.977 14.716,38.885 C 14.054,-23.577 8.761,-10.265 0,0"
             style="fill:#ee213f;fill-opacity:1;fill-rule:nonzero;stroke:none"
             id="path20152"
             inkscape:connector-curvature="0" /></g><g
           id="g20154"
           transform="translate(306.2886,473.2101)"><path
             d="M 0,0 H -0.005 L -1,-1.154 c 10.778,-12.679 26.842,-20.728 44.781,-20.728 17.497,0 33.211,7.66 43.977,19.801 l -1.092,1.046 C 76.178,-12.889 60.856,-20.362 43.781,-20.362 26.21,-20.362 10.499,-12.452 0,0"
             style="fill:#24544f;fill-opacity:1;fill-rule:nonzero;stroke:none"
             id="path20156"
             inkscape:connector-curvature="0" /></g><g
           id="g20158"
           transform="translate(305.8014,548.7217)"><path
             d="m 0,0 c -9.024,-10.331 -14.492,-23.844 -14.492,-38.634 0,-14.894 5.549,-28.495 14.688,-38.852 l 0.286,1.982 c -8.395,9.957 -13.456,22.82 -13.456,36.87 0,14.464 5.362,27.667 14.201,37.741 z"
             style="fill:#359c89;fill-opacity:1;fill-rule:nonzero;stroke:none"
             id="path20160"
             inkscape:connector-curvature="0" /></g><g
           id="g20162"
           transform="translate(300.8653,479.163)"><path
             d="m 0,0 c -3.338,0 -6.539,-1.327 -8.901,-3.686 -2.36,-2.361 -3.686,-5.562 -3.686,-8.901 0,-6.952 5.636,-12.589 12.587,-12.589 6.749,0.01 12.291,5.338 12.563,12.081 C 8.069,-9.362 4.175,-4.962 1.012,-0.05 0.676,-0.019 0.338,-0.002 0,0"
             style="fill:#24544f;fill-opacity:1;fill-rule:nonzero;stroke:none"
             id="path20164"
             inkscape:connector-curvature="0" /></g></g></g><text
       y="-773.13202"
       x="685.83539"
       style="font-variant:normal;font-weight:normal;font-stretch:normal;font-size:13.97399998px;font-family:Raleway;-inkscape-font-specification:Raleway-Regular;writing-mode:lr-tb;fill:#ffffff;fill-opacity:1;fill-rule:nonzero;stroke:none;stroke-width:0.99999994"
       id="text20168"
       transform="scale(1,-1)"><tspan
         style="stroke-width:0.99999994"
         x="685.83539"
         y="-773.13202"
         id="tspan20166">2</tspan></text>
<g
       transform="translate(389.86369,311.20724)"
       id="g20170"><g
         id="g20172"
         clip-path="url(#clipPath20176)"><g
           id="g20178"
           transform="translate(399.3512,479.163)"><path
             d="m 0,0 c -0.39,-0.002 -0.78,-0.024 -1.167,-0.064 -3.128,-4.858 -6.975,-9.215 -11.407,-12.922 0.214,-6.79 5.78,-12.185 12.574,-12.19 6.951,0 12.587,5.637 12.587,12.589 0,3.339 -1.326,6.54 -3.686,8.901 C 6.539,-1.327 3.338,0 0,0"
             style="fill:#ee213f;fill-opacity:1;fill-rule:nonzero;stroke:none"
             id="path20180"
             inkscape:connector-curvature="0" /></g></g></g><text
       y="-774.70331"
       x="785.68994"
       style="font-variant:normal;font-weight:normal;font-stretch:normal;font-size:13.97399998px;font-family:Raleway;-inkscape-font-specification:Raleway-Regular;writing-mode:lr-tb;fill:#ffffff;fill-opacity:1;fill-rule:nonzero;stroke:none;stroke-width:0.99999994"
       id="text20184"
       transform="scale(1,-1)"><tspan
         style="stroke-width:0.99999994"
         x="785.68994"
         y="-774.70331"
         id="tspan20182">3</tspan></text>
<g
       transform="translate(389.86369,311.20724)"
       id="g20186"><g
         id="g20188"
         clip-path="url(#clipPath20192)"><g
           id="g20194"
           transform="translate(399.3512,564.902)"><path
             d="m 0,0 c -6.307,-0.005 -11.633,-4.679 -12.466,-10.93 4.797,-4.047 8.896,-8.853 12.135,-14.229 0.109,-0.007 0.22,-0.012 0.331,-0.017 6.951,0 12.587,5.637 12.587,12.589 0,3.339 -1.326,6.54 -3.686,8.901 C 6.539,-1.327 3.338,0 0,0"
             style="fill:#a81c21;fill-opacity:1;fill-rule:nonzero;stroke:none"
             id="path20196"
             inkscape:connector-curvature="0" /></g></g></g><text
       y="-861.68079"
       x="785.37152"
       style="font-variant:normal;font-weight:normal;font-stretch:normal;font-size:13.97399998px;font-family:Raleway;-inkscape-font-specification:Raleway-Regular;writing-mode:lr-tb;fill:#ffffff;fill-opacity:1;fill-rule:nonzero;stroke:none;stroke-width:0.99999994"
       id="text20200"
       transform="scale(1,-1)"><tspan
         style="stroke-width:0.99999994"
         x="785.37152"
         y="-861.68079"
         id="tspan20198">4</tspan></text>
<text
       y="-860.49329"
       x="632.67517"
       style="font-variant:normal;font-weight:normal;font-stretch:normal;font-size:9.41819954px;font-family:Raleway;-inkscape-font-specification:Raleway-Regular;writing-mode:lr-tb;fill:#28292a;fill-opacity:1;fill-rule:nonzero;stroke:none;stroke-width:0.99999994"
       id="text20204"
       transform="scale(1,-1)"><tspan
         style="stroke-width:0.99999994"
         x="632.67517 639.40918"
         y="-860.49329"
         sodipodi:role="line"
         id="tspan20202">De</tspan></text>
<text
       y="-860.49329"
       x="644.89056"
       style="font-variant:normal;font-weight:normal;font-stretch:normal;font-size:9.41819954px;font-family:Raleway;-inkscape-font-specification:Raleway-Regular;writing-mode:lr-tb;fill:#28292a;fill-opacity:1;fill-rule:nonzero;stroke:none;stroke-width:0.99999994"
       id="text20208"
       transform="scale(1,-1)"><tspan
         style="stroke-width:0.99999994"
         x="644.89056"
         y="-860.49329"
         id="tspan20206">ﬁ</tspan></text>
<text
       y="-860.49329"
       x="649.63733"
       style="font-variant:normal;font-weight:normal;font-stretch:normal;font-size:9.41819954px;font-family:Raleway;-inkscape-font-specification:Raleway-Regular;writing-mode:lr-tb;fill:#28292a;fill-opacity:1;fill-rule:nonzero;stroke:none;stroke-width:0.99999994"
       id="text20218"
       transform="scale(1,-1)"><tspan
         style="stroke-width:0.99999994"
         x="649.63733 655.12823 657.1814 662.35199 664.40515 670.03723"
         y="-860.49329"
         sodipodi:role="line"
         id="tspan20210">nición</tspan><tspan
         style="stroke-width:0.99999994"
         x="642.87506 649.24176 654.73267 659.86554 662.42731 664.48047 669.06714 671.1203"
         y="-772.87579"
         sodipodi:role="line"
         id="tspan20212">Análisis</tspan><tspan
         style="stroke-width:0.99999994"
         x="804.53857 809.9917 814.89856 820.03149 822.59326 828.18762 833.32056 838.49115 840.54431 846.14813"
         y="-773.3844"
         sodipodi:role="line"
         id="tspan20214">Evaluación</tspan><tspan
         style="stroke-width:0.99999994"
         x="804.28424 806.61993 812.06366 815.10577 820.63428 823.94006 829.7511 832.84967 838.35931 841.5144 846.64734 851.81787 853.87109 859.47491"
         y="-860.74762"
         sodipodi:role="line"
         id="tspan20216">Interpretación</tspan></text>
<g
       transform="translate(389.86369,311.20724)"
       id="g20220"><g
         id="g20222"
         clip-path="url(#clipPath20226)"><g
           id="g20228"
           transform="translate(289.9806,547.4761)"><path
             d="m 0,0 h -90.129 c 0,0 -6.473,-1.014 -6.473,6.475 v 47.476"
             style="fill:none;stroke:#359c89;stroke-width:0.89600003;stroke-linecap:butt;stroke-linejoin:miter;stroke-miterlimit:4;stroke-dasharray:none;stroke-opacity:1"
             id="path20230"
             inkscape:connector-curvature="0" /></g><g
           id="g20232"
           transform="translate(408.2145,547.4761)"><path
             d="m 0,0 h 90.129 c 0,0 6.473,-1.014 6.473,6.475 v 47.476"
             style="fill:none;stroke:#a81c21;stroke-width:0.60500002;stroke-linecap:butt;stroke-linejoin:miter;stroke-miterlimit:4;stroke-dasharray:none;stroke-opacity:1"
             id="path20234"
             inkscape:connector-curvature="0" /></g><g
           id="g20236"
           transform="translate(289.9806,470.4298)"><path
             d="m 0,0 h -90.129 c 0,0 -6.473,1.017 -6.473,-6.473 v -54.585"
             style="fill:none;stroke:#24544f;stroke-width:0.89600003;stroke-linecap:butt;stroke-linejoin:miter;stroke-miterlimit:4;stroke-dasharray:none;stroke-opacity:1"
             id="path20238"
             inkscape:connector-curvature="0" /></g><g
           id="g20240"
           transform="translate(408.2145,470.4298)"><path
             d="m 0,0 h 90.129 c 0,0 6.473,1.017 6.473,-6.473 v -54.585"
             style="fill:none;stroke:#ee213f;stroke-width:0.89600003;stroke-linecap:butt;stroke-linejoin:miter;stroke-miterlimit:4;stroke-dasharray:none;stroke-opacity:1"
             id="path20242"
             inkscape:connector-curvature="0" /></g></g></g><text
       y="-824.50702"
       x="730.61273"
       style="font-variant:normal;font-weight:normal;font-stretch:normal;font-size:9.41819954px;font-family:Raleway;-inkscape-font-specification:Raleway-Regular;writing-mode:lr-tb;fill:#28292a;fill-opacity:1;fill-rule:nonzero;stroke:none;stroke-width:0.99999994"
       id="text20248"
       transform="scale(1,-1)"><tspan
         style="stroke-width:0.99999994"
         x="730.61273 736.73456 743.09186"
         y="-824.50702"
         sodipodi:role="line"
         id="tspan20244">ACV</tspan><tspan
         style="stroke-width:0.99999994"
         x="712.56744 720.76129 726.27094 729.31299 734.91681 740.77496 746.37878 748.94055 754.54437 760.36481 762.41797"
         y="-812.73425"
         sodipodi:role="line"
         id="tspan20246">Metodología</tspan></text>
<text
       y="-832.7052"
       x="648.01697"
       style="font-variant:normal;font-weight:normal;font-stretch:normal;font-size:6.05210018px;font-family:Raleway;-inkscape-font-specification:Raleway-Regular;writing-mode:lr-tb;fill:#28292a;fill-opacity:1;fill-rule:nonzero;stroke:none;stroke-width:0.99999994"
       id="text20264"
       transform="scale(1,-1)"><tspan
         style="stroke-width:0.99999994"
         x="648.01697 652.51971 656.21155 657.53094 661.04114 663.02625 664.30322 667.48663 671.04529"
         y="-832.7052"
         sodipodi:role="line"
         id="tspan20250">Objetivos</tspan><tspan
         style="stroke-width:0.99999994"
         x="651.34564 655.39453 656.99835 660.27856 663.53461 667.02063 670.30084"
         y="-806.83246"
         sodipodi:role="line"
         id="tspan20252">Alcance</tspan><tspan
         style="stroke-width:0.99999994"
         x="696.68799 698.14655 701.63257 704.81598 708.32617 711.81219 713.7973 717.05334 719.13525 720.41223 756.43433 760.06561 763.32166 764.92542 766.20245 769.92444 773.18048"
         y="-754.79047"
         sodipodi:role="line"
         id="tspan20254">InventarioSalidas</tspan><tspan
         style="stroke-width:0.99999994"
         x="803.12628 807.55042 811.06061 813.14252 815.22443 818.48047 824 825.27698 828.78717 832.27319 834.2583 837.51434 839.01526 842.7373"
         y="-806.83246"
         sodipodi:role="line"
         id="tspan20256">Herramienta de</tspan><tspan
         style="stroke-width:0.99999994"
         x="803.12628 808.64581 812.15607 815.87805 817.15509 820.4353 821.71228 825.27094"
         y="-799.56995"
         sodipodi:role="line"
         id="tspan20258">medición</tspan><tspan
         style="stroke-width:0.99999994"
         x="753.65039 757.56 761.07025 763.97528 767.52783 769.13165 771.11676 774.37274 778.09479 781.65344 675.53589 679.44556 682.95581 684.94092 687.02283 690.58142 693.83746 695.44128 696.71826 702.23779 705.74799 709.23401 711.21912 714.4751 717.75537 719.03235 722.591"
         y="-885.6369"
         sodipodi:role="line"
         id="tspan20260">ResultadosRetroalimentación</tspan><tspan
         style="stroke-width:0.99999994"
         x="803.12628 808.3916 811.90186 815.6239 816.90088 820.18109 821.45813 825.01672 828.50275 830.00366 833.72571 837.2359 838.83972 840.34064 841.61768 847.13715 850.82892 854.08496 857.36523 859.35028"
         y="-832.7052"
         sodipodi:role="line"
         id="tspan20262">Medición del impacto</tspan></text>
<g
       transform="translate(389.86369,311.20724)"
       id="g20266"><g
         id="g20268"
         clip-path="url(#clipPath20272)"><g
           id="g20274"
           transform="translate(297.1405,522.9744)"><path
             d="m 0,0 c 0,-2.275 -1.844,-4.119 -4.119,-4.119 -2.275,0 -4.119,1.844 -4.119,4.119 0,2.275 1.844,4.119 4.119,4.119 C -1.844,4.119 0,2.275 0,0"
             style="fill:#359c89;fill-opacity:1;fill-rule:nonzero;stroke:none"
             id="path20276"
             inkscape:connector-curvature="0" /></g><g
           id="g20278"
           transform="translate(297.1405,497.4067)"><path
             d="m 0,0 c 0,-2.275 -1.844,-4.119 -4.119,-4.119 -2.275,0 -4.119,1.844 -4.119,4.119 0,2.275 1.844,4.119 4.119,4.119 C -1.844,4.119 0,2.275 0,0"
             style="fill:#359c89;fill-opacity:1;fill-rule:nonzero;stroke:none"
             id="path20280"
             inkscape:connector-curvature="0" /></g><g
           id="g20282"
           transform="translate(410.8214,522.9744)"><path
             d="m 0,0 c 0,-2.275 -1.844,-4.119 -4.119,-4.119 -2.275,0 -4.119,1.844 -4.119,4.119 0,2.275 1.844,4.119 4.119,4.119 C -1.844,4.119 0,2.275 0,0"
             style="fill:#ee213f;fill-opacity:1;fill-rule:nonzero;stroke:none"
             id="path20284"
             inkscape:connector-curvature="0" /></g><g
           id="g20286"
           transform="translate(410.8214,497.4067)"><path
             d="m 0,0 c 0,-2.275 -1.844,-4.119 -4.119,-4.119 -2.275,0 -4.119,1.844 -4.119,4.119 0,2.275 1.844,4.119 4.119,4.119 C -1.844,4.119 0,2.275 0,0"
             style="fill:#ee213f;fill-opacity:1;fill-rule:nonzero;stroke:none"
             id="path20288"
             inkscape:connector-curvature="0" /></g><g
           id="g20290"
           transform="translate(338.6358,454.3605)"><path
             d="m 0,0 c 0,-2.275 -1.844,-4.119 -4.119,-4.119 -2.275,0 -4.119,1.844 -4.119,4.119 0,2.275 1.844,4.119 4.119,4.119 C -1.844,4.119 0,2.275 0,0"
             style="fill:#24544f;fill-opacity:1;fill-rule:nonzero;stroke:none"
             id="path20292"
             inkscape:connector-curvature="0" /></g><g
           id="g20294"
           transform="translate(370.692,454.3605)"><path
             d="m 0,0 c 0,-2.275 -1.844,-4.119 -4.119,-4.119 -2.275,0 -4.119,1.844 -4.119,4.119 0,2.275 1.844,4.119 4.119,4.119 C -1.844,4.119 0,2.275 0,0"
             style="fill:#24544f;fill-opacity:1;fill-rule:nonzero;stroke:none"
             id="path20296"
             inkscape:connector-curvature="0" /></g><g
           id="g20298"
           transform="translate(338.6358,567.0895)"><path
             d="m 0,0 c 0,-2.275 -1.844,-4.119 -4.119,-4.119 -2.275,0 -4.119,1.844 -4.119,4.119 0,2.275 1.844,4.119 4.119,4.119 C -1.844,4.119 0,2.275 0,0"
             style="fill:#a81c21;fill-opacity:1;fill-rule:nonzero;stroke:none"
             id="path20300"
             inkscape:connector-curvature="0" /></g><g
           id="g20302"
           transform="translate(370.692,567.0895)"><path
             d="m 0,0 c 0,-2.275 -1.844,-4.119 -4.119,-4.119 -2.275,0 -4.119,1.844 -4.119,4.119 0,2.275 1.844,4.119 4.119,4.119 C -1.844,4.119 0,2.275 0,0"
             style="fill:#a81c21;fill-opacity:1;fill-rule:nonzero;stroke:none"
             id="path20304"
             inkscape:connector-curvature="0" /></g></g></g><text
       y="-747.74921"
       x="587.81189"
       style="font-variant:normal;font-weight:normal;font-stretch:normal;font-size:7.02059984px;font-family:Raleway;-inkscape-font-specification:Raleway-Regular;writing-mode:lr-tb;fill:#393536;fill-opacity:1;fill-rule:nonzero;stroke:none;stroke-width:0.99999994"
       id="text20314"
       transform="scale(1,-1)"><tspan
         style="stroke-width:0.99999994"
         x="587.81189 592.29028 596.41138 600.23761 602.14722 603.67773 607.13184 610.95807 612.74835 616.91858 621.0116 622.80182 624.33234 628.34106 631.9574 636.07849 640.13641 642.48828 646.31451 648.77875 650.30927 654.48657 656.27679 660.64362 664.76471"
         y="-747.74921"
         sodipodi:role="line"
         id="tspan20306">Realiza un inventario de</tspan><tspan
         style="stroke-width:0.99999994"
         x="587.81189 594.26379 598.06195 600.32257 604.44366 606.9079 608.43842 612.26459 614.17419 618.29529 621.71436 623.29401 625.08423 628.50323 632.67352 634.46375 638.64099 641.10522 642.63574 646.97449 651.09552 655.1886 656.78229 660.39722"
         y="-739.32452"
         sodipodi:role="line"
         id="tspan20308">materiales, su origen y</tspan><tspan
         style="stroke-width:0.99999994"
         x="587.81189 590.16376 592.57812 596.40436 600.49738 603.91644 606.04999 610.22723 612.69147 619.14337 622.9696 626.82391 628.35443 632.53168 636.62469 638.41492 642.23413 646.41144 650.50439 652.29468 655.71375 659.88397 663.30304"
         y="-730.89978"
         sodipodi:role="line"
         id="tspan20310">transformación con sus</tspan><tspan
         style="stroke-width:0.99999994"
         x="587.81189 591.2309 595.05713 596.96674 598.49719 602.86401 606.69025 610.10931 611.89954 615.71875 619.896 622.36023 624.64124 628.76233 632.18134 636.51306 640.69031 644.78333 649.15015 650.6806 654.80176 658.85901 661.11963 665.24072 668.65973"
         y="-722.47504"
         sodipodi:role="line"
         id="tspan20312">salidas correspondientes.</tspan></text>
<text
       y="-906.61841"
       x="587.81189"
       style="font-variant:normal;font-weight:normal;font-stretch:normal;font-size:7.02059984px;font-family:Raleway;-inkscape-font-specification:Raleway-Regular;writing-mode:lr-tb;fill:#393536;fill-opacity:1;fill-rule:nonzero;stroke:none;stroke-width:0.99999994"
       id="text20318"
       transform="scale(1,-1)"><tspan
         style="stroke-width:0.99999994"
         x="587.81189 592.8316 596.9176 600.45599 604.54895 608.67004 610.46033 614.58142 616.27338 618.06366 622.24091 626.57257 628.15222 632.24591 634.59784 636.12836 639.74396 643.9212 645.51489 649.13049 650.92072 654.74701 656.65662 660.51093 664.33716 668.43018 672.24939 676.37048"
         y="-906.61841"
         sodipodi:role="line"
         id="tspan20316">Deﬁne el objetivo y alcance</tspan></text>
<text
       y="-898.19373"
       x="587.81189"
       style="font-variant:normal;font-weight:normal;font-stretch:normal;font-size:7.02059984px;font-family:Raleway;-inkscape-font-specification:Raleway-Regular;writing-mode:lr-tb;fill:#393536;fill-opacity:1;fill-rule:nonzero;stroke:none;stroke-width:0.99999994"
       id="text20344"
       transform="scale(1,-1)"><tspan
         style="stroke-width:0.99999994"
         x="587.81189 592.17865 596.29974 598.09003 599.99963 603.82587 605.61609 612.06805 616.18915 620.55597 622.08643 625.94073 627.47125 631.6485 635.74152 637.53174 641.89856 646.01965 647.71094 649.50116 653.83295 656.11395 660.16479 663.84363 667.96472 671.81903 674.07898 678.25623"
         y="-898.19373"
         sodipodi:role="line"
         id="tspan20320">de la medición del proyecto</tspan><tspan
         style="stroke-width:0.99999994"
         x="587.81189 592.17865 596.29974 598.09003 602.45685 603.9873 607.40637 611.52747 615.62048 619.79773"
         y="-889.76892"
         sodipodi:role="line"
         id="tspan20322">de diseño.</tspan><tspan
         style="stroke-width:0.99999994"
         x="811.36188 813.10297 817.16089 819.42151 823.5426 826.00684 830.33856 832.61957 836.71259 839.06445 842.89069 844.68097 846.59058 850.76776 854.18683 855.97711 858.25806 862.37915 865.79816 869.96844 871.87799 874.22992 878.05615 882.42297 886.60022 890.01929"
         y="-907.4679"
         sodipodi:role="line"
         id="tspan20324">Interpreta los resultados</tspan><tspan
         style="stroke-width:0.99999994"
         x="803.58307 807.40228 811.57953 818.03143 822.20868 823.80939 827.46082 831.28705 833.19666 837.3739 839.65558 843.77667 847.19574 848.98523 852.8396 857.00983 860.836 864.89325 867.24518 868.77563 871.12756 874.92572 877.27759 878.80811 882.42438 886.60162 890.02063"
         y="-899.04321"
         sodipodi:role="line"
         id="tspan20326">como valores cuantitativos</tspan><tspan
         style="stroke-width:0.99999994"
         x="836.70624 841.03796 844.8642 847.27924 851.10547 852.89575 855.17676 859.29785 863.12408 865.03369 866.56415 870.01831 873.84454 876.14026 877.93048 882.10077 886.19373 890.01996"
         y="-890.61841"
         sodipodi:role="line"
         id="tspan20328">para realizar una</tspan><tspan
         style="stroke-width:0.99999994"
         x="815.49701 817.77802 821.87097 824.2229 826.50458 830.68182 834.50812 836.41766 837.94818 844.40009 848.52124 852.57843 854.9303 858.75653 862.61084 864.14136 868.3186 872.41156 874.20184 878.32294 882.41595 884.20624 888.32727 890.01855"
         y="-882.19373"
         sodipodi:role="line"
         id="tspan20330">retroalimentación en el</tspan><tspan
         style="stroke-width:0.99999994"
         x="866.98608 871.35291 872.88342 876.30243 880.42352 884.51648 888.69379"
         y="-873.76898"
         sodipodi:role="line"
         id="tspan20332">diseño.</tspan><tspan
         style="stroke-width:0.99999994"
         x="800.96436 805.02228 808.67297 812.49921 814.40881 818.57904 822.40527 824.1955 828.04987 832.22009 836.04626 840.10352 842.45538 843.9859 846.33783 850.13525 852.48712 854.01764 857.66901 861.4953 867.9472 872.0683 876.12549 878.38611 882.50726 884.29749 888.41858 890.1098"
         y="-756.13879"
         sodipodi:role="line"
         id="tspan20334">Evalúa cuantitativamente el</tspan><tspan
         style="stroke-width:0.99999994"
         x="812.02179 813.55231 817.56104 821.17596 825.29706 829.35565 831.70758 835.53381 837.99799 839.5285 843.70575 845.49603 851.948 856.06903 860.43585 861.96631 865.7926 869.85046 872.10974 876.23077 878.02106 882.19128 886.2843 890.11053"
         y="-747.71411"
         sodipodi:role="line"
         id="tspan20336">inventario mediante una</tspan><tspan
         style="stroke-width:0.99999994"
         x="807.07928 811.1723 815.2934 817.75763 820.17273 823.99896 830.45087 831.98138 836.10248 840.15967 842.51154 846.33783 848.12805 852.49487 856.61597 858.40619 864.85809 868.97925 873.34607 874.87653 878.73083 880.26129 884.4386 888.53162 890.11127"
         y="-739.28937"
         sodipodi:role="line"
         id="tspan20338">herramienta de medición,</tspan><tspan
         style="stroke-width:0.99999994"
         x="800.12189 804.46063 808.58173 812.67468 816.79584 819.21088 823.03711 827.13013 831.49695 835.67419 837.46448 841.6347 845.72772 847.51794 849.79895 853.92004 857.33905 861.50928 863.41888 865.77081 869.59705 873.96387 878.14111 879.93134 884.29822 888.41931 890.11053"
         y="-730.86469"
         sodipodi:role="line"
         id="tspan20340">generando un resultado del</tspan><tspan
         style="stroke-width:0.99999994"
         x="828.15515 829.68567 836.13757 840.4693 844.29553 848.14984 850.41046 854.58771 856.37793 860.20422 866.65613 870.98785 872.51831 876.6394 880.69727 883.04926 886.87543 888.78503"
         y="-722.43994"
         sodipodi:role="line"
         id="tspan20342">impacto ambiental.</tspan></text>
</g></svg>