<?xml version="1.0" encoding="UTF-8" standalone="no"?>
<!-- Created with Inkscape (http://www.inkscape.org/) -->

<svg
   xmlns:dc="http://purl.org/dc/elements/1.1/"
   xmlns:cc="http://creativecommons.org/ns#"
   xmlns:rdf="http://www.w3.org/1999/02/22-rdf-syntax-ns#"
   xmlns:svg="http://www.w3.org/2000/svg"
   xmlns="http://www.w3.org/2000/svg"
   xmlns:sodipodi="http://sodipodi.sourceforge.net/DTD/sodipodi-0.dtd"
   xmlns:inkscape="http://www.inkscape.org/namespaces/inkscape"
   version="1.1"
   id="svg987"
   xml:space="preserve"
   width="526.69202"
   height="272.9559"
   viewBox="0 0 526.69202 272.95591"
   sodipodi:docname="c2c-method.svg"
   inkscape:version="0.92.3 (2405546, 2018-03-11)"><metadata
     id="metadata993"><rdf:RDF><cc:Work
         rdf:about=""><dc:format>image/svg+xml</dc:format><dc:type
           rdf:resource="http://purl.org/dc/dcmitype/StillImage" /><dc:title></dc:title></cc:Work></rdf:RDF></metadata><defs
     id="defs991"><clipPath
       clipPathUnits="userSpaceOnUse"
       id="clipPath1015"><path
         d="M 0,792 H 612 V 0 H 0 Z"
         id="path1013"
         inkscape:connector-curvature="0" /></clipPath><clipPath
       clipPathUnits="userSpaceOnUse"
       id="clipPath1083"><path
         d="M 0,792 H 612 V 0 H 0 Z"
         id="path1081"
         inkscape:connector-curvature="0" /></clipPath><clipPath
       clipPathUnits="userSpaceOnUse"
       id="clipPath1103"><path
         d="M 0,792 H 612 V 0 H 0 Z"
         id="path1101"
         inkscape:connector-curvature="0" /></clipPath><clipPath
       clipPathUnits="userSpaceOnUse"
       id="clipPath1121"><path
         d="M 0,792 H 612 V 0 H 0 Z"
         id="path1119"
         inkscape:connector-curvature="0" /></clipPath><clipPath
       clipPathUnits="userSpaceOnUse"
       id="clipPath1157"><path
         d="M 0,792 H 612 V 0 H 0 Z"
         id="path1155"
         inkscape:connector-curvature="0" /></clipPath><clipPath
       clipPathUnits="userSpaceOnUse"
       id="clipPath1177"><path
         d="M 0,792 H 612 V 0 H 0 Z"
         id="path1175"
         inkscape:connector-curvature="0" /></clipPath><clipPath
       clipPathUnits="userSpaceOnUse"
       id="clipPath1199"><path
         d="M 0,792 H 612 V 0 H 0 Z"
         id="path1197"
         inkscape:connector-curvature="0" /></clipPath><clipPath
       clipPathUnits="userSpaceOnUse"
       id="clipPath1227"><path
         d="M 0,792 H 612 V 0 H 0 Z"
         id="path1225"
         inkscape:connector-curvature="0" /></clipPath><clipPath
       clipPathUnits="userSpaceOnUse"
       id="clipPath1249"><path
         d="M 0,792 H 612 V 0 H 0 Z"
         id="path1247"
         inkscape:connector-curvature="0" /></clipPath><clipPath
       clipPathUnits="userSpaceOnUse"
       id="clipPath1277"><path
         d="M 0,792 H 612 V 0 H 0 Z"
         id="path1275"
         inkscape:connector-curvature="0" /></clipPath><clipPath
       clipPathUnits="userSpaceOnUse"
       id="clipPath1301"><path
         d="M 0,792 H 612 V 0 H 0 Z"
         id="path1299"
         inkscape:connector-curvature="0" /></clipPath><clipPath
       clipPathUnits="userSpaceOnUse"
       id="clipPath1321"><path
         d="M 0,792 H 612 V 0 H 0 Z"
         id="path1319"
         inkscape:connector-curvature="0" /></clipPath><clipPath
       clipPathUnits="userSpaceOnUse"
       id="clipPath1351"><path
         d="M 0,792 H 612 V 0 H 0 Z"
         id="path1349"
         inkscape:connector-curvature="0" /></clipPath><clipPath
       clipPathUnits="userSpaceOnUse"
       id="clipPath1371"><path
         d="M 0,792 H 612 V 0 H 0 Z"
         id="path1369"
         inkscape:connector-curvature="0" /></clipPath><clipPath
       clipPathUnits="userSpaceOnUse"
       id="clipPath1391"><path
         d="M 0,792 H 612 V 0 H 0 Z"
         id="path1389"
         inkscape:connector-curvature="0" /></clipPath><clipPath
       clipPathUnits="userSpaceOnUse"
       id="clipPath1411"><path
         d="M 0,792 H 612 V 0 H 0 Z"
         id="path1409"
         inkscape:connector-curvature="0" /></clipPath><clipPath
       clipPathUnits="userSpaceOnUse"
       id="clipPath1469"><path
         d="M 0,792 H 612 V 0 H 0 Z"
         id="path1467"
         inkscape:connector-curvature="0" /></clipPath><clipPath
       clipPathUnits="userSpaceOnUse"
       id="clipPath1529"><path
         d="M 0,792 H 612 V 0 H 0 Z"
         id="path1527"
         inkscape:connector-curvature="0" /></clipPath><clipPath
       clipPathUnits="userSpaceOnUse"
       id="clipPath1541"><path
         d="m 497.282,66.173 h 38.14 v 38.268 h -38.14 z"
         id="path1539"
         inkscape:connector-curvature="0" /></clipPath><clipPath
       clipPathUnits="userSpaceOnUse"
       id="clipPath1549"><path
         d="m 490.986,103.566 h 50.961 V 67.1649 h -50.961 z"
         id="path1547"
         inkscape:connector-curvature="0" /></clipPath><clipPath
       clipPathUnits="userSpaceOnUse"
       id="clipPath1733"><path
         d="M 0,792 H 612 V 0 H 0 Z"
         id="path1731"
         inkscape:connector-curvature="0" /></clipPath><clipPath
       clipPathUnits="userSpaceOnUse"
       id="clipPath1785"><path
         d="M 0,792 H 612 V 0 H 0 Z"
         id="path1783"
         inkscape:connector-curvature="0" /></clipPath><clipPath
       clipPathUnits="userSpaceOnUse"
       id="clipPath3184"><path
         d="M 0,792 H 612 V 0 H 0 Z"
         id="path3182"
         inkscape:connector-curvature="0" /></clipPath><clipPath
       clipPathUnits="userSpaceOnUse"
       id="clipPath3170"><path
         d="M 0,792 H 612 V 0 H 0 Z"
         id="path3168"
         inkscape:connector-curvature="0" /></clipPath><clipPath
       clipPathUnits="userSpaceOnUse"
       id="clipPath3100"><path
         d="M 0,792 H 612 V 0 H 0 Z"
         id="path3098"
         inkscape:connector-curvature="0" /></clipPath><clipPath
       clipPathUnits="userSpaceOnUse"
       id="clipPath3078"><path
         d="M 0,792 H 612 V 0 H 0 Z"
         id="path3076"
         inkscape:connector-curvature="0" /></clipPath><clipPath
       clipPathUnits="userSpaceOnUse"
       id="clipPath2958"><path
         d="M 0,792 H 612 V 0 H 0 Z"
         id="path2956"
         inkscape:connector-curvature="0" /></clipPath><clipPath
       clipPathUnits="userSpaceOnUse"
       id="clipPath2944"><path
         d="M 0,792 H 612 V 0 H 0 Z"
         id="path2942"
         inkscape:connector-curvature="0" /></clipPath><clipPath
       clipPathUnits="userSpaceOnUse"
       id="clipPath2928"><path
         d="M 0,792 H 612 V 0 H 0 Z"
         id="path2926"
         inkscape:connector-curvature="0" /></clipPath><clipPath
       clipPathUnits="userSpaceOnUse"
       id="clipPath2912"><path
         d="M 0,792 H 612 V 0 H 0 Z"
         id="path2910"
         inkscape:connector-curvature="0" /></clipPath><clipPath
       clipPathUnits="userSpaceOnUse"
       id="clipPath2852"><path
         d="M 0,792 H 612 V 0 H 0 Z"
         id="path2850"
         inkscape:connector-curvature="0" /></clipPath><clipPath
       clipPathUnits="userSpaceOnUse"
       id="clipPath2838"><path
         d="M 0,792 H 612 V 0 H 0 Z"
         id="path2836"
         inkscape:connector-curvature="0" /></clipPath><clipPath
       clipPathUnits="userSpaceOnUse"
       id="clipPath2824"><path
         d="M 0,792 H 612 V 0 H 0 Z"
         id="path2822"
         inkscape:connector-curvature="0" /></clipPath><clipPath
       clipPathUnits="userSpaceOnUse"
       id="clipPath2810"><path
         d="M 0,792 H 612 V 0 H 0 Z"
         id="path2808"
         inkscape:connector-curvature="0" /></clipPath><clipPath
       clipPathUnits="userSpaceOnUse"
       id="clipPath2796"><path
         d="M 0,792 H 612 V 0 H 0 Z"
         id="path2794"
         inkscape:connector-curvature="0" /></clipPath><clipPath
       clipPathUnits="userSpaceOnUse"
       id="clipPath2754"><path
         d="M 0,792 H 612 V 0 H 0 Z"
         id="path2752"
         inkscape:connector-curvature="0" /></clipPath></defs><sodipodi:namedview
     pagecolor="#ffffff"
     bordercolor="#666666"
     borderopacity="1"
     objecttolerance="10"
     gridtolerance="10"
     guidetolerance="10"
     inkscape:pageopacity="0"
     inkscape:pageshadow="2"
     inkscape:window-width="1296"
     inkscape:window-height="704"
     id="namedview989"
     showgrid="false"
     fit-margin-top="0"
     fit-margin-left="0"
     fit-margin-right="0"
     fit-margin-bottom="0"
     inkscape:zoom="0.89393939"
     inkscape:cx="253.76343"
     inkscape:cy="201.24323"
     inkscape:window-x="70"
     inkscape:window-y="27"
     inkscape:window-maximized="1"
     inkscape:current-layer="g995" /><g
     id="g995"
     inkscape:groupmode="layer"
     inkscape:label="1_2_METODOLOGÍAS"
     transform="matrix(1.3333333,0,0,-1.3333333,-150.45657,780.4182)"><g
       id="g2756"
       transform="translate(308.78013,479.86266)"><path
         d="m 0,0 c 0,-49.787 -40.36,-90.147 -90.147,-90.147 -49.787,0 -90.148,40.36 -90.148,90.147 0,49.787 40.361,90.147 90.148,90.147 C -40.36,90.147 0,49.787 0,0 Z"
         style="fill:none;stroke:#359c89;stroke-width:3;stroke-linecap:butt;stroke-linejoin:miter;stroke-miterlimit:10;stroke-dasharray:5.994, 2.997;stroke-dashoffset:0;stroke-opacity:1"
         id="path2758"
         inkscape:connector-curvature="0" /></g><g
       id="g2760"
       transform="translate(489.07473,479.86266)"><path
         d="m 0,0 c 0,-49.787 -40.36,-90.147 -90.147,-90.147 -49.787,0 -90.148,40.36 -90.148,90.147 0,49.787 40.361,90.147 90.148,90.147 C -40.36,90.147 0,49.787 0,0 Z"
         style="fill:none;stroke:#ee213f;stroke-width:3;stroke-linecap:butt;stroke-linejoin:miter;stroke-miterlimit:10;stroke-dasharray:5.994, 2.997;stroke-dashoffset:0;stroke-opacity:1"
         id="path2762"
         inkscape:connector-curvature="0" /></g><path
       d="m 161.65443,502.08966 h -48.812 v 31.594 h 48.812 z"
       style="fill:#ffffff;fill-opacity:1;fill-rule:nonzero;stroke:none"
       id="path2764"
       inkscape:connector-curvature="0" /><g
       id="g2766"
       transform="translate(142.86383,527.54766)"><path
         d="m 0,0 c -0.184,1.275 -0.797,2.447 -1.749,3.334 -1.053,0.981 -2.426,1.522 -3.866,1.522 -1.44,0 -2.813,-0.541 -3.867,-1.522 -0.952,-0.887 -1.564,-2.059 -1.749,-3.334 -2.051,-0.896 -3.404,-2.939 -3.404,-5.201 0,-3.129 2.545,-5.674 5.674,-5.674 0.964,0 1.904,0.245 2.736,0.703 v -5.782 h 1.219 v 5.782 c 0.832,-0.458 1.772,-0.703 2.736,-0.703 3.129,0 5.674,2.545 5.674,5.674 C 3.404,-2.939 2.051,-0.896 0,0 m -2.27,-9.656 c -0.994,0 -1.956,0.332 -2.736,0.94 v 3.729 l 2.735,1.437 -0.568,1.08 -2.167,-1.14 v 2.4 h -1.219 v -5.102 l -2.167,1.139 -0.567,-1.079 2.734,-1.438 v -1.026 c -0.78,-0.608 -1.741,-0.94 -2.736,-0.94 -2.456,0 -4.455,1.998 -4.455,4.455 0,1.878 1.188,3.564 2.956,4.196 l 0.373,0.133 0.03,0.395 c 0.084,1.116 0.584,2.153 1.406,2.919 0.827,0.77 1.905,1.194 3.036,1.194 1.13,0 2.208,-0.424 3.035,-1.194 0.823,-0.766 1.322,-1.803 1.407,-2.919 l 0.029,-0.395 0.373,-0.133 c 1.768,-0.632 2.956,-2.318 2.956,-4.196 0,-2.457 -1.998,-4.455 -4.455,-4.455"
         style="fill:#359c89;fill-opacity:1;fill-rule:nonzero;stroke:none"
         id="path2768"
         inkscape:connector-curvature="0" /></g><text
       y="-506.30844"
       x="125.22634"
       style="font-variant:normal;font-weight:600;font-stretch:normal;font-size:5.37909985px;font-family:'Raleway SemiBold';-inkscape-font-specification:Raleway-SemiBold;writing-mode:lr-tb;fill:#359c89;fill-opacity:1;fill-rule:nonzero;stroke:none;stroke-width:0.99999994"
       id="text2772"
       transform="scale(1,-1)"><tspan
         style="stroke-width:0.99999994"
         x="125.22634 128.5775 131.71889 135.34978 139.47557 142.412 145.98427"
         y="-506.30844"
         sodipodi:role="line"
         id="tspan2770">PLANTAS</tspan></text>
<path
       inkscape:connector-curvature="0"
       id="path4754"
       style="fill:#ffffff;fill-opacity:1;fill-rule:nonzero;stroke:none;stroke-width:1.0680964"
       d="m 162.54431,424.67046 h -48.812 v 36.04338 h 48.812 z" /><text
       y="-433.12778"
       x="117.85233"
       style="font-variant:normal;font-weight:600;font-stretch:normal;font-size:5.37909985px;font-family:'Raleway SemiBold';-inkscape-font-specification:Raleway-SemiBold;writing-mode:lr-tb;fill:#359c89;fill-opacity:1;fill-rule:nonzero;stroke:none;stroke-width:0.99999994"
       id="text2788"
       transform="scale(1,-1)"><tspan
         style="stroke-width:0.99999994"
         x="117.85233 121.97811 126.02319 129.33672 132.89229 134.35539 137.59898 141.72478 145.03828 148.20122"
         y="-433.12778"
         sodipodi:role="line"
         id="tspan2784">NUTRIENTES</tspan><tspan
         style="stroke-width:0.99999994"
         x="118.47631 122.1072 123.5703 127.61541 130.51472 134.5598 138.42738 139.89049 143.53215 147.57722"
         y="-426.67285"
         sodipodi:role="line"
         id="tspan2786">BIOLÓGICOS</tspan></text>
<g
       transform="matrix(1,0,0,0.75137645,-40.317569,85.659686)"
       id="g2790"><g
         id="g2792"
         clip-path="url(#clipPath2796)"><path
           d="m 269.822,392.529 h -44.338 v 36.276 h 44.338 z"
           style="fill:#ffffff;fill-opacity:1;fill-rule:nonzero;stroke:none"
           id="path2798"
           inkscape:connector-curvature="0" /></g></g><text
       y="-380.81528"
       x="182.84554"
       style="font-variant:normal;font-weight:600;font-stretch:normal;font-size:5.37909985px;font-family:'Raleway SemiBold';-inkscape-font-specification:Raleway-SemiBold;writing-mode:lr-tb;fill:#359c89;fill-opacity:1;fill-rule:nonzero;stroke:none;stroke-width:0.99999994"
       id="text2802"
       transform="scale(1,-1)"><tspan
         style="stroke-width:0.99999994"
         x="182.84554 186.47643 187.93953 191.9846 195.83604 198.99895 202.86653 206.36296 209.99385 213.71025 217.34114 220.97203 224.11345"
         y="-380.81528"
         sodipodi:role="line"
         id="tspan2800">BIODEGRADABLE</tspan></text>
<g
       transform="translate(-40.317569,-20.951337)"
       id="g2804"><g
         id="g2806"
         clip-path="url(#clipPath2810)"><path
           d="m 264.15,569.989 h -44.594 v 36.276 h 44.594 z"
           style="fill:#ffffff;fill-opacity:1;fill-rule:nonzero;stroke:none"
           id="path2812"
           inkscape:connector-curvature="0" /></g></g><text
       y="-558.27527"
       x="183.63362"
       style="font-variant:normal;font-weight:600;font-stretch:normal;font-size:5.37909985px;font-family:'Raleway SemiBold';-inkscape-font-specification:Raleway-SemiBold;writing-mode:lr-tb;fill:#359c89;fill-opacity:1;fill-rule:nonzero;stroke:none;stroke-width:0.99999994"
       id="text2816"
       transform="scale(1,-1)"><tspan
         style="stroke-width:0.99999994"
         x="183.63362 186.98479 190.54039 194.58546 198.4369 202.48198 206.12364 209.80293 211.26607 215.31114"
         y="-558.27527"
         sodipodi:role="line"
         id="tspan2814">PRODUCCIÓN</tspan></text>
<g
       transform="translate(-40.317569,-20.951337)"
       id="g2818"><g
         id="g2820"
         clip-path="url(#clipPath2824)"><path
           d="m 342.895,549.99 h -35.704 v 31.525 h 35.704 z"
           style="fill:#ffffff;fill-opacity:1;fill-rule:nonzero;stroke:none"
           id="path2826"
           inkscape:connector-curvature="0" /></g></g><text
       y="-531.35828"
       x="268.14926"
       style="font-variant:normal;font-weight:600;font-stretch:normal;font-size:5.37909985px;font-family:'Raleway SemiBold';-inkscape-font-specification:Raleway-SemiBold;writing-mode:lr-tb;fill:#359c89;fill-opacity:1;fill-rule:nonzero;stroke:none;stroke-width:0.99999994"
       id="text2830"
       transform="scale(1,-1)"><tspan
         style="stroke-width:0.99999994"
         x="268.14926 271.50043 275.056 279.1011 282.95255 286.99762 290.63928 293.77582"
         y="-531.35828"
         sodipodi:role="line"
         id="tspan2828">PRODUCTO</tspan></text>
<g
       transform="translate(-40.317569,-20.951337)"
       id="g2832"><g
         id="g2834"
         clip-path="url(#clipPath2838)"><path
           d="m 337.093,413.587 h -27.579 v 36.276 h 27.579 z"
           style="fill:#ffffff;fill-opacity:1;fill-rule:nonzero;stroke:none"
           id="path2840"
           inkscape:connector-curvature="0" /></g></g><text
       y="-399.46466"
       x="276.59744"
       style="font-variant:normal;font-weight:600;font-stretch:normal;font-size:5.37909985px;font-family:'Raleway SemiBold';-inkscape-font-specification:Raleway-SemiBold;writing-mode:lr-tb;fill:#359c89;fill-opacity:1;fill-rule:nonzero;stroke:none;stroke-width:0.99999994"
       id="text2844"
       transform="scale(1,-1)"><tspan
         style="stroke-width:0.99999994"
         x="276.59744 280.64252 283.92917"
         y="-399.46466"
         sodipodi:role="line"
         id="tspan2842">USO</tspan></text>
<g
       transform="translate(-40.317569,-20.951337)"
       id="g2846"><g
         id="g2848"
         clip-path="url(#clipPath2852)"><g
           id="g2854"
           transform="translate(179.2847,473.1325)"><path
             d="m 0,0 c -0.948,0 -1.719,0.771 -1.719,1.719 0,0.948 0.771,1.718 1.719,1.718 0.948,0 1.719,-0.77 1.719,-1.718 C 1.719,0.771 0.948,0 0,0 m -1.929,0.486 -1.672,-1.301 c -0.194,0.15 -0.433,0.242 -0.696,0.242 -0.288,0 -0.55,-0.111 -0.751,-0.288 l -1.601,1.372 c 0.219,0.351 0.347,0.764 0.347,1.208 0,0.454 -0.134,0.877 -0.363,1.233 l 1.616,1.347 c 0.202,-0.177 0.463,-0.289 0.752,-0.289 0.29,0 0.551,0.112 0.753,0.289 L -1.928,2.952 C -2.157,2.596 -2.292,2.173 -2.292,1.719 c 0,-0.454 0.135,-0.877 0.363,-1.233 m -2.368,-2.778 c -0.316,0 -0.573,0.257 -0.573,0.573 0,0.316 0.257,0.573 0.573,0.573 0.316,0 0.573,-0.257 0.573,-0.573 0,-0.316 -0.257,-0.573 -0.573,-0.573 M -8.593,0 c -0.948,0 -1.719,0.771 -1.719,1.719 0,0.948 0.771,1.718 1.719,1.718 0.948,0 1.718,-0.77 1.718,-1.718 C -6.875,0.771 -7.645,0 -8.593,0 m 4.296,5.729 c 0.316,0 0.573,-0.257 0.573,-0.573 0,-0.316 -0.257,-0.573 -0.573,-0.573 -0.316,0 -0.573,0.257 -0.573,0.573 0,0.316 0.257,0.573 0.573,0.573 M -6.875,-6.875 c 0,-0.947 -0.77,-1.718 -1.718,-1.718 -0.948,0 -1.719,0.771 -1.719,1.718 0,0.948 0.771,1.719 1.719,1.719 0.948,0 1.718,-0.771 1.718,-1.719 m 2.865,1.433 c 0.316,0 0.573,-0.257 0.573,-0.573 0,-0.316 -0.257,-0.573 -0.573,-0.573 -0.316,0 -0.573,0.257 -0.573,0.573 0,0.316 0.257,0.573 0.573,0.573 M 0,-6.588 c 0.948,0 1.719,-0.771 1.719,-1.719 0,-0.948 -0.771,-1.719 -1.719,-1.719 -0.948,0 -1.719,0.771 -1.719,1.719 0,0.948 0.771,1.719 1.719,1.719 m -0.573,3.151 c 0,0.316 0.257,0.573 0.573,0.573 0.316,0 0.573,-0.257 0.573,-0.573 0,-0.316 -0.257,-0.573 -0.573,-0.573 -0.316,0 -0.573,0.257 -0.573,0.573 m 4.01,-6.302 c 0.316,0 0.573,-0.257 0.573,-0.573 0,-0.316 -0.257,-0.573 -0.573,-0.573 -0.316,0 -0.573,0.257 -0.573,0.573 0,0.316 0.257,0.573 0.573,0.573 m -8.879,-1.146 c -0.316,0 -0.573,0.257 -0.573,0.573 0,0.316 0.257,0.573 0.573,0.573 0.316,0 0.572,-0.257 0.572,-0.573 0,-0.316 -0.256,-0.573 -0.572,-0.573 m -6.589,0 c -0.316,0 -0.573,0.257 -0.573,0.573 0,0.316 0.257,0.573 0.573,0.573 0.316,0 0.573,-0.257 0.573,-0.573 0,-0.316 -0.257,-0.573 -0.573,-0.573 m 0,5.443 c -0.316,0 -0.573,0.257 -0.573,0.572 0,0.316 0.257,0.573 0.573,0.573 0.316,0 0.573,-0.257 0.573,-0.573 0,-0.315 -0.257,-0.572 -0.573,-0.572 m 0,3.15 c -0.316,0 -0.573,0.257 -0.573,0.573 0,0.316 0.257,0.573 0.573,0.573 0.316,0 0.573,-0.257 0.573,-0.573 0,-0.316 -0.257,-0.573 -0.573,-0.573 m 0,6.875 c -0.316,0 -0.573,0.257 -0.573,0.573 0,0.316 0.257,0.573 0.573,0.573 0.316,0 0.573,-0.257 0.573,-0.573 0,-0.316 -0.257,-0.573 -0.573,-0.573 M 3.437,5.729 C 3.753,5.729 4.01,5.472 4.01,5.156 4.01,4.84 3.753,4.583 3.437,4.583 c -0.316,0 -0.573,0.257 -0.573,0.573 0,0.316 0.257,0.573 0.573,0.573 m 0,-6.875 c 0.316,0 0.573,-0.257 0.573,-0.573 0,-0.316 -0.257,-0.573 -0.573,-0.573 -0.316,0 -0.573,0.257 -0.573,0.573 0,0.316 0.257,0.573 0.573,0.573 m 0,-1.718 c 0.632,0 1.146,0.513 1.146,1.145 0,0.632 -0.514,1.146 -1.146,1.146 -0.212,0 -0.408,-0.061 -0.578,-0.162 L 1.808,0.316 C 2.11,0.704 2.292,1.19 2.292,1.719 2.292,2.247 2.11,2.733 1.808,3.122 L 2.859,4.173 C 3.029,4.072 3.225,4.01 3.437,4.01 c 0.632,0 1.146,0.514 1.146,1.146 0,0.632 -0.514,1.146 -1.146,1.146 -0.632,0 -1.145,-0.514 -1.145,-1.146 0,-0.212 0.061,-0.408 0.162,-0.578 L 1.403,3.527 C 1.015,3.829 0.529,4.01 0,4.01 -0.603,4.01 -1.151,3.774 -1.561,3.392 l -1.66,1.384 c 0.043,0.119 0.07,0.246 0.07,0.38 0,0.632 -0.514,1.146 -1.146,1.146 -0.632,0 -1.145,-0.514 -1.145,-1.146 0,-0.134 0.027,-0.261 0.069,-0.38 L -7.033,3.392 C -7.442,3.774 -7.99,4.01 -8.593,4.01 -9.122,4.01 -9.608,3.829 -9.996,3.527 l -1.051,1.051 c 0.101,0.17 0.162,0.366 0.162,0.578 0,0.632 -0.514,1.146 -1.146,1.146 -0.632,0 -1.145,-0.514 -1.145,-1.146 0,-0.632 0.513,-1.146 1.145,-1.146 0.212,0 0.408,0.062 0.579,0.163 l 1.051,-1.051 c -0.302,-0.389 -0.484,-0.875 -0.484,-1.403 0,-0.529 0.182,-1.015 0.484,-1.403 l -1.051,-1.051 c -0.171,0.101 -0.367,0.162 -0.579,0.162 -0.632,0 -1.145,-0.514 -1.145,-1.146 0,-0.632 0.513,-1.145 1.145,-1.145 0.632,0 1.146,0.513 1.146,1.145 0,0.212 -0.061,0.408 -0.162,0.579 l 1.051,1.051 c 0.388,-0.302 0.874,-0.484 1.403,-0.484 0.614,0 1.171,0.244 1.583,0.639 l 1.638,-1.403 c -0.043,-0.12 -0.07,-0.247 -0.07,-0.382 0,-0.273 0.1,-0.521 0.26,-0.718 l -0.051,0.042 -2.126,-2.552 c -0.357,0.229 -0.78,0.364 -1.234,0.364 -0.74,0 -1.398,-0.354 -1.817,-0.9 l -0.523,0.304 c 0.028,0.1 0.048,0.202 0.048,0.309 0,0.632 -0.514,1.146 -1.146,1.146 -0.632,0 -1.145,-0.514 -1.145,-1.146 0,-0.631 0.513,-1.145 1.145,-1.145 0.318,0 0.606,0.13 0.814,0.34 l 0.516,-0.302 c -0.118,-0.276 -0.184,-0.579 -0.184,-0.898 0,-0.528 0.182,-1.014 0.484,-1.403 l -1.051,-1.051 c -0.171,0.101 -0.367,0.163 -0.579,0.163 -0.632,0 -1.145,-0.514 -1.145,-1.146 0,-0.632 0.513,-1.146 1.145,-1.146 0.632,0 1.146,0.514 1.146,1.146 0,0.212 -0.061,0.408 -0.162,0.578 l 1.051,1.051 c 0.388,-0.302 0.874,-0.483 1.403,-0.483 1.263,0 2.291,1.028 2.291,2.291 0,0.046 -0.004,0.092 -0.007,0.137 l 1.265,0.237 c 0.183,-0.389 0.576,-0.66 1.034,-0.66 0.344,0 0.649,0.155 0.859,0.396 l 1.091,-0.546 c -0.147,-0.301 -0.232,-0.638 -0.232,-0.996 0,-0.178 0.023,-0.35 0.061,-0.516 L -4.502,-9.66 c -0.207,0.298 -0.551,0.494 -0.94,0.494 -0.632,0 -1.146,-0.514 -1.146,-1.146 0,-0.632 0.514,-1.146 1.146,-1.146 0.631,0 1.145,0.514 1.145,1.146 0,0.039 -0.007,0.075 -0.011,0.113 l 2.275,0.838 c 0.383,-0.734 1.15,-1.237 2.033,-1.237 0.74,0 1.397,0.354 1.817,0.9 l 0.522,-0.305 c -0.028,-0.099 -0.047,-0.201 -0.047,-0.309 0,-0.632 0.513,-1.146 1.145,-1.146 0.632,0 1.146,0.514 1.146,1.146 0,0.632 -0.514,1.146 -1.146,1.146 -0.317,0 -0.605,-0.131 -0.813,-0.34 l -0.516,0.301 c 0.118,0.276 0.184,0.58 0.184,0.898 0,1.167 -0.877,2.13 -2.006,2.272 v 1.493 c 0.493,0.128 0.86,0.572 0.86,1.105 0,0.632 -0.514,1.145 -1.146,1.145 -0.632,0 -1.146,-0.513 -1.146,-1.145 0,-0.533 0.367,-0.977 0.86,-1.105 V -6.035 C -0.869,-6.108 -1.384,-6.4 -1.746,-6.827 l -1.145,0.572 c 0.017,0.078 0.027,0.157 0.027,0.24 0,0.632 -0.514,1.145 -1.146,1.145 -0.605,0 -1.097,-0.472 -1.138,-1.067 l -1.264,-0.237 c -0.105,0.325 -0.28,0.616 -0.508,0.86 l 2.128,2.553 -0.05,0.042 c 0.162,-0.09 0.347,-0.145 0.545,-0.145 0.632,0 1.146,0.513 1.146,1.145 0,0.162 -0.034,0.315 -0.095,0.455 l 1.685,1.31 c 0.409,-0.383 0.957,-0.619 1.561,-0.619 0.529,0 1.015,0.182 1.403,0.484 L 2.454,-1.14 C 2.353,-1.311 2.292,-1.507 2.292,-1.719 c 0,-0.632 0.513,-1.145 1.145,-1.145"
             style="fill:#359c89;fill-opacity:1;fill-rule:nonzero;stroke:none"
             id="path2856"
             inkscape:connector-curvature="0" /></g><path
           d="m 178.712,465.971 h 0.573 v -0.573 h -0.573 z"
           style="fill:#359c89;fill-opacity:1;fill-rule:nonzero;stroke:none"
           id="path2858"
           inkscape:connector-curvature="0" /><path
           d="m 178.998,464.826 h 0.573 v -0.573 h -0.573 z"
           style="fill:#359c89;fill-opacity:1;fill-rule:nonzero;stroke:none"
           id="path2860"
           inkscape:connector-curvature="0" /><path
           d="m 170.978,467.117 h 0.573 v -0.573 h -0.573 z"
           style="fill:#359c89;fill-opacity:1;fill-rule:nonzero;stroke:none"
           id="path2862"
           inkscape:connector-curvature="0" /><path
           d="m 170.691,465.685 h 0.573 v -0.573 h -0.573 z"
           style="fill:#359c89;fill-opacity:1;fill-rule:nonzero;stroke:none"
           id="path2864"
           inkscape:connector-curvature="0" /><path
           d="m 169.546,466.831 h 0.573 v -0.573 h -0.573 z"
           style="fill:#359c89;fill-opacity:1;fill-rule:nonzero;stroke:none"
           id="path2866"
           inkscape:connector-curvature="0" /><path
           d="m 170.405,475.71 h 0.573 v -0.573 h -0.573 z"
           style="fill:#359c89;fill-opacity:1;fill-rule:nonzero;stroke:none"
           id="path2868"
           inkscape:connector-curvature="0" /><path
           d="m 171.551,474.851 h 0.573 v -0.573 h -0.573 z"
           style="fill:#359c89;fill-opacity:1;fill-rule:nonzero;stroke:none"
           id="path2870"
           inkscape:connector-curvature="0" /><path
           d="m 169.546,474.851 h 0.573 v -0.573 h -0.573 z"
           style="fill:#359c89;fill-opacity:1;fill-rule:nonzero;stroke:none"
           id="path2872"
           inkscape:connector-curvature="0" /><path
           d="m 178.139,474.851 h 0.573 v -0.573 h -0.573 z"
           style="fill:#359c89;fill-opacity:1;fill-rule:nonzero;stroke:none"
           id="path2874"
           inkscape:connector-curvature="0" /><path
           d="m 179.571,475.71 h 0.573 v -0.573 h -0.573 z"
           style="fill:#359c89;fill-opacity:1;fill-rule:nonzero;stroke:none"
           id="path2876"
           inkscape:connector-curvature="0" /><g
           id="g2878"
           transform="translate(251.1434,414.3012)"><path
             d="m 0,0 c -0.045,-0.042 -0.103,-0.065 -0.164,-0.065 -0.067,0 -0.129,0.027 -0.175,0.075 -0.895,0.953 -1.885,1.145 -3.192,1.145 -1.762,0 -2.528,-0.438 -3.192,-1.145 -0.09,-0.096 -0.242,-0.1 -0.338,-0.01 -0.047,0.044 -0.074,0.103 -0.076,0.167 -0.002,0.064 0.022,0.125 0.065,0.172 0.888,0.944 1.848,1.295 3.541,1.295 1.694,0 2.654,-0.351 3.541,-1.295 C 0.101,0.242 0.096,0.091 0,0 m -3.531,2.283 c -1.874,0 -2.999,-0.42 -4.014,-1.499 -0.163,-0.173 -0.248,-0.399 -0.241,-0.637 0.007,-0.237 0.107,-0.458 0.28,-0.62 0.357,-0.336 0.921,-0.319 1.257,0.038 0.573,0.61 1.176,0.94 2.718,0.94 1.191,0 1.977,-0.15 2.719,-0.94 0.168,-0.178 0.404,-0.28 0.648,-0.28 0.227,0 0.444,0.086 0.609,0.242 0.357,0.336 0.375,0.899 0.039,1.257 -1.015,1.079 -2.141,1.499 -4.015,1.499"
             style="fill:#359c89;fill-opacity:1;fill-rule:nonzero;stroke:none"
             id="path2880"
             inkscape:connector-curvature="0" /></g><g
           id="g2882"
           transform="translate(253.6169,413.636)"><path
             d="m 0,0 c -0.818,-0.812 -2.096,-0.92 -3.038,-0.258 -0.156,0.11 -0.358,0.123 -0.528,0.035 -0.171,-0.089 -0.278,-0.264 -0.278,-0.456 v -3.307 c 0,-0.3 -0.244,-0.544 -0.544,-0.544 H -7.62 c -0.3,0 -0.544,0.244 -0.544,0.544 v 3.307 c 0,0.192 -0.107,0.367 -0.278,0.456 -0.074,0.038 -0.155,0.058 -0.236,0.058 -0.103,0 -0.205,-0.032 -0.292,-0.093 -0.942,-0.662 -2.22,-0.554 -3.038,0.258 -0.292,0.289 -0.497,0.646 -0.603,1.038 -0.002,0.01 -0.005,0.019 -0.008,0.028 -0.051,0.197 -0.077,0.403 -0.077,0.614 0.002,0.65 0.266,1.281 0.724,1.732 0.2,0.196 0.419,0.392 0.669,0.582 0.003,10e-4 0.006,0.002 0.01,0.004 0.035,0.019 0.065,0.043 0.091,0.071 0.239,0.173 0.506,0.34 0.811,0.492 0.023,0.007 0.046,0.015 0.068,0.027 0.015,0.008 0.028,0.017 0.041,0.027 0.968,0.461 2.303,0.787 4.278,0.787 1.949,0 4.182,-0.237 5.967,-1.99 C 0.422,2.961 0.686,2.33 0.687,1.68 0.689,1.038 0.445,0.441 0,0 m -13.686,6.346 c -1.664,0.58 -2.531,0.418 -3.391,-0.031 -0.117,-0.061 -0.262,-0.015 -0.323,0.102 -0.061,0.117 -0.016,0.262 0.101,0.323 1.149,0.6 2.171,0.615 3.77,0.058 1.3,-0.453 2.079,-0.985 2.601,-1.794 -0.139,-0.078 -0.276,-0.161 -0.412,-0.251 -0.539,0.826 -1.31,1.232 -2.346,1.593 m 4.022,2.79 c -0.137,0.085 -0.274,0.167 -0.413,0.244 0.638,0.908 1.509,1.405 2.991,1.73 1.654,0.363 2.667,0.226 3.736,-0.506 0.109,-0.075 0.137,-0.224 0.062,-0.333 -0.034,-0.05 -0.086,-0.086 -0.146,-0.099 -0.065,-0.014 -0.132,-0.001 -0.187,0.037 -1.079,0.738 -2.087,0.713 -3.363,0.433 C -8.497,10.31 -9.183,9.814 -9.664,9.136 M 0.419,3.875 C -0.643,4.918 -1.835,5.47 -3.035,5.757 L -3.65,8.559 c 1.292,-0.417 2.717,0.08 3.466,1.24 0.602,0.931 0.634,2.125 0.084,3.117 -0.087,0.157 -0.285,0.214 -0.442,0.127 -0.157,-0.087 -0.214,-0.285 -0.126,-0.442 0.433,-0.782 0.41,-1.72 -0.061,-2.45 C -1.355,9.183 -2.579,8.803 -3.641,9.248 -3.817,9.322 -4.018,9.292 -4.165,9.169 -4.313,9.046 -4.379,8.852 -4.338,8.664 l 0.607,-2.769 c -0.774,0.124 -1.543,0.157 -2.273,0.157 -0.287,0 -0.579,-0.006 -0.876,-0.019 -0.02,0.048 -0.042,0.096 -0.065,0.141 -0.561,1.135 -1.327,1.965 -2.182,2.597 0.406,0.568 0.965,0.948 2.282,1.237 1.163,0.255 1.963,0.277 2.857,-0.335 0.202,-0.138 0.454,-0.188 0.693,-0.135 0.222,0.049 0.415,0.179 0.543,0.366 0.277,0.405 0.173,0.959 -0.231,1.236 -1.223,0.837 -2.412,1.006 -4.243,0.605 -1.701,-0.374 -2.692,-0.963 -3.434,-2.064 -0.544,0.261 -1.097,0.474 -1.634,0.661 -0.325,0.113 -0.66,0.223 -1.004,0.321 0.043,0.088 0.091,0.174 0.144,0.256 0.768,1.176 2.01,2.478 5.403,3.222 1.857,0.408 4.037,0.657 6.12,-0.582 0.154,-0.092 0.353,-0.041 0.445,0.113 0.092,0.154 0.041,0.353 -0.113,0.445 -2.277,1.355 -4.61,1.093 -6.592,0.659 -2.032,-0.446 -4.311,-1.211 -5.807,-3.502 -0.092,-0.141 -0.172,-0.29 -0.24,-0.445 -1.576,0.365 -3.321,0.428 -5.137,-0.429 -0.737,-0.348 -1.317,-0.993 -1.589,-1.77 -0.271,-0.771 -0.226,-1.592 0.126,-2.313 0.606,-1.24 1.962,-1.903 3.294,-1.643 l -1.005,-2.886 c -0.217,-0.622 0.113,-1.304 0.735,-1.521 l 1.741,-0.606 c 0.036,-0.013 0.072,-0.019 0.107,-0.019 0.135,0 0.26,0.084 0.307,0.218 0.059,0.17 -0.03,0.355 -0.2,0.414 L -17.3,0.881 c -0.284,0.099 -0.435,0.41 -0.336,0.693 l 1.088,3.122 c 0.063,0.182 0.02,0.382 -0.112,0.523 -0.132,0.139 -0.327,0.193 -0.511,0.14 -1.107,-0.315 -2.278,0.208 -2.784,1.243 -0.275,0.564 -0.309,1.207 -0.096,1.813 0.215,0.614 0.672,1.123 1.253,1.398 1.27,0.599 3.01,1.058 6.29,-0.084 1.814,-0.632 3.811,-1.572 4.931,-3.745 -0.919,-0.088 -1.86,-0.283 -2.767,-0.688 -0.603,0.974 -1.487,1.599 -2.971,2.116 -1.77,0.616 -2.971,0.589 -4.284,-0.096 -0.435,-0.227 -0.604,-0.765 -0.377,-1.2 0.227,-0.434 0.765,-0.603 1.2,-0.376 0.741,0.386 1.419,0.5 2.876,-0.008 0.937,-0.326 1.588,-0.665 2.033,-1.36 -0.19,-0.152 -0.377,-0.317 -0.56,-0.497 -0.581,-0.571 -0.916,-1.371 -0.918,-2.194 -10e-4,-0.239 0.026,-0.473 0.078,-0.699 l -0.289,-0.829 c -0.089,-0.257 -0.358,-0.41 -0.624,-0.354 -0.175,0.036 -0.347,-0.077 -0.384,-0.252 -0.036,-0.176 0.076,-0.348 0.252,-0.384 0.081,-0.017 0.161,-0.025 0.241,-0.025 0.498,0 0.959,0.315 1.129,0.801 l 0.048,0.138 c 0.12,-0.194 0.263,-0.374 0.429,-0.538 0.98,-0.973 2.478,-1.152 3.651,-0.468 v -3.057 c 0,-0.658 0.536,-1.194 1.195,-1.194 h 3.231 c 0.658,0 1.194,0.536 1.194,1.194 v 3.057 c 1.173,-0.684 2.671,-0.505 3.652,0.468 C 1.027,0.103 1.339,0.864 1.337,1.681 1.335,2.504 1,3.304 0.419,3.875"
             style="fill:#359c89;fill-opacity:1;fill-rule:nonzero;stroke:none"
             id="path2884"
             inkscape:connector-curvature="0" /></g><g
           id="g2886"
           transform="translate(249.4814,417.4962)"><path
             d="m 0,0 c 0.179,0 0.325,0.145 0.325,0.325 v 0.31 C 0.325,0.814 0.179,0.96 0,0.96 -0.179,0.96 -0.325,0.814 -0.325,0.635 V 0.325 C -0.325,0.145 -0.179,0 0,0"
             style="fill:#359c89;fill-opacity:1;fill-rule:nonzero;stroke:none"
             id="path2888"
             inkscape:connector-curvature="0" /></g><g
           id="g2890"
           transform="translate(247.6129,417.2579)"><path
             d="M 0,0 C 0.283,0 0.552,0.122 0.738,0.336 0.855,0.471 0.841,0.676 0.706,0.794 0.571,0.912 0.366,0.898 0.248,0.763 0.185,0.691 0.095,0.65 0,0.65 -0.095,0.65 -0.185,0.691 -0.248,0.763 -0.366,0.898 -0.571,0.912 -0.706,0.794 -0.841,0.676 -0.856,0.471 -0.738,0.336 -0.552,0.122 -0.283,0 0,0"
             style="fill:#359c89;fill-opacity:1;fill-rule:nonzero;stroke:none"
             id="path2892"
             inkscape:connector-curvature="0" /></g><g
           id="g2894"
           transform="translate(245.7443,417.4962)"><path
             d="m 0,0 c 0.179,0 0.325,0.145 0.325,0.325 v 0.31 C 0.325,0.814 0.179,0.96 0,0.96 -0.179,0.96 -0.325,0.814 -0.325,0.635 V 0.325 C -0.325,0.145 -0.179,0 0,0"
             style="fill:#359c89;fill-opacity:1;fill-rule:nonzero;stroke:none"
             id="path2896"
             inkscape:connector-curvature="0" /></g><path
           d="m 249.348,592.719 h -3.358 v -3.1 h 3.358 z m -5.859,0 h -3.358 v -3.1 h 3.358 z m -5.787,0 h -3.358 v -3.1 h 3.358 z m 15.276,-2.291 v -5.304 h -22.251 v 5.304 h 1.516 v 5.959 l 4.271,2.997 v -2.997 l 4.271,2.997 v -2.997 l 4.271,2.997 v -5.89 h 1.474 l 0.8,10.419 h 2.443 l 0.7,-10.419 h 1.644 v -3.066 z m -9.334,14.612 c -0.096,0.147 -0.126,0.247 -0.126,0.247 l 0.045,0.042 c 0,0 0.089,-0.037 0.243,-0.1 0.073,-0.029 0.163,-0.065 0.265,-0.106 0.101,-0.036 0.211,-0.079 0.329,-0.107 0.058,-0.018 0.117,-0.036 0.178,-0.043 0.031,-0.004 0.06,-0.013 0.091,-0.018 0.03,-0.002 0.06,-0.003 0.09,-0.007 0.122,-0.016 0.234,-0.003 0.356,0.003 0.057,0.021 0.12,0.027 0.182,0.054 0.057,0.033 0.131,0.053 0.184,0.095 0.027,0.02 0.056,0.04 0.087,0.059 0.033,0.018 0.067,0.033 0.101,0.07 l 0.217,0.182 c 0.002,0.002 -0.013,-0.019 -0.006,-0.009 l 0.002,0.002 0.003,0.003 0.008,0.006 0.014,0.013 0.028,0.025 0.057,0.05 0.107,0.102 c 0.068,0.069 0.153,0.123 0.221,0.19 0.067,0.07 0.157,0.112 0.228,0.179 0.077,0.061 0.166,0.106 0.253,0.164 0.181,0.086 0.393,0.149 0.583,0.122 0.047,-0.005 0.094,-0.012 0.139,-0.021 0.044,-0.012 0.085,-0.027 0.126,-0.042 0.084,-0.028 0.156,-0.067 0.224,-0.106 0.136,-0.079 0.244,-0.17 0.33,-0.258 0.086,-0.088 0.151,-0.174 0.197,-0.249 0.049,-0.073 0.077,-0.138 0.097,-0.182 0.016,-0.045 0.025,-0.07 0.025,-0.07 l -0.046,-0.042 c 0,0 -0.097,0.033 -0.247,0.095 -0.073,0.029 -0.162,0.066 -0.263,0.107 -0.098,0.04 -0.206,0.085 -0.32,0.123 -0.057,0.021 -0.116,0.043 -0.175,0.057 -0.03,0.008 -0.06,0.019 -0.09,0.028 -0.03,0.006 -0.06,0.014 -0.091,0.024 -0.122,0.04 -0.248,0.079 -0.405,0.095 -0.072,-0.009 -0.158,-0.006 -0.233,-0.037 -0.071,-0.037 -0.154,-0.065 -0.212,-0.13 -0.058,-0.062 -0.125,-0.117 -0.165,-0.197 l -0.06,-0.119 -0.027,-0.059 -0.013,-0.03 -0.007,-0.015 -0.003,-0.007 -0.002,-0.004 -0.001,-0.002 c 0.006,0.009 -0.009,-0.014 -0.008,-0.013 l -0.117,-0.257 c -0.038,-0.083 -0.126,-0.177 -0.198,-0.26 -0.072,-0.089 -0.17,-0.141 -0.257,-0.212 -0.091,-0.064 -0.202,-0.1 -0.303,-0.147 -0.217,-0.061 -0.442,-0.072 -0.633,-0.022 -0.097,0.022 -0.186,0.05 -0.265,0.091 -0.082,0.035 -0.153,0.078 -0.22,0.12 -0.133,0.088 -0.239,0.181 -0.322,0.273 -0.085,0.088 -0.148,0.176 -0.195,0.25"
           style="fill:#359c89;fill-opacity:1;fill-rule:nonzero;stroke:none"
           id="path2898"
           inkscape:connector-curvature="0" /><path
           d="m 506.463,564.06 h -44.594 v 31.8 h 44.594 z"
           style="fill:#ffffff;fill-opacity:1;fill-rule:nonzero;stroke:none"
           id="path2900"
           inkscape:connector-curvature="0" /></g></g><text
       y="-547.87097"
       x="425.94702"
       style="font-variant:normal;font-weight:600;font-stretch:normal;font-size:5.37909985px;font-family:'Raleway SemiBold';-inkscape-font-specification:Raleway-SemiBold;writing-mode:lr-tb;fill:#ee213f;fill-opacity:1;fill-rule:nonzero;stroke:none;stroke-width:0.99999994"
       id="text2904"
       transform="scale(1,-1)"><tspan
         style="stroke-width:0.99999994"
         x="425.94702 429.29822 432.85382 436.89886 440.75031 444.79541 448.43707 452.11633 453.57947 457.62457"
         y="-547.87097"
         sodipodi:role="line"
         id="tspan2902">PRODUCCIÓN</tspan></text>
<g
       transform="translate(-40.317569,-20.951337)"
       id="g2906"><g
         id="g2908"
         clip-path="url(#clipPath2912)"><path
           d="m 396.68,545.922 h -44.594 v 36.276 h 44.594 z"
           style="fill:#ffffff;fill-opacity:1;fill-rule:nonzero;stroke:none"
           id="path2914"
           inkscape:connector-curvature="0" /></g></g><text
       y="-536.19617"
       x="317.24786"
       style="font-variant:normal;font-weight:600;font-stretch:normal;font-size:5.37909985px;font-family:'Raleway SemiBold';-inkscape-font-specification:Raleway-SemiBold;writing-mode:lr-tb;fill:#ee213f;fill-opacity:1;fill-rule:nonzero;stroke:none;stroke-width:0.99999994"
       id="text2920"
       transform="scale(1,-1)"><tspan
         style="stroke-width:0.99999994"
         x="317.24786 321.3736 325.4187 328.73224 332.28781 333.75092 336.99451 341.1203 344.43381 347.59674"
         y="-536.19617"
         sodipodi:role="line"
         id="tspan2916">NUTRIENTES</tspan><tspan
         style="stroke-width:0.99999994"
         x="320.7066 324.02014 327.18304 330.86234 334.98813 336.45123 340.0929 344.13797"
         y="-529.74127"
         sodipodi:role="line"
         id="tspan2918">TÉCNICOS</tspan></text>
<g
       transform="translate(-40.317569,-20.951337)"
       id="g2922"><g
         id="g2924"
         clip-path="url(#clipPath2928)"><path
           d="m 548.179,509.122 h -44.594 v 40.521 h 44.594 z"
           style="fill:#ffffff;fill-opacity:1;fill-rule:nonzero;stroke:none"
           id="path2930"
           inkscape:connector-curvature="0" /></g></g><text
       y="-500.77036"
       x="468.03204"
       style="font-variant:normal;font-weight:600;font-stretch:normal;font-size:5.37909985px;font-family:'Raleway SemiBold';-inkscape-font-specification:Raleway-SemiBold;writing-mode:lr-tb;fill:#ee213f;fill-opacity:1;fill-rule:nonzero;stroke:none;stroke-width:0.99999994"
       id="text2936"
       transform="scale(1,-1)"><tspan
         style="stroke-width:0.99999994"
         x="468.03204 472.15784 476.20288 479.51642 483.07202 484.5351 487.77869 491.90448 495.21802 498.38092"
         y="-500.77036"
         sodipodi:role="line"
         id="tspan2932">NUTRIENTES</tspan><tspan
         style="stroke-width:0.99999994"
         x="471.49078 474.80432 477.96722 481.64655 485.77228 487.23541 490.87708 494.92212"
         y="-494.31543"
         sodipodi:role="line"
         id="tspan2934">TÉCNICOS</tspan></text>
<g
       transform="translate(-40.317569,-20.951337)"
       id="g2938"><g
         id="g2940"
         clip-path="url(#clipPath2944)"><path
           d="m 543.967,446.746 h -44.594 v 36.949 h 44.594 z"
           style="fill:#ffffff;fill-opacity:1;fill-rule:nonzero;stroke:none"
           id="path2946"
           inkscape:connector-curvature="0" /></g></g><text
       y="-431.22736"
       x="474.94904"
       style="font-variant:normal;font-weight:600;font-stretch:normal;font-size:5.37909985px;font-family:'Raleway SemiBold';-inkscape-font-specification:Raleway-SemiBold;writing-mode:lr-tb;fill:#ee213f;fill-opacity:1;fill-rule:nonzero;stroke:none;stroke-width:0.99999994"
       id="text2950"
       transform="scale(1,-1)"><tspan
         style="stroke-width:0.99999994"
         x="474.94904 478.99414 482.28076"
         y="-431.22736"
         sodipodi:role="line"
         id="tspan2948">USO</tspan></text>
<g
       transform="translate(-40.317569,-20.951337)"
       id="g2952"><g
         id="g2954"
         clip-path="url(#clipPath2958)"><path
           d="m 491.661,582.314 h -3.358 v -3.1 h 3.358 z m -5.859,0 h -3.358 v -3.1 h 3.358 z m -5.786,0 h -3.358 v -3.1 h 3.358 z m 15.275,-2.29 v -5.305 H 473.04 v 5.305 h 1.516 v 5.958 l 4.271,2.997 v -2.997 l 4.271,2.997 v -2.997 l 4.271,2.997 v -5.89 h 1.474 l 0.8,10.419 h 2.443 l 0.701,-10.419 h 1.643 v -3.066 h 0.861 z m -9.334,14.611 c -0.095,0.148 -0.126,0.247 -0.126,0.247 l 0.046,0.042 c 0,0 0.088,-0.037 0.243,-0.1 0.073,-0.029 0.162,-0.065 0.265,-0.105 0.101,-0.037 0.211,-0.079 0.328,-0.108 0.058,-0.018 0.117,-0.036 0.178,-0.043 0.031,-0.004 0.06,-0.012 0.091,-0.018 0.03,-0.002 0.06,-0.003 0.09,-0.007 0.122,-0.016 0.234,-0.003 0.356,0.004 0.057,0.02 0.121,0.026 0.182,0.053 0.057,0.033 0.131,0.053 0.184,0.096 0.028,0.019 0.057,0.039 0.088,0.059 0.032,0.018 0.066,0.032 0.1,0.069 l 0.217,0.182 c 0.002,0.003 -0.013,-0.019 -0.005,-0.009 l 10e-4,0.002 0.004,0.003 0.007,0.006 0.014,0.013 0.029,0.026 0.057,0.049 0.107,0.102 c 0.067,0.07 0.152,0.124 0.22,0.191 0.067,0.069 0.157,0.111 0.229,0.179 0.076,0.06 0.166,0.105 0.252,0.164 0.181,0.085 0.393,0.148 0.583,0.122 0.048,-0.005 0.094,-0.013 0.139,-0.021 0.044,-0.013 0.086,-0.028 0.127,-0.043 0.083,-0.028 0.156,-0.067 0.224,-0.106 0.135,-0.079 0.243,-0.17 0.33,-0.258 0.085,-0.088 0.15,-0.174 0.196,-0.248 0.049,-0.074 0.077,-0.138 0.097,-0.183 0.016,-0.045 0.025,-0.07 0.025,-0.07 l -0.046,-0.042 c 0,0 -0.097,0.033 -0.247,0.096 -0.073,0.029 -0.161,0.065 -0.263,0.106 -0.098,0.04 -0.206,0.085 -0.32,0.123 -0.057,0.021 -0.115,0.043 -0.175,0.058 -0.03,0.007 -0.059,0.019 -0.09,0.027 -0.03,0.006 -0.06,0.014 -0.09,0.024 -0.123,0.04 -0.249,0.079 -0.406,0.096 -0.072,-0.01 -0.157,-0.007 -0.232,-0.038 -0.072,-0.036 -0.155,-0.065 -0.213,-0.13 -0.058,-0.062 -0.124,-0.117 -0.165,-0.196 l -0.059,-0.119 -0.028,-0.06 -0.013,-0.03 -0.006,-0.015 -0.004,-0.007 -0.001,-0.004 -10e-4,-0.002 c 0.006,0.009 -0.009,-0.014 -0.008,-0.012 l -0.117,-0.258 c -0.039,-0.083 -0.126,-0.177 -0.198,-0.259 -0.073,-0.09 -0.171,-0.142 -0.257,-0.212 -0.091,-0.064 -0.202,-0.101 -0.304,-0.147 -0.216,-0.062 -0.442,-0.073 -0.632,-0.022 -0.097,0.021 -0.187,0.049 -0.265,0.09 -0.083,0.035 -0.154,0.078 -0.221,0.12 -0.133,0.088 -0.238,0.182 -0.322,0.273 -0.085,0.089 -0.148,0.176 -0.195,0.25"
           style="fill:#ee213f;fill-opacity:1;fill-rule:nonzero;stroke:none"
           id="path2960"
           inkscape:connector-curvature="0" /><g
           id="g2962"
           transform="translate(317.9485,437.4684)"><path
             d="m 0,0 c 0.824,1.832 2.646,3.011 4.655,3.011 2.009,-0.002 3.83,-1.181 4.654,-3.013 0.6,-1.33 0.6,-2.853 0,-4.183 C 8.153,-6.756 5.132,-7.903 2.562,-6.747 -0.009,-5.591 -1.156,-2.571 0,0 m 4.655,-7.834 c 2.259,10e-4 4.307,1.326 5.234,3.386 0.676,1.497 0.676,3.212 0,4.709 -1.3,2.892 -4.698,4.183 -7.59,2.883 -2.892,-1.3 -4.183,-4.698 -2.883,-7.59 0.927,-2.063 2.978,-3.389 5.239,-3.388"
             style="fill:#359c89;fill-opacity:1;fill-rule:nonzero;stroke:none"
             id="path2964"
             inkscape:connector-curvature="0" /></g><g
           id="g2966"
           transform="translate(329.9396,442.3928)"><path
             d="m 0,0 h -14.672 v 2.871 c 0,0.176 0.143,0.319 0.319,0.319 H -0.319 C -0.143,3.19 0,3.047 0,2.871 Z M 0,-13.396 H -14.672 V -0.638 H 0 Z m 0,-0.957 c 0,-0.176 -0.143,-0.319 -0.319,-0.319 h -14.034 c -0.176,0 -0.319,0.143 -0.319,0.319 v 0.319 H 0 Z m -0.319,18.18 h -14.034 c -0.528,0 -0.957,-0.428 -0.957,-0.956 v -17.224 c 0,-0.528 0.429,-0.957 0.957,-0.957 h 14.034 c 0.529,0 0.957,0.429 0.957,0.957 V 2.871 c 0,0.528 -0.428,0.956 -0.957,0.956"
             style="fill:#359c89;fill-opacity:1;fill-rule:nonzero;stroke:none"
             id="path2968"
             inkscape:connector-curvature="0" /></g><g
           id="g2970"
           transform="translate(319.3582,437.4068)"><path
             d="M 0,0 C 0.7,1.118 1.926,1.797 3.245,1.796 4.564,1.798 5.79,1.119 6.488,0 5.366,-0.849 5.145,-2.446 5.994,-3.568 6.135,-3.755 6.302,-3.921 6.488,-4.062 5.366,-5.854 3.005,-6.397 1.213,-5.275 -0.579,-4.153 -1.122,-1.792 0,0 M 6.783,-0.578 V -0.58 C 6.79,-0.597 6.799,-0.614 6.806,-0.631 6.823,-0.674 6.838,-0.717 6.852,-0.759 6.884,-0.85 6.914,-0.943 6.939,-1.036 6.952,-1.084 6.964,-1.133 6.975,-1.181 6.997,-1.277 7.014,-1.373 7.028,-1.468 7.035,-1.513 7.043,-1.557 7.047,-1.601 7.081,-1.886 7.081,-2.173 7.047,-2.457 7.043,-2.502 7.035,-2.545 7.028,-2.589 7.014,-2.685 6.996,-2.783 6.975,-2.879 6.964,-2.927 6.952,-2.974 6.939,-3.023 6.914,-3.119 6.884,-3.21 6.851,-3.302 6.836,-3.344 6.823,-3.387 6.806,-3.429 6.799,-3.447 6.79,-3.463 6.783,-3.48 5.981,-2.793 5.889,-1.586 6.576,-0.785 6.64,-0.711 6.709,-0.641 6.783,-0.578 M 3.245,-6.496 c 0.144,0 0.287,0.009 0.429,0.022 0.43,0.04 0.852,0.143 1.252,0.307 0.032,0.013 0.064,0.024 0.096,0.037 0.031,0.013 0.07,0.032 0.105,0.05 0.055,0.026 0.111,0.05 0.165,0.078 2.193,1.13 3.054,3.825 1.923,6.017 C 7.209,0.027 7.203,0.039 7.197,0.051 6.685,1.024 5.831,1.774 4.799,2.156 4.78,2.163 4.762,2.171 4.743,2.178 4.398,2.299 4.039,2.378 3.676,2.412 3.532,2.425 3.389,2.434 3.245,2.434 c -2.466,0 -4.465,-1.999 -4.465,-4.465 0,-2.466 1.999,-4.465 4.465,-4.465"
             style="fill:#359c89;fill-opacity:1;fill-rule:nonzero;stroke:none"
             id="path2972"
             inkscape:connector-curvature="0" /></g><g
           id="g2974"
           transform="translate(320.0519,435.3757)"><path
             d="m 0,0 c 0.002,1.409 1.143,2.55 2.552,2.552 0.176,0 0.319,0.142 0.319,0.319 C 2.871,3.047 2.728,3.19 2.552,3.19 0.791,3.188 -0.636,1.761 -0.638,0 c 0,-0.176 0.143,-0.319 0.319,-0.319 C -0.143,-0.319 0,-0.176 0,0"
             style="fill:#359c89;fill-opacity:1;fill-rule:nonzero;stroke:none"
             id="path2976"
             inkscape:connector-curvature="0" /></g><g
           id="g2978"
           transform="translate(326.4311,444.6254)"><path
             d="m 0,0 h -1.276 c -0.176,0 -0.319,-0.143 -0.319,-0.319 0,-0.176 0.143,-0.319 0.319,-0.319 H 0 c 0.176,0 0.319,0.143 0.319,0.319 C 0.319,-0.143 0.176,0 0,0"
             style="fill:#359c89;fill-opacity:1;fill-rule:nonzero;stroke:none"
             id="path2980"
             inkscape:connector-curvature="0" /></g><g
           id="g2982"
           transform="translate(326.4311,443.6686)"><path
             d="m 0,0 h -1.276 c -0.176,0 -0.319,-0.143 -0.319,-0.319 0,-0.176 0.143,-0.319 0.319,-0.319 H 0 c 0.176,0 0.319,0.143 0.319,0.319 C 0.319,-0.143 0.176,0 0,0"
             style="fill:#359c89;fill-opacity:1;fill-rule:nonzero;stroke:none"
             id="path2984"
             inkscape:connector-curvature="0" /></g><g
           id="g2986"
           transform="translate(320.3709,444.6254)"><path
             d="m 0,0 h -1.276 c -0.176,0 -0.319,-0.143 -0.319,-0.319 0,-0.176 0.143,-0.319 0.319,-0.319 H 0 c 0.176,0 0.319,0.143 0.319,0.319 C 0.319,-0.143 0.176,0 0,0"
             style="fill:#359c89;fill-opacity:1;fill-rule:nonzero;stroke:none"
             id="path2988"
             inkscape:connector-curvature="0" /></g><g
           id="g2990"
           transform="translate(320.3709,443.6686)"><path
             d="m 0,0 h -1.276 c -0.176,0 -0.319,-0.143 -0.319,-0.319 0,-0.176 0.143,-0.319 0.319,-0.319 H 0 c 0.176,0 0.319,0.143 0.319,0.319 C 0.319,-0.143 0.176,0 0,0"
             style="fill:#359c89;fill-opacity:1;fill-rule:nonzero;stroke:none"
             id="path2992"
             inkscape:connector-curvature="0" /></g><g
           id="g2994"
           transform="translate(328.9827,444.6254)"><path
             d="m 0,0 h -1.276 c -0.176,0 -0.319,-0.143 -0.319,-0.319 0,-0.176 0.143,-0.319 0.319,-0.319 H 0 c 0.176,0 0.319,0.143 0.319,0.319 C 0.319,-0.143 0.176,0 0,0"
             style="fill:#359c89;fill-opacity:1;fill-rule:nonzero;stroke:none"
             id="path2996"
             inkscape:connector-curvature="0" /></g><g
           id="g2998"
           transform="translate(328.9827,443.6686)"><path
             d="m 0,0 h -1.276 c -0.176,0 -0.319,-0.143 -0.319,-0.319 0,-0.176 0.143,-0.319 0.319,-0.319 H 0 c 0.176,0 0.319,0.143 0.319,0.319 C 0.319,-0.143 0.176,0 0,0"
             style="fill:#359c89;fill-opacity:1;fill-rule:nonzero;stroke:none"
             id="path3000"
             inkscape:connector-curvature="0" /></g><g
           id="g3002"
           transform="translate(323.2415,443.3496)"><path
             d="M 0,0 C -0.352,0 -0.638,0.286 -0.638,0.638 -0.638,0.99 -0.352,1.276 0,1.276 0.352,1.276 0.638,0.99 0.638,0.638 0.638,0.286 0.352,0 0,0 m 0,1.914 c -0.705,0 -1.276,-0.571 -1.276,-1.276 0,-0.705 0.571,-1.276 1.276,-1.276 0.705,0 1.276,0.571 1.276,1.276 0,0.705 -0.571,1.276 -1.276,1.276"
             style="fill:#359c89;fill-opacity:1;fill-rule:nonzero;stroke:none"
             id="path3004"
             inkscape:connector-curvature="0" /></g><g
           id="g3006"
           transform="translate(317.1813,443.3496)"><path
             d="M 0,0 C -0.352,0 -0.638,0.286 -0.638,0.638 -0.638,0.99 -0.352,1.276 0,1.276 0.352,1.276 0.638,0.99 0.638,0.638 0.638,0.286 0.352,0 0,0 m 0,1.914 c -0.705,0 -1.276,-0.571 -1.276,-1.276 0,-0.705 0.571,-1.276 1.276,-1.276 0.705,0 1.276,0.571 1.276,1.276 0,0.705 -0.571,1.276 -1.276,1.276"
             style="fill:#359c89;fill-opacity:1;fill-rule:nonzero;stroke:none"
             id="path3008"
             inkscape:connector-curvature="0" /></g><g
           id="g3010"
           transform="translate(330.0133,561.1208)"><path
             d="M 0,0 C -0.329,-0.337 -0.77,-0.523 -1.242,-0.523 H -12.18 c -0.472,0 -0.913,0.186 -1.242,0.523 -0.328,0.336 -0.501,0.78 -0.489,1.249 0.208,8.04 1.809,12.464 2.745,14.386 0.29,0.594 0.903,0.978 1.562,0.978 h 5.786 c 0.66,0 1.272,-0.384 1.562,-0.978 C -1.32,13.713 0.281,9.289 0.489,1.249 0.501,0.78 0.328,0.336 0,0 m -8.784,17.959 v 0 c 0,0.012 0.01,0.022 0.022,0.022 h 2.051 c 0.177,0 0.32,0.143 0.32,0.319 0,0.177 -0.143,0.32 -0.32,0.32 H -8.1 v 1.048 c 0,0.2 0.163,0.364 0.363,0.364 h 2.052 c 0.2,0 0.363,-0.164 0.363,-0.364 V 18.62 h -0.021 c -0.177,0 -0.32,-0.143 -0.32,-0.32 0,-0.176 0.143,-0.319 0.32,-0.319 h 0.683 c 0.012,0 0.022,-0.01 0.022,-0.022 V 17.253 H -8.784 Z M 1.129,1.266 c -0.043,1.642 -0.18,4.162 -0.59,6.838 -0.484,3.153 -1.231,5.781 -2.22,7.811 -0.396,0.813 -1.234,1.338 -2.137,1.338 h -0.18 v 0.706 c 0,0.364 -0.297,0.661 -0.662,0.661 h -0.022 v 1.048 c 0,0.553 -0.45,1.003 -1.003,1.003 h -2.052 c -0.553,0 -1.003,-0.45 -1.003,-1.003 V 18.62 h -0.022 c -0.365,0 -0.662,-0.297 -0.662,-0.661 v -0.706 h -0.18 c -0.902,0 -1.741,-0.525 -2.137,-1.338 -0.989,-2.03 -1.735,-4.658 -2.22,-7.811 -0.41,-2.676 -0.547,-5.196 -0.59,-6.838 -0.016,-0.644 0.222,-1.252 0.671,-1.712 0.45,-0.463 1.054,-0.717 1.7,-0.717 h 10.938 c 0.646,0 1.25,0.254 1.7,0.717 0.449,0.46 0.687,1.068 0.671,1.712"
             style="fill:#359c89;fill-opacity:1;fill-rule:nonzero;stroke:none"
             id="path3012"
             inkscape:connector-curvature="0" /></g><g
           id="g3014"
           transform="translate(320.363,574.3487)"><path
             d="m 0,0 c -0.506,-1.482 -0.916,-3.209 -1.22,-5.132 -0.038,-0.24 -0.239,-0.415 -0.479,-0.415 h -0.08 c -0.142,0 -0.277,0.063 -0.369,0.171 -0.093,0.109 -0.132,0.252 -0.109,0.393 0.333,2.031 0.788,3.824 1.351,5.33 0.068,0.182 0.249,0.304 0.452,0.304 0.157,0 0.299,-0.073 0.389,-0.2 C 0.029,0.319 0.053,0.155 0,0 M 0.456,0.823 C 0.243,1.12 -0.088,1.29 -0.457,1.29 c -0.466,0 -0.887,-0.289 -1.048,-0.719 -0.578,-1.545 -1.043,-3.378 -1.383,-5.45 -0.054,-0.327 0.038,-0.659 0.252,-0.911 0.214,-0.252 0.527,-0.396 0.857,-0.396 h 0.08 c 0.556,0 1.024,0.401 1.111,0.954 0.298,1.887 0.699,3.578 1.193,5.025 0.119,0.348 0.063,0.733 -0.149,1.03"
             style="fill:#359c89;fill-opacity:1;fill-rule:nonzero;stroke:none"
             id="path3016"
             inkscape:connector-curvature="0" /></g><g
           id="g3018"
           transform="translate(329.068,563.049)"><path
             d="m 0,0 c -0.093,2.355 -0.427,6.872 -1.625,10.656 -0.054,0.169 -0.233,0.262 -0.402,0.209 -0.168,-0.054 -0.261,-0.233 -0.208,-0.402 1.175,-3.713 1.504,-8.165 1.596,-10.488 0.004,-0.1 -0.032,-0.194 -0.1,-0.265 -0.069,-0.071 -0.161,-0.111 -0.262,-0.111 l -9.53,-0.003 v 0 c -0.1,0 -0.193,0.04 -0.261,0.111 -0.069,0.071 -0.104,0.165 -0.1,0.265 0.037,0.935 0.098,1.879 0.182,2.806 0.014,0.16 0.146,0.284 0.3,0.284 v 0 c 1.574,-0.003 2.897,1.127 3.143,2.686 0.21,1.332 0.961,4.419 1.615,6.405 0.095,0.288 0.364,0.481 0.669,0.481 h 1.454 c 0.283,0 0.539,-0.169 0.652,-0.431 0.055,-0.128 0.11,-0.261 0.164,-0.395 0.065,-0.164 0.251,-0.244 0.415,-0.179 0.164,0.066 0.244,0.252 0.179,0.416 -0.056,0.139 -0.113,0.278 -0.171,0.411 -0.214,0.497 -0.7,0.818 -1.239,0.818 h -1.454 c -0.582,0 -1.095,-0.37 -1.277,-0.921 C -6.922,10.34 -7.685,7.203 -7.899,5.848 -8.095,4.604 -9.149,3.702 -10.404,3.702 h -0.006 c -0.482,0 -0.894,-0.38 -0.938,-0.866 -0.084,-0.938 -0.146,-1.893 -0.184,-2.839 -0.011,-0.275 0.088,-0.536 0.279,-0.733 0.19,-0.198 0.446,-0.307 0.722,-0.307 v 0 L -1,-1.04 c 0.275,0 0.532,0.109 0.722,0.307 C -0.088,-0.535 0.011,-0.275 0,0"
             style="fill:#359c89;fill-opacity:1;fill-rule:nonzero;stroke:none"
             id="path3020"
             inkscape:connector-curvature="0" /></g><g
           id="g3022"
           transform="translate(324.6697,564.6997)"><path
             d="m 0,0 c -0.955,0 -1.731,0.777 -1.731,1.731 0,0.955 0.776,1.732 1.731,1.732 0.955,0 1.731,-0.777 1.731,-1.732 C 1.731,0.777 0.955,0 0,0 m 0,4.102 c -1.307,0 -2.371,-1.063 -2.371,-2.371 0,-1.307 1.064,-2.371 2.371,-2.371 1.307,0 2.371,1.064 2.371,2.371 0,1.308 -1.064,2.371 -2.371,2.371"
             style="fill:#359c89;fill-opacity:1;fill-rule:nonzero;stroke:none"
             id="path3024"
             inkscape:connector-curvature="0" /></g><g
           id="g3026"
           transform="translate(324.6697,570.1694)"><path
             d="m 0,0 c -0.389,0 -0.706,0.317 -0.706,0.706 0,0.389 0.317,0.705 0.706,0.705 0.389,0 0.706,-0.316 0.706,-0.705 C 0.706,0.317 0.389,0 0,0 m 0,2.051 c -0.742,0 -1.345,-0.603 -1.345,-1.345 0,-0.742 0.603,-1.346 1.345,-1.346 0.742,0 1.345,0.604 1.345,1.346 0,0.742 -0.603,1.345 -1.345,1.345"
             style="fill:#359c89;fill-opacity:1;fill-rule:nonzero;stroke:none"
             id="path3028"
             inkscape:connector-curvature="0" /></g><g
           id="g3030"
           transform="translate(324.6697,567.4346)"><path
             d="m 0,0 c -0.177,0 -0.32,-0.143 -0.32,-0.32 0,-0.177 0.143,-0.32 0.32,-0.32 0.201,0 0.364,-0.163 0.364,-0.364 0,-0.176 0.143,-0.319 0.32,-0.319 0.176,0 0.32,0.143 0.32,0.319 C 1.004,-0.45 0.553,0 0,0"
             style="fill:#359c89;fill-opacity:1;fill-rule:nonzero;stroke:none"
             id="path3032"
             inkscape:connector-curvature="0" /></g><g
           id="g3034"
           transform="translate(309.7646,451.8077)"><path
             d="M 0,0 C -0.027,0.177 0.017,0.353 0.125,0.496 L 2.627,3.811 C 2.735,3.954 2.893,4.045 3.07,4.068 3.247,4.09 3.421,4.041 3.561,3.93 5.95,2.028 6.924,0.531 7.292,-0.192 7.406,-0.416 7.382,-0.689 7.232,-0.889 L 5.908,-2.643 C 5.757,-2.843 5.501,-2.941 5.254,-2.892 4.458,-2.737 2.751,-2.21 0.267,-0.434 0.122,-0.33 0.027,-0.176 0,0 m 7.452,-1.446 v 0 C 7.455,-1.448 7.456,-1.454 7.453,-1.457 L 6.984,-2.079 c -0.04,-0.053 -0.03,-0.13 0.024,-0.17 0.054,-0.04 0.13,-0.03 0.17,0.024 l 0.318,0.421 0.317,-0.24 C 7.874,-2.09 7.886,-2.176 7.84,-2.237 L 7.371,-2.859 C 7.325,-2.92 7.239,-2.932 7.178,-2.886 l -0.318,0.24 0.005,0.006 c 0.041,0.054 0.03,0.13 -0.023,0.17 -0.054,0.041 -0.13,0.03 -0.171,-0.023 L 6.515,-2.701 C 6.512,-2.704 6.507,-2.705 6.503,-2.702 l -0.213,0.161 0.948,1.257 z m -7.327,0.814 c 0.508,-0.362 1.303,-0.897 2.208,-1.385 1.066,-0.574 2.033,-0.949 2.875,-1.114 0.337,-0.066 0.688,0.068 0.894,0.342 l 0.041,0.054 0.214,-0.161 c 0.111,-0.083 0.268,-0.061 0.352,0.049 l 0.005,0.007 0.317,-0.24 c 0.168,-0.126 0.408,-0.093 0.534,0.075 l 0.469,0.621 c 0.127,0.168 0.093,0.408 -0.074,0.534 l -0.318,0.24 0.005,0.006 c 0.084,0.111 0.062,0.269 -0.049,0.352 l -0.214,0.162 0.042,0.054 c 0.206,0.274 0.239,0.648 0.083,0.954 C 7.12,0.682 6.494,1.509 5.649,2.377 4.932,3.114 4.2,3.732 3.712,4.12 3.521,4.272 3.282,4.339 3.039,4.309 2.796,4.278 2.581,4.153 2.434,3.957 L -0.068,0.642 C -0.216,0.447 -0.277,0.205 -0.24,-0.037 -0.203,-0.278 -0.073,-0.49 0.125,-0.632"
             style="fill:#359c89;fill-opacity:1;fill-rule:nonzero;stroke:none"
             id="path3036"
             inkscape:connector-curvature="0" /></g><g
           id="g3038"
           transform="translate(315.9808,451.7067)"><path
             d="M 0,0 C -0.333,0.492 -0.763,1.012 -1.276,1.544 -1.34,1.61 -1.347,1.711 -1.292,1.784 l 0.018,0.024 c 0.032,0.043 0.082,0.07 0.136,0.073 0.054,0.003 0.107,-0.018 0.144,-0.057 C -0.455,1.258 -0.015,0.71 0.312,0.195 0.352,0.133 0.348,0.05 0.301,-0.011 0.265,-0.059 0.211,-0.085 0.151,-0.084 0.09,-0.082 0.035,-0.052 0,0 m 0.145,-0.326 c 0.139,-0.004 0.266,0.058 0.35,0.169 0.107,0.142 0.116,0.335 0.022,0.483 C 0.181,0.854 -0.268,1.414 -0.818,1.991 -0.905,2.082 -1.026,2.13 -1.152,2.123 -1.277,2.116 -1.392,2.054 -1.468,1.954 L -1.486,1.93 c -0.128,-0.169 -0.113,-0.402 0.035,-0.555 0.504,-0.522 0.924,-1.03 1.25,-1.511 0.078,-0.116 0.208,-0.187 0.346,-0.19"
             style="fill:#359c89;fill-opacity:1;fill-rule:nonzero;stroke:none"
             id="path3040"
             inkscape:connector-curvature="0" /></g><g
           id="g3042"
           transform="translate(310.5652,451.6531)"><path
             d="m 0,0 c 0.735,-0.511 2.18,-1.442 3.601,-1.945 0.063,-0.022 0.133,0.011 0.155,0.074 0.023,0.063 -0.011,0.133 -0.074,0.155 C 2.288,-1.223 0.864,-0.304 0.139,0.199 0.108,0.221 0.087,0.253 0.081,0.29 0.075,0.327 0.085,0.365 0.107,0.395 l 2.179,2.889 v 0 C 2.309,3.314 2.342,3.333 2.38,3.338 2.417,3.342 2.454,3.331 2.483,3.307 2.758,3.082 3.03,2.848 3.292,2.61 3.337,2.57 3.344,2.501 3.309,2.454 v 0 C 2.948,1.978 2.988,1.319 3.404,0.888 3.76,0.519 4.524,-0.415 4.976,-1.067 5.041,-1.161 5.038,-1.287 4.969,-1.38 L 4.636,-1.82 C 4.571,-1.906 4.462,-1.945 4.357,-1.919 4.305,-1.907 4.252,-1.893 4.199,-1.878 4.134,-1.861 4.068,-1.899 4.05,-1.964 4.032,-2.028 4.07,-2.095 4.135,-2.113 4.19,-2.128 4.245,-2.142 4.299,-2.155 4.498,-2.204 4.707,-2.13 4.83,-1.966 l 0.332,0.44 C 5.296,-1.35 5.301,-1.109 5.176,-0.929 4.717,-0.267 3.941,0.682 3.579,1.056 3.247,1.4 3.214,1.926 3.502,2.306 3.502,2.307 3.503,2.308 3.503,2.308 3.613,2.454 3.592,2.666 3.455,2.79 3.19,3.031 2.915,3.268 2.637,3.495 2.556,3.562 2.454,3.591 2.351,3.579 2.247,3.567 2.156,3.514 2.093,3.43 H 2.092 L -0.086,0.541 C -0.149,0.458 -0.175,0.355 -0.159,0.252 -0.142,0.149 -0.086,0.06 0,0"
             style="fill:#359c89;fill-opacity:1;fill-rule:nonzero;stroke:none"
             id="path3044"
             inkscape:connector-curvature="0" /></g><g
           id="g3046"
           transform="translate(312.0715,452.6085)"><path
             d="M 0,0 C 0.218,0.289 0.631,0.347 0.921,0.129 1.21,-0.09 1.268,-0.503 1.049,-0.792 0.831,-1.081 0.418,-1.139 0.129,-0.921 -0.161,-0.702 -0.218,-0.289 0,0 m 1.243,-0.938 c 0.299,0.396 0.22,0.961 -0.176,1.261 -0.396,0.299 -0.962,0.22 -1.261,-0.177 -0.299,-0.396 -0.22,-0.962 0.176,-1.261 0.397,-0.299 0.962,-0.22 1.261,0.177"
             style="fill:#359c89;fill-opacity:1;fill-rule:nonzero;stroke:none"
             id="path3048"
             inkscape:connector-curvature="0" /></g><g
           id="g3050"
           transform="translate(313.7292,451.3574)"><path
             d="M 0,0 C 0.089,0.118 0.257,0.141 0.375,0.052 0.493,-0.037 0.517,-0.205 0.428,-0.323 0.339,-0.441 0.17,-0.464 0.052,-0.375 -0.065,-0.286 -0.089,-0.118 0,0 m 0.622,-0.469 c 0.169,0.225 0.124,0.546 -0.1,0.715 -0.225,0.17 -0.546,0.125 -0.716,-0.1 -0.17,-0.224 -0.125,-0.545 0.1,-0.715 0.225,-0.17 0.546,-0.125 0.716,0.1"
             style="fill:#359c89;fill-opacity:1;fill-rule:nonzero;stroke:none"
             id="path3052"
             inkscape:connector-curvature="0" /></g><g
           id="g3054"
           transform="translate(312.9003,451.983)"><path
             d="M 0,0 C 0.04,0.054 0.03,0.13 -0.024,0.17 -0.077,0.21 -0.153,0.2 -0.194,0.146 -0.24,0.086 -0.327,0.073 -0.387,0.119 -0.441,0.16 -0.517,0.149 -0.557,0.095 -0.598,0.042 -0.587,-0.034 -0.534,-0.075 -0.366,-0.201 -0.127,-0.168 0,0"
             style="fill:#359c89;fill-opacity:1;fill-rule:nonzero;stroke:none"
             id="path3056"
             inkscape:connector-curvature="0" /></g><g
           id="g3058"
           transform="translate(318.1498,446.2202)"><path
             d="m 0,0 c 0.141,1.263 -0.82,2.582 -0.82,2.582 l 0.469,0.622 c 0,0 2.372,-0.796 2.684,-3.204 z"
             style="fill:#359c89;fill-opacity:1;fill-rule:nonzero;stroke:none"
             id="path3060"
             inkscape:connector-curvature="0" /></g></g></g><text
       y="-485.21756"
       x="385.70886"
       style="font-variant:normal;font-weight:600;font-stretch:normal;font-size:9.01980019px;font-family:'Raleway SemiBold';-inkscape-font-specification:Raleway-SemiBold;writing-mode:lr-tb;fill:#ee213f;fill-opacity:1;fill-rule:nonzero;stroke:none;stroke-width:0.99999994"
       id="text3066"
       transform="scale(1,-1)"><tspan
         style="stroke-width:0.99999994"
         x="385.70886 391.87836 394.33179 400.50134 405.36206"
         y="-485.21756"
         sodipodi:role="line"
         id="tspan3062">CICLO</tspan><tspan
         style="stroke-width:0.99999994"
         x="366.83041 372.3866 377.69025 383.8598 390.77795 397.56085 402.42255 409.20544 415.69067 418.14404 424.25043"
         y="-474.3938"
         sodipodi:role="line"
         id="tspan3064">TECNOLÓGICO</tspan></text>
<text
       y="-467.63657"
       x="378.64435"
       style="font-variant:normal;font-weight:600;font-stretch:normal;font-size:3.70569992px;font-family:'Raleway SemiBold';-inkscape-font-specification:Raleway-SemiBold;writing-mode:lr-tb;fill:#ee213f;fill-opacity:1;fill-rule:nonzero;stroke:none;stroke-width:0.99999994"
       id="text3070"
       transform="scale(1,-1)"><tspan
         style="stroke-width:0.99999994"
         x="378.64435 380.953 383.40247 386.18915 388.84241 391.62909 394.13788 396.29901 399.08569 400.00104 401.56116 402.47644 404.7406 406.97516 409.362 411.87445 412.88239 415.41711 416.42505"
         y="-467.63657"
         sodipodi:role="line"
         id="tspan3068">PRODUCTO - SERVICIO</tspan></text>
<g
       transform="translate(-40.317569,-20.951337)"
       id="g3072"><g
         id="g3074"
         clip-path="url(#clipPath3078)"><g
           id="g3080"
           transform="translate(406.0074,493.0255)"><path
             d="M 0,0 H 66.476"
             style="fill:#ee213f;fill-opacity:1;fill-rule:nonzero;stroke:none"
             id="path3082"
             inkscape:connector-curvature="0" /></g></g></g><text
       y="-485.21756"
       x="205.41383"
       style="font-variant:normal;font-weight:600;font-stretch:normal;font-size:9.01980019px;font-family:'Raleway SemiBold';-inkscape-font-specification:Raleway-SemiBold;writing-mode:lr-tb;fill:#359c89;fill-opacity:1;fill-rule:nonzero;stroke:none;stroke-width:0.99999994"
       id="text3088"
       transform="scale(1,-1)"><tspan
         style="stroke-width:0.99999994"
         x="205.41383 211.58336 214.03676 220.20628 225.06706"
         y="-485.21756"
         sodipodi:role="line"
         id="tspan3084">CICLO</tspan><tspan
         style="stroke-width:0.99999994"
         x="194.2383 200.32668 202.78004 209.56294 214.42461 221.2075 227.69273 230.14613 236.25252"
         y="-474.3938"
         sodipodi:role="line"
         id="tspan3086">BIOLÓGICO</tspan></text>
<text
       y="-467.63657"
       x="194.32112"
       style="font-variant:normal;font-weight:600;font-stretch:normal;font-size:3.70569992px;font-family:'Raleway SemiBold';-inkscape-font-specification:Raleway-SemiBold;writing-mode:lr-tb;fill:#359c89;fill-opacity:1;fill-rule:nonzero;stroke:none;stroke-width:0.99999994"
       id="text3092"
       transform="scale(1,-1)"><tspan
         style="stroke-width:0.99999994"
         x="194.32112 196.82988 199.61656 202.45885 204.72304 207.50972 210.73366 213.52037 214.43565 217.08894 219.32347 220.23878 222.54744 224.9969 227.78358 230.43687 233.22356 235.73232 237.89348 240.68016"
         y="-467.63657"
         sodipodi:role="line"
         id="tspan3090">CONSUMO DE PRODUCTOS</tspan></text>
<g
       id="g3102"
       transform="translate(194.57043,472.07426)"><path
         d="M 0,0 H 48.125"
         style="fill:#359c89;fill-opacity:1;fill-rule:nonzero;stroke:none"
         id="path3104"
         inkscape:connector-curvature="0" /></g><g
       id="g3106"
       transform="translate(291.35903,427.74406)"><path
         d="M 0,0 -1.42,7.966 8.486,2.056 Z"
         style="fill:#359c89;fill-opacity:1;fill-rule:nonzero;stroke:none"
         id="path3108"
         inkscape:connector-curvature="0" /></g><g
       id="g3110"
       transform="translate(487.21683,462.22926)"><path
         d="M 0,0 -4.593,6.661 6.871,5.387 Z"
         style="fill:#ee213f;fill-opacity:1;fill-rule:nonzero;stroke:none"
         id="path3112"
         inkscape:connector-curvature="0" /></g><g
       id="g3114"
       transform="translate(228.62923,390.15376)"><path
         d="M 0,0 5.609,6.051 6.416,-4.806 Z"
         style="fill:#359c89;fill-opacity:1;fill-rule:nonzero;stroke:none"
         id="path3116"
         inkscape:connector-curvature="0" /></g><g
       id="g3118"
       transform="translate(131.83823,503.92936)"><path
         d="M 0,0 3.494,-6.714 -6.525,-4.657 Z"
         style="fill:#359c89;fill-opacity:1;fill-rule:nonzero;stroke:none"
         id="path3120"
         inkscape:connector-curvature="0" /></g><g
       id="g3122"
       transform="translate(147.35363,425.04846)"><path
         d="M 0,0 7.392,-1.626 -0.612,-7.993 Z"
         style="fill:#359c89;fill-opacity:1;fill-rule:nonzero;stroke:none"
         id="path3124"
         inkscape:connector-curvature="0" /></g><g
       id="g3126"
       transform="translate(180.32353,561.63286)"><path
         d="M 0,0 -2.725,-7.061 -7.808,1.814 Z"
         style="fill:#359c89;fill-opacity:1;fill-rule:nonzero;stroke:none"
         id="path3128"
         inkscape:connector-curvature="0" /></g><g
       id="g3130"
       transform="translate(269.75363,554.32606)"><path
         d="m 0,0 -7.438,-1.401 4.869,8.995 z"
         style="fill:#359c89;fill-opacity:1;fill-rule:nonzero;stroke:none"
         id="path3132"
         inkscape:connector-curvature="0" /></g><path
       d="m 332.50343,543.62466 h -14.075 v 9.584 h 14.075 z"
       style="fill:#ee213f;fill-opacity:1;fill-rule:nonzero;stroke:none"
       id="path3134"
       inkscape:connector-curvature="0" /><path
       d="m 334.55243,545.31966 h -14.075 v 9.584 h 14.075 z"
       style="fill:#ee213f;fill-opacity:1;fill-rule:nonzero;stroke:none"
       id="path3136"
       inkscape:connector-curvature="0" /><path
       d="m 336.57143,547.18666 h -14.075 v 9.584 h 14.075 z"
       style="fill:#ee213f;fill-opacity:1;fill-rule:nonzero;stroke:none"
       id="path3138"
       inkscape:connector-curvature="0" /><path
       d="m 340.13343,543.62466 h -1.332 v 11.278 h 1.332 z"
       style="fill:#ee213f;fill-opacity:1;fill-rule:nonzero;stroke:none"
       id="path3140"
       inkscape:connector-curvature="0" /><path
       d="m 342.43443,543.62466 h -1.332 v 11.278 h 1.332 z"
       style="fill:#ee213f;fill-opacity:1;fill-rule:nonzero;stroke:none"
       id="path3142"
       inkscape:connector-curvature="0" /><path
       d="m 345.02843,543.62466 h -1.332 v 11.278 h 1.332 z"
       style="fill:#ee213f;fill-opacity:1;fill-rule:nonzero;stroke:none"
       id="path3144"
       inkscape:connector-curvature="0" /><path
       d="m 347.41443,543.62466 h -1.332 v 11.278 h 1.332 z"
       style="fill:#ee213f;fill-opacity:1;fill-rule:nonzero;stroke:none"
       id="path3146"
       inkscape:connector-curvature="0" /><path
       d="m 349.70243,543.62466 h -1.332 v 11.278 h 1.332 z"
       style="fill:#ee213f;fill-opacity:1;fill-rule:nonzero;stroke:none"
       id="path3148"
       inkscape:connector-curvature="0" /><g
       id="g3150"
       transform="translate(493.54223,514.51306)"><path
         d="m 0,0 h -4.036 v 0.621 c 0,0.171 0.14,0.31 0.311,0.31 H -0.31 C -0.139,0.931 0,0.792 0,0.621 Z m 0,-5.277 h -4.036 v 4.656 H 0 Z M 0,-6.519 C 0,-6.69 -0.139,-6.83 -0.31,-6.83 h -3.415 c -0.171,0 -0.311,0.14 -0.311,0.311 v 0.621 H 0 Z m -4.656,7.14 V 0 h -4.657 v 2.794 c 0,0.513 -0.418,0.931 -0.931,0.931 h -6.209 v 4.657 c 0,0.513 0.418,0.931 0.931,0.931 h 13.659 c 0.514,0 0.932,-0.418 0.932,-0.931 v -6.83 h -2.794 c -0.514,0 -0.931,-0.418 -0.931,-0.931 m 0,-3.104 h -4.656 v 1.863 h 4.656 z m -4.657,-2.173 v 1.552 h 2.246 l 0.424,-1.552 z m 2.901,-0.85 c 0.026,-0.094 0.007,-0.193 -0.052,-0.27 -0.06,-0.078 -0.149,-0.122 -0.247,-0.122 h -2.602 v 0.621 h 2.839 z m -3.522,7.679 h -7.45 v 0.621 c 0,0.171 0.139,0.31 0.31,0.31 h 6.83 c 0.171,0 0.31,-0.139 0.31,-0.31 z m 0,-7.45 h -7.45 v 6.83 h 7.45 z m 0,-1.242 c 0,-0.171 -0.139,-0.311 -0.31,-0.311 h -6.83 c -0.171,0 -0.31,0.14 -0.31,0.311 v 0.621 h 7.45 z m 9.624,8.071 v 6.83 c 0,0.856 -0.697,1.552 -1.553,1.552 h -13.659 c -0.856,0 -1.552,-0.696 -1.552,-1.552 V 3.725 c -0.513,0 -0.931,-0.418 -0.931,-0.931 v -9.313 c 0,-0.514 0.418,-0.931 0.931,-0.931 h 6.83 c 0.513,0 0.931,0.417 0.931,0.931 h 2.602 c 0.292,0 0.562,0.133 0.74,0.366 0.177,0.232 0.235,0.528 0.158,0.81 l -0.61,2.239 h 1.767 v -3.415 c 0,-0.514 0.417,-0.931 0.931,-0.931 h 3.415 c 0.513,0 0.931,0.417 0.931,0.931 v 7.14 c 0,0.513 -0.418,0.931 -0.931,0.931"
         style="fill:#ee213f;fill-opacity:1;fill-rule:nonzero;stroke:none"
         id="path3152"
         inkscape:connector-curvature="0" /></g><g
       id="g3154"
       transform="translate(489.07443,438.59056)"><path
         d="m 0,0 h -4.914 v 7.394 c 0,0.568 -0.463,1.031 -1.031,1.031 H -9.5 c -0.569,0 -1.031,-0.463 -1.031,-1.031 V 0 h -4.914 v 11.657 l 7.722,7.171 5.013,-4.655 2.008,-1.864 L 0,11.657 Z m -9.829,0 v 7.394 c 0,0.181 0.148,0.329 0.329,0.329 h 3.555 c 0.181,0 0.329,-0.148 0.329,-0.329 V 0 Z m 6.319,17.2 h 2.106 v -3.281 l -2.106,1.955 z m 5.855,-6.763 -3.047,2.83 v 4.635 h -3.51 v -1.376 l -3.511,3.26 -10.067,-9.349 c -0.142,-0.132 -0.15,-0.354 -0.018,-0.496 0.131,-0.142 0.354,-0.15 0.496,-0.019 l 1.165,1.082 V -0.702 h 5.617 5.616 5.616 V 11.005 L 1.867,9.923 C 1.935,9.86 2.021,9.829 2.107,9.829 c 0.094,0 0.188,0.038 0.256,0.112 0.132,0.142 0.124,0.364 -0.018,0.496"
         style="fill:#ee213f;fill-opacity:1;fill-rule:nonzero;stroke:none"
         id="path3156"
         inkscape:connector-curvature="0" /></g><path
       d="m 444.99243,381.1086 h -42.299 v 31.75806 h 42.299 z"
       style="fill:#ffffff;fill-opacity:1;fill-rule:nonzero;stroke:none;stroke-width:0.92709792"
       id="path3158"
       inkscape:connector-curvature="0" /><text
       y="-381.34946"
       x="405.95392"
       style="font-variant:normal;font-weight:600;font-stretch:normal;font-size:5.37909985px;font-family:'Raleway SemiBold';-inkscape-font-specification:Raleway-SemiBold;writing-mode:lr-tb;fill:#ee213f;fill-opacity:1;fill-rule:nonzero;stroke:none;stroke-width:0.99999994"
       id="text3162"
       transform="scale(1,-1)"><tspan
         style="stroke-width:0.99999994"
         x="405.95392 409.80536 413.04895 416.55664 420.60175 423.50592 427.55103 431.23035 432.69342 436.73853"
         y="-381.34946"
         sodipodi:role="line"
         id="tspan3160">DEVOLUCIÓN</tspan></text>
<g
       transform="translate(-40.317569,-20.951337)"
       id="g3164"><g
         id="g3166"
         clip-path="url(#clipPath3170)"><path
           d="m 403.025,415.914 h -47.004 v 38.285 h 47.004 z"
           style="fill:#ffffff;fill-opacity:1;fill-rule:nonzero;stroke:none"
           id="path3172"
           inkscape:connector-curvature="0" /></g></g><text
       y="-396.89728"
       x="321.16876"
       style="font-variant:normal;font-weight:600;font-stretch:normal;font-size:5.37909985px;font-family:'Raleway SemiBold';-inkscape-font-specification:Raleway-SemiBold;writing-mode:lr-tb;fill:#ee213f;fill-opacity:1;fill-rule:nonzero;stroke:none;stroke-width:0.99999994"
       id="text3176"
       transform="scale(1,-1)"><tspan
         style="stroke-width:0.99999994"
         x="321.16876 325.02017 328.26376 331.77151 335.81659 338.72073 342.76584 346.44513 347.90823 351.95334"
         y="-396.89728"
         sodipodi:role="line"
         id="tspan3174">DEVOLUCIÓN</tspan></text>
<g
       transform="translate(-40.317569,-20.951337)"
       id="g3178"><g
         id="g3180"
         clip-path="url(#clipPath3184)"><g
           id="g3186"
           transform="translate(471.192,422.2786)"><path
             d="M 0,0 V 2.103 L 1.577,0 Z m 1.051,-13.879 h -2.313 v 10.935 h -12.406 v -10.935 h -2.314 V -0.631 H 1.051 Z M -14.93,2.103 V 0 h -1.577 z m 0.631,0.71 1.752,0.516 V 0 h -1.752 z m 2.383,0.701 1.752,0.515 V 0 h -1.752 z M -9.533,4.215 -7.78,4.73 V 0 H -9.533 Z M -7.15,4.73 -5.397,4.215 V 0 H -7.15 Z M -4.766,4.029 -3.014,3.514 V 0 h -1.752 z m 2.383,-0.7 1.752,-0.516 V 0 h -1.752 z m 2.257,-0.007 -7.339,2.159 -7.339,-2.159 -2.965,-3.953 h 1.157 V -14.51 h 3.574 V -3.575 H -1.893 V -14.51 h 3.575 v 13.879 h 1.157 z"
             style="fill:#ee213f;fill-opacity:1;fill-rule:nonzero;stroke:none"
             id="path3188"
             inkscape:connector-curvature="0" /></g><g
           id="g3190"
           transform="translate(462.5704,412.185)"><path
             d="m 0,0 h -0.631 -1.892 -0.631 v 3.154 h 0.631 V 1.893 h 1.892 V 3.154 H 0 Z m -1.893,-0.631 h 0.631 V -1.262 H -1.893 Z M 0,-3.785 h -3.154 v 3.154 h 0.631 v -1.262 h 1.892 v 1.262 H 0 Z m -1.893,6.939 h 0.631 V 2.523 h -0.631 z m 1.262,0.631 H -2.523 -3.785 V 0 -0.631 -4.416 H 0.631 V -0.631 0 3.785 Z"
             style="fill:#ee213f;fill-opacity:1;fill-rule:nonzero;stroke:none"
             id="path3192"
             inkscape:connector-curvature="0" /></g><g
           id="g3194"
           transform="translate(468.0378,408.3999)"><path
             d="m 0,0 h -3.154 v 3.154 h 0.631 V 1.893 h 1.892 V 3.154 H 0 Z m -1.893,3.154 h 0.631 V 2.523 h -0.631 z m 1.262,0.631 h -1.892 -1.262 v -4.416 h 4.416 v 4.416 z"
             style="fill:#ee213f;fill-opacity:1;fill-rule:nonzero;stroke:none"
             id="path3196"
             inkscape:connector-curvature="0" /></g><path
           d="m 464.673,420.596 h 0.631 v -0.631 h -0.631 z"
           style="fill:#ee213f;fill-opacity:1;fill-rule:nonzero;stroke:none"
           id="path3198"
           inkscape:connector-curvature="0" /><path
           d="m 463.411,420.596 h 0.631 v -0.631 h -0.631 z"
           style="fill:#ee213f;fill-opacity:1;fill-rule:nonzero;stroke:none"
           id="path3200"
           inkscape:connector-curvature="0" /><path
           d="m 462.15,420.596 h 0.631 v -0.631 h -0.631 z"
           style="fill:#ee213f;fill-opacity:1;fill-rule:nonzero;stroke:none"
           id="path3202"
           inkscape:connector-curvature="0" /><g
           id="g3204"
           transform="translate(375.1771,441.6543)"><path
             d="m 0,0 c 0,-2.732 -2.215,-4.946 -4.946,-4.946 -2.732,0 -4.947,2.214 -4.947,4.946 0,2.732 2.215,4.946 4.947,4.946 C -2.215,4.946 0,2.732 0,0"
             style="fill:#ee213f;fill-opacity:1;fill-rule:nonzero;stroke:none"
             id="path3206"
             inkscape:connector-curvature="0" /></g><g
           id="g3208"
           transform="translate(392.599,442.0149)"><path
             d="m 0,0 c 0,-1.628 -1.32,-2.948 -2.948,-2.948 -1.628,0 -2.948,1.32 -2.948,2.948 0,1.628 1.32,2.948 2.948,2.948 C -1.32,2.948 0,1.628 0,0"
             style="fill:#ee213f;fill-opacity:1;fill-rule:nonzero;stroke:none"
             id="path3210"
             inkscape:connector-curvature="0" /></g><path
           d="m 377.17,439.843 h -1.281 v 13 h 1.281 z"
           style="fill:#ee213f;fill-opacity:1;fill-rule:nonzero;stroke:none"
           id="path3212"
           inkscape:connector-curvature="0" /><path
           d="m 375.177,427.161 h -1.281 v 8.13 h 1.281 z"
           style="fill:#ee213f;fill-opacity:1;fill-rule:nonzero;stroke:none"
           id="path3214"
           inkscape:connector-curvature="0" /><path
           d="m 370.231,427.161 h -1.281 v 8.13 h 1.281 z"
           style="fill:#ee213f;fill-opacity:1;fill-rule:nonzero;stroke:none"
           id="path3216"
           inkscape:connector-curvature="0" /><path
           d="m 379.615,439.843 h -1.281 v 8.13 h 1.281 z"
           style="fill:#ee213f;fill-opacity:1;fill-rule:nonzero;stroke:none"
           id="path3218"
           inkscape:connector-curvature="0" /><path
           d="m 372.927,427.161 h -1.281 v 8.13 h 1.281 z"
           style="fill:#ee213f;fill-opacity:1;fill-rule:nonzero;stroke:none"
           id="path3220"
           inkscape:connector-curvature="0" /><path
           d="m 376.372,438.23 h 11.705 v -1.281 h -11.705 z"
           style="fill:#ee213f;fill-opacity:1;fill-rule:nonzero;stroke:none"
           id="path3222"
           inkscape:connector-curvature="0" /><path
           d="m 376.529,435.725 h 7.297 v -11.66 h -7.297 z"
           style="fill:#ee213f;fill-opacity:1;fill-rule:nonzero;stroke:none"
           id="path3224"
           inkscape:connector-curvature="0" /><path
           d="m 381.029,447.199 h 4.766 v -4.605 h -4.766 z"
           style="fill:#ee213f;fill-opacity:1;fill-rule:nonzero;stroke:none"
           id="path3226"
           inkscape:connector-curvature="0" /><path
           d="m 385.154,435.725 h 4.984 v -4.785 h -4.984 z"
           style="fill:#ee213f;fill-opacity:1;fill-rule:nonzero;stroke:none"
           id="path3228"
           inkscape:connector-curvature="0" /><g
           id="g3230"
           transform="translate(374.3829,498.6667)"><path
             d="m 0,0 c 0,-14.12 -11.446,-25.566 -25.566,-25.566 -14.12,0 -25.567,11.446 -25.567,25.566 0,14.12 11.447,25.566 25.567,25.566 C -11.446,25.566 0,14.12 0,0"
             style="fill:#359c89;fill-opacity:1;fill-rule:nonzero;stroke:none"
             id="path3232"
             inkscape:connector-curvature="0" /></g><g
           id="g3234"
           transform="translate(365.0479,497.8089)"><path
             d="M 0,0 H -8.609 V 0.347 0.478 0.614 0.809 0.869 0.937 1.06 1.08 1.128 1.172 1.2 1.252 1.307 1.335 1.371 1.407 1.443 1.531 1.57 1.622 1.674 l -0.028,0.1 v 0.04 0.035 0.028 0.04 0.052 l -0.056,0.155 c -0.519,1.381 -1.579,2.491 -2.934,3.073 0.24,0.355 0.532,0.673 0.865,0.941 0.63,0.356 1.341,0.543 2.065,0.542 h 4.472 C -1.894,6.674 -0.007,4.786 0,2.455 Z m -9.773,0.283 v -2.455 h -12.91 v 2.499 0.131 0.208 0.103 0.12 0.127 0.04 0.044 0.088 l 0.024,0.095 0.039,0.144 0.028,0.096 c 0.573,1.735 2.191,2.91 4.018,2.917 l 0.116,0.064 h 4.472 c 2.122,-0.008 3.912,-1.583 4.189,-3.687 0,-0.088 0,-0.175 0.024,-0.263 z M -23.795,0.801 V 0.678 0.514 0.283 0.004 h -8.65 v 2.451 c 0.007,2.331 1.895,4.219 4.225,4.225 h 4.469 c 0.723,0.001 1.434,-0.186 2.064,-0.542 0.422,-0.239 0.801,-0.547 1.12,-0.913 -1.798,-0.78 -3.033,-2.473 -3.228,-4.424 m 19.57,7.035 h -4.468 c -0.923,10e-4 -1.831,-0.238 -2.635,-0.693 -0.684,-0.388 -1.275,-0.92 -1.734,-1.559 -0.305,0.053 -0.614,0.08 -0.924,0.08 h -4.472 c -0.31,0 -0.62,-0.027 -0.925,-0.08 -0.458,0.639 -1.05,1.171 -1.734,1.559 -0.803,0.455 -1.711,0.694 -2.634,0.693 H -28.22 C -31.189,7.83 -33.594,5.424 -33.6,2.455 v -3.033 c 0.002,-0.318 0.26,-0.574 0.578,-0.574 h 9.167 v -1.594 c 0,-0.319 0.259,-0.578 0.578,-0.578 h 14.094 c 0.319,0 0.578,0.259 0.578,0.578 v 1.594 h 9.167 c 0.319,0 0.578,0.259 0.578,0.578 V 2.455 C 1.133,5.418 -1.262,7.821 -4.225,7.836"
             style="fill:#ffffff;fill-opacity:1;fill-rule:nonzero;stroke:none"
             id="path3236"
             inkscape:connector-curvature="0" /></g><g
           id="g3238"
           transform="translate(341.121,508.6343)"><path
             d="m 0,0 c -1.138,-1.138 -2.982,-1.138 -4.121,-0.001 -1.138,1.138 -1.138,2.983 0,4.121 1.137,1.138 2.982,1.138 4.12,0.001 C 0.546,3.574 0.853,2.833 0.853,2.061 0.854,1.288 0.547,0.546 0,0 M 0.817,4.93 C 0.056,5.697 -0.98,6.127 -2.061,6.126 -4.308,6.128 -6.132,4.308 -6.134,2.06 -6.136,-0.187 -4.315,-2.011 -2.068,-2.013 0.18,-2.015 2.003,-0.195 2.005,2.053 2.006,3.132 1.579,4.167 0.817,4.93"
             style="fill:#ffffff;fill-opacity:1;fill-rule:nonzero;stroke:none"
             id="path3240"
             inkscape:connector-curvature="0" /></g><g
           id="g3242"
           transform="translate(360.6516,508.636)"><path
             d="m 0,0 c -1.138,-1.138 -2.982,-1.138 -4.121,-0.001 -0.546,0.546 -0.853,1.287 -0.853,2.06 -10e-4,0.773 0.306,1.515 0.853,2.061 1.137,1.138 2.982,1.138 4.12,0.001 C 1.137,2.983 1.138,1.138 0,0 M -2.057,6.128 C -4.305,6.13 -6.129,4.31 -6.13,2.063 c -0.002,-1.079 0.426,-2.114 1.188,-2.878 0.761,-0.766 1.797,-1.196 2.877,-1.196 2.248,-0.002 4.072,1.819 4.074,4.066 0.002,2.248 -1.819,4.071 -4.066,4.073"
             style="fill:#ffffff;fill-opacity:1;fill-rule:nonzero;stroke:none"
             id="path3244"
             inkscape:connector-curvature="0" /></g><g
           id="g3246"
           transform="translate(348.8248,505.6059)"><path
             d="m 0,0 c -1.609,0 -2.913,1.305 -2.913,2.914 10e-4,1.609 1.306,2.914 2.915,2.913 0.772,0 1.513,-0.307 2.059,-0.854 C 2.609,4.427 2.916,3.686 2.914,2.913 2.914,1.304 1.609,0 0,0 M 2.873,5.801 C 2.11,6.56 1.077,6.987 0.001,6.986 -1.079,6.987 -2.115,6.557 -2.877,5.791 -4.462,4.2 -4.457,1.626 -2.867,0.041 c 1.59,-1.585 4.165,-1.58 5.75,0.01 1.584,1.59 1.58,4.165 -0.01,5.75"
             style="fill:#ffffff;fill-opacity:1;fill-rule:nonzero;stroke:none"
             id="path3248"
             inkscape:connector-curvature="0" /></g></g></g><text
       y="-463.22546"
       x="290.58966"
       style="font-variant:normal;font-weight:600;font-stretch:normal;font-size:7.08449936px;font-family:'Raleway SemiBold';-inkscape-font-specification:Raleway-SemiBold;writing-mode:lr-tb;fill:#ffffff;fill-opacity:1;fill-rule:nonzero;stroke:none;stroke-width:0.99999994"
       id="text3252"
       transform="scale(1,-1)"><tspan
         style="stroke-width:0.99999994"
         x="290.58966 295.91721 300.24582 305.36084 310.14288 314.82574 316.75272 322.08026"
         y="-463.22546"
         sodipodi:role="line"
         id="tspan3250">USUARIOS</tspan></text>
</g></svg>