<?xml version="1.0" encoding="UTF-8" standalone="no"?>
<!-- Created with Inkscape (http://www.inkscape.org/) -->

<svg
   xmlns:dc="http://purl.org/dc/elements/1.1/"
   xmlns:cc="http://creativecommons.org/ns#"
   xmlns:rdf="http://www.w3.org/1999/02/22-rdf-syntax-ns#"
   xmlns:svg="http://www.w3.org/2000/svg"
   xmlns="http://www.w3.org/2000/svg"
   xmlns:sodipodi="http://sodipodi.sourceforge.net/DTD/sodipodi-0.dtd"
   xmlns:inkscape="http://www.inkscape.org/namespaces/inkscape"
   version="1.1"
   id="svg987"
   xml:space="preserve"
   width="281.2724"
   height="280.96707"
   viewBox="0 0 281.2724 280.96708"
   sodipodi:docname="circular-method.svg"
   inkscape:version="0.92.3 (2405546, 2018-03-11)"><metadata
     id="metadata993"><rdf:RDF><cc:Work
         rdf:about=""><dc:format>image/svg+xml</dc:format><dc:type
           rdf:resource="http://purl.org/dc/dcmitype/StillImage" /><dc:title></dc:title></cc:Work></rdf:RDF></metadata><defs
     id="defs991"><clipPath
       clipPathUnits="userSpaceOnUse"
       id="clipPath1015"><path
         d="M 0,792 H 612 V 0 H 0 Z"
         id="path1013"
         inkscape:connector-curvature="0" /></clipPath><clipPath
       clipPathUnits="userSpaceOnUse"
       id="clipPath1083"><path
         d="M 0,792 H 612 V 0 H 0 Z"
         id="path1081"
         inkscape:connector-curvature="0" /></clipPath><clipPath
       clipPathUnits="userSpaceOnUse"
       id="clipPath1103"><path
         d="M 0,792 H 612 V 0 H 0 Z"
         id="path1101"
         inkscape:connector-curvature="0" /></clipPath><clipPath
       clipPathUnits="userSpaceOnUse"
       id="clipPath1121"><path
         d="M 0,792 H 612 V 0 H 0 Z"
         id="path1119"
         inkscape:connector-curvature="0" /></clipPath><clipPath
       clipPathUnits="userSpaceOnUse"
       id="clipPath1157"><path
         d="M 0,792 H 612 V 0 H 0 Z"
         id="path1155"
         inkscape:connector-curvature="0" /></clipPath><clipPath
       clipPathUnits="userSpaceOnUse"
       id="clipPath1177"><path
         d="M 0,792 H 612 V 0 H 0 Z"
         id="path1175"
         inkscape:connector-curvature="0" /></clipPath><clipPath
       clipPathUnits="userSpaceOnUse"
       id="clipPath1199"><path
         d="M 0,792 H 612 V 0 H 0 Z"
         id="path1197"
         inkscape:connector-curvature="0" /></clipPath><clipPath
       clipPathUnits="userSpaceOnUse"
       id="clipPath1227"><path
         d="M 0,792 H 612 V 0 H 0 Z"
         id="path1225"
         inkscape:connector-curvature="0" /></clipPath><clipPath
       clipPathUnits="userSpaceOnUse"
       id="clipPath1249"><path
         d="M 0,792 H 612 V 0 H 0 Z"
         id="path1247"
         inkscape:connector-curvature="0" /></clipPath><clipPath
       clipPathUnits="userSpaceOnUse"
       id="clipPath1277"><path
         d="M 0,792 H 612 V 0 H 0 Z"
         id="path1275"
         inkscape:connector-curvature="0" /></clipPath><clipPath
       clipPathUnits="userSpaceOnUse"
       id="clipPath1301"><path
         d="M 0,792 H 612 V 0 H 0 Z"
         id="path1299"
         inkscape:connector-curvature="0" /></clipPath><clipPath
       clipPathUnits="userSpaceOnUse"
       id="clipPath1321"><path
         d="M 0,792 H 612 V 0 H 0 Z"
         id="path1319"
         inkscape:connector-curvature="0" /></clipPath><clipPath
       clipPathUnits="userSpaceOnUse"
       id="clipPath1351"><path
         d="M 0,792 H 612 V 0 H 0 Z"
         id="path1349"
         inkscape:connector-curvature="0" /></clipPath><clipPath
       clipPathUnits="userSpaceOnUse"
       id="clipPath1371"><path
         d="M 0,792 H 612 V 0 H 0 Z"
         id="path1369"
         inkscape:connector-curvature="0" /></clipPath><clipPath
       clipPathUnits="userSpaceOnUse"
       id="clipPath1391"><path
         d="M 0,792 H 612 V 0 H 0 Z"
         id="path1389"
         inkscape:connector-curvature="0" /></clipPath><clipPath
       clipPathUnits="userSpaceOnUse"
       id="clipPath1411"><path
         d="M 0,792 H 612 V 0 H 0 Z"
         id="path1409"
         inkscape:connector-curvature="0" /></clipPath><clipPath
       clipPathUnits="userSpaceOnUse"
       id="clipPath1469"><path
         d="M 0,792 H 612 V 0 H 0 Z"
         id="path1467"
         inkscape:connector-curvature="0" /></clipPath><clipPath
       clipPathUnits="userSpaceOnUse"
       id="clipPath1529"><path
         d="M 0,792 H 612 V 0 H 0 Z"
         id="path1527"
         inkscape:connector-curvature="0" /></clipPath><clipPath
       clipPathUnits="userSpaceOnUse"
       id="clipPath1541"><path
         d="m 497.282,66.173 h 38.14 v 38.268 h -38.14 z"
         id="path1539"
         inkscape:connector-curvature="0" /></clipPath><clipPath
       clipPathUnits="userSpaceOnUse"
       id="clipPath1549"><path
         d="m 490.986,103.566 h 50.961 V 67.1649 h -50.961 z"
         id="path1547"
         inkscape:connector-curvature="0" /></clipPath><clipPath
       clipPathUnits="userSpaceOnUse"
       id="clipPath1733"><path
         d="M 0,792 H 612 V 0 H 0 Z"
         id="path1731"
         inkscape:connector-curvature="0" /></clipPath><clipPath
       clipPathUnits="userSpaceOnUse"
       id="clipPath1785"><path
         d="M 0,792 H 612 V 0 H 0 Z"
         id="path1783"
         inkscape:connector-curvature="0" /></clipPath><clipPath
       clipPathUnits="userSpaceOnUse"
       id="clipPath3184"><path
         d="M 0,792 H 612 V 0 H 0 Z"
         id="path3182"
         inkscape:connector-curvature="0" /></clipPath><clipPath
       clipPathUnits="userSpaceOnUse"
       id="clipPath3170"><path
         d="M 0,792 H 612 V 0 H 0 Z"
         id="path3168"
         inkscape:connector-curvature="0" /></clipPath><clipPath
       clipPathUnits="userSpaceOnUse"
       id="clipPath3100"><path
         d="M 0,792 H 612 V 0 H 0 Z"
         id="path3098"
         inkscape:connector-curvature="0" /></clipPath><clipPath
       clipPathUnits="userSpaceOnUse"
       id="clipPath3078"><path
         d="M 0,792 H 612 V 0 H 0 Z"
         id="path3076"
         inkscape:connector-curvature="0" /></clipPath><clipPath
       clipPathUnits="userSpaceOnUse"
       id="clipPath2958"><path
         d="M 0,792 H 612 V 0 H 0 Z"
         id="path2956"
         inkscape:connector-curvature="0" /></clipPath><clipPath
       clipPathUnits="userSpaceOnUse"
       id="clipPath2944"><path
         d="M 0,792 H 612 V 0 H 0 Z"
         id="path2942"
         inkscape:connector-curvature="0" /></clipPath><clipPath
       clipPathUnits="userSpaceOnUse"
       id="clipPath2928"><path
         d="M 0,792 H 612 V 0 H 0 Z"
         id="path2926"
         inkscape:connector-curvature="0" /></clipPath><clipPath
       clipPathUnits="userSpaceOnUse"
       id="clipPath2912"><path
         d="M 0,792 H 612 V 0 H 0 Z"
         id="path2910"
         inkscape:connector-curvature="0" /></clipPath><clipPath
       clipPathUnits="userSpaceOnUse"
       id="clipPath2852"><path
         d="M 0,792 H 612 V 0 H 0 Z"
         id="path2850"
         inkscape:connector-curvature="0" /></clipPath><clipPath
       clipPathUnits="userSpaceOnUse"
       id="clipPath2838"><path
         d="M 0,792 H 612 V 0 H 0 Z"
         id="path2836"
         inkscape:connector-curvature="0" /></clipPath><clipPath
       clipPathUnits="userSpaceOnUse"
       id="clipPath2824"><path
         d="M 0,792 H 612 V 0 H 0 Z"
         id="path2822"
         inkscape:connector-curvature="0" /></clipPath><clipPath
       clipPathUnits="userSpaceOnUse"
       id="clipPath2810"><path
         d="M 0,792 H 612 V 0 H 0 Z"
         id="path2808"
         inkscape:connector-curvature="0" /></clipPath><clipPath
       clipPathUnits="userSpaceOnUse"
       id="clipPath2796"><path
         d="M 0,792 H 612 V 0 H 0 Z"
         id="path2794"
         inkscape:connector-curvature="0" /></clipPath><clipPath
       clipPathUnits="userSpaceOnUse"
       id="clipPath2754"><path
         d="M 0,792 H 612 V 0 H 0 Z"
         id="path2752"
         inkscape:connector-curvature="0" /></clipPath><clipPath
       clipPathUnits="userSpaceOnUse"
       id="clipPath5082"><path
         d="m 162.339,604.88 h 0.713 v -0.713 h -0.713 z"
         id="path5080"
         inkscape:connector-curvature="0" /></clipPath><clipPath
       clipPathUnits="userSpaceOnUse"
       id="clipPath7398"><path
         d="M 0,792 H 612 V 0 H 0 Z"
         id="path7396"
         inkscape:connector-curvature="0" /></clipPath><clipPath
       clipPathUnits="userSpaceOnUse"
       id="clipPath7398-1"><path
         d="M 0,792 H 612 V 0 H 0 Z"
         id="path7396-1"
         inkscape:connector-curvature="0" /></clipPath></defs><sodipodi:namedview
     pagecolor="#ffffff"
     bordercolor="#666666"
     borderopacity="1"
     objecttolerance="10"
     gridtolerance="10"
     guidetolerance="10"
     inkscape:pageopacity="0"
     inkscape:pageshadow="2"
     inkscape:window-width="1296"
     inkscape:window-height="704"
     id="namedview989"
     showgrid="false"
     fit-margin-top="0"
     fit-margin-left="0"
     fit-margin-right="0"
     fit-margin-bottom="0"
     inkscape:zoom="0.89393939"
     inkscape:cx="-12.17563"
     inkscape:cy="201.65935"
     inkscape:window-x="70"
     inkscape:window-y="27"
     inkscape:window-maximized="1"
     inkscape:current-layer="g995" /><g
     id="g995"
     inkscape:groupmode="layer"
     inkscape:label="1_2_METODOLOGÃAS"
     transform="matrix(1.3333333,0,0,-1.3333333,-818.55034,989.36915)"><g
       id="g7388"
       transform="translate(714.70227,738.45378)"><path
         d="m 0,0 0.048,-1.908 1.907,0.049 -0.051,1.907 z m -7.671,-0.406 0.157,-1.9 1.9,0.152 -0.154,1.904 z m -7.622,-0.92 0.257,-1.889 1.889,0.257 -0.258,1.892 z m -5.703,-1.093 -0.053,-0.01 -1.818,-0.462 -0.663,-0.598 0.12,-0.881 0.797,-0.4 0.212,0.03 1.799,0.456 0.023,0.003 -0.101,0.395 -0.287,1.476 z m -7.436,-2.008 -1.823,-0.573 -0.625,-0.634 0.171,-0.875 0.816,-0.35 0.212,0.042 1.819,0.57 0.625,0.633 -0.167,0.876 -0.82,0.353 z m -7.909,-2.794 -0.05,-0.017 -1.097,-0.49 -0.553,-0.699 0.269,-0.849 0.849,-0.257 0.205,0.063 1.095,0.481 0.005,0.003 0.61,0.23 -0.675,1.784 z m -6.387,-2.934 -1.697,-0.869 -0.511,-0.729 0.313,-0.836 0.864,-0.209 0.201,0.075 1.699,0.869 0.511,0.729 -0.313,0.836 -0.864,0.208 z m -6.723,-3.707 -0.548,-0.317 -0.045,-0.027 -1.065,-0.704 1.047,-1.59 1.024,0.67 0.544,0.321 0.473,0.756 -0.362,0.816 -0.875,0.159 z m -6.419,-4.307 -1.536,-1.13 -0.386,-0.804 0.443,-0.771 0.89,-0.066 0.182,0.102 1.539,1.135 0.388,0.8 -0.447,0.771 -0.888,0.07 z m -6.08,-4.791 -0.037,-0.035 -1.364,-1.239 1.285,-1.408 1.365,1.237 0.011,0.012 -1.207,1.475 z m -6.919,-6.605 1.353,-1.344 1.345,1.351 -1.352,1.346 z m -5.076,-5.816 1.475,-1.207 1.207,1.476 -1.476,1.206 z m -3.373,-4.41 -0.144,-0.156 -0.579,-0.779 -0.024,-0.037 -0.526,-0.776 -0.098,-0.887 0.678,-0.577 0.861,0.235 0.139,0.16 0.499,0.741 0.01,0.017 0.015,0.021 0.555,0.741 0.134,0.884 -0.651,0.607 z m -4.291,-6.408 -0.131,-0.168 -0.998,-1.628 -0.056,-0.89 0.705,-0.548 0.848,0.276 0.132,0.167 0.994,1.628 0.056,0.891 -0.704,0.544 z m -3.833,-6.687 -0.116,-0.182 -0.849,-1.707 0.022,-0.89 0.749,-0.484 0.819,0.347 0.12,0.177 0.845,1.711 -0.021,0.89 -0.75,0.485 z m -3.289,-6.929 -0.11,-0.184 -0.469,-1.064 -0.018,-0.038 -0.272,-0.693 0.101,-0.882 0.786,-0.418 0.789,0.414 0.101,0.19 0.272,0.689 0.454,1.028 -0.059,0.89 -0.768,0.448 z m -3.525,-9.172 1.804,-0.623 0.622,1.804 -1.804,0.622 z m -2.127,-7.406 1.851,-0.471 0.466,1.849 -1.848,0.469 z m -1.181,-5.424 -0.068,-0.201 -0.084,-0.415 -0.009,-0.041 -0.234,-1.467 1.881,-0.306 0.232,1.428 0.003,0.018 0.003,0.022 0.078,0.373 -0.248,0.854 -0.846,0.278 z m -1.141,-7.622 -0.048,-0.209 -0.152,-1.282 -0.005,-0.045 -0.04,-0.615 0.357,-0.816 0.877,-0.163 0.628,0.633 0.038,0.212 0.04,0.57 v 0.012 l 0.005,0.033 0.144,1.237 -0.32,0.831 -0.867,0.205 z m -0.6,-9.814 1.908,-0.048 0.045,1.907 -1.903,0.05 z"
         style="fill:#359c89;fill-opacity:1;fill-rule:nonzero;stroke:none"
         id="path7390"
         inkscape:connector-curvature="0" /></g><g
       transform="translate(459.80027,132.09998)"
       id="g7392"><g
         id="g7394"
         clip-path="url(#clipPath7398-1)"><g
           id="g7400"
           transform="translate(253.2539,607.7599)"><path
             d="M 0,0 6.252,-2.3 0,-4.598 C 0.998,-3.241 0.993,-1.385 0,0"
             style="fill:#efe31f;fill-opacity:1;fill-rule:evenodd;stroke:none"
             id="path7402"
             inkscape:connector-curvature="0" /></g><g
           id="g7404"
           transform="translate(250.307,609.9269)"><path
             d="M 0,0 12.146,-4.467 0,-8.931 C 1.939,-6.297 1.929,-2.69 0,0"
             style="fill:#359c89;fill-opacity:1;fill-rule:nonzero;stroke:none"
             id="path7406"
             inkscape:connector-curvature="0" /></g><g
           id="g7408"
           transform="translate(261.32,606.1034)"><path
             d="M 0,0 -0.123,-0.882 0.541,-1.479 0.75,-1.508 2.656,-1.553 3.454,-1.159 3.576,-0.275 2.913,0.325 2.706,0.351 0.798,0.4 Z m 7.645,-0.313 -0.161,-0.875 0.63,-0.629 0.213,-0.038 0.57,-0.04 H 8.909 L 8.942,-1.9 10.178,-2.044 10.402,-0.152 9.121,0 9.076,0.003 8.461,0.045 Z m 8.159,-2.514 1.427,-0.232 0.019,-0.003 0.021,-0.003 0.373,-0.078 0.388,1.87 -0.414,0.085 -0.04,0.008 -1.469,0.233 z m 6.985,0.093 -0.313,-0.834 0.513,-0.728 0.198,-0.077 1.852,-0.466 0.864,0.208 0.313,0.836 -0.511,0.73 -0.2,0.074 -1.847,0.469 z m 7.395,-2.052 -0.384,-0.801 0.452,-0.771 0.188,-0.095 1.804,-0.622 0.882,0.135 0.385,0.804 -0.451,0.773 -0.194,0.092 -1.799,0.622 z m 7.376,-4.296 0.69,-0.272 1.027,-0.454 0.775,1.744 -1.065,0.469 -0.038,0.018 -0.693,0.272 z m 6.826,-1.438 -0.484,-0.749 0.346,-0.819 0.177,-0.119 1.712,-0.846 0.89,0.021 0.484,0.75 -0.347,0.819 -0.178,0.116 -1.71,0.849 z m 6.675,-5.275 1.628,-0.995 0.995,1.628 -1.628,0.995 z m 6.381,-4.099 0.741,-0.499 0.017,-0.012 0.021,-0.014 0.742,-0.556 0.883,-0.132 0.607,0.651 -0.194,0.867 -0.156,0.146 -0.779,0.58 -0.036,0.024 -0.776,0.525 z m 6.02,-4.541 1.476,-1.207 1.207,1.476 -1.475,1.207 z m 5.473,-3.896 0.072,-0.89 0.134,-0.168 1.351,-1.345 0.851,-0.262 0.696,0.559 -0.068,0.887 -0.134,0.168 -1.351,1.346 -0.854,0.26 z m 5.324,-5.443 0.022,-0.891 0.127,-0.174 1.237,-1.365 0.012,-0.011 0.819,-0.346 0.749,0.483 0.022,0.891 -0.116,0.179 -0.04,0.053 -0.033,0.037 -1.237,1.363 -0.839,0.301 z m 4.918,-5.782 -0.067,-0.89 0.103,-0.182 1.134,-1.539 0.801,-0.388 0.774,0.447 0.066,0.888 -0.107,0.185 -1.128,1.536 -0.805,0.386 z m 4.373,-7.287 0.67,-1.024 0.322,-0.544 0.756,-0.473 0.816,0.36 0.16,0.878 -0.086,0.192 -0.316,0.549 -0.027,0.044 -0.7,1.065 z m 3.777,-6.504 0.869,-1.699 1.699,0.869 -0.868,1.697 z m 3.253,-6.84 0.466,-1.05 0.249,-0.66 1.785,0.675 -0.25,0.658 -0.018,0.05 -0.489,1.097 z m 2.961,-6.009 -0.349,-0.816 0.041,-0.212 0.57,-1.819 0.633,-0.625 0.876,0.167 0.353,0.82 -0.041,0.208 -0.574,1.823 -0.633,0.625 z m 1.771,-8.308 0.446,-1.766 0.008,-0.033 0.007,-0.023 0.403,0.101 1.464,0.287 -0.007,0.03 -0.012,0.051 -0.462,1.819 z m 1.524,-7.365 0.257,-1.889 1.891,0.258 -0.26,1.888 z m 0.915,-7.305 -0.007,-0.217 0.153,-1.9 0.481,-0.753 0.89,-0.025 0.526,0.718 0.006,0.212 -0.156,1.905 -0.477,0.753 -0.891,0.025 z m 0.411,-7.567 -0.02,-0.212 0.048,-1.907 0.44,-0.776 0.887,-0.078 0.562,0.693 0.02,0.212 -0.048,1.904 -0.44,0.779 -0.887,0.075 z"
             style="fill:#23675b;fill-opacity:1;fill-rule:nonzero;stroke:none"
             id="path7410"
             inkscape:connector-curvature="0" /></g><g
           id="g7412"
           transform="translate(362.7767,510.8465)"><path
             d="M 0,0 -2.298,-6.252 -4.598,0 C -3.24,-0.998 -1.383,-0.993 0,0"
             style="fill:#f46b20;fill-opacity:1;fill-rule:evenodd;stroke:none"
             id="path7414"
             inkscape:connector-curvature="0" /></g><g
           id="g7416"
           transform="translate(365.0668,513.9609)"><path
             d="M 0,0 -4.588,-12.481 -9.178,0 C -6.467,-1.993 -2.76,-1.983 0,0"
             style="fill:#23675b;fill-opacity:1;fill-rule:nonzero;stroke:none"
             id="path7418"
             inkscape:connector-curvature="0" /></g><g
           id="g7420"
           transform="translate(359.5815,502.4638)"><path
             d="m 0,0 -0.03,-0.212 -0.045,-1.909 0.397,-0.797 0.882,-0.12 0.6,0.66 0.027,0.213 0.048,1.908 -0.4,0.797 -0.882,0.123 z m -0.416,-8.36 -0.005,-0.02 v -0.021 l -0.144,-1.242 1.891,-0.219 0.153,1.282 0.005,0.044 0.04,0.614 -1.9,0.134 z m -0.876,-6.7 -0.056,-0.203 -0.232,-1.428 -0.003,-0.018 -0.004,-0.023 -0.078,-0.372 0.249,-0.857 0.846,-0.275 0.708,0.544 0.068,0.2 0.084,0.413 0.008,0.041 0.236,1.468 -0.284,0.842 -0.857,0.242 z m -1.528,-7.389 -0.075,-0.199 -0.466,-1.85 0.209,-0.866 0.836,-0.312 0.729,0.51 0.075,0.202 0.469,1.847 -0.212,0.869 -0.834,0.313 z m -2.775,-9.255 1.803,-0.625 0.622,1.802 -1.802,0.627 z m -2.28,-6.008 -0.455,-1.025 1.745,-0.776 0.469,1.066 0.018,0.037 0.272,0.689 -1.777,0.702 z m -2.734,-5.996 -0.12,-0.177 -0.845,-1.711 0.021,-0.891 0.75,-0.483 0.819,0.346 0.116,0.179 0.849,1.709 -0.022,0.891 -0.749,0.484 z m -4.702,-8.441 1.624,-0.994 0.999,1.628 -1.628,0.995 z m -2.965,-4.594 -0.139,-0.159 -0.524,-0.779 -0.555,-0.741 1.53,-1.141 0.578,0.78 0.026,0.033 0.525,0.779 0.098,0.887 -0.678,0.577 z m -5.887,-7.655 1.475,-1.211 1.207,1.478 -1.475,1.209 z m -3.58,-4.068 -0.167,-0.134 -1.345,-1.352 -0.26,-0.854 0.559,-0.692 0.885,0.068 0.167,0.132 1.347,1.353 0.26,0.854 -0.555,0.693 z m -5.443,-5.276 -0.174,-0.126 -1.326,-1.207 -0.009,-0.003 -0.029,-0.03 -0.012,-0.008 -0.347,-0.824 0.485,-0.745 0.89,-0.021 0.179,0.114 0.053,0.041 0.036,0.034 1.365,1.236 0.302,0.84 -0.523,0.722 z m -7.502,-6.065 1.132,-1.533 1.535,1.127 -1.129,1.539 z m -5.745,-3.904 -0.499,-0.29 -0.473,-0.757 0.362,-0.815 0.875,-0.164 0.193,0.089 0.548,0.317 0.045,0.026 1.064,0.7 -1.046,1.595 z m -5.435,-3.081 -1.699,-0.864 -0.511,-0.729 0.313,-0.835 0.864,-0.213 0.202,0.078 1.698,0.869 0.511,0.726 -0.313,0.834 -0.864,0.212 z m -7.89,-3.714 -0.66,-0.25 0.675,-1.784 0.658,0.25 0.049,0.019 1.098,0.489 -0.771,1.742 z m -5.987,-2.186 -1.819,-0.571 -0.625,-0.633 0.167,-0.875 0.819,-0.354 0.209,0.04 1.822,0.57 0.626,0.639 -0.171,0.87 -0.816,0.355 z m -9.05,-2.531 -0.014,-0.003 h -0.015 l -0.024,-0.008 0.102,-0.402 0.287,-1.463 0.029,0.006 0.052,0.012 1.819,0.459 -0.467,1.851 z m -5.595,-1.072 -1.888,-0.261 -0.727,-0.517 0.022,-0.89 0.749,-0.486 0.212,0.005 1.889,0.257 0.726,0.521 -0.022,0.89 -0.749,0.486 z m -9.422,-1.065 -0.751,-0.477 -0.027,-0.891 0.718,-0.525 0.214,-0.007 1.903,0.153 0.753,0.48 0.025,0.891 -0.718,0.524 -0.217,0.008 z m -7.569,-0.295 -0.776,-0.436 -0.078,-0.887 0.69,-0.565 0.216,-0.015 1.903,0.048 0.779,0.439 0.075,0.887 -0.69,0.563 -0.212,0.019 z"
             style="fill:#ee213f;fill-opacity:1;fill-rule:nonzero;stroke:none"
             id="path7422"
             inkscape:connector-curvature="0" /></g><g
           id="g7424"
           transform="translate(268.9917,399.2016)"><path
             d="M 0,0 -12.629,4.645 0,9.286 C -2.016,6.547 -2.006,2.797 0,0"
             style="fill:#e73920;fill-opacity:1;fill-rule:evenodd;stroke:none"
             id="path7426"
             inkscape:connector-curvature="0" /></g><g
           id="g7428"
           transform="translate(157.609,501.9595)"><path
             d="m 0,0 0.048,-1.903 1.908,0.048 -0.053,1.908 z m 0.298,-7.67 0.153,-1.903 1.903,0.156 -0.156,1.9 z m 0.816,-7.636 0.26,-1.89 1.889,0.257 -0.26,1.89 z m 1.769,-6.576 -0.439,-0.776 0.015,-0.212 0.008,-0.03 0.01,-0.051 0.463,-1.819 0.596,-0.663 0.882,0.119 0.398,0.801 -0.03,0.209 -0.449,1.77 -0.005,0.015 v 0.016 l -0.003,0.003 -0.004,0.019 -0.008,-0.004 -0.544,0.674 z m 1.903,-7.424 -0.353,-0.821 0.042,-0.209 0.573,-1.821 0.634,-0.626 0.872,0.172 0.353,0.816 -0.041,0.212 -0.571,1.817 -0.632,0.627 z m 2.486,-7.232 -0.305,-0.837 0.051,-0.21 0.251,-0.659 0.018,-0.049 0.489,-1.099 0.699,-0.552 0.849,0.269 0.257,0.853 -0.062,0.201 -0.467,1.052 -0.248,0.657 -0.667,0.594 z m 3.065,-7.027 -0.212,-0.864 0.08,-0.2 0.867,-1.7 0.726,-0.51 0.835,0.313 0.213,0.864 -0.075,0.202 -0.868,1.698 -0.73,0.511 z m 3.573,-7.789 0.317,-0.547 0.027,-0.045 0.699,-1.066 0.783,-0.428 0.794,0.401 0.116,0.884 -0.098,0.191 -0.699,1.068 -0.292,0.499 z m 4.266,-5.345 -0.066,-0.887 0.108,-0.188 1.129,-1.533 0.804,-0.388 0.771,0.443 0.068,0.89 -0.105,0.184 -1.132,1.538 -0.803,0.387 z m 4.697,-6.032 -0.021,-0.89 0.116,-0.179 0.04,-0.052 0.034,-0.038 1.237,-1.363 1.411,1.285 -1.207,1.326 -0.003,0.007 -0.03,0.03 -0.008,0.012 -0.823,0.346 z m 5.186,-5.641 0.068,-0.887 0.135,-0.167 1.351,-1.344 0.854,-0.261 0.693,0.554 -0.068,0.89 -0.135,0.168 -1.351,1.346 -0.854,0.26 z m 5.589,-5.237 0.156,-0.88 0.15,-0.153 1.475,-1.207 0.872,-0.179 0.637,0.623 -0.153,0.879 -0.149,0.153 -1.475,1.207 -0.873,0.179 z m 5.997,-4.743 0.194,-0.867 0.158,-0.146 0.777,-0.577 0.039,-0.027 0.774,-0.525 1.069,1.579 -0.741,0.5 -0.015,0.011 -0.023,0.015 -0.741,0.555 -0.882,0.135 z m 6.327,-4.314 0.276,-0.846 0.167,-0.129 1.628,-1 0.89,-0.055 0.544,0.703 -0.272,0.85 -0.167,0.13 -1.628,0.995 -0.891,0.056 z m 7.141,-4.795 1.71,-0.849 0.85,1.709 -1.711,0.847 z m 6.934,-3.282 1.064,-0.469 0.038,-0.02 0.688,-0.272 0.701,1.778 -0.651,0.257 -1.066,0.469 z m 6.925,-1.125 -0.384,-0.804 0.45,-0.771 0.191,-0.093 1.802,-0.624 0.884,0.14 0.383,0.804 -0.451,0.768 -0.189,0.092 -1.804,0.622 z m 7.224,-2.31 -0.314,-0.834 0.511,-0.731 0.201,-0.075 1.848,-0.469 0.867,0.213 0.314,0.835 -0.514,0.73 -0.197,0.074 -1.853,0.466 z m 7.87,-3.352 0.415,-0.09 0.041,-0.008 1.468,-0.234 0.304,1.88 -1.425,0.232 -0.02,0.004 -0.022,0.003 -0.373,0.079 z m 7.02,0.448 -0.202,-0.869 0.603,-0.655 0.209,-0.05 1.282,-0.153 0.045,-0.003 0.615,-0.041 0.134,1.9 -0.57,0.041 H 91.19 l -0.033,0.004 -1.24,0.146 z m 8.307,-2.076 1.908,-0.048 0.045,1.906 -1.904,0.045 z"
             style="fill:#a0203e;fill-opacity:1;fill-rule:nonzero;stroke:none"
             id="path7430"
             inkscape:connector-curvature="0" /></g><g
           id="g7432"
           transform="translate(154.1125,495.5023)"><path
             d="M 0,0 4.436,12.066 8.875,0 C 6.253,1.926 2.669,1.914 0,0"
             style="fill:#6b1a30;fill-opacity:1;fill-rule:evenodd;stroke:none"
             id="path7434"
             inkscape:connector-curvature="0" /></g><g
           id="g7436"
           transform="translate(156.2513,498.4099)"><path
             d="M 0,0 2.298,6.25 4.598,0 C 3.239,0.998 1.382,0.991 0,0 Z"
             style="fill:none;stroke:#6b1a30;stroke-width:0.75800002;stroke-linecap:butt;stroke-linejoin:round;stroke-miterlimit:4;stroke-dasharray:none;stroke-opacity:1"
             id="path7438"
             inkscape:connector-curvature="0" /></g></g></g><text
       y="331.44382"
       x="864.08405"
       transform="matrix(0.39530549,0.91854971,0.91854971,-0.39530549,0,0)"
       style="font-variant:normal;font-weight:600;font-stretch:normal;font-size:9.56551361px;font-family:'Raleway SemiBold';-inkscape-font-specification:Raleway-SemiBold;writing-mode:lr-tb;fill:#359c89;fill-opacity:1;fill-rule:nonzero;stroke:none;stroke-width:0.99999994"
       id="text7686"><tspan
         style="stroke-width:0.99999994"
         x="864.08405"
         y="331.44382"
         id="tspan7684">E</tspan></text>
<text
       y="259.11816"
       x="893.95465"
       transform="matrix(0.46915241,0.88311721,0.88311721,-0.46915241,0,0)"
       style="font-variant:normal;font-weight:600;font-stretch:normal;font-size:9.56554794px;font-family:'Raleway SemiBold';-inkscape-font-specification:Raleway-SemiBold;writing-mode:lr-tb;fill:#359c89;fill-opacity:1;fill-rule:nonzero;stroke:none;stroke-width:0.99999994"
       id="text7690"><tspan
         style="stroke-width:0.99999994"
         x="893.95465"
         y="259.11816"
         id="tspan7688">N</tspan></text>
<text
       y="184.50891"
       x="919.33459"
       transform="matrix(0.53986541,0.84175135,0.84175135,-0.53986541,0,0)"
       style="font-variant:normal;font-weight:600;font-stretch:normal;font-size:9.56553268px;font-family:'Raleway SemiBold';-inkscape-font-specification:Raleway-SemiBold;writing-mode:lr-tb;fill:#359c89;fill-opacity:1;fill-rule:nonzero;stroke:none;stroke-width:0.99999994"
       id="text7694"><tspan
         style="stroke-width:0.99999994"
         x="919.33459"
         y="184.50891"
         id="tspan7692">T</tspan></text>
<text
       y="117.2058"
       x="936.03436"
       transform="matrix(0.59925372,0.80055917,0.80055917,-0.59925372,0,0)"
       style="font-variant:normal;font-weight:600;font-stretch:normal;font-size:9.56556416px;font-family:'Raleway SemiBold';-inkscape-font-specification:Raleway-SemiBold;writing-mode:lr-tb;fill:#359c89;fill-opacity:1;fill-rule:nonzero;stroke:none;stroke-width:0.99999994"
       id="text7698"><tspan
         style="stroke-width:0.99999994"
         x="936.03436"
         y="117.2058"
         id="tspan7696">E</tspan></text>
<text
       y="40.720005"
       x="948.06451"
       transform="matrix(0.66196215,0.74953726,0.74953726,-0.66196215,0,0)"
       style="font-variant:normal;font-weight:600;font-stretch:normal;font-size:9.56550121px;font-family:'Raleway SemiBold';-inkscape-font-specification:Raleway-SemiBold;writing-mode:lr-tb;fill:#359c89;fill-opacity:1;fill-rule:nonzero;stroke:none;stroke-width:0.99999994"
       id="text7702"><tspan
         style="stroke-width:0.99999994"
         x="948.06451"
         y="40.720005"
         id="tspan7700">N</tspan></text>
<text
       y="-42.712986"
       x="955.17383"
       transform="matrix(0.72478798,0.68897198,0.68897198,-0.72478798,0,0)"
       style="font-variant:normal;font-weight:600;font-stretch:normal;font-size:9.56555557px;font-family:'Raleway SemiBold';-inkscape-font-specification:Raleway-SemiBold;writing-mode:lr-tb;fill:#359c89;fill-opacity:1;fill-rule:nonzero;stroke:none;stroke-width:0.99999994"
       id="text7706"><tspan
         style="stroke-width:0.99999994"
         x="955.17383"
         y="-42.712986"
         id="tspan7704">D</tspan></text>
<text
       y="-117.04116"
       x="955.69537"
       transform="matrix(0.77595536,0.63078783,0.63078783,-0.77595536,0,0)"
       style="font-variant:normal;font-weight:600;font-stretch:normal;font-size:9.56549835px;font-family:'Raleway SemiBold';-inkscape-font-specification:Raleway-SemiBold;writing-mode:lr-tb;fill:#359c89;fill-opacity:1;fill-rule:nonzero;stroke:none;stroke-width:0.99999994"
       id="text7710"><tspan
         style="stroke-width:0.99999994"
         x="955.69537"
         y="-117.04116"
         id="tspan7708">E</tspan></text>
<text
       y="-188.41393"
       x="949.95599"
       transform="matrix(0.82082934,0.57117353,0.57117353,-0.82082934,0,0)"
       style="font-variant:normal;font-weight:600;font-stretch:normal;font-size:9.56556892px;font-family:'Raleway SemiBold';-inkscape-font-specification:Raleway-SemiBold;writing-mode:lr-tb;fill:#359c89;fill-opacity:1;fill-rule:nonzero;stroke:none;stroke-width:0.99999994"
       id="text7714"><tspan
         style="stroke-width:0.99999994"
         x="949.95599"
         y="-188.41393"
         id="tspan7712">R</tspan></text>
<text
       y="-976.47064"
       x="335.89453"
       transform="matrix(0.88371976,-0.46801644,-0.46801644,-0.88371976,0,0)"
       style="font-variant:normal;font-weight:600;font-stretch:normal;font-size:9.56547546px;font-family:'Raleway SemiBold';-inkscape-font-specification:Raleway-SemiBold;writing-mode:lr-tb;fill:#23675b;fill-opacity:1;fill-rule:nonzero;stroke:none;stroke-width:1"
       id="text7718"><tspan
         style="stroke-width:1"
         x="335.89453"
         y="-976.47064"
         id="tspan7716">D</tspan></text>
<text
       y="-1000.3998"
       x="264.68811"
       transform="matrix(0.84412307,-0.53614947,-0.53614947,-0.84412307,0,0)"
       style="font-variant:normal;font-weight:600;font-stretch:normal;font-size:9.56542969px;font-family:'Raleway SemiBold';-inkscape-font-specification:Raleway-SemiBold;writing-mode:lr-tb;fill:#23675b;fill-opacity:1;fill-rule:nonzero;stroke:none;stroke-width:0.99999994"
       id="text7722"><tspan
         style="stroke-width:0.99999994"
         x="264.68811"
         y="-1000.3998"
         id="tspan7720">E</tspan></text>
<text
       y="-1016.8207"
       x="199.86777"
       transform="matrix(0.80466492,-0.59372921,-0.59372921,-0.80466492,0,0)"
       style="font-variant:normal;font-weight:600;font-stretch:normal;font-size:9.5654726px;font-family:'Raleway SemiBold';-inkscape-font-specification:Raleway-SemiBold;writing-mode:lr-tb;fill:#23675b;fill-opacity:1;fill-rule:nonzero;stroke:none;stroke-width:0.99999994"
       id="text7726"><tspan
         style="stroke-width:0.99999994"
         x="199.86777"
         y="-1016.8207"
         id="tspan7724">F</tspan></text>
<text
       y="-1025.864"
       x="153.68759"
       transform="matrix(0.77363066,-0.6336368,-0.6336368,-0.77363066,0,0)"
       style="font-variant:normal;font-weight:600;font-stretch:normal;font-size:9.56541729px;font-family:'Raleway SemiBold';-inkscape-font-specification:Raleway-SemiBold;writing-mode:lr-tb;fill:#23675b;fill-opacity:1;fill-rule:nonzero;stroke:none;stroke-width:0.99999994"
       id="text7730"><tspan
         style="stroke-width:0.99999994"
         x="153.68759"
         y="-1025.864"
         id="tspan7728">I</tspan></text>
<text
       y="-1033.6042"
       x="92.82206"
       transform="matrix(0.73320219,-0.6800107,-0.6800107,-0.73320219,0,0)"
       style="font-variant:normal;font-weight:600;font-stretch:normal;font-size:9.56543827px;font-family:'Raleway SemiBold';-inkscape-font-specification:Raleway-SemiBold;writing-mode:lr-tb;fill:#23675b;fill-opacity:1;fill-rule:nonzero;stroke:none;stroke-width:0.99999994"
       id="text7734"><tspan
         style="stroke-width:0.99999994"
         x="92.82206"
         y="-1033.6042"
         id="tspan7732">N</tspan></text>
<text
       y="-1037.7241"
       x="36.534557"
       transform="matrix(0.69014995,-0.72366639,-0.72366639,-0.69014995,0,0)"
       style="font-variant:normal;font-weight:600;font-stretch:normal;font-size:9.56545734px;font-family:'Raleway SemiBold';-inkscape-font-specification:Raleway-SemiBold;writing-mode:lr-tb;fill:#23675b;fill-opacity:1;fill-rule:nonzero;stroke:none;stroke-width:0.99999994"
       id="text7738"><tspan
         style="stroke-width:0.99999994"
         x="36.534557"
         y="-1037.7241"
         id="tspan7736">I</tspan></text>
<text
       y="-1038.3569"
       x="-17.909502"
       transform="matrix(0.64944039,-0.76041251,-0.76041251,-0.64944039,0,0)"
       style="font-variant:normal;font-weight:600;font-stretch:normal;font-size:9.56546593px;font-family:'Raleway SemiBold';-inkscape-font-specification:Raleway-SemiBold;writing-mode:lr-tb;fill:#23675b;fill-opacity:1;fill-rule:nonzero;stroke:none;stroke-width:0.99999994"
       id="text7742"><tspan
         style="stroke-width:0.99999994"
         x="-17.909502"
         y="-1038.3569"
         id="tspan7740">R</tspan></text>
<text
       y="-370.86914"
       x="-917.37842"
       transform="matrix(-0.51377755,-0.85792344,-0.85792344,0.51377755,0,0)"
       style="font-variant:normal;font-weight:600;font-stretch:normal;font-size:9.56542301px;font-family:'Raleway SemiBold';-inkscape-font-specification:Raleway-SemiBold;writing-mode:lr-tb;fill:#ee213f;fill-opacity:1;fill-rule:nonzero;stroke:none;stroke-width:0.99999994"
       id="text7746"><tspan
         style="stroke-width:0.99999994"
         x="-917.37842"
         y="-370.86914"
         id="tspan7744">H</tspan></text>
<text
       y="-292.66113"
       x="-938.46295"
       transform="matrix(-0.58438649,-0.81147547,-0.81147547,0.58438649,0,0)"
       style="font-variant:normal;font-weight:600;font-stretch:normal;font-size:9.56541538px;font-family:'Raleway SemiBold';-inkscape-font-specification:Raleway-SemiBold;writing-mode:lr-tb;fill:#ee213f;fill-opacity:1;fill-rule:nonzero;stroke:none;stroke-width:0.99999994"
       id="text7750"><tspan
         style="stroke-width:0.99999994"
         x="-938.46295"
         y="-292.66113"
         id="tspan7748">A</tspan></text>
<text
       y="-219.4528"
       x="-952.26489"
       transform="matrix(-0.64558552,-0.76368798,-0.76368798,0.64558552,0,0)"
       style="font-variant:normal;font-weight:600;font-stretch:normal;font-size:9.56542492px;font-family:'Raleway SemiBold';-inkscape-font-specification:Raleway-SemiBold;writing-mode:lr-tb;fill:#ee213f;fill-opacity:1;fill-rule:nonzero;stroke:none;stroke-width:0.99999994"
       id="text7754"><tspan
         style="stroke-width:0.99999994"
         x="-952.26489"
         y="-219.4528"
         id="tspan7752">C</tspan></text>
<text
       y="-146.98537"
       x="-959.78687"
       transform="matrix(-0.70171287,-0.71245986,-0.71245986,0.70171287,0,0)"
       style="font-variant:normal;font-weight:600;font-stretch:normal;font-size:9.56545067px;font-family:'Raleway SemiBold';-inkscape-font-specification:Raleway-SemiBold;writing-mode:lr-tb;fill:#ee213f;fill-opacity:1;fill-rule:nonzero;stroke:none;stroke-width:0.99999994"
       id="text7758"><tspan
         style="stroke-width:0.99999994"
         x="-959.78687"
         y="-146.98537"
         id="tspan7756">E</tspan></text>
<text
       y="-75.242615"
       x="-962.43567"
       transform="matrix(-0.75302332,-0.65799383,-0.65799383,0.75302332,0,0)"
       style="font-variant:normal;font-weight:600;font-stretch:normal;font-size:9.56544018px;font-family:'Raleway SemiBold';-inkscape-font-specification:Raleway-SemiBold;writing-mode:lr-tb;fill:#ee213f;fill-opacity:1;fill-rule:nonzero;stroke:none;stroke-width:0.99999994"
       id="text7762"><tspan
         style="stroke-width:0.99999994"
         x="-962.43567"
         y="-75.242615"
         id="tspan7760">R</tspan></text>
<text
       y="835.08392"
       x="-293.2428"
       transform="matrix(-0.8570988,0.51515207,0.51515207,0.8570988,0,0)"
       style="font-variant:normal;font-weight:600;font-stretch:normal;font-size:9.56552505px;font-family:'Raleway SemiBold';-inkscape-font-specification:Raleway-SemiBold;writing-mode:lr-tb;fill:#a0203e;fill-opacity:1;fill-rule:nonzero;stroke:none;stroke-width:1"
       id="text7766"><tspan
         style="stroke-width:1"
         x="-293.2428"
         y="835.08392"
         id="tspan7764">E</tspan></text>
<text
       y="855.78687"
       x="-218.25389"
       transform="matrix(-0.81205175,0.58358543,0.58358543,0.81205175,0,0)"
       style="font-variant:normal;font-weight:600;font-stretch:normal;font-size:9.56552315px;font-family:'Raleway SemiBold';-inkscape-font-specification:Raleway-SemiBold;writing-mode:lr-tb;fill:#a0203e;fill-opacity:1;fill-rule:nonzero;stroke:none;stroke-width:0.99999994"
       id="text7770"><tspan
         style="stroke-width:0.99999994"
         x="-218.25389"
         y="855.78687"
         id="tspan7768">N</tspan></text>
<text
       y="870.21246"
       x="-140.31311"
       transform="matrix(-0.7615667,0.64808654,0.64808654,0.7615667,0,0)"
       style="font-variant:normal;font-weight:600;font-stretch:normal;font-size:9.56554413px;font-family:'Raleway SemiBold';-inkscape-font-specification:Raleway-SemiBold;writing-mode:lr-tb;fill:#a0203e;fill-opacity:1;fill-rule:nonzero;stroke:none;stroke-width:1"
       id="text7774"><tspan
         style="stroke-width:1"
         x="-140.31311"
         y="870.21246"
         id="tspan7772">T</tspan></text>
<text
       y="877.88239"
       x="-68.335007"
       transform="matrix(-0.71037138,0.70382704,0.70382704,0.71037138,0,0)"
       style="font-variant:normal;font-weight:600;font-stretch:normal;font-size:9.56556034px;font-family:'Raleway SemiBold';-inkscape-font-specification:Raleway-SemiBold;writing-mode:lr-tb;fill:#a0203e;fill-opacity:1;fill-rule:nonzero;stroke:none;stroke-width:0.99999994"
       id="text7778"><tspan
         style="stroke-width:0.99999994"
         x="-68.335007"
         y="877.88239"
         id="tspan7776">R</tspan></text>
<text
       y="880.07806"
       x="3.3613691"
       transform="matrix(-0.65602755,0.75473695,0.75473695,0.65602755,0,0)"
       style="font-variant:normal;font-weight:600;font-stretch:normal;font-size:9.56545162px;font-family:'Raleway SemiBold';-inkscape-font-specification:Raleway-SemiBold;writing-mode:lr-tb;fill:#a0203e;fill-opacity:1;fill-rule:nonzero;stroke:none;stroke-width:0.99999994"
       id="text7782"><tspan
         style="stroke-width:0.99999994"
         x="3.3613691"
         y="880.07806"
         id="tspan7780">E</tspan></text>
<text
       y="876.82709"
       x="75.735641"
       transform="matrix(-0.59676181,0.80241843,0.80241843,0.59676181,0,0)"
       style="font-variant:normal;font-weight:600;font-stretch:normal;font-size:9.5654583px;font-family:'Raleway SemiBold';-inkscape-font-specification:Raleway-SemiBold;writing-mode:lr-tb;fill:#a0203e;fill-opacity:1;fill-rule:nonzero;stroke:none;stroke-width:0.99999994"
       id="text7786"><tspan
         style="stroke-width:0.99999994"
         x="75.735641"
         y="876.82709"
         id="tspan7784">G</tspan></text>
<text
       y="867.12872"
       x="154.01555"
       transform="matrix(-0.52903534,0.84859979,0.84859979,0.52903534,0,0)"
       style="font-variant:normal;font-weight:600;font-stretch:normal;font-size:9.56552219px;font-family:'Raleway SemiBold';-inkscape-font-specification:Raleway-SemiBold;writing-mode:lr-tb;fill:#a0203e;fill-opacity:1;fill-rule:nonzero;stroke:none;stroke-width:0.99999994"
       id="text7790"><tspan
         style="stroke-width:0.99999994"
         x="154.01555"
         y="867.12872"
         id="tspan7788">A</tspan></text>
<text
       y="851.73926"
       x="228.41574"
       transform="matrix(-0.46030825,0.88775915,0.88775915,0.46030825,0,0)"
       style="font-variant:normal;font-weight:600;font-stretch:normal;font-size:9.56554508px;font-family:'Raleway SemiBold';-inkscape-font-specification:Raleway-SemiBold;writing-mode:lr-tb;fill:#a0203e;fill-opacity:1;fill-rule:nonzero;stroke:none;stroke-width:0.99999994"
       id="text7794"><tspan
         style="stroke-width:0.99999994"
         x="228.41574"
         y="851.73926"
         id="tspan7792">R</tspan></text>
</g></svg>