<?xml version="1.0" encoding="UTF-8" standalone="no"?>
<!-- Created with Inkscape (http://www.inkscape.org/) -->

<svg
   xmlns:dc="http://purl.org/dc/elements/1.1/"
   xmlns:cc="http://creativecommons.org/ns#"
   xmlns:rdf="http://www.w3.org/1999/02/22-rdf-syntax-ns#"
   xmlns:svg="http://www.w3.org/2000/svg"
   xmlns="http://www.w3.org/2000/svg"
   xmlns:sodipodi="http://sodipodi.sourceforge.net/DTD/sodipodi-0.dtd"
   xmlns:inkscape="http://www.inkscape.org/namespaces/inkscape"
   version="1.1"
   id="svg987"
   xml:space="preserve"
   width="531.91785"
   height="142.13347"
   viewBox="0 0 531.91783 142.13347"
   sodipodi:docname="dcp-dt-method.svg"
   inkscape:version="0.92.3 (2405546, 2018-03-11)"><metadata
     id="metadata993"><rdf:RDF><cc:Work
         rdf:about=""><dc:format>image/svg+xml</dc:format><dc:type
           rdf:resource="http://purl.org/dc/dcmitype/StillImage" /><dc:title></dc:title></cc:Work></rdf:RDF></metadata><defs
     id="defs991"><clipPath
       clipPathUnits="userSpaceOnUse"
       id="clipPath1015"><path
         d="M 0,792 H 612 V 0 H 0 Z"
         id="path1013"
         inkscape:connector-curvature="0" /></clipPath><clipPath
       clipPathUnits="userSpaceOnUse"
       id="clipPath1083"><path
         d="M 0,792 H 612 V 0 H 0 Z"
         id="path1081"
         inkscape:connector-curvature="0" /></clipPath><clipPath
       clipPathUnits="userSpaceOnUse"
       id="clipPath1103"><path
         d="M 0,792 H 612 V 0 H 0 Z"
         id="path1101"
         inkscape:connector-curvature="0" /></clipPath><clipPath
       clipPathUnits="userSpaceOnUse"
       id="clipPath1121"><path
         d="M 0,792 H 612 V 0 H 0 Z"
         id="path1119"
         inkscape:connector-curvature="0" /></clipPath><clipPath
       clipPathUnits="userSpaceOnUse"
       id="clipPath1157"><path
         d="M 0,792 H 612 V 0 H 0 Z"
         id="path1155"
         inkscape:connector-curvature="0" /></clipPath><clipPath
       clipPathUnits="userSpaceOnUse"
       id="clipPath1177"><path
         d="M 0,792 H 612 V 0 H 0 Z"
         id="path1175"
         inkscape:connector-curvature="0" /></clipPath><clipPath
       clipPathUnits="userSpaceOnUse"
       id="clipPath1199"><path
         d="M 0,792 H 612 V 0 H 0 Z"
         id="path1197"
         inkscape:connector-curvature="0" /></clipPath><clipPath
       clipPathUnits="userSpaceOnUse"
       id="clipPath1227"><path
         d="M 0,792 H 612 V 0 H 0 Z"
         id="path1225"
         inkscape:connector-curvature="0" /></clipPath><clipPath
       clipPathUnits="userSpaceOnUse"
       id="clipPath1249"><path
         d="M 0,792 H 612 V 0 H 0 Z"
         id="path1247"
         inkscape:connector-curvature="0" /></clipPath><clipPath
       clipPathUnits="userSpaceOnUse"
       id="clipPath1277"><path
         d="M 0,792 H 612 V 0 H 0 Z"
         id="path1275"
         inkscape:connector-curvature="0" /></clipPath><clipPath
       clipPathUnits="userSpaceOnUse"
       id="clipPath1301"><path
         d="M 0,792 H 612 V 0 H 0 Z"
         id="path1299"
         inkscape:connector-curvature="0" /></clipPath><clipPath
       clipPathUnits="userSpaceOnUse"
       id="clipPath1321"><path
         d="M 0,792 H 612 V 0 H 0 Z"
         id="path1319"
         inkscape:connector-curvature="0" /></clipPath><clipPath
       clipPathUnits="userSpaceOnUse"
       id="clipPath1351"><path
         d="M 0,792 H 612 V 0 H 0 Z"
         id="path1349"
         inkscape:connector-curvature="0" /></clipPath><clipPath
       clipPathUnits="userSpaceOnUse"
       id="clipPath1371"><path
         d="M 0,792 H 612 V 0 H 0 Z"
         id="path1369"
         inkscape:connector-curvature="0" /></clipPath><clipPath
       clipPathUnits="userSpaceOnUse"
       id="clipPath1391"><path
         d="M 0,792 H 612 V 0 H 0 Z"
         id="path1389"
         inkscape:connector-curvature="0" /></clipPath><clipPath
       clipPathUnits="userSpaceOnUse"
       id="clipPath1411"><path
         d="M 0,792 H 612 V 0 H 0 Z"
         id="path1409"
         inkscape:connector-curvature="0" /></clipPath><clipPath
       clipPathUnits="userSpaceOnUse"
       id="clipPath1469"><path
         d="M 0,792 H 612 V 0 H 0 Z"
         id="path1467"
         inkscape:connector-curvature="0" /></clipPath><clipPath
       clipPathUnits="userSpaceOnUse"
       id="clipPath1529"><path
         d="M 0,792 H 612 V 0 H 0 Z"
         id="path1527"
         inkscape:connector-curvature="0" /></clipPath><clipPath
       clipPathUnits="userSpaceOnUse"
       id="clipPath1541"><path
         d="m 497.282,66.173 h 38.14 v 38.268 h -38.14 z"
         id="path1539"
         inkscape:connector-curvature="0" /></clipPath><clipPath
       clipPathUnits="userSpaceOnUse"
       id="clipPath1549"><path
         d="m 490.986,103.566 h 50.961 V 67.1649 h -50.961 z"
         id="path1547"
         inkscape:connector-curvature="0" /></clipPath><clipPath
       clipPathUnits="userSpaceOnUse"
       id="clipPath1733"><path
         d="M 0,792 H 612 V 0 H 0 Z"
         id="path1731"
         inkscape:connector-curvature="0" /></clipPath><clipPath
       clipPathUnits="userSpaceOnUse"
       id="clipPath1785"><path
         d="M 0,792 H 612 V 0 H 0 Z"
         id="path1783"
         inkscape:connector-curvature="0" /></clipPath><clipPath
       clipPathUnits="userSpaceOnUse"
       id="clipPath3184"><path
         d="M 0,792 H 612 V 0 H 0 Z"
         id="path3182"
         inkscape:connector-curvature="0" /></clipPath><clipPath
       clipPathUnits="userSpaceOnUse"
       id="clipPath3170"><path
         d="M 0,792 H 612 V 0 H 0 Z"
         id="path3168"
         inkscape:connector-curvature="0" /></clipPath><clipPath
       clipPathUnits="userSpaceOnUse"
       id="clipPath3100"><path
         d="M 0,792 H 612 V 0 H 0 Z"
         id="path3098"
         inkscape:connector-curvature="0" /></clipPath><clipPath
       clipPathUnits="userSpaceOnUse"
       id="clipPath3078"><path
         d="M 0,792 H 612 V 0 H 0 Z"
         id="path3076"
         inkscape:connector-curvature="0" /></clipPath><clipPath
       clipPathUnits="userSpaceOnUse"
       id="clipPath2958"><path
         d="M 0,792 H 612 V 0 H 0 Z"
         id="path2956"
         inkscape:connector-curvature="0" /></clipPath><clipPath
       clipPathUnits="userSpaceOnUse"
       id="clipPath2944"><path
         d="M 0,792 H 612 V 0 H 0 Z"
         id="path2942"
         inkscape:connector-curvature="0" /></clipPath><clipPath
       clipPathUnits="userSpaceOnUse"
       id="clipPath2928"><path
         d="M 0,792 H 612 V 0 H 0 Z"
         id="path2926"
         inkscape:connector-curvature="0" /></clipPath><clipPath
       clipPathUnits="userSpaceOnUse"
       id="clipPath2912"><path
         d="M 0,792 H 612 V 0 H 0 Z"
         id="path2910"
         inkscape:connector-curvature="0" /></clipPath><clipPath
       clipPathUnits="userSpaceOnUse"
       id="clipPath2852"><path
         d="M 0,792 H 612 V 0 H 0 Z"
         id="path2850"
         inkscape:connector-curvature="0" /></clipPath><clipPath
       clipPathUnits="userSpaceOnUse"
       id="clipPath2838"><path
         d="M 0,792 H 612 V 0 H 0 Z"
         id="path2836"
         inkscape:connector-curvature="0" /></clipPath><clipPath
       clipPathUnits="userSpaceOnUse"
       id="clipPath2824"><path
         d="M 0,792 H 612 V 0 H 0 Z"
         id="path2822"
         inkscape:connector-curvature="0" /></clipPath><clipPath
       clipPathUnits="userSpaceOnUse"
       id="clipPath2810"><path
         d="M 0,792 H 612 V 0 H 0 Z"
         id="path2808"
         inkscape:connector-curvature="0" /></clipPath><clipPath
       clipPathUnits="userSpaceOnUse"
       id="clipPath2796"><path
         d="M 0,792 H 612 V 0 H 0 Z"
         id="path2794"
         inkscape:connector-curvature="0" /></clipPath><clipPath
       clipPathUnits="userSpaceOnUse"
       id="clipPath2754"><path
         d="M 0,792 H 612 V 0 H 0 Z"
         id="path2752"
         inkscape:connector-curvature="0" /></clipPath><clipPath
       clipPathUnits="userSpaceOnUse"
       id="clipPath5082"><path
         d="m 162.339,604.88 h 0.713 v -0.713 h -0.713 z"
         id="path5080"
         inkscape:connector-curvature="0" /></clipPath><clipPath
       clipPathUnits="userSpaceOnUse"
       id="clipPath7398"><path
         d="M 0,792 H 612 V 0 H 0 Z"
         id="path7396"
         inkscape:connector-curvature="0" /></clipPath><clipPath
       clipPathUnits="userSpaceOnUse"
       id="clipPath7398-1"><path
         d="M 0,792 H 612 V 0 H 0 Z"
         id="path7396-1"
         inkscape:connector-curvature="0" /></clipPath><clipPath
       clipPathUnits="userSpaceOnUse"
       id="clipPath9920"><path
         d="M 0,792 H 612 V 0 H 0 Z"
         id="path9918"
         inkscape:connector-curvature="0" /></clipPath><clipPath
       clipPathUnits="userSpaceOnUse"
       id="clipPath9876"><path
         d="M 0,792 H 612 V 0 H 0 Z"
         id="path9874"
         inkscape:connector-curvature="0" /></clipPath><clipPath
       clipPathUnits="userSpaceOnUse"
       id="clipPath12069"><path
         d="M 0,792 H 612 V 0 H 0 Z"
         id="path12067"
         inkscape:connector-curvature="0" /></clipPath><clipPath
       clipPathUnits="userSpaceOnUse"
       id="clipPath12069-1"><path
         d="M 0,792 H 612 V 0 H 0 Z"
         id="path12067-7"
         inkscape:connector-curvature="0" /></clipPath><clipPath
       clipPathUnits="userSpaceOnUse"
       id="clipPath12069-7"><path
         d="M 0,792 H 612 V 0 H 0 Z"
         id="path12067-9"
         inkscape:connector-curvature="0" /></clipPath><clipPath
       clipPathUnits="userSpaceOnUse"
       id="clipPath14532"><path
         d="M 308.646,596.43 H 325.45 V 566.797 H 308.646 Z"
         id="path14530"
         inkscape:connector-curvature="0" /></clipPath><clipPath
       clipPathUnits="userSpaceOnUse"
       id="clipPath14514"><path
         d="m 249.863,556.921 h 36.613 v -26.858 h -36.613 z"
         id="path14512"
         inkscape:connector-curvature="0" /></clipPath><clipPath
       clipPathUnits="userSpaceOnUse"
       id="clipPath14498"><path
         d="m 232.302,488.231 h 45.029 v -20.132 h -45.029 z"
         id="path14496"
         inkscape:connector-curvature="0" /></clipPath><clipPath
       clipPathUnits="userSpaceOnUse"
       id="clipPath14482"><path
         d="m 280.568,445.376 h 22.228 v -23.077 h -22.228 z"
         id="path14480"
         inkscape:connector-curvature="0" /></clipPath><clipPath
       clipPathUnits="userSpaceOnUse"
       id="clipPath14464"><path
         d="m 342.046,423.139 h 13.667 v -22.952 h -13.667 z"
         id="path14462"
         inkscape:connector-curvature="0" /></clipPath><clipPath
       clipPathUnits="userSpaceOnUse"
       id="clipPath14448"><path
         d="m 396.828,444.685 h 25.734 v -26.778 h -25.734 z"
         id="path14446"
         inkscape:connector-curvature="0" /></clipPath><clipPath
       clipPathUnits="userSpaceOnUse"
       id="clipPath14430"><path
         d="m 423.54,493.272 h 44.589 V 476.881 H 423.54 Z"
         id="path14428"
         inkscape:connector-curvature="0" /></clipPath><clipPath
       clipPathUnits="userSpaceOnUse"
       id="clipPath14414"><path
         d="m 412.908,552.69 h 32 v -19.615 h -32 z"
         id="path14412"
         inkscape:connector-curvature="0" /></clipPath><clipPath
       clipPathUnits="userSpaceOnUse"
       id="clipPath14398"><path
         d="m 371.834,610.56 h 22.778 v -44.724 h -22.778 z"
         id="path14396"
         inkscape:connector-curvature="0" /></clipPath><clipPath
       clipPathUnits="userSpaceOnUse"
       id="clipPath20272"><path
         d="M 0,792 H 612 V 0 H 0 Z"
         id="path20270"
         inkscape:connector-curvature="0" /></clipPath><clipPath
       clipPathUnits="userSpaceOnUse"
       id="clipPath20226"><path
         d="M 0,792 H 612 V 0 H 0 Z"
         id="path20224"
         inkscape:connector-curvature="0" /></clipPath><clipPath
       clipPathUnits="userSpaceOnUse"
       id="clipPath20192"><path
         d="M 0,792 H 612 V 0 H 0 Z"
         id="path20190"
         inkscape:connector-curvature="0" /></clipPath><clipPath
       clipPathUnits="userSpaceOnUse"
       id="clipPath20176"><path
         d="M 0,792 H 612 V 0 H 0 Z"
         id="path20174"
         inkscape:connector-curvature="0" /></clipPath><clipPath
       clipPathUnits="userSpaceOnUse"
       id="clipPath20148"><path
         d="M 0,792 H 612 V 0 H 0 Z"
         id="path20146"
         inkscape:connector-curvature="0" /></clipPath><clipPath
       clipPathUnits="userSpaceOnUse"
       id="clipPath20128"><path
         d="M 0,792 H 612 V 0 H 0 Z"
         id="path20126"
         inkscape:connector-curvature="0" /></clipPath><clipPath
       clipPathUnits="userSpaceOnUse"
       id="clipPath21658"><path
         d="M 0,792 H 612 V 0 H 0 Z"
         id="path21656"
         inkscape:connector-curvature="0" /></clipPath></defs><sodipodi:namedview
     pagecolor="#ffffff"
     bordercolor="#666666"
     borderopacity="1"
     objecttolerance="10"
     gridtolerance="10"
     guidetolerance="10"
     inkscape:pageopacity="0"
     inkscape:pageshadow="2"
     inkscape:window-width="1296"
     inkscape:window-height="704"
     id="namedview989"
     showgrid="false"
     fit-margin-top="0"
     fit-margin-left="0"
     fit-margin-right="0"
     fit-margin-bottom="0"
     inkscape:zoom="0.89393939"
     inkscape:cx="327.71529"
     inkscape:cy="-4.2539864"
     inkscape:window-x="70"
     inkscape:window-y="27"
     inkscape:window-maximized="1"
     inkscape:current-layer="g995" /><g
     id="g995"
     inkscape:groupmode="layer"
     inkscape:label="1_2_METODOLOGÍAS"
     transform="matrix(1.3333333,0,0,-1.3333333,-507.74416,1295.8388)"><g
       id="g21628"
       transform="translate(484.14723,867.96581)"><path
         d="M 0,0 V 2.5"
         style="fill:none;stroke:#918f90;stroke-width:1.79999995;stroke-linecap:round;stroke-linejoin:round;stroke-miterlimit:4;stroke-dasharray:none;stroke-opacity:1"
         id="path21630"
         inkscape:connector-curvature="0" /></g><g
       id="g21632"
       transform="translate(484.14723,873.43552)"><path
         d="M 0,0 V 93.546"
         style="fill:none;stroke:#918f90;stroke-width:1.79999995;stroke-linecap:round;stroke-linejoin:round;stroke-miterlimit:4;stroke-dasharray:4.95, 2.97;stroke-dashoffset:0;stroke-opacity:1"
         id="path21634"
         inkscape:connector-curvature="0" /></g><g
       id="g21636"
       transform="translate(484.14723,968.46631)"><path
         d="M 0,0 V 2.5"
         style="fill:none;stroke:#918f90;stroke-width:1.79999995;stroke-linecap:round;stroke-linejoin:round;stroke-miterlimit:4;stroke-dasharray:none;stroke-opacity:1"
         id="path21638"
         inkscape:connector-curvature="0" /></g><g
       id="g21640"
       transform="translate(678.97263,867.96581)"><path
         d="M 0,0 V 2.5"
         style="fill:none;stroke:#918f90;stroke-width:1.79999995;stroke-linecap:round;stroke-linejoin:round;stroke-miterlimit:4;stroke-dasharray:none;stroke-opacity:1"
         id="path21642"
         inkscape:connector-curvature="0" /></g><g
       id="g21644"
       transform="translate(678.97263,873.43552)"><path
         d="M 0,0 V 93.546"
         style="fill:none;stroke:#918f90;stroke-width:1.79999995;stroke-linecap:round;stroke-linejoin:round;stroke-miterlimit:4;stroke-dasharray:4.95, 2.97;stroke-dashoffset:0;stroke-opacity:1"
         id="path21646"
         inkscape:connector-curvature="0" /></g><g
       id="g21648"
       transform="translate(678.97263,968.46631)"><path
         d="M 0,0 V 2.5"
         style="fill:none;stroke:#918f90;stroke-width:1.79999995;stroke-linecap:round;stroke-linejoin:round;stroke-miterlimit:4;stroke-dasharray:none;stroke-opacity:1"
         id="path21650"
         inkscape:connector-curvature="0" /></g><g
       transform="translate(231.15133,409.52922)"
       id="g21652"><g
         id="g21654"
         clip-path="url(#clipPath21658)"><g
           id="g21660"
           transform="translate(153.0651,466.4825)"><path
             d="m 0,0 c 0,0 46.479,-5.949 99.586,30.595 53.108,36.545 53.957,42.211 98.434,43.06 44.477,0.85 76.205,-25.212 97.735,-43.626 21.53,-18.414 67.99,-31.597 99.718,-30.388"
             style="fill:none;stroke:#ee213f;stroke-width:3;stroke-linecap:butt;stroke-linejoin:miter;stroke-miterlimit:10;stroke-dasharray:none;stroke-opacity:1"
             id="path21662"
             inkscape:connector-curvature="0" /></g><g
           id="g21664"
           transform="translate(156.4738,466.4825)"><path
             d="m 0,0 c 0,-1.883 -1.526,-3.409 -3.409,-3.409 -1.882,0 -3.408,1.526 -3.408,3.409 0,1.883 1.526,3.409 3.408,3.409 C -1.526,3.409 0,1.883 0,0"
             style="fill:#359c89;fill-opacity:1;fill-rule:nonzero;stroke:none"
             id="path21666"
             inkscape:connector-curvature="0" /></g><g
           id="g21668"
           transform="translate(255.9525,497.5027)"><path
             d="m 0,0 c 0,-1.823 -1.478,-3.301 -3.301,-3.301 -1.823,0 -3.301,1.478 -3.301,3.301 0,1.823 1.478,3.301 3.301,3.301 C -1.478,3.301 0,1.823 0,0"
             style="fill:#359c89;fill-opacity:1;fill-rule:nonzero;stroke:none"
             id="path21670"
             inkscape:connector-curvature="0" /></g><g
           id="g21672"
           transform="translate(292.0988,522.6951)"><path
             d="m 0,0 c 0,-1.843 -1.494,-3.338 -3.338,-3.338 -1.843,0 -3.337,1.495 -3.337,3.338 0,1.843 1.494,3.337 3.337,3.337 C -1.494,3.337 0,1.843 0,0"
             style="fill:#359c89;fill-opacity:1;fill-rule:nonzero;stroke:none"
             id="path21674"
             inkscape:connector-curvature="0" /></g><g
           id="g21676"
           transform="translate(416.4738,523.6363)"><path
             d="m 0,0 c 0,-2.01 -1.629,-3.639 -3.639,-3.639 -2.01,0 -3.639,1.629 -3.639,3.639 0,2.01 1.629,3.639 3.639,3.639 C -1.629,3.639 0,2.01 0,0"
             style="fill:#359c89;fill-opacity:1;fill-rule:nonzero;stroke:none"
             id="path21678"
             inkscape:connector-curvature="0" /></g><g
           id="g21680"
           transform="translate(451.7238,497.2903)"><path
             d="m 0,0 c 0,-2.155 -1.747,-3.902 -3.902,-3.902 -2.156,0 -3.903,1.747 -3.903,3.902 0,2.155 1.747,3.902 3.903,3.902 C -1.747,3.902 0,2.155 0,0"
             style="fill:#359c89;fill-opacity:1;fill-rule:nonzero;stroke:none"
             id="path21682"
             inkscape:connector-curvature="0" /></g><g
           id="g21684"
           transform="translate(478.2238,481.426)"><path
             d="m 0,0 c 0,-2.084 -1.689,-3.773 -3.773,-3.773 -2.084,0 -3.773,1.689 -3.773,3.773 0,2.084 1.689,3.773 3.773,3.773 C -1.689,3.773 0,2.084 0,0"
             style="fill:#359c89;fill-opacity:1;fill-rule:nonzero;stroke:none"
             id="path21686"
             inkscape:connector-curvature="0" /></g></g></g><text
       y="-865.36902"
       x="387.24701"
       style="font-variant:normal;font-weight:normal;font-stretch:normal;font-size:9px;font-family:Raleway;-inkscape-font-specification:Raleway-Regular;writing-mode:lr-tb;fill:#28292a;fill-opacity:1;fill-rule:nonzero;stroke:none;stroke-width:0.99999994"
       id="text21690"
       transform="scale(1,-1)"><tspan
         style="stroke-width:0.99999994"
         x="387.24701 394.00604 399.55902 403.94202 409.22504 412.38403 417.06311 421.96814 426.90912 428.87115 434.22614 439.47314 444.75616"
         y="-865.36902"
         sodipodi:role="line"
         id="tspan21688">Observaciones</tspan></text>
<text
       y="-964.89099"
       x="409.99902"
       style="font-variant:normal;font-weight:bold;font-stretch:normal;font-size:9px;font-family:Raleway;-inkscape-font-specification:Raleway-Bold;writing-mode:lr-tb;fill:#231f20;fill-opacity:1;fill-rule:nonzero;stroke:none;stroke-width:0.99999994"
       id="text21694"
       transform="scale(1,-1)"><tspan
         style="stroke-width:0.99999994"
         x="409.99902 415.27301 420.79004 426.96405 433.71405 439.88806 446.59302 452.64105 560.73102 566.90503 572.89001 578.29907 584.34705 704.93805 710.34705 717.21405 722.78503 728.77002 734.04492 740.56995 746.61792"
         y="-964.89099"
         sodipodi:role="line"
         id="tspan21692">ESCUCHARCREARENTREGAR</tspan></text>
<text
       y="-900.46002"
       x="486.29205"
       style="font-variant:normal;font-weight:normal;font-stretch:normal;font-size:9px;font-family:Raleway;-inkscape-font-specification:Raleway-Regular;writing-mode:lr-tb;fill:#28292a;fill-opacity:1;fill-rule:nonzero;stroke:none;stroke-width:0.99999994"
       id="text21706"
       transform="scale(1,-1)"><tspan
         style="stroke-width:0.99999994"
         x="486.29205 492.37604 497.62305 502.90607 507.79395 513.39197 518.68304 521.69806 526.60303"
         y="-900.46002"
         sodipodi:role="line"
         id="tspan21696">Anécdotas</tspan><tspan
         style="stroke-width:0.99999994"
         x="486.60706 491.07104 496.35406 504.62506 509.53003 652.98102 659.74005 665.29303 670.64801 673.80707 676.82202 682.16803 687.41504 689.37708 694.97504 699.88007 705.47803 710.76105"
         y="-930.84399"
         sodipodi:role="line"
         id="tspan21698">TemasOportunidades</tspan><tspan
         style="stroke-width:0.99999994"
         x="630.31006 635.77301 641.12805 643.57605 648.92206 653.86304 655.82507 661.18005 666.42706 671.71002"
         y="-900.25299"
         sodipodi:role="line"
         id="tspan21700">Soluciones</tspan><tspan
         style="stroke-width:0.99999994"
         x="660.14502 665.74304 668.66803 673.95911 676.85712 682.14917 685.16412 687.12616 692.67914 698.03412"
         y="-884.38599"
         sodipodi:role="line"
         id="tspan21702">Prototipos</tspan><tspan
         style="stroke-width:0.99999994"
         x="715.36005 717.59204 725.86304 728.31104 733.59406 741.86505 747.14801 752.35004 755.36505 760.27002 765.21106 767.17303 772.52802"
         y="-865.97198"
         sodipodi:role="line"
         id="tspan21704">Imlementación</tspan></text>
</g></svg>