<?xml version="1.0" encoding="UTF-8" standalone="no"?>
<!-- Created with Inkscape (http://www.inkscape.org/) -->

<svg
   xmlns:dc="http://purl.org/dc/elements/1.1/"
   xmlns:cc="http://creativecommons.org/ns#"
   xmlns:rdf="http://www.w3.org/1999/02/22-rdf-syntax-ns#"
   xmlns:svg="http://www.w3.org/2000/svg"
   xmlns="http://www.w3.org/2000/svg"
   xmlns:sodipodi="http://sodipodi.sourceforge.net/DTD/sodipodi-0.dtd"
   xmlns:inkscape="http://www.inkscape.org/namespaces/inkscape"
   version="1.1"
   id="svg987"
   xml:space="preserve"
   width="313.35284"
   height="280.06805"
   viewBox="0 0 313.35284 280.06806"
   sodipodi:docname="dfx-method.svg"
   inkscape:version="0.92.3 (2405546, 2018-03-11)"><metadata
     id="metadata993"><rdf:RDF><cc:Work
         rdf:about=""><dc:format>image/svg+xml</dc:format><dc:type
           rdf:resource="http://purl.org/dc/dcmitype/StillImage" /><dc:title></dc:title></cc:Work></rdf:RDF></metadata><defs
     id="defs991"><clipPath
       clipPathUnits="userSpaceOnUse"
       id="clipPath1015"><path
         d="M 0,792 H 612 V 0 H 0 Z"
         id="path1013"
         inkscape:connector-curvature="0" /></clipPath><clipPath
       clipPathUnits="userSpaceOnUse"
       id="clipPath1083"><path
         d="M 0,792 H 612 V 0 H 0 Z"
         id="path1081"
         inkscape:connector-curvature="0" /></clipPath><clipPath
       clipPathUnits="userSpaceOnUse"
       id="clipPath1103"><path
         d="M 0,792 H 612 V 0 H 0 Z"
         id="path1101"
         inkscape:connector-curvature="0" /></clipPath><clipPath
       clipPathUnits="userSpaceOnUse"
       id="clipPath1121"><path
         d="M 0,792 H 612 V 0 H 0 Z"
         id="path1119"
         inkscape:connector-curvature="0" /></clipPath><clipPath
       clipPathUnits="userSpaceOnUse"
       id="clipPath1157"><path
         d="M 0,792 H 612 V 0 H 0 Z"
         id="path1155"
         inkscape:connector-curvature="0" /></clipPath><clipPath
       clipPathUnits="userSpaceOnUse"
       id="clipPath1177"><path
         d="M 0,792 H 612 V 0 H 0 Z"
         id="path1175"
         inkscape:connector-curvature="0" /></clipPath><clipPath
       clipPathUnits="userSpaceOnUse"
       id="clipPath1199"><path
         d="M 0,792 H 612 V 0 H 0 Z"
         id="path1197"
         inkscape:connector-curvature="0" /></clipPath><clipPath
       clipPathUnits="userSpaceOnUse"
       id="clipPath1227"><path
         d="M 0,792 H 612 V 0 H 0 Z"
         id="path1225"
         inkscape:connector-curvature="0" /></clipPath><clipPath
       clipPathUnits="userSpaceOnUse"
       id="clipPath1249"><path
         d="M 0,792 H 612 V 0 H 0 Z"
         id="path1247"
         inkscape:connector-curvature="0" /></clipPath><clipPath
       clipPathUnits="userSpaceOnUse"
       id="clipPath1277"><path
         d="M 0,792 H 612 V 0 H 0 Z"
         id="path1275"
         inkscape:connector-curvature="0" /></clipPath><clipPath
       clipPathUnits="userSpaceOnUse"
       id="clipPath1301"><path
         d="M 0,792 H 612 V 0 H 0 Z"
         id="path1299"
         inkscape:connector-curvature="0" /></clipPath><clipPath
       clipPathUnits="userSpaceOnUse"
       id="clipPath1321"><path
         d="M 0,792 H 612 V 0 H 0 Z"
         id="path1319"
         inkscape:connector-curvature="0" /></clipPath><clipPath
       clipPathUnits="userSpaceOnUse"
       id="clipPath1351"><path
         d="M 0,792 H 612 V 0 H 0 Z"
         id="path1349"
         inkscape:connector-curvature="0" /></clipPath><clipPath
       clipPathUnits="userSpaceOnUse"
       id="clipPath1371"><path
         d="M 0,792 H 612 V 0 H 0 Z"
         id="path1369"
         inkscape:connector-curvature="0" /></clipPath><clipPath
       clipPathUnits="userSpaceOnUse"
       id="clipPath1391"><path
         d="M 0,792 H 612 V 0 H 0 Z"
         id="path1389"
         inkscape:connector-curvature="0" /></clipPath><clipPath
       clipPathUnits="userSpaceOnUse"
       id="clipPath1411"><path
         d="M 0,792 H 612 V 0 H 0 Z"
         id="path1409"
         inkscape:connector-curvature="0" /></clipPath><clipPath
       clipPathUnits="userSpaceOnUse"
       id="clipPath1469"><path
         d="M 0,792 H 612 V 0 H 0 Z"
         id="path1467"
         inkscape:connector-curvature="0" /></clipPath><clipPath
       clipPathUnits="userSpaceOnUse"
       id="clipPath1529"><path
         d="M 0,792 H 612 V 0 H 0 Z"
         id="path1527"
         inkscape:connector-curvature="0" /></clipPath><clipPath
       clipPathUnits="userSpaceOnUse"
       id="clipPath1541"><path
         d="m 497.282,66.173 h 38.14 v 38.268 h -38.14 z"
         id="path1539"
         inkscape:connector-curvature="0" /></clipPath><clipPath
       clipPathUnits="userSpaceOnUse"
       id="clipPath1549"><path
         d="m 490.986,103.566 h 50.961 V 67.1649 h -50.961 z"
         id="path1547"
         inkscape:connector-curvature="0" /></clipPath><clipPath
       clipPathUnits="userSpaceOnUse"
       id="clipPath1733"><path
         d="M 0,792 H 612 V 0 H 0 Z"
         id="path1731"
         inkscape:connector-curvature="0" /></clipPath><clipPath
       clipPathUnits="userSpaceOnUse"
       id="clipPath1785"><path
         d="M 0,792 H 612 V 0 H 0 Z"
         id="path1783"
         inkscape:connector-curvature="0" /></clipPath><clipPath
       clipPathUnits="userSpaceOnUse"
       id="clipPath3184"><path
         d="M 0,792 H 612 V 0 H 0 Z"
         id="path3182"
         inkscape:connector-curvature="0" /></clipPath><clipPath
       clipPathUnits="userSpaceOnUse"
       id="clipPath3170"><path
         d="M 0,792 H 612 V 0 H 0 Z"
         id="path3168"
         inkscape:connector-curvature="0" /></clipPath><clipPath
       clipPathUnits="userSpaceOnUse"
       id="clipPath3100"><path
         d="M 0,792 H 612 V 0 H 0 Z"
         id="path3098"
         inkscape:connector-curvature="0" /></clipPath><clipPath
       clipPathUnits="userSpaceOnUse"
       id="clipPath3078"><path
         d="M 0,792 H 612 V 0 H 0 Z"
         id="path3076"
         inkscape:connector-curvature="0" /></clipPath><clipPath
       clipPathUnits="userSpaceOnUse"
       id="clipPath2958"><path
         d="M 0,792 H 612 V 0 H 0 Z"
         id="path2956"
         inkscape:connector-curvature="0" /></clipPath><clipPath
       clipPathUnits="userSpaceOnUse"
       id="clipPath2944"><path
         d="M 0,792 H 612 V 0 H 0 Z"
         id="path2942"
         inkscape:connector-curvature="0" /></clipPath><clipPath
       clipPathUnits="userSpaceOnUse"
       id="clipPath2928"><path
         d="M 0,792 H 612 V 0 H 0 Z"
         id="path2926"
         inkscape:connector-curvature="0" /></clipPath><clipPath
       clipPathUnits="userSpaceOnUse"
       id="clipPath2912"><path
         d="M 0,792 H 612 V 0 H 0 Z"
         id="path2910"
         inkscape:connector-curvature="0" /></clipPath><clipPath
       clipPathUnits="userSpaceOnUse"
       id="clipPath2852"><path
         d="M 0,792 H 612 V 0 H 0 Z"
         id="path2850"
         inkscape:connector-curvature="0" /></clipPath><clipPath
       clipPathUnits="userSpaceOnUse"
       id="clipPath2838"><path
         d="M 0,792 H 612 V 0 H 0 Z"
         id="path2836"
         inkscape:connector-curvature="0" /></clipPath><clipPath
       clipPathUnits="userSpaceOnUse"
       id="clipPath2824"><path
         d="M 0,792 H 612 V 0 H 0 Z"
         id="path2822"
         inkscape:connector-curvature="0" /></clipPath><clipPath
       clipPathUnits="userSpaceOnUse"
       id="clipPath2810"><path
         d="M 0,792 H 612 V 0 H 0 Z"
         id="path2808"
         inkscape:connector-curvature="0" /></clipPath><clipPath
       clipPathUnits="userSpaceOnUse"
       id="clipPath2796"><path
         d="M 0,792 H 612 V 0 H 0 Z"
         id="path2794"
         inkscape:connector-curvature="0" /></clipPath><clipPath
       clipPathUnits="userSpaceOnUse"
       id="clipPath2754"><path
         d="M 0,792 H 612 V 0 H 0 Z"
         id="path2752"
         inkscape:connector-curvature="0" /></clipPath><clipPath
       clipPathUnits="userSpaceOnUse"
       id="clipPath5082"><path
         d="m 162.339,604.88 h 0.713 v -0.713 h -0.713 z"
         id="path5080"
         inkscape:connector-curvature="0" /></clipPath><clipPath
       clipPathUnits="userSpaceOnUse"
       id="clipPath7398"><path
         d="M 0,792 H 612 V 0 H 0 Z"
         id="path7396"
         inkscape:connector-curvature="0" /></clipPath><clipPath
       clipPathUnits="userSpaceOnUse"
       id="clipPath7398-1"><path
         d="M 0,792 H 612 V 0 H 0 Z"
         id="path7396-1"
         inkscape:connector-curvature="0" /></clipPath><clipPath
       clipPathUnits="userSpaceOnUse"
       id="clipPath9920"><path
         d="M 0,792 H 612 V 0 H 0 Z"
         id="path9918"
         inkscape:connector-curvature="0" /></clipPath><clipPath
       clipPathUnits="userSpaceOnUse"
       id="clipPath9876"><path
         d="M 0,792 H 612 V 0 H 0 Z"
         id="path9874"
         inkscape:connector-curvature="0" /></clipPath><clipPath
       clipPathUnits="userSpaceOnUse"
       id="clipPath12069"><path
         d="M 0,792 H 612 V 0 H 0 Z"
         id="path12067"
         inkscape:connector-curvature="0" /></clipPath><clipPath
       clipPathUnits="userSpaceOnUse"
       id="clipPath12069-1"><path
         d="M 0,792 H 612 V 0 H 0 Z"
         id="path12067-7"
         inkscape:connector-curvature="0" /></clipPath><clipPath
       clipPathUnits="userSpaceOnUse"
       id="clipPath12069-7"><path
         d="M 0,792 H 612 V 0 H 0 Z"
         id="path12067-9"
         inkscape:connector-curvature="0" /></clipPath><clipPath
       clipPathUnits="userSpaceOnUse"
       id="clipPath14532"><path
         d="M 308.646,596.43 H 325.45 V 566.797 H 308.646 Z"
         id="path14530"
         inkscape:connector-curvature="0" /></clipPath><clipPath
       clipPathUnits="userSpaceOnUse"
       id="clipPath14514"><path
         d="m 249.863,556.921 h 36.613 v -26.858 h -36.613 z"
         id="path14512"
         inkscape:connector-curvature="0" /></clipPath><clipPath
       clipPathUnits="userSpaceOnUse"
       id="clipPath14498"><path
         d="m 232.302,488.231 h 45.029 v -20.132 h -45.029 z"
         id="path14496"
         inkscape:connector-curvature="0" /></clipPath><clipPath
       clipPathUnits="userSpaceOnUse"
       id="clipPath14482"><path
         d="m 280.568,445.376 h 22.228 v -23.077 h -22.228 z"
         id="path14480"
         inkscape:connector-curvature="0" /></clipPath><clipPath
       clipPathUnits="userSpaceOnUse"
       id="clipPath14464"><path
         d="m 342.046,423.139 h 13.667 v -22.952 h -13.667 z"
         id="path14462"
         inkscape:connector-curvature="0" /></clipPath><clipPath
       clipPathUnits="userSpaceOnUse"
       id="clipPath14448"><path
         d="m 396.828,444.685 h 25.734 v -26.778 h -25.734 z"
         id="path14446"
         inkscape:connector-curvature="0" /></clipPath><clipPath
       clipPathUnits="userSpaceOnUse"
       id="clipPath14430"><path
         d="m 423.54,493.272 h 44.589 V 476.881 H 423.54 Z"
         id="path14428"
         inkscape:connector-curvature="0" /></clipPath><clipPath
       clipPathUnits="userSpaceOnUse"
       id="clipPath14414"><path
         d="m 412.908,552.69 h 32 v -19.615 h -32 z"
         id="path14412"
         inkscape:connector-curvature="0" /></clipPath><clipPath
       clipPathUnits="userSpaceOnUse"
       id="clipPath14398"><path
         d="m 371.834,610.56 h 22.778 v -44.724 h -22.778 z"
         id="path14396"
         inkscape:connector-curvature="0" /></clipPath></defs><sodipodi:namedview
     pagecolor="#ffffff"
     bordercolor="#666666"
     borderopacity="1"
     objecttolerance="10"
     gridtolerance="10"
     guidetolerance="10"
     inkscape:pageopacity="0"
     inkscape:pageshadow="2"
     inkscape:window-width="1296"
     inkscape:window-height="704"
     id="namedview989"
     showgrid="false"
     fit-margin-top="0"
     fit-margin-left="0"
     fit-margin-right="0"
     fit-margin-bottom="0"
     inkscape:zoom="0.89393939"
     inkscape:cx="102.99139"
     inkscape:cy="89.727155"
     inkscape:window-x="70"
     inkscape:window-y="27"
     inkscape:window-maximized="1"
     inkscape:current-layer="g995" /><g
     id="g995"
     inkscape:groupmode="layer"
     inkscape:label="1_2_METODOLOGÍAS"
     transform="matrix(1.3333333,0,0,-1.3333333,-817.48502,1245.8261)"><path
       inkscape:connector-curvature="0"
       id="path14390"
       style="fill:#ee213f;fill-opacity:1;fill-rule:nonzero;stroke:none;stroke-width:0.99999994"
       d="m 729.85664,853.03695 c 16.37,0.003 29.64402,-13.265 29.64702,-29.636 0,-16.37 -13.26602,-29.643 -29.63602,-29.646 h -0.007 c -16.374,-0.003 -29.64799,13.265 -29.65099,29.635 -0.003,16.37101 13.266,29.644 29.63599,29.647 z" /><g
       transform="translate(380.31034,324.13045)"
       id="g14406"><g
         id="g14404"
         clip-path="url(#clipPath14398)"><text
           id="text14402"
           style="font-variant:normal;font-weight:normal;font-stretch:normal;font-size:6.00002098px;font-family:Raleway;-inkscape-font-specification:Raleway-Regular;writing-mode:lr-tb;fill:#050606;fill-opacity:1;fill-rule:nonzero;stroke:none"
           transform="matrix(0.36811539,0.92978011,0.92978011,-0.36811539,376.6037,566.3292)"><tspan
             id="tspan14400"
             sodipodi:role="line"
             y="0"
             x="0 5.2620182 9.3180323 13.950048 18.480064 21.546675 25.446688 29.520102 33.180115 37.710129 41.561543">MANUFACTURA</tspan></text>
</g></g><g
       transform="translate(380.31034,324.13045)"
       id="g14422"><g
         id="g14420"
         clip-path="url(#clipPath14414)"><text
           id="text14418"
           style="font-variant:normal;font-weight:normal;font-stretch:normal;font-size:6.00004435px;font-family:Raleway;-inkscape-font-specification:Raleway-Regular;writing-mode:lr-tb;fill:#050606;fill-opacity:1;fill-rule:nonzero;stroke:none"
           transform="matrix(0.90482663,0.42578018,0.42578018,-0.90482663,415.0927,534.2862)"><tspan
             id="tspan14416"
             sodipodi:role="line"
             y="0"
             x="0 3.654027 8.2860613 11.856688 15.912718 21.174757 25.170786 28.668812">ENSAMBLE</tspan></text>
</g></g><g
       transform="translate(380.31034,324.13045)"
       id="g14440"><g
         id="g14438"
         clip-path="url(#clipPath14430)"><text
           id="text14436"
           style="font-variant:normal;font-weight:normal;font-stretch:normal;font-size:6.00003672px;font-family:Raleway;-inkscape-font-specification:Raleway-Regular;writing-mode:lr-tb;fill:#050606;fill-opacity:1;fill-rule:nonzero;stroke:none"
           transform="matrix(0.9980272,-0.06278295,-0.06278295,-0.9980272,424.0763,488.1531)"><tspan
             id="tspan14432"
             sodipodi:role="line"
             y="0"
             x="0 4.2900262 7.8546481 11.496671 15.150693 19.782721 23.352144 27.408169 32.6702 36.666225 40.164246">DESENSAMBLE</tspan><tspan
             id="tspan14434"
             sodipodi:role="line"
             y="7.2000442"
             x="0 3.7020228 5.2320323 9.1500559 12.714078 16.830103 18.318113 22.434137 25.932159 29.988184 34.27821">Y RECICLADO</tspan></text>
</g></g><g
       transform="translate(380.31034,324.13045)"
       id="g14456"><g
         id="g14454"
         clip-path="url(#clipPath14448)"><text
           id="text14452"
           style="font-variant:normal;font-weight:normal;font-stretch:normal;font-size:6.00000334px;font-family:Raleway;-inkscape-font-specification:Raleway-Regular;writing-mode:lr-tb;fill:#050606;fill-opacity:1;fill-rule:nonzero;stroke:none"
           transform="matrix(0.68454962,-0.72896626,-0.72896626,-0.68454962,397.8027,440.9186)"><tspan
             id="tspan14450"
             sodipodi:role="line"
             y="0"
             x="0 3.2286017 7.7346044 12.030606 13.518607 17.130009 20.790012 22.278013 26.334015">LOGÍSTICA</tspan></text>
</g></g><g
       transform="translate(380.31034,324.13045)"
       id="g14474"><g
         id="g14472"
         clip-path="url(#clipPath14464)"><text
           id="text14470"
           style="font-variant:normal;font-weight:normal;font-stretch:normal;font-size:6px;font-family:Raleway;-inkscape-font-specification:Raleway-Regular;writing-mode:lr-tb;fill:#050606;fill-opacity:1;fill-rule:nonzero;stroke:none"
           transform="matrix(0,-1,-1,0,350.584,423.1387)"><tspan
             id="tspan14466"
             sodipodi:role="line"
             y="0"
             x="0 4.1160002 5.6040001 9.7200003 12.9486">CICLO</tspan><tspan
             id="tspan14468"
             sodipodi:role="line"
             y="7.1999998"
             x="0 4.29 7.9439998 9.2700005 13.344 14.832 18.972601">DE VIDA</tspan></text>
</g></g><g
       transform="translate(380.31034,324.13045)"
       id="g14490"><g
         id="g14488"
         clip-path="url(#clipPath14482)"><text
           id="text14486"
           style="font-variant:normal;font-weight:normal;font-stretch:normal;font-size:6.00000334px;font-family:Raleway;-inkscape-font-specification:Raleway-Regular;writing-mode:lr-tb;fill:#050606;fill-opacity:1;fill-rule:nonzero;stroke:none"
           transform="matrix(0.68454962,0.72896626,0.72896626,-0.68454962,284.3072,423.214)"><tspan
             id="tspan14484"
             sodipodi:role="line"
             y="0"
             x="0 4.0560021 8.1120043 11.610006 13.098007 17.23801 21.294012">CALIDAD</tspan></text>
</g></g><g
       transform="translate(380.31034,324.13045)"
       id="g14506"><g
         id="g14504"
         clip-path="url(#clipPath14498)"><text
           id="text14502"
           style="font-variant:normal;font-weight:normal;font-stretch:normal;font-size:6.00005722px;font-family:Raleway;-inkscape-font-specification:Raleway-Regular;writing-mode:lr-tb;fill:#050606;fill-opacity:1;fill-rule:nonzero;stroke:none"
           transform="matrix(0.95105758,0.30901371,0.30901371,-0.95105758,233.8876,469.3706)"><tspan
             id="tspan14500"
             sodipodi:role="line"
             y="0"
             x="0 4.074039 8.5800819 13.212126 16.746161 18.234175 22.290213 26.286251 27.774265 31.272299 32.760311 36.900352 40.95639">CONFIABILIDAD</tspan></text>
</g></g><g
       transform="translate(380.31034,324.13045)"
       id="g14524"><g
         id="g14522"
         clip-path="url(#clipPath14514)"><text
           id="text14520"
           style="font-variant:normal;font-weight:normal;font-stretch:normal;font-size:6.00004435px;font-family:Raleway;-inkscape-font-specification:Raleway-Regular;writing-mode:lr-tb;fill:#050606;fill-opacity:1;fill-rule:nonzero;stroke:none"
           transform="matrix(0.90482663,-0.42578018,-0.42578018,-0.90482663,253.4987,552.2794)"><tspan
             id="tspan14516"
             sodipodi:role="line"
             y="0"
             x="0 4.0566301 8.1126604 12.402692 16.056719 20.688753 24.557581 26.087593 30.377625">CADENA DE</tspan><tspan
             id="tspan14518"
             sodipodi:role="line"
             y="7.2000532"
             x="5.7960429 11.058082 15.564116 20.19615 23.436773 27.492804 30.378824">MONTAJE</tspan></text>
</g></g><g
       transform="translate(380.31034,324.13045)"
       id="g14540"><g
         id="g14538"
         clip-path="url(#clipPath14532)"><text
           id="text14536"
           style="font-variant:normal;font-weight:normal;font-stretch:normal;font-size:6.00002098px;font-family:Raleway;-inkscape-font-specification:Raleway-Regular;writing-mode:lr-tb;fill:#050606;fill-opacity:1;fill-rule:nonzero;stroke:none"
           transform="matrix(0.36811539,-0.92978011,-0.92978011,-0.36811539,309.8894,594.5415)"><tspan
             id="tspan14534"
             sodipodi:role="line"
             y="0"
             x="0 3.7080128 7.7640271 11.68204 13.170046 16.824059 20.964672 25.020687">VARIEDAD</tspan></text>
</g></g><path
       inkscape:connector-curvature="0"
       id="path14544"
       style="fill:#b19659;fill-opacity:1;fill-rule:nonzero;stroke:none;stroke-width:0.99999994"
       d="m 794.00776,857.49945 c 0,-2.465 -1.998,-4.463 -4.462,-4.463 -2.465,0 -4.463,1.998 -4.463,4.463 0,2.465 1.998,4.462 4.463,4.462 2.464,0 4.462,-1.997 4.462,-4.462" /><path
       inkscape:connector-curvature="0"
       id="path14548"
       style="fill:#90c65f;fill-opacity:1;fill-rule:nonzero;stroke:none;stroke-width:0.99999994"
       d="m 801.23936,811.46965 c 0,-2.465 -1.998,-4.462 -4.462,-4.462 -2.465,0 -4.463,1.997 -4.463,4.462 0,2.465 1.998,4.463 4.463,4.463 2.464,0 4.462,-1.998 4.462,-4.463" /><path
       inkscape:connector-curvature="0"
       id="path14552"
       style="fill:#62c667;fill-opacity:1;fill-rule:nonzero;stroke:none;stroke-width:0.99999994"
       d="m 778.06766,771.09605 c 0,-2.465 -1.998,-4.463 -4.462,-4.463 -2.465,0 -4.463,1.998 -4.463,4.463 0,2.465 1.998,4.462 4.463,4.462 2.464,0 4.462,-1.997 4.462,-4.462" /><path
       inkscape:connector-curvature="0"
       id="path14556"
       style="fill:#66ca9c;fill-opacity:1;fill-rule:nonzero;stroke:none;stroke-width:0.99999994"
       d="m 734.25264,753.66775 c 0,-2.465 -1.998,-4.462 -4.462,-4.462 -2.465,0 -4.463,1.997 -4.463,4.462 0,2.465 1.998,4.462 4.463,4.462 2.464,0 4.462,-1.997 4.462,-4.462" /><path
       inkscape:connector-curvature="0"
       id="path14560"
       style="fill:#67a0bd;fill-opacity:1;fill-rule:nonzero;stroke:none;stroke-width:0.99999994"
       d="m 691.05544,771.37695 c 0,-2.465 -1.998,-4.463 -4.462,-4.463 -2.465,0 -4.463,1.998 -4.463,4.463 0,2.465 1.998,4.462 4.463,4.462 2.464,0 4.462,-1.997 4.462,-4.462" /><path
       inkscape:connector-curvature="0"
       id="path14564"
       style="fill:#6062b7;fill-opacity:1;fill-rule:nonzero;stroke:none;stroke-width:0.99999994"
       d="m 667.83534,811.94585 c 0,-2.465 -1.998,-4.462 -4.463,-4.462 -2.464,0 -4.462,1.997 -4.462,4.462 0,2.465 1.998,4.462 4.462,4.462 2.465,0 4.463,-1.997 4.463,-4.462" /><path
       inkscape:connector-curvature="0"
       id="path14568"
       style="fill:#8d5ab3;fill-opacity:1;fill-rule:nonzero;stroke:none;stroke-width:0.99999994"
       d="m 675.51454,857.45795 c 0,-2.465 -1.998,-4.462 -4.462,-4.462 -2.465,0 -4.463,1.997 -4.463,4.462 0,2.465 1.998,4.463 4.463,4.463 2.464,0 4.462,-1.998 4.462,-4.463" /><path
       inkscape:connector-curvature="0"
       id="path14572"
       style="fill:#b852a9;fill-opacity:1;fill-rule:nonzero;stroke:none;stroke-width:0.99999994"
       d="m 710.73414,886.95835 c 0,-2.465 -1.998,-4.462 -4.462,-4.462 -2.465,0 -4.463,1.997 -4.463,4.462 0,2.465 1.998,4.463 4.463,4.463 2.464,0 4.462,-1.998 4.462,-4.463" /><path
       inkscape:connector-curvature="0"
       id="path14576"
       style="fill:#b95762;fill-opacity:1;fill-rule:nonzero;stroke:none;stroke-width:0.99999994"
       d="m 756.91334,885.59275 c 0,-2.465 -1.998,-4.463 -4.462,-4.463 -2.465,0 -4.463,1.998 -4.463,4.463 0,2.465 1.998,4.462 4.463,4.462 2.464,0 4.462,-1.997 4.462,-4.462" /><text
       y="-829.32184"
       x="716.82202"
       style="font-variant:normal;font-weight:bold;font-stretch:normal;font-size:6.94390011px;font-family:Raleway;-inkscape-font-specification:Raleway-Bold;writing-mode:lr-tb;fill:#ffffff;fill-opacity:1;fill-rule:nonzero;stroke:none;stroke-width:0.99999994"
       id="text14584"
       transform="scale(1,-1)"><tspan
         style="stroke-width:0.99999994"
         x="716.82202 721.79382 723.77979 728.03644 732.20972 737.50787"
         y="-829.32184"
         sodipodi:role="line"
         id="tspan14578">DISEÑO</tspan><tspan
         style="stroke-width:0.99999994"
         x="715.86377 719.87732 724.54364 729.08423 733.53601 735.20251 739.25775"
         y="-820.98914"
         sodipodi:role="line"
         id="tspan14580">PARA LA</tspan><tspan
         style="stroke-width:0.99999994"
         x="708.73932 712.9126 717.17688 721.94037 726.11365 730.16888 734.34216 739.64038 744.40387 746.38983"
         y="-812.65649"
         sodipodi:role="line"
         id="tspan14582">EXCELENCIA</tspan></text>
</g></svg>