<?xml version="1.0" encoding="UTF-8" standalone="no"?>
<!-- Generator: Adobe Illustrator 19.0.0, SVG Export Plug-In . SVG Version: 6.00 Build 0)  -->

<svg
   xmlns:dc="http://purl.org/dc/elements/1.1/"
   xmlns:cc="http://creativecommons.org/ns#"
   xmlns:rdf="http://www.w3.org/1999/02/22-rdf-syntax-ns#"
   xmlns:svg="http://www.w3.org/2000/svg"
   xmlns="http://www.w3.org/2000/svg"
   xmlns:xlink="http://www.w3.org/1999/xlink"
   xmlns:sodipodi="http://sodipodi.sourceforge.net/DTD/sodipodi-0.dtd"
   xmlns:inkscape="http://www.inkscape.org/namespaces/inkscape"
   version="1.1"
   x="0px"
   y="0px"
   viewBox="0 0 301.25446 224.43118"
   xml:space="preserve"
   id="svg453"
   sodipodi:docname="G-FASE1.svg"
   width="301.25446"
   height="224.43118"
   inkscape:version="0.92.3 (2405546, 2018-03-11)"><metadata
   id="metadata459"><rdf:RDF><cc:Work
       rdf:about=""><dc:format>image/svg+xml</dc:format><dc:type
         rdf:resource="http://purl.org/dc/dcmitype/StillImage" /><dc:title></dc:title></cc:Work></rdf:RDF></metadata><defs
   id="defs457">
	
	
	
	
	
	
	
	
	
	
	
	
	
	
	
	
	
	
	
	
	
	
	
	
	
	
	
	
	
	
	
	
	
	
	
	
	
	
	
	
	
	
	
	
	
	
	
	
	
	
	
	
	
	
	
	
	
	
	
	
	

		<defs
   id="defs439">
			<path
   id="XMLID_141_"
   d="m 294.8,409.6 c -90.3,0 -163.5,-73.2 -163.5,-163.5 0,-90.3 73.2,-163.4 163.5,-163.4 90.3,0 163.5,73.2 163.5,163.5 0,90.3 -73.2,163.4 -163.5,163.4 z M 489,246.1 C 489,138.9 402,51.9 294.8,51.9 c -107.2,0 -194.2,86.9 -194.2,194.2 0,107.3 86.9,194.2 194.2,194.2 107.3,0 194.2,-86.9 194.2,-194.2 z"
   inkscape:connector-curvature="0" />
		</defs>
		<clipPath
   id="XMLID_60_">
			<use
   xlink:href="#XMLID_141_"
   style="overflow:visible"
   id="use441"
   x="0"
   y="0"
   width="100%"
   height="100%" />
		</clipPath>
		
		
		
		
	
		
	
		
		
		
		
		
		
	
		
		
		
		
		
		
		
		
		
		
	
		
		
		
		
		
		
		
		
		
		
		
		
		
		
		
		
	
		
		
		
		
		
		
		
		
		
		
		
		
		
		
		
		
		
		
	
		
	
		
		
		
		
		
		
		
		
		
		
	
		
	
		
	
		
		
		
		
		
		
		
	
		
		
		
		
		
		
		
		
		
	
		
	
		
		
		
		
		
		
		
		
		
		
		
		
		
		
		
		
		
		
		
		
		
		
		
		
		
		
		
		
		
		
		
		
	
		
		
		
		
		
		
		
		
		
		
	
		
		
		
		
		
		
		
		
		
		
	
		
		
		
		
		
		
		
		
		
		
		
		
		
		
		
		
		
		
	
		
		
		
		
		
		
		
		
		
		
	
		
		
		
		
		
		
		
		
		
		
	
		
		
		
		
		
		
		
		
		
		
		
		
		
		
		
		
		
		
		
		
		
		
		
	
		
		
		
		
		
		
		
		
		
		
		
	
		
		
		
		
		
		
		
		
		
		
		
		
		
	
		
		
		
		
		
		
		
		
		
		
		
	
		
		
		
		
		
		
		
		
		
		
		
		
	
		
		
		
		
		
		
		
		
		
		
		
		
		
		
		
		
		
		
	
		
		
		
		
		
		
		
		
		
		
		
		
		
		
		
		
		
		
		
		
		
		
		
		
		
		
		
		
		
		
		
		
		
		
		
	
		
		
		
		
		
		
		
		
		
		
	
			
			
			
			
			
			
			
			
			
			
			
			
			
			
			
			
			
			
			
			
			
			
		
			
			
			
			
			
			
			
			
			
			
			
			
			
		
			
			
			
			
			
			
			
			
			
			
			
			
			
			
			
			
			
			
			
			
			
		
			
			
			
			
			
			
			
			
			
			
		
			
			
		
			
			
		</defs><sodipodi:namedview
   pagecolor="#ffffff"
   bordercolor="#666666"
   borderopacity="1"
   objecttolerance="10"
   gridtolerance="10"
   guidetolerance="10"
   inkscape:pageopacity="0"
   inkscape:pageshadow="2"
   inkscape:window-width="1366"
   inkscape:window-height="705"
   id="namedview455"
   showgrid="false"
   fit-margin-top="0"
   fit-margin-left="0"
   fit-margin-right="0"
   fit-margin-bottom="0"
   inkscape:snap-bbox="true"
   inkscape:bbox-paths="true"
   inkscape:bbox-nodes="true"
   inkscape:snap-bbox-edge-midpoints="true"
   inkscape:snap-bbox-midpoints="true"
   inkscape:object-paths="true"
   inkscape:snap-intersection-paths="true"
   inkscape:snap-smooth-nodes="true"
   inkscape:snap-midpoints="true"
   inkscape:snap-object-midpoints="true"
   inkscape:snap-center="true"
   inkscape:snap-text-baseline="true"
   inkscape:snap-page="true"
   inkscape:zoom="1.0901288"
   inkscape:cx="194.42588"
   inkscape:cy="44.288708"
   inkscape:window-x="-8"
   inkscape:window-y="-8"
   inkscape:window-maximized="1"
   inkscape:current-layer="svg453"
   showguides="true"
   inkscape:guide-bbox="true"
   inkscape:snap-global="true"><sodipodi:guide
     position="284.32645,206.81714"
     orientation="1,0"
     id="guide3128"
     inkscape:locked="false" /><sodipodi:guide
     position="-1.6735479,3.0163129"
     orientation="0,1"
     id="guide3130"
     inkscape:locked="false" /></sodipodi:namedview>
<style
   type="text/css"
   id="style2">
	.st0{fill:none;stroke:#4F4754;stroke-width:0.4943;stroke-miterlimit:10;stroke-dasharray:3.2954,6.5908;}
	.st1{fill:none;stroke:#FFFFFF;stroke-width:2.6363;stroke-miterlimit:10;}
	.st2{fill:#FFFFFF;}
	.st3{fill:none;stroke:#4F4754;stroke-width:1.3182;stroke-miterlimit:10;stroke-dasharray:6.5908,6.5908;}
	.st4{fill:none;stroke:#1D1D1B;stroke-width:3.2954;stroke-miterlimit:10;}
	.st5{fill:none;stroke:#FFFFFF;stroke-width:0.6591;stroke-miterlimit:10;}
	.st6{fill:none;stroke:#009540;stroke-width:6.590837e-002;}
	.st7{clip-path:url(#XMLID_60_);fill:#FFFFFF;}
	.st8{clip-path:url(#XMLID_60_);}
</style>
<path
   style="opacity:0.5;fill:#ffffff;fill-opacity:1;stroke:none;stroke-width:3.77952766;stroke-miterlimit:4;stroke-dasharray:none;stroke-opacity:1"
   d="M 42.479944,0 C 19.102884,0 -2.7518858,19.01765 0.28309418,42.19685 V 224.43118 H 301.25446 V 0 Z"
   id="rect4225"
   inkscape:connector-curvature="0"
   sodipodi:nodetypes="sscccs" /><g
   id="Capa_1"
   transform="translate(-15.673548,-1.085192)">
</g>
<g
   id="Capa_2"
   transform="translate(-15.673548,-1.085192)">
</g>
<path
   style="fill:#917c6f;stroke:#4f4754;stroke-width:1.31819999;stroke-miterlimit:10;stroke-dasharray:6.5908, 6.59079999999999977"
   inkscape:connector-curvature="0"
   d="M 443.82645,239.31481"
   class="st3"
   id="XMLID_347_" /><path
   style="fill:#917c6f;stroke:#ffffff;stroke-width:2.63630009;stroke-miterlimit:10"
   inkscape:connector-curvature="0"
   d="M 225.62645,88.814808"
   class="st1"
   id="XMLID_253_" /><path
   style="fill:#917c6f;stroke:#1d1d1b;stroke-width:3.2953999;stroke-miterlimit:10"
   inkscape:connector-curvature="0"
   d="M 234.12645,117.21481"
   class="st4"
   id="XMLID_248_" /><path
   style="fill:#917c6f;stroke:#1d1d1b;stroke-width:3.2953999;stroke-miterlimit:10"
   inkscape:connector-curvature="0"
   d="M 278.02645,242.11481"
   class="st4"
   id="XMLID_247_" /><path
   style="fill:#917c6f;stroke:#4f4754;stroke-width:1.31819999;stroke-miterlimit:10;stroke-dasharray:6.5908, 6.59079999999999977"
   inkscape:connector-curvature="0"
   d="M 10.426452,399.91481"
   class="st3"
   id="XMLID_217_" /><path
   style="fill:#917c6f;stroke:#4f4754;stroke-width:0.49430001;stroke-miterlimit:10;stroke-dasharray:3.2954, 6.59079999999999977"
   inkscape:connector-curvature="0"
   d="M 183.02645,110.61481"
   class="st0"
   id="XMLID_135_" /><path
   inkscape:connector-curvature="0"
   d="M 267.42645,409.61481"
   class="st6"
   id="XMLID_118_"
   style="fill:#917c6f" />
<g
   id="Modo_de_aislamiento"
   transform="translate(-15.673548,-1.085192)">
</g>
<path
   style="color:#000000;font-style:normal;font-variant:normal;font-weight:normal;font-stretch:normal;font-size:medium;line-height:normal;font-family:sans-serif;font-variant-ligatures:normal;font-variant-position:normal;font-variant-caps:normal;font-variant-numeric:normal;font-variant-alternates:normal;font-feature-settings:normal;text-indent:0;text-align:start;text-decoration:none;text-decoration-line:none;text-decoration-style:solid;text-decoration-color:#000000;letter-spacing:normal;word-spacing:normal;text-transform:none;writing-mode:lr-tb;direction:ltr;text-orientation:mixed;dominant-baseline:auto;baseline-shift:baseline;text-anchor:start;white-space:normal;shape-padding:0;clip-rule:nonzero;display:inline;overflow:visible;visibility:visible;opacity:1;isolation:auto;mix-blend-mode:normal;color-interpolation:sRGB;color-interpolation-filters:linearRGB;solid-color:#000000;solid-opacity:1;vector-effect:none;fill:#000000;fill-opacity:1;fill-rule:nonzero;stroke:none;stroke-width:2.63630009;stroke-linecap:butt;stroke-linejoin:miter;stroke-miterlimit:10;stroke-dasharray:none;stroke-dashoffset:0;stroke-opacity:1;color-rendering:auto;image-rendering:auto;shape-rendering:auto;text-rendering:auto;enable-background:accumulate"
   d="m 261.75428,20.6302 c -0.8,0 -1.49961,0.2 -2.09961,0.5 -0.7,0.4 -1.20117,0.800781 -1.70117,1.300781 -0.5,0.5 -0.79961,1.100782 -1.09961,1.800782 -0.3,0.7 -0.40039,1.499218 -0.40039,2.199218 0,0.7 0.10039,1.39961 0.40039,2.09961 0.3,0.7 0.59961,1.300781 1.09961,1.800781 0.5,0.6 1.10117,0.998828 1.70117,1.298828 0.6,0.3 1.29961,0.5 2.09961,0.5 0.8,0 1.49961,-0.199609 2.09961,-0.599609 0.7,-0.3 1.20117,-0.699219 1.70117,-1.199219 0.5,-0.5 0.79961,-1.100781 1.09961,-1.800781 0.3,-0.7 0.40039,-1.499219 0.40039,-2.199219 0,-0.7 -0.10039,-1.399609 -0.40039,-2.099609 -0.3,-0.7 -0.59961,-1.300782 -1.09961,-1.800782 -0.5,-0.5 -1.10117,-1.000781 -1.70117,-1.300781 -0.6,-0.3 -1.29961,-0.5 -2.09961,-0.5 z m -56,0.101563 v 11.298828 h 7.5 v -1 -0.09961 h -6.40039 V 26.6302 h 5.5 v -0.898437 h -5.5 v -4 h 6.30078 v -1 z m 9.59961,0 v 11.298828 h 7.59961 v -1 h -6.5 V 20.731763 Z m 12.80078,0 v 11.199218 h 1.09961 v -4.099609 h 3.40039 l 2.59961,4.099609 h 1.19922 L 233.65467,27.6302 c 0.4,-0.1 0.7,-0.198437 1,-0.398437 0.3,-0.2 0.59883,-0.500782 0.79883,-0.800782 0.2,-0.3 0.4,-0.6 0.5,-1 0.1,-0.4 0.20117,-0.799218 0.20117,-1.199218 0,-0.5 -0.001,-0.900782 -0.20117,-1.300782 -0.2,-0.4 -0.39922,-0.799609 -0.69922,-1.099609 -0.3,-0.3 -0.69961,-0.600781 -1.09961,-0.800781 -0.4,-0.2 -0.80078,-0.298828 -1.30078,-0.298828 z m 10.40039,0 v 11.298828 h 7.5 v -1 -0.09961 h -6.40039 V 26.6302 h 5.5 v -0.898437 h -5.5 v -4 h 6.29883 v -1 z m 8.39844,0 v 1 h 4 v 10.298828 h 1.10156 V 21.731763 h 4 v -1 z M 229.25428,21.6302 h 3.59961 c 0.3,0 0.60039,0.101172 0.90039,0.201172 0.3,0.2 0.49922,0.399609 0.69922,0.599609 0.2,0.2 0.4,0.500782 0.5,0.800782 0.1,0.3 0.20117,0.7 0.20117,1 0,0.4 -0.10117,0.7 -0.20117,1 -0.1,0.3 -0.19844,0.598828 -0.39844,0.798828 -0.2,0.3 -0.40117,0.499609 -0.70117,0.599609 -0.3,0.1 -0.60039,0.201172 -0.90039,0.201172 h -3.69922 z m 32.5,0.101563 c 0.6,0 1.19922,0.09844 1.69922,0.398437 0.5,0.2 0.90078,0.6 1.30078,1 0.4,0.4 0.70039,0.9 0.90039,1.5 0.2,0.6 0.29883,1.200781 0.29883,1.800781 0,0.6 -0.0988,1.099219 -0.29883,1.699219 -0.2,0.6 -0.40078,1.1 -0.80078,1.5 -0.3,0.5 -0.79883,0.801563 -1.29883,1.101562 -0.5,0.300001 -1.10117,0.398438 -1.70117,0.398438 -0.6,0 -1.19922,-0.09844 -1.69922,-0.398438 -0.5,-0.199999 -0.90078,-0.599999 -1.30078,-0.999999 -0.4,-0.4 -0.70039,-0.9 -0.90039,-1.5 -0.2,-0.6 -0.29883,-1.200782 -0.29883,-1.800782 0,-0.6 0.0988,-1.199218 0.29883,-1.699218 0.2,-0.6 0.50078,-1 0.80078,-1.5 0.3,-0.5 0.80078,-0.801563 1.30078,-1.101563 0.5,-0.3 1.09922,-0.398437 1.69922,-0.398437 z m -57.40039,14.36914 v 0.660156 h 74.20117 c 3.35289,0 4.71314,1.422436 5.33399,2.851563 0.62085,1.429127 0.43945,2.875 0.43945,2.875 l -0.004,0.02148 v 32.021485 h 0.66016 v -32 c 0.0147,-0.117968 0.18643,-1.624025 -0.49024,-3.181641 -0.70415,-1.620873 -2.39233,-3.248047 -5.93945,-3.248047 z m 45.5,27.929688 c -9.2,0 -16.69922,7.501171 -16.69922,16.701171 0,4.425998 1.74835,8.446168 4.57422,11.439454 -12.68517,4.741204 -24.46299,10.884574 -35.22266,18.191404 -0.85165,-0.82287 -1.96406,-1.39202 -3.25195,-1.53125 -2.6,-0.3 -5.1,1.19961 -6,3.59961 -0.62617,1.56542 -0.50774,3.20747 0.14062,4.58398 -7.29237,5.71765 -14.05471,11.98646 -20.21679,18.7461 -0.60805,-0.32697 -1.28593,-0.55113 -2.02344,-0.63086 -2.6,-0.3 -5.1,1.20156 -6,3.60156 -0.7869,1.96726 -0.40426,4.06043 0.73828,5.58789 -5.09991,6.41554 -9.71723,13.18321 -13.80859,20.24805 -0.23736,-0.0589 -0.4793,-0.10957 -0.73047,-0.13672 -2.6,-0.3 -5.1,1.19961 -6,3.59961 -0.93593,2.33981 -0.21144,4.85265 1.47266,6.38477 -3.08843,6.26026 -5.80097,12.70626 -8.08789,19.3125 -2.55801,-0.24289 -4.99818,1.23927 -5.88477,3.60351 -1.11856,2.7964 0.12835,5.84218 2.56055,7.16016 -1.77932,6.53536 -3.15749,13.19441 -4.13282,19.93945 h 2.65821 c 0.95868,-6.52144 2.29258,-12.96223 4.01562,-19.2832 2.32603,0.0584 4.56512,-1.37816 5.49805,-3.61719 0.16389,-0.40974 0.27367,-0.82384 0.33984,-1.23828 l 0.46875,0.0469 0.0488,-0.49023 -0.46484,-0.0469 c 0.035,-0.48904 0.009,-0.97384 -0.0781,-1.44336 l 1.07813,-0.25 -0.11328,-0.48047 -1.07813,0.25 c -0.37389,-1.35898 -1.23356,-2.5523 -2.42773,-3.3125 2.21165,-6.379 4.81283,-12.61292 7.78125,-18.66602 l 0.0293,0.0137 c 0.0384,-0.0781 0.0806,-0.15437 0.11914,-0.23242 0.25847,0.0668 0.52202,0.12068 0.79688,0.15039 2.5,0.3 5,-1.19961 6,-3.59961 0.94034,-2.35085 0.20703,-4.87821 -1.49414,-6.4082 4.01359,-6.90269 8.54118,-13.51713 13.53515,-19.79297 0.53954,0.25378 1.12677,0.43157 1.75977,0.5 2.23993,0.25845 4.39889,-0.8241 5.53125,-2.66211 l 0.11523,0.0684 0.004,0.002 0.002,0.002 2.0625,1.15429 0.24219,-0.42968 -2.0625,-1.15625 v 0.002 l -0.13476,-0.0801 c 0.0823,-0.16545 0.17445,-0.32459 0.24023,-0.5 0.74528,-1.86319 0.4345,-3.83438 -0.57031,-5.33594 6.0735,-6.65572 12.73081,-12.83605 19.91797,-18.4668 0.7717,0.58759 1.70251,0.99007 2.75195,1.10352 2.6,0.3 5.1,-1.20156 6,-3.60156 0.54858,-1.37144 0.52147,-2.80091 0.0723,-4.06055 10.97872,-7.45677 23.04172,-13.670747 36.05273,-18.406247 2.77083,2.043939 6.17991,3.267578 9.875,3.267578 6.9,0 12.84414,-4.218359 15.38477,-10.208984 3.96862,-0.761599 7.94218,-1.377627 11.91601,-1.839844 1.12897,3.053347 4.06684,5.248047 7.5,5.248047 3.81697,0 7.10215,-2.710381 7.8418,-6.300781 0.0482,-0.0011 0.0963,-8.78e-4 0.14453,-0.002 1.03685,-0.02213 2.07254,-0.0348 3.10742,-0.03711 1.05174,-0.0024 2.1029,0.0055 3.15234,0.02344 0.10423,0.0018 0.2083,0.0039 0.3125,0.0059 0.68097,0.01298 1.36093,0.0355 2.04102,0.05664 v -2.646485 c -0.6454,-0.01951 -1.29114,-0.03043 -1.9375,-0.04297 -0.43699,-0.0085 -0.87315,-0.02232 -1.31055,-0.02734 -1.08709,-0.01247 -2.17619,-0.01485 -3.26562,-0.0059 -0.71463,0.0059 -1.43072,0.02397 -2.14649,0.03906 -0.4691,-3.961578 -3.85743,-7.062644 -7.93963,-7.062644 -4.4,0 -8,3.6 -8,8 0,0.05263 0.007,0.103853 0.008,0.15625 -3.50871,0.412151 -7.01724,0.950583 -10.52343,1.591797 0.26394,-1.176045 0.41601,-2.392597 0.41601,-3.646485 0,-9.199998 -7.50117,-16.701171 -16.70117,-16.701171 z m -35,3.701171 c -0.7,0 -1.39961,0.100001 -2.09961,0.5 -0.7,0.4 -1.19922,0.798829 -1.69922,1.298829 -0.5,0.5 -0.80156,1.100781 -1.10156,1.800781 -0.3,0.7 -0.39844,1.499219 -0.39844,2.199219 0,0.7 0.0984,1.399609 0.39844,2.099609 0.3,0.7 0.60156,1.300781 1.10156,1.800781 0.5,0.6 0.99922,1.000783 1.69922,1.300781 0.7,0.3 1.39922,0.5 2.19922,0.5 0.8,0 1.50156,-0.201562 2.10156,-0.601562 0.7,-0.3 1.19922,-0.699219 1.69922,-1.199219 0.5,-0.5 0.79961,-1.100781 1.09961,-1.800781 0.3,-0.7 0.40039,-1.499219 0.40039,-2.199219 0,-0.7 -0.10039,-1.399609 -0.40039,-2.099609 -0.3,-0.7 -0.59961,-1.300781 -1.09961,-1.800781 -0.5,-0.5 -1.09922,-0.998829 -1.69922,-1.298829 -0.7,-0.299998 -1.40117,-0.5 -2.20117,-0.5 z m -107.5,0.09961 c -0.6,0 -1.09961,0.09922 -1.59961,0.199219 -0.5,0.1 -1.00078,0.399609 -1.30078,0.599609 -0.3,0.2 -0.59883,0.6 -0.79883,1 -0.2,0.4 -0.30078,0.900391 -0.30078,1.400391 0,0.4 0.10117,0.799609 0.20117,1.099609 0.2,0.3 0.39922,0.500781 0.69922,0.800781 0.3,0.3 0.69961,0.39961 1.09961,0.59961 0.4,0.1 0.9,0.30039 1.5,0.40039 0.5,0.2 1.00039,0.300391 1.40039,0.400391 0.4,0.1 0.7,0.200392 1,0.40039 0.2,0.200002 0.49961,0.39961 0.59961,0.59961 0.1,0.2 0.20117,0.498828 0.20117,0.798828 0,0.6 -0.20117,1.000781 -0.70117,1.300781 -0.5,0.3 -1.10039,0.400391 -1.90039,0.400391 -0.4,0 -0.79922,3.92e-4 -1.19922,-0.09961 -0.4,0 -0.79961,-0.200781 -1.09961,-0.300781 -0.3,-0.2 -0.60039,-0.3 -0.90039,-0.5 -0.3,-0.1 -0.49922,-0.3 -0.69922,-0.5 l -0.70117,1.199219 c 0.6,0.5 1.29961,0.901172 2.09961,1.201172 0.8,0.3 1.6,0.400392 2.5,0.40039 0.6,0 1.10156,-0.101171 1.60156,-0.201171 0.5,-0.2 0.89883,-0.29961 1.29883,-0.59961 0.4,-0.3 0.70039,-0.6 0.90039,-1 0.2,-0.4 0.30078,-0.90039 0.30078,-1.40039 0,-0.5 -0.10078,-0.998829 -0.30078,-1.298829 -0.2,-0.399999 -0.50078,-0.70039 -0.80078,-0.90039 -0.3,-0.2 -0.69922,-0.399608 -1.19922,-0.59961 -0.5,-0.1 -0.99961,-0.30039 -1.59961,-0.40039 -0.5,-0.1 -1.00078,-0.200781 -1.30078,-0.300781 -0.3,-0.1 -0.70039,-0.300391 -0.90039,-0.400391 -0.2,-0.1 -0.4,-0.3 -0.5,-0.5 -0.1,-0.2 -0.19922,-0.498828 -0.19922,-0.798828 0,-0.5 0.19961,-1.000781 0.59961,-1.300781 0.4,-0.3 1.00039,-0.5 1.90039,-0.5 0.4,0 0.7,-3.91e-4 1,0.09961 l 0.90039,0.300781 c 0.3,0.1 0.49922,0.300391 0.69922,0.400391 0.2,0.1 0.4,0.300392 0.5,0.40039 l 0.70117,-1.201171 c -0.4,-0.4 -1.00156,-0.700391 -1.60156,-0.900391 -0.7,-0.2 -1.29961,-0.298828 -2.09961,-0.298829 z m 10.70117,0 c -0.9,0 -1.60078,0.2 -2.30078,0.5 -0.7,0.3 -1.19922,0.798828 -1.69922,1.298828 -0.4,0.5 -0.8,1.100781 -1,1.800781 -0.3,0.7 -0.40039,1.3 -0.40039,2 0,0.7 0.10039,1.39961 0.40039,2.09961 0.3,0.7 0.59961,1.40039 1.09961,1.90039 0.5,0.5 1.09922,1.000781 1.69922,1.300781 0.6,0.3 1.29961,0.5 2.09961,0.5 0.4,0 0.80078,-0.101171 1.30078,-0.201171 0.5,-0.1 0.90078,-0.3 1.30078,-0.5 0.4,-0.2 0.69961,-0.498829 1.09961,-0.798829 0.4,-0.299998 0.59883,-0.701562 0.79883,-1.101562 l -1.19922,-0.599609 c -0.1,0.4 -0.39961,0.70039 -0.59961,0.90039 -0.2,0.2 -0.50078,0.39961 -0.80078,0.59961 -0.3,0.2 -0.60039,0.30039 -0.90039,0.40039 -0.3,0.1 -0.59844,0.09961 -0.89844,0.09961 -0.6,0 -1.10156,-0.200391 -1.60156,-0.400391 -0.4,-0.3 -0.89922,-0.6 -1.19922,-1 -0.3,-0.4 -0.60078,-0.898436 -0.80078,-1.398438 -0.2,-0.5 -0.29883,-1.101171 -0.29883,-1.701171 0,-0.6 -7.8e-4,-1.09961 0.19922,-1.59961 0.1,-0.5 0.40117,-1.00039 0.70117,-1.40039 0.3,-0.4 0.69922,-0.7 1.19922,-1 0.5,-0.3 1.09922,-0.400391 1.69922,-0.400391 0.3,0 0.60039,0.0016 0.90039,0.101562 0.3,0 0.60039,0.198829 0.90039,0.298829 0.3,0.2 0.60078,0.399609 0.80078,0.599609 0.2,0.2 0.39961,0.500391 0.59961,0.900391 l 1.09961,-0.699219 c -0.4,-0.8 -0.89961,-1.300781 -1.59961,-1.800781 -0.7,-0.5 -1.59961,-0.699219 -2.59961,-0.699219 z m -35.201173,0.09961 V 79.1302 h 3.900391 c 0.8,0 1.499219,-0.09844 2.199219,-0.398438 0.7,-0.2 1.201172,-0.601562 1.701172,-1.101562 0.5,-0.5 0.799609,-1.098828 1.099609,-1.798828 0.3,-0.7 0.400391,-1.400781 0.400391,-2.300781 0,-0.8 -0.100782,-1.499219 -0.300782,-2.199219 -0.2,-0.7 -0.5,-1.300781 -1,-1.800781 -0.5,-0.5 -0.999218,-0.899219 -1.699218,-1.199219 -0.7,-0.3 -1.500391,-0.400391 -2.400391,-0.400391 z m 11.400391,0 V 79.1302 h 7.599612 v -1.199219 h -6.199221 v -3.90039 h 5.298831 v -1.199219 h -5.298831 v -3.59961 h 6.099611 v -1.300781 z m 29.599612,0 V 73.6302 c 0,0.7 10e-4,1.401564 0.20117,2.101562 0.2,0.700002 0.39883,1.298829 0.79883,1.798829 0.4,0.6 0.9,1.000781 1.5,1.300781 0.6,0.3 1.40078,0.5 2.30078,0.5 0.9,0 1.59922,-0.2 2.19922,-0.5 0.6,-0.3 1.1,-0.701172 1.5,-1.201172 0.3,-0.5 0.60078,-1.098828 0.80078,-1.798828 0.2,-0.7 0.29883,-1.401172 0.29883,-2.201172 v -5.699219 h -1.39844 v 5.59961 c 0,0.5 -0.10117,1.099609 -0.20117,1.599609 -0.1,0.5 -0.3,1.000391 -0.5,1.400391 -0.2,0.4 -0.6,0.7 -1,1 -0.4,0.3 -0.89961,0.40039 -1.59961,0.40039 -0.6,0 -1.09922,-0.100781 -1.69922,-0.300781 -0.4,-0.3 -0.7,-0.6 -1,-1 -0.3,-0.4 -0.50156,-0.898436 -0.60156,-1.398438 -0.1,-0.5 -0.19922,-1.001562 -0.19922,-1.601562 v -5.699219 z m 12.30078,0 V 79.1302 h 5.29883 c 0.5,0 0.90078,7.81e-4 1.30078,-0.199219 0.4,-0.2 0.7,-0.299609 1,-0.599609 0.3,-0.2 0.49922,-0.500391 0.69922,-0.900391 0.2,-0.4 0.30078,-0.799217 0.30078,-1.199219 0,-0.7 -0.2,-1.301562 -0.5,-1.601562 -0.3,-0.6 -0.9,-0.899609 -1.5,-1.099609 0.5,-0.3 0.89922,-0.59961 1.19922,-1.09961 0.3,-0.5 0.40039,-0.999609 0.40039,-1.599609 0,-0.3 -0.0992,-0.7 -0.19922,-1 -0.1,-0.3 -0.3,-0.600391 -0.5,-0.900391 -0.2,-0.3 -0.50078,-0.499219 -0.80078,-0.699219 -0.4,-0.2 -0.69961,-0.300781 -1.09961,-0.300781 z m 10.59961,0 V 79.1302 79.231762 h 1.40039 v -4 h 3 l 2.59961,4 h 1.59961 l -2.69922,-4.300781 c 0.4,-0.1 0.8,-0.2 1,-0.5 0.2,-0.3 0.49922,-0.500781 0.69922,-0.800781 0.2,-0.3 0.4,-0.6 0.5,-1 0.1,-0.3 0.20117,-0.699609 0.20117,-1.099609 0,-0.4 -0.10078,-0.898829 -0.30078,-1.298829 -0.2,-0.5 -0.39922,-0.901171 -0.69922,-1.201171 -0.3,-0.3 -0.70156,-0.598829 -1.10156,-0.798829 -0.4,-0.2 -0.89844,-0.300781 -1.39844,-0.300781 z m 10.5,0 V 79.1302 h 1.40039 V 67.930981 Z m 4.19922,0 V 79.1302 h 1.40039 v -8.699219 l 3.70117,6.699219 h 0.79883 l 3.70117,-6.699219 V 79.1302 h 1.59961 V 67.930981 h -1.5 l -4.09961,7.300781 -4.10156,-7.300781 z m 13.70117,0 V 79.1302 h 1.40039 V 67.930981 Z m 4.09961,0 V 79.1302 h 7.69922 v -1.199219 h -6.29883 v -3.90039 h 5.29883 v -1.199219 h -5.29883 v -3.59961 h 6.09961 v -1.300781 z m 9.69922,0 V 79.1302 h 1.40039 v -8.599609 l 6.90039,8.599609 h 1.19922 V 67.930981 h -1.39844 V 76.6302 l -7,-8.699219 z m 11.10156,0 V 69.1302 h 3.89844 v 10 h 1.40039 v -10 h 3.90039 V 67.930981 Z M 148.15467,69.1302 h 3.29883 c 0.3,0 0.60078,0.101172 0.80078,0.201172 0.2,0.1 0.39961,0.3 0.59961,0.5 0.1,0.2 0.30039,0.399219 0.40039,0.699219 0.1,0.3 0.19922,0.60039 0.19922,0.90039 0,0.3 3.8e-4,0.600391 -0.0996,0.900391 -0.1,0.3 -0.20039,0.598828 -0.40039,0.798828 -0.2,0.2 -0.39961,0.4 -0.59961,0.5 -0.2,0.1 -0.49883,0.201172 -0.79883,0.201172 h -3.40039 z m 66.90039,0 c 0.6,0 1.09961,0.200391 1.59961,0.400391 0.5,0.3 0.89922,0.6 1.19922,1 0.4,0.4 0.60078,0.90039 0.80078,1.40039 0.2,0.6 0.29883,1.099219 0.29883,1.699219 0,0.5 -0.0988,1.101562 -0.29883,1.601562 -0.2,0.5 -0.50078,0.998438 -0.80078,1.398438 -0.3,0.4 -0.69922,0.7 -1.19922,1 -0.5,0.3 -0.99961,0.400391 -1.59961,0.400391 -0.6,0 -1.10156,-0.100391 -1.60156,-0.400391 -0.5,-0.3 -0.89922,-0.6 -1.19922,-1 -0.4,-0.4 -0.60078,-0.898436 -0.80078,-1.398438 -0.2,-0.6 -0.29883,-1.101171 -0.29883,-1.701171 0,-0.6 0.0988,-1.09961 0.29883,-1.59961 0.2,-0.5 0.50078,-1.00039 0.80078,-1.40039 0.3,-0.4 0.69922,-0.7 1.19922,-1 0.5,-0.3 1.00156,-0.400391 1.60156,-0.400391 z M 84.254278,69.231762 h 2.400391 c 0.6,0 1.199218,0.09883 1.699218,0.298829 0.5,0.2 1.000782,0.50039 1.300782,0.90039 0.4,0.4 0.598828,0.900391 0.798828,1.400391 0.2,0.5 0.300781,1.099219 0.300781,1.699219 0,0.6 -0.100781,1.200781 -0.300781,1.800781 -0.2,0.5 -0.498828,1.000392 -0.798828,1.40039 -0.3,0.4 -0.701172,0.698438 -1.201172,0.898438 -0.5,0.2 -1.099219,0.300781 -1.699219,0.300781 h -2.5 z m 53.300782,0 h 3.69922 c 0.3,0 0.49922,-3.9e-4 0.69922,0.09961 0.2,0.1 0.4,0.200392 0.5,0.40039 l 0.30078,0.59961 c 0.1,0.2 0.0996,0.399219 0.0996,0.699219 0,0.2 3.8e-4,0.501171 -0.0996,0.701171 -0.1,0.200002 -0.20039,0.39961 -0.40039,0.59961 -0.1,0.2 -0.3,0.300392 -0.5,0.40039 -0.2,0.200002 -0.39922,0.199219 -0.69922,0.199219 h -3.59961 z m 111.79883,0 h 1.90039 V 83.1302 h 3.5 v 1.800781 h -9.19922 v -1.699219 h 3.89844 V 71.530591 c -0.1,0.2 -0.39883,0.501171 -0.79883,0.701171 -0.4,0.3 -0.70117,0.499219 -1.20117,0.699219 -0.4,0.2 -0.89883,0.4 -1.29883,0.5 -0.5,0.1 -0.90117,0.199219 -1.20117,0.199219 v -1.798828 c 0.4,0 0.90039,-0.100391 1.40039,-0.400391 0.5,-0.3 1.00039,-0.500781 1.40039,-0.800781 0.4,-0.3 0.79961,-0.598436 1.09961,-0.898438 z M 137.55506,74.1302 h 4 c 0.3,0 0.49922,0.101172 0.69922,0.201172 0.2,0.1 0.3,0.200392 0.5,0.40039 0.2,0.200002 0.30039,0.39961 0.40039,0.59961 0.1,0.2 0.0996,0.399219 0.0996,0.699219 0,0.2 3.8e-4,0.501171 -0.0996,0.701171 -0.1,0.200002 -0.20039,0.39961 -0.40039,0.59961 -0.2,0.2 -0.39961,0.300392 -0.59961,0.40039 -0.2,0.100001 -0.40117,0.199219 -0.70117,0.199219 h -3.89844 z m 147.09961,3.101562 c 3,0 5.40039,2.398438 5.40039,5.398438 0,3 -2.40039,5.400391 -5.40039,5.400391 -3,0 -5.40039,-2.400391 -5.40039,-5.400391 0,-3 2.40039,-5.398438 5.40039,-5.398438 z m 0,2.199219 a 3.2,3.2 0 0 0 -3.20117,3.199219 3.2,3.2 0 0 0 3.20117,3.201172 3.2,3.2 0 0 0 3.19922,-3.201172 3.2,3.2 0 0 0 -3.19922,-3.199219 z m -80.5,5.800781 V 88.1302 c 0,0.4 -3.8e-4,0.801564 0.0996,1.101562 0.1,0.3 0.20039,0.598438 0.40039,0.898438 0.2,0.2 0.49883,0.401562 0.79883,0.601562 0.3,0.1 0.70156,0.199219 1.10156,0.199219 0.4,0 0.79961,-0.09922 1.09961,-0.199219 0.3,-0.1 0.59883,-0.301562 0.79883,-0.601562 0.2,-0.3 0.30039,-0.498436 0.40039,-0.898438 0.1,-0.4 0.0996,-0.701562 0.0996,-1.101562 v -2.898438 h -1.09961 V 88.1302 c 0,0.3 -0.0996,0.501172 -0.0996,0.701172 0,0.2 -0.0992,0.399609 -0.19922,0.599609 -0.1,0.2 -0.20039,0.300391 -0.40039,0.400391 -0.2,0.1 -0.40117,0.199219 -0.70117,0.199219 -0.2,0 -0.4,7.81e-4 -0.5,-0.199219 -0.2,-0.1 -0.29844,-0.200391 -0.39844,-0.400391 -0.1,-0.2 -0.20117,-0.399609 -0.20117,-0.599609 -0.1,-0.2 -0.0996,-0.501172 -0.0996,-0.701172 v -2.898438 z m -5.40039,0.09961 v 1 h 1.80078 v 4.699219 h 1.09961 v -4.699219 h 1.79883 v -1 z m -73.19922,0.09961 v 5.599609 0.09961 h 2 c 0.4,0 0.79961,7.81e-4 1.09961,-0.199219 0.3,-0.2 0.59883,-0.299609 0.79883,-0.599609 0.2,-0.3 0.4,-0.600391 0.5,-0.900391 0.1,-0.4 0.20117,-0.799217 0.20117,-1.199219 0,-0.4 -0.10117,-0.801562 -0.20117,-1.101562 -0.1,-0.4 -0.3,-0.598438 -0.5,-0.898438 -0.2,-0.299998 -0.49883,-0.501562 -0.79883,-0.601562 -0.4,-0.1 -0.80117,-0.199219 -1.20117,-0.199219 z m 5.69922,0 v 5.59961 h 3.69922 v -0.5 h -3.09961 v -2.09961 h 2.70117 v -0.5 h -2.70117 v -2 h 3.09961 v -0.5 z m 4.80078,0 v 5.59961 h 3.79883 v -0.5 h -3.19922 v -5.09961 z m 6.39844,0 v 5.59961 h 3.80078 v -0.5 h -3.19922 v -2.09961 h 2.69922 v -0.5 h -2.69922 v -2 h 3.09961 v -0.5 z m 11.70117,0 c -0.4,0 -0.79961,-7.81e-4 -1.09961,0.199219 -0.3,0.1 -0.60078,0.301564 -0.80078,0.601562 -0.2,0.3 -0.4,0.598438 -0.5,0.898438 -0.1,0.3 -0.19922,0.7 -0.19922,1 0,0.4 0.0992,0.700391 0.19922,0.900391 0.1,0.3 0.3,0.60039 0.5,0.90039 0.2,0.3 0.50078,0.499219 0.80078,0.699219 0.4,0.2 0.69961,0.300781 1.09961,0.300781 0.3,0 0.49922,3.92e-4 0.69922,-0.09961 l 0.59961,-0.300781 c 0.2,-0.1 0.3,-0.200391 0.5,-0.400391 0.2,-0.2 0.30039,-0.399609 0.40039,-0.599609 l -0.5,-0.199219 c -0.1,0.2 -0.19883,0.4 -0.29883,0.5 -0.1,0.1 -0.20039,0.198828 -0.40039,0.298828 -0.2,0.1 -0.3,0.101172 -0.5,0.201172 -0.2,0.1 -0.3,0.09961 -0.5,0.09961 -0.3,0 -0.50078,-0.09922 -0.80078,-0.199219 -0.3,-0.1 -0.59922,-0.2 -0.69922,-0.5 -0.1,-0.299998 -0.30039,-0.500781 -0.40039,-0.800781 -0.1,-0.3 -0.19922,-0.60039 -0.19922,-0.90039 0,-0.2 -3.8e-4,-0.498829 0.0996,-0.798829 0.1,-0.2 0.20039,-0.501171 0.40039,-0.701171 0.2,-0.2 0.39922,-0.4 0.69922,-0.5 0.3,-0.1 0.60039,-0.199219 0.90039,-0.199219 0.2,0 0.3,-3.92e-4 0.5,0.09961 0.2,0.1 0.4,0.09922 0.5,0.199219 0.1,0.1 0.30039,0.200781 0.40039,0.300781 0.1,0.2 0.19883,0.3 0.29883,0.5 l 0.4004,-0.300783 c -0.2,-0.4 -0.40078,-0.698436 -0.80078,-0.898438 -0.4,-0.2 -0.79883,-0.300782 -1.29883,-0.30078 z m 3.19922,0 v 5.59961 h 3.80078 v -0.5 h -3.20117 v -2.09961 h 2.70117 v -0.5 h -2.70117 v -2 h 3.10156 v -0.5 z m 4.80078,0 v 5.59961 h 0.59961 v -4.59961 l 3.59961,4.59961 h 0.5 v -5.59961 h -0.59961 V 90.1302 l -3.69922,-4.699219 z m 7.90039,0 -2.30078,5.59961 h 0.59961 l 0.70117,-1.798829 h 2.5 l 0.69922,1.798828 h 0.59961 l -2.29883,-5.59961 z m 3.59961,0 v 5.599609 0.09961 h 0.5 v -2.099609 h 1.69922 l 1.30078,2.099609 h 0.59961 l -1.40039,-2.199219 c 0.2,0 0.3,-0.09922 0.5,-0.199219 0.2,-0.1 0.30039,-0.20039 0.40039,-0.40039 0.2,-0.1 0.20078,-0.3 0.30078,-0.5 0.1,-0.2 0.0996,-0.399608 0.0996,-0.59961 0,-0.2 3.8e-4,-0.401562 -0.0996,-0.601562 0,-0.2 -0.20078,-0.399609 -0.30078,-0.599609 -0.1,-0.2 -0.3,-0.300391 -0.5,-0.400391 -0.2,-0.1 -0.49922,-0.199219 -0.69922,-0.199219 z m 5.19922,0 v 5.59961 h 0.59961 v -5.59961 z m 4.20117,0 c -0.3,0 -0.7,-7.81e-4 -1,0.199219 -0.3,0.1 -0.50078,0.301564 -0.80078,0.601562 -0.3,0.3 -0.49961,0.598438 -0.59961,0.898438 -0.1,0.4 -0.20117,0.701562 -0.20117,1.101562 0,0.400002 0.10117,0.79961 0.20117,1.09961 0.1,0.3 0.3,0.600392 0.5,0.90039 0.2,0.200002 0.39883,0.49961 0.79883,0.59961 0.4,0.1 0.70156,0.199219 1.10156,0.199219 0.4,0 0.7,-0.09922 1,-0.199219 0.3,-0.1 0.59883,-0.29961 0.79883,-0.59961 0.3,-0.299998 0.49961,-0.50039 0.59961,-0.90039 0.1,-0.4 0.20117,-0.699608 0.20117,-1.09961 0,-0.299998 -0.10117,-0.7 -0.20117,-1 -0.1,-0.299998 -0.3,-0.60039 -0.5,-0.90039 -0.2,-0.3 -0.39883,-0.601172 -0.79883,-0.701172 -0.4,-0.1 -0.69961,-0.199219 -1.09961,-0.199219 z m 7.19922,0 -2.19922,5.59961 h 1.09961 l 0.5,-1.400392 h 2 l 0.5,1.400391 h 1.19922 l -2.19922,-5.59961 z m 6,0 c -0.4,0 -0.79961,0.09922 -1.09961,0.199219 -0.3,0.1 -0.60078,0.301564 -0.80078,0.601562 -0.2,0.3 -0.4,0.598438 -0.5,0.898438 -0.1,0.3 -0.19922,0.7 -0.19922,1 0,0.4 -3.8e-4,0.701172 0.0996,1.201172 0.1,0.3 0.3,0.600392 0.5,0.90039 0.2,0.3 0.40078,0.499219 0.80078,0.699219 0.4,0.2 0.69961,0.300781 1.09961,0.300781 0.2,0 0.49922,-0.0016 0.69922,-0.101562 l 0.59961,-0.298828 c 0.2,-0.1 0.3,-0.200391 0.5,-0.400391 0.2,-0.2 0.30039,-0.399609 0.40039,-0.599609 l -0.90039,-0.5 c 0,0.2 -0.0992,0.300392 -0.19922,0.40039 l -0.30078,0.298829 c -0.2,0.1 -0.29844,0.201171 -0.39844,0.201171 h -0.40039 c -0.2,0 -0.39961,-0.101171 -0.59961,-0.201171 -0.2,-0.1 -0.4,-0.200391 -0.5,-0.400391 l -0.30077,-0.59961 c -0.1,-0.2 -0.0996,-0.499219 -0.0996,-0.699219 0,-0.3 -3.8e-4,-0.501172 0.0996,-0.701172 l 0.30078,-0.599609 c 0.1,-0.1 0.3,-0.300391 0.5,-0.400391 0.2,-0.1 0.39922,-0.199219 0.69922,-0.199219 h 0.40039 c 0.2,0 0.30039,-3.91e-4 0.40039,0.09961 l 0.29883,0.300781 c 0.1,0.1 0.10117,0.20039 0.20117,0.40039 l 0.79883,-0.601562 c -0.2,-0.4 -0.39883,-0.698436 -0.79883,-0.898438 -0.4,-0.200001 -0.80078,-0.300782 -1.30078,-0.30078 z m 15.19922,0 -2.19922,5.599609 h 1.09961 l 0.5,-1.400391 h 2 l 0.5,1.400391 h 1.20117 l -2.20117,-5.59961 z m 3.70117,0 v 5.599609 0.09961 h 4 v -1 h -2.90039 v -4.699219 z m -66.20117,0.09961 c -0.3,0 -0.59883,-3.91e-4 -0.79883,0.09961 l -0.59961,0.300781 c -0.2,0.1 -0.30039,0.3 -0.40039,0.5 -0.1,0.2 -0.0996,0.399219 -0.0996,0.699219 0,0.3 -3.8e-4,0.401562 0.0996,0.601562 0,0.200002 0.0988,0.298438 0.29883,0.398438 l 0.60156,0.300781 c 0.2,0.1 0.49883,0.09922 0.79883,0.199219 0.2,0.1 0.50117,0.101172 0.70117,0.201172 0.2,0 0.4,0.09922 0.5,0.199219 l 0.29883,0.300781 c 0.1,0.1 0.0996,0.20039 0.0996,0.40039 0,0.3 -0.19844,0.599219 -0.39844,0.699219 -0.2,0.1 -0.6,0.199219 -1,0.199219 -0.2,0 -0.40156,-0.09961 -0.60156,-0.09961 -0.1,-0.1 -0.3,-0.09922 -0.5,-0.199219 -0.2,0 -0.3,-0.101172 -0.5,-0.201172 -0.2,-0.1 -0.29844,-0.198828 -0.39844,-0.298828 l -0.30078,0.5 c 0.7,0.5 1.40078,0.798828 2.30078,0.798828 0.3,0 0.59883,3.91e-4 0.79883,-0.09961 0.2,-0.1 0.39961,-0.09883 0.59961,-0.298829 0.2,-0.2 0.30039,-0.299998 0.40039,-0.5 0.1,-0.2 0.20117,-0.401171 0.20117,-0.701171 0,-0.2 -0.002,-0.39961 -0.10156,-0.59961 -0.1,-0.1 -0.19844,-0.30039 -0.39844,-0.40039 l -0.60156,-0.298829 c -0.2,-0.1 -0.49883,-0.101171 -0.79883,-0.201171 -0.3,-0.1 -0.50117,-0.09922 -0.70117,-0.199219 -0.2,-0.1 -0.4,-0.101172 -0.5,-0.201172 l -0.29883,-0.298828 c -0.1,-0.1 -0.0996,-0.200391 -0.0996,-0.400391 0,-0.4 0.0988,-0.600781 0.29883,-0.800781 0.2,-0.2 0.59961,-0.298828 1.09961,-0.298828 0.3,0 0.70039,0.09922 0.90039,0.199219 0.2,0.1 0.39961,0.20039 0.59961,0.40039 l 0.30078,-0.199219 c -0.2,-0.2 -0.50078,-0.4 -0.80078,-0.5 -0.3,-0.1 -0.6,-0.201173 -1,-0.20117 z m 25.10156,0.300781 h 1.79883 c 0.1,0 0.30039,-3.92e-4 0.40039,0.09961 0.2,0.1 0.30039,0.200783 0.40039,0.300781 0.1,0.1 0.0992,0.198438 0.19922,0.398438 0.1,0.2 0.0996,0.3 0.0996,0.5 0,0.2 3.8e-4,0.3 -0.0996,0.5 0,0.1 -0.0992,0.300391 -0.19922,0.400391 l -0.30078,0.300781 c -0.1,0.1 -0.20039,0.09961 -0.40039,0.09961 h -1.79883 -0.0996 z m -47.90039,0.09961 h 1.40039 c 0.3,0 0.59844,0.09922 0.89844,0.199219 0.3,0.1 0.50117,0.3 0.70117,0.5 0.2,0.2 0.30039,0.401172 0.40039,0.701172 0.1,0.3 0.0996,0.600392 0.0996,0.90039 0,0.3 -0.0996,0.598438 -0.0996,0.898438 -0.1,0.2 -0.20039,0.501172 -0.40039,0.701172 -0.2,0.2 -0.50117,0.4 -0.70117,0.5 -0.2,0.1 -0.59844,0.199219 -0.89844,0.199219 h -1.40039 z m 56.90039,0 c 0.3,0 0.49883,0.09922 0.79883,0.199219 0.3,0.1 0.50117,0.3 0.70117,0.5 0.2,0.2 0.29844,0.401172 0.39844,0.701172 0.1,0.3 0.20117,0.600392 0.20117,0.90039 0,0.3 3.8e-4,0.598438 -0.0996,0.898438 -0.1,0.3 -0.20039,0.600781 -0.40039,0.800781 -0.2,0.2 -0.40117,0.4 -0.70117,0.5 -0.3,0.1 -0.59844,0.199219 -0.89844,0.199219 -0.3,0 -0.50078,-0.09922 -0.80078,-0.199219 -0.3,-0.1 -0.49922,-0.3 -0.69922,-0.5 -0.2,-0.3 -0.30039,-0.500781 -0.40039,-0.800781 -0.1,-0.3 -0.20117,-0.598438 -0.20117,-0.898438 0,-0.299998 0.10156,-0.600781 0.10156,-0.800781 0.1,-0.3 0.19844,-0.600781 0.39844,-0.800781 0.2,-0.2 0.40117,-0.4 0.70117,-0.5 0.3,-0.1 0.60039,-0.199219 0.90039,-0.199219 z m -12.80078,0.09961 1.09961,2.800781 h -2.19922 z m 20.40039,0.5 0.79883,2.300781 h -1.59961 z m 21.29883,0 0.80078,2.300781 h -1.59961 z m -29,23.999997 v 0.70117 h 0.40039 v -0.70117 z m -24.29883,0.0996 v 4.70117 h 3.09961 v -0.40039 h -2.59961 v -1.80078 h 2.29883 v -0.39844 h -2.29883 v -1.70117 h 2.59961 v -0.40039 z m 8.5,1.20117 c -0.3,0 -0.50117,-3.8e-4 -0.70117,0.0996 -0.2,0.1 -0.3,0.20039 -0.5,0.40039 -0.2,0.2 -0.29844,0.39961 -0.39844,0.59961 -0.1,0.2 -0.10156,0.49922 -0.10156,0.69922 0,0.3 0.1,0.50156 0,0.60156 0.1,0.2 0.20039,0.39961 0.40039,0.59961 0.1,0.2 0.3,0.30039 0.5,0.40039 0.2,0.1 0.40117,0.0996 0.70117,0.0996 0.2,0 0.3,-0.0996 0.5,-0.0996 0.1,-0.1 0.29844,-0.10117 0.39844,-0.20117 l 0.30078,-0.29883 c 0.1,-0.1 0.19922,-0.20078 0.19922,-0.30078 l -0.39844,-0.0996 c 0,0.1 -0.10156,0.0992 -0.10156,0.19922 0,0.1 -0.0992,0.10117 -0.19922,0.20117 -0.1,0 -0.20078,0.0996 -0.30078,0.0996 h -0.29883 c -0.2,0 -0.3,3.8e-4 -0.5,-0.0996 -0.2,-0.1 -0.30039,-0.20078 -0.40039,-0.30078 -0.1,-0.1 -0.20078,-0.30039 -0.30078,-0.40039 -0.1,-0.1 -0.0996,-0.3 -0.0996,-0.5 0,-0.2 -3.8e-4,-0.3 0.0996,-0.5 0.1,-0.1 0.20078,-0.30039 0.30078,-0.40039 0.1,-0.1 0.20039,-0.19883 0.40039,-0.29883 0.2,-0.1 0.3,-0.0996 0.5,-0.0996 0.2,0 0.39961,-3.8e-4 0.59961,0.0996 0.2,0.1 0.30039,0.20039 0.40039,0.40039 l 0.40039,-0.10156 c -0.1,-0.3 -0.3,-0.49961 -0.5,-0.59961 -0.3,-0.1 -0.60039,-0.19922 -0.90039,-0.19922 z m 3.59961,0 c -0.3,0 -0.49922,-3.8e-4 -0.69922,0.0996 -0.2,0.1 -0.3,0.20039 -0.5,0.40039 -0.2,0.2 -0.30039,0.39961 -0.40039,0.59961 -0.1,0.2 -0.0996,0.49922 -0.0996,0.69922 0,0.3 -3.8e-4,0.50117 0.0996,0.70117 0.1,0.2 0.20039,0.39961 0.40039,0.59961 0.1,0.2 0.3,0.30039 0.5,0.40039 0.2,0.1 0.39922,0.0996 0.69922,0.0996 h 0.59961 c 0.1,-0.1 0.30039,-0.0992 0.40039,-0.19922 l 0.30078,-0.30078 c 0.1,-0.1 0.0992,-0.20078 0.19922,-0.30078 l -0.40039,-0.0996 c -0.1,0.1 -0.0992,0.20078 -0.19922,0.30078 -0.1,0.1 -0.20078,0.19922 -0.30078,0.19922 -0.1,0 -0.19883,0.0996 -0.29883,0.0996 h -0.30078 c -0.2,0 -0.4,3.8e-4 -0.5,-0.0996 -0.2,-0.1 -0.30039,-0.19883 -0.40039,-0.29883 -0.1,-0.1 -0.19883,-0.20039 -0.29883,-0.40039 0,-0.1 -0.10156,-0.3 -0.10156,-0.5 h 2.90039 v -0.0996 -0.10156 c 0,-0.30002 -0.0996,-0.39922 -0.0996,-0.69922 0,-0.3 -0.20078,-0.39961 -0.30078,-0.59961 -0.1,-0.2 -0.3,-0.30039 -0.5,-0.40039 -0.2,-0.1 -0.39922,-0.0996 -0.69922,-0.0996 z m 15.09961,0 c -0.3,0 -0.49922,-3.8e-4 -0.69922,0.0996 -0.2,0.1 -0.3,0.20039 -0.5,0.40039 -0.2,0.2 -0.30039,0.39961 -0.40039,0.59961 -0.1,0.2 -0.0996,0.49922 -0.0996,0.69922 0,0.3 -3.8e-4,0.50117 0.0996,0.70117 0.1,0.2 0.30039,0.39961 0.40039,0.59961 0.1,0.2 0.3,0.30039 0.5,0.40039 0.2,0.1 0.39922,0.0996 0.69922,0.0996 0.2,0 0.40117,3.8e-4 0.70117,-0.0996 0.2,-0.1 0.3,-0.20039 0.5,-0.40039 0.2,-0.2 0.29844,-0.39961 0.39844,-0.59961 0.1,-0.2 0.10156,-0.50117 0.10156,-0.70117 0,-0.3 -0.002,-0.49922 -0.10156,-0.69922 -0.1,-0.2 -0.19844,-0.39961 -0.39844,-0.59961 -0.1,-0.2 -0.3,-0.30039 -0.5,-0.40039 -0.2,-0.1 -0.40117,-0.0996 -0.70117,-0.0996 z m -22.40039,0.0996 c -0.2,0 -0.3,0.0996 -0.5,0.0996 -0.1,0 -0.29844,0.10117 -0.39844,0.20117 l -0.30078,0.29883 c -0.1,0.2 -0.0996,0.3 -0.0996,0.5 0,0.1 0.0996,0.20078 0.0996,0.30078 0,0.1 0.0992,0.0992 0.19922,0.19922 0.1,0.1 0.30039,0.20117 0.40039,0.20117 0.1,0 0.3,0.0996 0.5,0.0996 0.2,0 0.4,0.0996 0.5,0.0996 0.1,0 0.20078,0.0996 0.30078,0.0996 0.1,0.1 0.19922,0.10117 0.19922,0.20117 0.1,0 0.0996,0.0992 0.0996,0.19922 0,0.2 7.8e-4,0.4 -0.19922,0.5 -0.2,0.1 -0.39922,0.19922 -0.69922,0.19922 -0.2,0 -0.40156,3.8e-4 -0.60156,-0.0996 -0.2,-0.1 -0.39961,-0.20039 -0.59961,-0.40039 l -0.19922,0.30078 c 0.2,0.2 0.39922,0.30039 0.69922,0.40039 0.3,0.1 0.50078,0.0996 0.80078,0.0996 0.4,0 0.39922,7.8e-4 0.69922,-0.19922 0.3,-0.2 0.40039,-0.50078 0.40039,-0.80078 0,-0.2 3.8e-4,-0.30039 -0.0996,-0.40039 l -0.30078,-0.29883 c -0.1,-0.1 -0.20039,-0.10117 -0.40039,-0.20117 -0.2,-0.1 -0.39961,-0.0992 -0.59961,-0.19922 -0.2,0 -0.30039,-0.0996 -0.40039,-0.0996 -0.1,0 -0.19883,-0.10156 -0.29883,-0.10156 -0.1,0 -0.20117,-0.0996 -0.20117,-0.0996 v -0.19922 c 0,-0.1 0.10156,-0.20078 0.10156,-0.30078 l 0.19922,-0.19922 c 0.1,0 0.20078,-0.0996 0.30078,-0.0996 h 0.29883 c 0.2,0 0.39961,-3.8e-4 0.59961,0.0996 0.2,0.1 0.4,0.19883 0.5,0.29883 l 0.20117,-0.29883 c -0.1,-0.1 -0.3,-0.20078 -0.5,-0.30078 -0.2,-0.1 -0.40117,-0.0996 -0.70117,-0.0996 z m 9.70117,0 v 3.5 h 0.40039 v -2.09961 c 0,-0.1 0.0992,-0.30039 0.19922,-0.40039 l 0.30078,-0.30078 c 0.1,-0.1 0.29844,-0.19922 0.39844,-0.19922 0.1,-0.1 0.30039,-0.0996 0.40039,-0.0996 0.3,0 0.49961,0.0988 0.59961,0.29883 0.1,0.2 0.20117,0.50039 0.20117,0.90039 v 1.90039 h 0.40039 0.0996 v -2 c 0,-0.2 -0.0996,-0.39961 -0.0996,-0.59961 -0.1,-0.2 -0.10117,-0.4 -0.20117,-0.5 -0.1,-0.1 -0.0988,-0.20078 -0.29883,-0.30078 -0.2,-0.1 -0.3,-0.0996 -0.5,-0.0996 -0.4,0 -0.60039,-7.8e-4 -0.90039,0.19922 -0.3,0.1 -0.49961,0.30156 -0.59961,0.60156 v -0.80078 z m 5,0 c -0.4,0 -0.90078,0.10039 -1.30078,0.40039 l 0.20117,0.29883 0.59961,-0.29883 c 0.1,-0.1 0.3,-0.0996 0.5,-0.0996 0.3,0 0.49922,0.0988 0.69922,0.29883 0.2,0.2 0.30078,0.40117 0.30078,0.70117 v 0.29883 c -0.2,0 -0.4,-0.0996 -0.5,-0.0996 h -0.5 c -0.2,0 -0.39961,-3.8e-4 -0.59961,0.0996 -0.2,0 -0.4,0.10117 -0.5,0.20117 l -0.30078,0.29883 c -0.1,0.1 -0.0996,0.30039 -0.0996,0.40039 0,0.1 -3.8e-4,0.30039 0.0996,0.40039 0,0.1 0.0992,0.19883 0.19922,0.29883 0.1,0.1 0.30039,0.10117 0.40039,0.20117 0.2,0.1 0.3,0.0996 0.5,0.0996 0.3,0 0.60117,3.8e-4 0.70117,-0.0996 0.2,-0.1 0.39961,-0.3 0.59961,-0.5 v 0.29883 c 0,0.1 -3.8e-4,0.10117 0.0996,0.20117 0.1,0.1 0.20078,0.0996 0.30078,0.0996 h 0.19923 v -0.40039 c -0.1,0 -0.19922,-0.0992 -0.19922,-0.19922 v -1.5 c 0,-0.4 -0.20039,-0.8 -0.40039,-1 -0.2,-0.3 -0.6,-0.40039 -1,-0.40039 z m 2.5,0 v 3.5 h 0.40039 v -2.09961 c 0.1,-0.3 0.3,-0.50117 0.5,-0.70117 0.2,-0.2 0.49883,-0.29883 0.79883,-0.29883 v -0.40039 h -0.0996 c -0.3,0 -0.49922,0.0992 -0.69922,0.19922 -0.2,0.1 -0.4,0.30156 -0.5,0.60156 v -0.80078 z m 2.29883,0 v 3.40039 h 0.40039 v -3.40039 z m -12.19922,0.30078 c 0.2,0 0.4,-3.8e-4 0.5,0.0996 0.2,0.1 0.30039,0.19883 0.40039,0.29883 0.1,0.1 0.19883,0.20039 0.29883,0.40039 0,0.1 0.10156,0.3 0.10156,0.5 h -2.60156 c 0,-0.2 0.002,-0.3 0.10156,-0.5 0.1,-0.2 0.19883,-0.30039 0.29883,-0.40039 0.1,-0.2 0.30039,-0.19883 0.40039,-0.29883 0.2,-0.1 0.3,-0.0996 0.5,-0.0996 z m 15.09961,0.19922 c 0.2,0 0.3,-3.8e-4 0.5,0.0996 0.2,0.1 0.30039,0.20078 0.40039,0.30078 0.1,0.1 0.20078,0.20039 0.30078,0.40039 0.1,0.1 0.0996,0.3 0.0996,0.5 0,0.2 3.8e-4,0.4 -0.0996,0.5 -0.1,0.1 -0.20078,0.29844 -0.30078,0.39844 -0.1,0.1 -0.20039,0.20078 -0.40039,0.30078 -0.2,0.1 -0.3,0.0996 -0.5,0.0996 -0.2,0 -0.3,3.8e-4 -0.5,-0.0996 -0.2,-0.1 -0.30039,-0.20078 -0.40039,-0.30078 -0.1,-0.1 -0.19883,-0.19844 -0.29883,-0.39844 -0.1,-0.1 -0.0996,-0.3 -0.0996,-0.5 0,-0.2 -3.8e-4,-0.4 0.0996,-0.5 0.1,-0.1 0.19883,-0.30039 0.29883,-0.40039 0.1,-0.1 0.30039,-0.20078 0.40039,-0.30078 0.2,-0.1 0.3,-0.0996 0.5,-0.0996 z m -7.79883,1.40039 h 0.5 c 0.2,0 0.4,-3.8e-4 0.5,0.0996 v 0.59961 0.0996 l -0.10156,0.10156 c -0.1,0.1 -0.19844,0.19883 -0.39844,0.29883 -0.2,0.1 -0.40156,0.0996 -0.60156,0.0996 -0.1,0 -0.29844,0.20156 -0.39844,0.10156 -0.1,-0.1 -0.20078,-0.20117 -0.30078,-0.20117 -0.1,0 -0.19922,-0.0992 -0.19922,-0.19922 -0.1,-0.1 -0.10156,-0.20078 -0.10156,-0.30078 0,-0.2 0.10078,-0.4 0.30078,-0.5 0.2,-0.1 0.50078,-0.19922 0.80078,-0.19922 z m 28.50586,1.88086 -0.1582,0.46875 3.12304,1.05078 0.15821,-0.46875 z m 93.82031,1.09766 -2.27734,2.38281 0.35742,0.34179 2.27735,-2.38281 z m -84.43554,1.99609 -0.15039,0.4707 3.14062,0.99805 0.15039,-0.4707 z m 9.43554,2.9375 -0.14453,0.47461 1.03906,0.31445 h 0.002 l 2.12109,0.6211 0.13867,-0.47461 -2.11718,-0.61914 -0.004,-0.002 z m -23.01953,1.14063 -0.48437,0.0957 0.58789,2.93359 v 0.004 l 0.0527,0.29101 0.48633,-0.0879 -0.0527,-0.29492 -0.002,-0.002 v -0.002 z m -0.68164,0.49414 -0.49219,0.0332 0.11719,1.75195 v 0.01 l 0.0527,1.52148 0.49414,-0.0176 -0.0527,-1.5293 v -0.004 -0.004 z m 91.76758,0.46484 -0.84766,0.82227 -0.002,-0.002 -1.54102,1.44141 0.33789,0.36133 1.54102,-1.44141 0.002,-0.002 h 0.002 l 0.85156,-0.82422 z m -58.57813,0.6543 -0.13281,0.47656 3.17188,0.89063 0.13476,-0.47657 z m 9.53516,2.60351 -0.12891,0.47657 0.40235,0.10937 h 0.002 l 2.79102,0.71484 0.12109,-0.47851 -2.78711,-0.71485 h -0.002 z m 9.57617,2.42774 -0.11523,0.48047 3.20117,0.77734 0.11719,-0.48047 z m 32.18946,0.98633 -1.08008,0.94726 -0.004,0.002 -1.41015,1.19727 0.32031,0.37695 1.41406,-1.19922 0.002,-0.002 1.08399,-0.95117 z m -22.57032,1.28515 -0.10937,0.48047 3.05273,0.69922 h 0.002 0.002 l 0.1582,0.0352 0.10352,-0.48438 -0.1543,-0.0332 h -0.004 z m -59.45703,0.81641 -0.48828,0.0801 0.3457,2.09179 h -0.002 l 0.16797,1.15821 0.49023,-0.0703 -0.16796,-1.1582 -0.002,-0.004 v -0.002 z m -2.9375,0.63281 -0.15625,1.83398 -0.002,0.0117 -0.19141,1.41797 0.48828,0.0664 0.19532,-1.42969 v -0.006 -0.006 l 0.16015,-1.8457 z m 72.04883,0.66016 -0.10352,0.48242 1.31446,0.28125 h 0.002 0.002 l 1.91407,0.37891 0.0957,-0.48438 -1.91016,-0.37891 h -0.004 z m 9.6875,1.93359 -0.0879,0.48633 3.24219,0.58789 0.0879,-0.48633 z m -4.34766,1.00195 -2.0332,1.61524 -0.004,0.002 -0.54687,0.42188 0.30078,0.39257 0.55078,-0.42382 0.002,-0.002 h 0.002 l 2.03711,-1.61718 z m 14.07618,0.73243 -0.0801,0.48828 3.25195,0.53125 0.0801,-0.48828 z m -152.51563,0.65429 -1.90039,4.69922 h 0.40039 l 0.59961,-1.5 h 2.09961 l 0.59961,1.5 h 0.5 l -1.89844,-4.69922 z m 6.59961,0.0996 v 1.19922 h -0.5 v 0.40039 h 0.40039 v 2.5 c 0,0.1 -3.8e-4,0.20078 0.0996,0.30078 l 0.19922,0.19922 c 0,0 0.10117,0.0996 0.20117,0.0996 h 0.29883 c 0.1,0 0.20078,0.1 0.30078,0 0.1,-0.1 0.0992,3.8e-4 0.19922,-0.0996 0.1,-0.1 0.10117,-0.0996 0.20117,-0.0996 0,-0.1 0.0996,-0.0996 0.0996,-0.0996 l -0.19922,-0.30078 c 0,0 -0.10117,0.0996 -0.20117,0.0996 -0.1,0.1 -0.19883,0.0996 -0.29883,0.0996 -0.1,0 -0.20078,3.8e-4 -0.30078,-0.0996 0,-0.1 -0.0996,-0.19883 -0.0996,-0.29883 v -2.30078 h 0.79883 v -0.40039 h -0.79883 v -1.19922 z m -6.40039,0.40039 0.90039,2.29883 h -1.90039 z m 4.09961,0.59961 c -0.3,0 -0.49922,-3.8e-4 -0.69922,0.0996 -0.2,0.1 -0.3,0.20039 -0.5,0.40039 -0.2,0.2 -0.30039,0.39961 -0.40039,0.59961 -0.1,0.2 -0.0996,0.49922 -0.0996,0.69922 v 0.60156 c 0.1,0.2 0.20039,0.39961 0.40039,0.59961 0.1,0.2 0.3,0.30039 0.5,0.40039 0.2,0.1 0.39922,0.0996 0.69922,0.0996 0.2,0 0.3,-0.0996 0.5,-0.0996 0.1,-0.1 0.30039,-0.10117 0.40039,-0.20117 l 0.30078,-0.29883 c 0.1,-0.1 0.19922,-0.20078 0.19922,-0.30078 l -0.40039,-0.0996 c 0,0.1 -0.0996,0.0992 -0.0996,0.19922 0,0.1 -0.0992,0.10117 -0.19922,0.20117 -0.1,0 -0.20078,0.0996 -0.30078,0.0996 h -0.30078 c -0.2,0 -0.3,3.8e-4 -0.5,-0.0996 -0.2,-0.1 -0.29844,-0.20078 -0.39844,-0.30078 -0.1,-0.1 -0.20078,-0.30039 -0.30078,-0.40039 -0.1,-0.1 -0.0996,-0.3 -0.0996,-0.5 0,-0.2 -3.8e-4,-0.3 0.0996,-0.5 0.1,-0.1 0.20078,-0.30039 0.30078,-0.40039 0.1,-0.1 0.19844,-0.19883 0.39844,-0.29883 0.2,-0.1 0.3,-0.0996 0.5,-0.0996 0.2,0 0.40156,-3.8e-4 0.60156,0.0996 0.2,0.1 0.29844,0.20039 0.39844,0.40039 l 0.40037,-0.10155 c -0.1,-0.3 -0.3,-0.49961 -0.5,-0.59961 -0.3,-0.1 -0.60039,-0.19922 -0.90039,-0.19922 z m 5.70117,0 c -0.3,0 -0.50117,-3.8e-4 -0.70117,0.0996 -0.2,0.1 -0.3,0.20039 -0.5,0.40039 -0.2,0.2 -0.29844,0.39961 -0.39844,0.59961 -0.1,0.2 -0.10156,0.49922 -0.10156,0.69922 0,0.3 0.002,0.50117 0.10156,0.70117 0.1,0.2 0.29844,0.39961 0.39844,0.59961 0.1,0.2 0.3,0.30039 0.5,0.40039 0.2,0.1 0.40117,0.0996 0.70117,0.0996 0.3,0 0.49922,3.8e-4 0.69922,-0.0996 0.2,-0.1 0.3,-0.20039 0.5,-0.40039 0.2,-0.2 0.30039,-0.39961 0.40039,-0.59961 0.1,-0.2 0.0996,-0.50117 0.0996,-0.70117 0,-0.3 3.8e-4,-0.49922 -0.0996,-0.69922 -0.1,-0.2 -0.20039,-0.39961 -0.40039,-0.59961 -0.1,-0.2 -0.3,-0.30039 -0.5,-0.40039 -0.2,-0.1 -0.39922,-0.0996 -0.69922,-0.0996 z m 6.09961,0 c -0.3,0 -0.49922,-3.8e-4 -0.69922,0.0996 -0.2,0.1 -0.3,0.20039 -0.5,0.40039 -0.2,0.2 -0.30039,0.39961 -0.40039,0.59961 -0.1,0.2 -0.0996,0.49922 -0.0996,0.69922 0,0.3 -3.8e-4,0.50117 0.0996,0.70117 0.1,0.2 0.20039,0.39961 0.40039,0.59961 0.1,0.2 0.3,0.30039 0.5,0.40039 0.2,0.1 0.39922,0.0996 0.69922,0.0996 h 0.59961 c 0.1,-0.1 0.30039,-0.0992 0.40039,-0.19922 l 0.30078,-0.30078 c 0.1,-0.1 0.0992,-0.20078 0.19922,-0.30078 l -0.40039,-0.0996 c -0.1,0.1 -0.0992,0.20078 -0.19922,0.30078 -0.1,0.1 -0.20078,0.19922 -0.30078,0.19922 -0.1,0 -0.19883,0.0996 -0.29883,0.0996 h -0.30078 c -0.2,0 -0.4,3.8e-4 -0.5,-0.0996 -0.2,-0.1 -0.30039,-0.19883 -0.40039,-0.29883 -0.1,-0.1 -0.19883,-0.20039 -0.29883,-0.40039 0,-0.1 -0.10156,-0.3 -0.10156,-0.5 h 2.90039 v -0.0996 -0.10156 c 0,-0.3 -0.0996,-0.39922 -0.0996,-0.69922 0,-0.3 -0.20078,-0.39961 -0.30078,-0.59961 -0.1,-0.2 -0.3,-0.30039 -0.5,-0.40039 -0.2,-0.1 -0.39922,-0.0996 -0.69922,-0.0996 z m 3.30078,0.0996 c -0.2,0 -0.3,0.0996 -0.5,0.0996 -0.1,0 -0.30039,0.10117 -0.40039,0.20117 l -0.30078,0.29883 c -0.1,0.2 -0.0996,0.3 -0.0996,0.5 0,0.1 0.0996,0.20078 0.0996,0.30078 0,0.1 0.10117,0.0992 0.20117,0.19922 0.1,0.1 0.29844,0.20117 0.39844,0.20117 0.1,0 0.3,0.0996 0.5,0.0996 0.2,0 0.4,0.0996 0.5,0.0996 0.1,0 0.20078,0.0996 0.30078,0.0996 0.1,0.1 0.19922,0.10117 0.19922,0.20117 0.1,0 0.10156,0.0992 0.10156,0.19922 0,0.2 -0.001,0.4 -0.20117,0.5 -0.2,0.1 -0.39922,0.19922 -0.69922,0.19922 -0.2,0 -0.39961,3.8e-4 -0.59961,-0.0996 -0.2,-0.1 -0.40156,-0.20039 -0.60156,-0.40039 l -0.19922,0.30083 c 0.2,0.2 0.39922,0.30039 0.69922,0.40039 0.3,0.1 0.50078,0.0996 0.80078,0.0996 0.5,0 0.39922,7.8e-4 0.69922,-0.19922 0.3,-0.2 0.40039,-0.50078 0.40039,-0.80078 0,-0.2 3.8e-4,-0.30039 -0.0996,-0.40039 l -0.30078,-0.29883 c -0.1,-0.1 -0.19844,-0.10117 -0.39844,-0.20117 -0.2,-0.1 -0.40156,-0.0992 -0.60156,-0.19922 -0.2,0 -0.29844,-0.0996 -0.39844,-0.0996 -0.1,0 -0.20078,-0.10156 -0.30078,-0.10156 -0.1,0 -0.19922,-0.0996 -0.19922,-0.0996 v -0.19922 c 0,-0.1 0.0996,-0.20078 0.0996,-0.30078 l 0.19922,-0.19922 c 0.1,0 0.20078,-0.0996 0.30078,-0.0996 h 0.29883 c 0.2,0 0.40156,-3.8e-4 0.60156,0.0996 0.2,0.1 0.4,0.19883 0.5,0.29883 l 0.19922,-0.29884 c -0.1,-0.1 -0.3,-0.20078 -0.5,-0.30078 -0.2,-0.1 -0.39922,-0.0996 -0.69922,-0.0996 z m -6.90039,0.0996 v 3.40039 h 0.40039 v -2.09961 c 0.1,-0.3 0.3,-0.50117 0.5,-0.70117 0.2,-0.2 0.49883,-0.29883 0.79883,-0.29883 v -0.30078 h -0.0996 c -0.3,0 -0.49922,0.10117 -0.69922,0.20117 -0.2,0.1 -0.4,0.29961 -0.5,0.59961 v -0.80078 z m 3.59961,0.0996 c 0.2,0 0.4,0.002 0.5,0.10156 0.2,0.1 0.30039,0.19883 0.40039,0.29883 0.1,0.1 0.19883,0.20039 0.29883,0.40039 0,0.1 0.10156,0.3 0.10156,0.5 h -2.60156 c 0,-0.2 0.002,-0.3 0.10156,-0.5 0.1,-0.2 0.19883,-0.30039 0.29883,-0.40039 0.1,-0.2 0.30039,-0.19883 0.40039,-0.29883 0.2,-0.1 0.3,-0.10156 0.5,-0.10156 z m -6,0.20117 c 0.2,0 0.3,-3.8e-4 0.5,0.0996 0.2,0.1 0.30039,0.20078 0.40039,0.30078 0.1,0.1 0.19883,0.19844 0.29883,0.39844 0.1,0.1 0.10156,0.3 0.10156,0.5 0,0.2 -0.002,0.4 -0.10156,0.5 -0.1,0.1 -0.19883,0.30039 -0.29883,0.40039 -0.1,0.1 -0.20039,0.20078 -0.40039,0.30078 -0.2,0.1 -0.3,0.0996 -0.5,0.0996 -0.2,0 -0.3,3.8e-4 -0.5,-0.0996 -0.2,-0.1 -0.30039,-0.20078 -0.40039,-0.30078 -0.1,-0.1 -0.19883,-0.20039 -0.29883,-0.40039 -0.1,-0.1 -0.10156,-0.3 -0.10156,-0.5 0,-0.1 0.002,-0.4 0.10156,-0.5 0.1,-0.1 0.19883,-0.29844 0.29883,-0.39844 0.1,-0.1 0.30039,-0.20078 0.40039,-0.30078 0.2,-0.1 0.3,-0.0996 0.5,-0.0996 z m 55.30078,2.57813 -0.49023,0.0605 0.39843,3.19727 v 0.004 l 0.008,0.0644 0.49023,-0.0508 -0.006,-0.0684 v -0.004 -0.002 z m 65.19531,0.43945 -0.46875,0.34961 -0.004,0.002 -2.19532,1.57422 0.28711,0.40235 2.19922,-1.57618 0.002,-0.002 h 0.002 l 0.47266,-0.35156 z m -71.20507,0.0898 -0.0645,0.25782 -0.004,0.0117 -0.41407,1.35352 -0.46093,1.34375 -0.002,0.008 -0.0508,0.13477 0.46094,0.17578 0.0547,-0.14063 v -0.004 l 0.002,-0.004 0.4668,-1.36133 0.002,-0.004 v -0.004 l 0.41797,-1.36523 0.002,-0.006 v -0.006 l 0.0684,-0.26953 z m -17.83985,0.98829 -0.13867,0.4746 1.03516,0.30469 h 0.002 0.002 l 2.13867,0.58399 0.13086,-0.47657 -2.13281,-0.58203 -0.006,-0.002 z m 9.53906,2.56445 -0.12304,0.47851 0.44531,0.11524 v 0.002 h 0.002 l 2.75586,0.66992 0.11719,-0.48047 -2.75195,-0.66992 h -0.004 z m -7.72461,1.26758 -0.22656,0.43945 2.14063,1.09961 0.002,0.002 h 0.002 l 0.79883,0.39063 0.2168,-0.44336 -0.79297,-0.38867 h -0.002 l -0.002,-0.002 z m 79.15235,0.76562 -2.74024,1.83008 0.27539,0.41211 2.74024,-1.83008 z m -61.81641,0.25195 -0.10937,0.48243 1.94726,0.4414 0.002,0.002 h 0.002 l 1.26953,0.26757 0.10156,-0.48437 -1.26562,-0.26563 -0.004,-0.002 z m 9.66406,2.04688 -0.0957,0.48437 3.23633,0.62891 0.0937,-0.48633 z m -14.75585,1.14453 -0.29883,0.51172 -0.002,0.002 -0.004,0.008 -0.51367,0.80273 -2.55664,-1.19141 -0.20899,0.44727 2.4961,1.16406 -0.0156,0.0254 -0.008,0.01 -0.67774,0.95898 0.40235,0.28516 0.68554,-0.96875 0.004,-0.004 0.002,-0.006 0.0606,-0.0957 0.0449,0.0195 0.125,-0.2832 0.58203,-0.90821 0.004,-0.004 0.002,-0.004 0.30274,-0.52148 z m 10.86914,0.2793 -0.49414,0.0391 0.26953,3.28516 0.49218,-0.041 z m 13.60156,0.38476 -0.0859,0.48633 2.91211,0.51367 h 0.002 0.002 l 0.33398,0.0527 0.0762,-0.48828 -0.33203,-0.0527 v 0.002 z m 34.14453,1.25977 -1.99219,1.23633 -0.002,0.002 -0.80859,0.48438 0.2539,0.42382 0.81055,-0.48632 h 0.002 l 0.002,-0.002 1.9961,-1.23828 z m -24.39258,0.33398 -0.0781,0.48633 0.83398,0.13281 h 0.002 0.004 l 2.42774,0.33789 0.0664,-0.49023 -2.42187,-0.33594 h -0.006 z m 9.78125,1.35547 -0.0566,0.49024 3.27149,0.39062 0.0586,-0.49219 z m -38.36328,0.54883 -0.18945,0.45508 3.04297,1.26562 0.18945,-0.45508 z m 48.18164,0.57227 -0.0488,0.49218 3.2793,0.32227 0.0488,-0.49219 z m 9.83985,0.91601 -0.041,0.49219 1.32617,0.10937 h 0.002 l 1.96094,0.13868 0.0352,-0.49219 -1.95899,-0.13867 h -0.002 z m 9.85742,0.67188 -0.0312,0.49414 0.80859,0.0488 h 0.002 0.002 l 2.48242,0.11915 0.0234,-0.49219 -2.47852,-0.1211 h -0.004 z m 9.86914,0.4375 -0.0176,0.49414 0.58789,0.0215 h 0.002 0.002 l 2.70507,0.0684 0.0117,-0.49414 -2.70507,-0.0684 v 0.002 z m 22.10156,0.1055 -1.36914,0.0352 h -0.004 l -0.9707,0.0137 0.006,0.49414 0.97461,-0.0137 h 0.002 0.002 l 1.35923,-0.0352 z m -12.22266,0.0938 -0.006,0.49414 0.64844,0.008 h 0.002 0.002 2.64453 v -0.49414 h -2.64258 -0.002 z m -43.13086,0.0312 -1.58789,0.91602 -0.004,0.002 -1.27149,0.70508 0.24024,0.43164 1.27539,-0.70703 v -0.002 h 0.002 l 1.5918,-0.91797 z m -56.27734,0.6211 -0.0117,0.0117 -0.008,0.008 -1.2207,1.05664 -0.008,0.006 -0.002,0.002 -1.27344,0.99414 0.30469,0.39063 1.2832,-1.00391 0.006,-0.004 0.004,-0.004 1.23828,-1.07227 0.004,-0.004 0.004,-0.004 0.0215,-0.0195 z m 20.9375,0.26562 -0.17969,0.45899 2.98243,1.16601 h 0.002 l 0.004,0.002 0.0879,0.0312 0.16797,-0.46485 -0.082,-0.0293 -0.006,-0.002 z m -3.21289,2.26758 -0.49414,0.0274 0.17969,3.08203 v 0.006 l 0.006,0.19726 0.49414,-0.0176 -0.006,-0.20312 v -0.002 -0.004 z m 12.4707,1.1836 -0.16992,0.46484 0.89453,0.32617 0.004,0.002 h 0.002 l 2.21875,0.75196 0.15821,-0.46875 -2.2129,-0.74805 v -0.002 z m 17.43555,0.43554 -1.56641,0.83789 -0.004,0.002 -1.34571,0.68945 0.22657,0.43945 1.34961,-0.6914 0.002,-0.002 1.57031,-0.83789 z m -55.74023,1.31055 -0.49219,0.24805 -0.0117,0.006 -1.72266,0.76562 v -0.002 l -0.76758,0.30078 0.17969,0.45898 0.76758,-0.29883 0.006,-0.002 0.006,-0.002 1.74219,-0.77539 0.006,-0.002 0.006,-0.002 0.50195,-0.2539 z m 47.65625,1.42578 -0.1504,0.4707 3.14063,1 0.15039,-0.4707 z m -119.31641,0.86334 v 2.09961 c -0.1,-0.3 -0.3,-0.39961 -0.5,-0.59961 -0.3,-0.1 -0.49883,-0.20117 -0.79883,-0.20117 -0.2,0 -0.40156,0.002 -0.60156,0.10156 -0.2,0.1 -0.4,0.19844 -0.5,0.39844 l -0.29883,0.60156 c -0.1,0.2 -0.0996,0.49922 -0.0996,0.69922 0,0.3 -3.8e-4,0.49922 0.0996,0.69922 0,0.2 0.19883,0.40156 0.29883,0.60156 0.1,0.2 0.3,0.29844 0.5,0.39844 0.2,0.1 0.50117,0.10156 0.70117,0.10156 0.2,0 0.29961,-0.10117 0.59961,-0.20117 0.3,-0.1 0.49961,-0.3 0.59961,-0.5 v 0.30078 c 0,0 -3.8e-4,0.0992 0.0996,0.19922 0.1,0.1 0.20078,0.0996 0.30078,0.0996 h 0.19922 v -0.39844 c -0.1,0 -0.19922,-0.10117 -0.19922,-0.20117 v -4.19922 z m 1.5,0 v 0.69922 h 0.40039 v -0.69922 z m 9.59961,0 v 2.09961 c -0.1,-0.3 -0.3,-0.39961 -0.5,-0.59961 -0.3,-0.1 -0.49883,-0.20117 -0.79883,-0.20117 -0.2,0 -0.39961,0.002 -0.59961,0.10156 -0.2,0.1 -0.4,0.19844 -0.5,0.39844 l -0.30078,0.60156 c -0.1,0.2 -0.0996,0.49922 -0.0996,0.69922 0,0.3 -3.8e-4,0.49922 0.0996,0.69922 0,0.2 0.20078,0.40156 0.30078,0.60156 0.1,0.2 0.3,0.29844 0.5,0.39844 0.2,0.1 0.49922,0.10156 0.69922,0.10156 0.3,0 0.29961,-0.10117 0.59961,-0.20117 0.3,-0.1 0.49961,-0.3 0.59961,-0.5 v 0.30078 c 0,0 0.002,0.0992 0.10156,0.19922 0.1,0.1 0.19883,0.0996 0.29883,0.0996 h 0.20117 v -0.39844 c -0.1,0 -0.20117,-0.10117 -0.20117,-0.20117 v -4.19922 z m -26.898441,0.0996 v 4.69923 h 3.09961 v -0.39844 h -2.59961 v -1.80078 h 2.298828 v -0.40039 h -2.298828 v -1.69922 h 2.59961 v -0.40039 z m 7.099611,0.19923 v 1.20117 h -0.5 v 0.40039 h 0.5 v 2.5 c 0,0.1 -3.9e-4,0.19883 0.0996,0.29883 l 0.19922,0.20117 c 0,0 0.10117,0.0996 0.20117,0.0996 h 0.29883 c 0.1,0 0.20078,0.1 0.30078,0 0.1,-0.1 0.0992,3.8e-4 0.19922,-0.0996 0.1,-0.1 0.10117,-0.10156 0.20117,-0.10156 0,-0.1 0.0996,-0.0996 0.0996,-0.0996 l -0.30078,-0.29883 c 0,0 -0.0992,0.0996 -0.19922,0.0996 -0.1,0.1 -0.20078,0.0996 -0.30078,0.0996 -0.1,0 -0.19883,3.8e-4 -0.29883,-0.0996 0,-0.1 -0.0996,-0.20078 -0.0996,-0.30078 v -2.29883 h 0.79883 v -0.40039 h -0.79883 v -1.20117 z m 127.30273,0.5957 -1.95703,0.96485 -0.004,0.002 -0.99805,0.47266 0.21094,0.44726 1.00195,-0.47461 0.002,-0.002 h 0.002 l 1.96094,-0.9668 z m -56.1914,0.0899 -0.85156,0.20703 -0.01,0.002 -2.20508,0.44531 -0.01,0.002 -0.12696,0.0195 0.0781,0.48828 0.13672,-0.0215 h 0.004 l 0.006,-0.002 2.22461,-0.44922 h 0.006 l 0.004,-0.002 0.86133,-0.21094 z m -66.51172,0.3144 v 2.20117 c 0,0.2 -0.0992,0.30039 -0.19922,0.40039 l -0.30078,0.29883 c -0.2,0.1 -0.30039,0.10117 -0.40039,0.20117 -0.1,0.1 -0.30039,0.0996 -0.40039,0.0996 -0.5,0 -0.79883,-0.40117 -0.79883,-1.20117 v -1.89844 h -0.40039 v 2 c 0,0.5 0.10078,0.89961 0.30078,1.09961 0.1,0.3 0.39883,0.40039 0.79883,0.40039 0.3,0 0.60078,-0.10078 0.80078,-0.30078 0.2,-0.1 0.49961,-0.29961 0.59961,-0.59961 v 0.40039 c 0,0.1 -3.8e-4,0.19883 0.0996,0.29883 0.1,0.1 0.20078,0.0996 0.30078,0.0996 h 0.0996 0.0996 v -0.39844 c -0.1,0 -0.19922,-0.10117 -0.19922,-0.20117 v -2.90037 z m 8.5,0 c -0.3,0 -0.49922,0.002 -0.69922,0.10156 -0.2,0.1 -0.3,0.19844 -0.5,0.39844 -0.2,0.2 -0.30039,0.40156 -0.40039,0.60156 -0.1,0.2 -0.0996,0.49922 -0.0996,0.69922 0,0.3 -3.8e-4,0.49922 0.0996,0.69922 0.1,0.2 0.30039,0.40156 0.40039,0.60156 0.1,0.2 0.3,0.29844 0.5,0.39844 0.2,0.1 0.39922,0.10156 0.69922,0.10156 0.2,0 0.39922,-0.002 0.69922,-0.10156 0.2,-0.1 0.3,-0.19844 0.5,-0.39844 0.2,-0.2 0.30039,-0.40156 0.40039,-0.60156 0.1,-0.2 0.0996,-0.49922 0.0996,-0.69922 0,-0.3 3.8e-4,-0.49922 -0.0996,-0.69922 -0.1,-0.2 -0.20039,-0.40156 -0.40039,-0.60156 -0.1,-0.2 -0.3,-0.29844 -0.5,-0.39844 -0.2,-0.1 -0.39922,-0.10156 -0.69922,-0.10156 z m 9.69922,0 c -0.3,0 -0.49922,0.002 -0.69922,0.10156 -0.2,0.1 -0.3,0.19844 -0.5,0.39844 -0.2,0.2 -0.30039,0.40156 -0.40039,0.60156 -0.1,0.2 -0.0996,0.49922 -0.0996,0.69922 0,0.3 -3.8e-4,0.49922 0.0996,0.69922 0.1,0.2 0.20039,0.40156 0.40039,0.60156 0.1,0.2 0.3,0.29844 0.5,0.39844 0.2,0.1 0.39922,0.10156 0.69922,0.10156 h 0.60156 c 0.1,-0.1 0.29844,-0.10117 0.39844,-0.20117 l 0.30078,-0.29883 c 0.1,-0.1 0.0992,-0.20078 0.19922,-0.30078 l -0.39844,-0.0996 c -0.1,0.1 -0.10117,0.19883 -0.20117,0.29883 -0.1,0.1 -0.19883,0.20117 -0.29883,0.20117 -0.1,0 -0.20078,0.0996 -0.30078,0.0996 h -0.30078 c -0.2,0 -0.4,3.8e-4 -0.5,-0.0996 -0.2,-0.1 -0.29844,-0.20078 -0.39844,-0.30078 -0.1,-0.1 -0.20078,-0.20039 -0.30078,-0.40039 0,-0.1 -0.0996,-0.3 -0.0996,-0.5 h 2.90039 v -0.0996 -0.0996 c 0,-0.3 -0.10156,-0.39922 -0.10156,-0.69922 0,-0.3 -0.19883,-0.40156 -0.29883,-0.60156 -0.1,-0.2 -0.3,-0.29844 -0.5,-0.39844 -0.2,-0.1 -0.40117,-0.10156 -0.70117,-0.10156 z m 5.5,0 c -0.3,0 -0.49922,0.002 -0.69922,0.10156 -0.2,0.1 -0.3,0.19844 -0.5,0.39844 -0.2,0.2 -0.30039,0.40156 -0.40039,0.60156 -0.1,0.2 -0.0996,0.49922 -0.0996,0.69922 v 0.59961 c 0.1,0.2 0.20039,0.39961 0.40039,0.59961 0.1,0.2 0.3,0.30039 0.5,0.40039 0.2,0.1 0.39922,0.0996 0.69922,0.0996 0.2,0 0.3,-0.0996 0.5,-0.0996 0.1,-0.1 0.30039,-0.0992 0.40039,-0.19922 l 0.30078,-0.30078 c 0.1,-0.1 0.19922,-0.19883 0.19922,-0.29883 l -0.4004,-0.10156 c 0,0.1 -0.0996,0.10117 -0.0996,0.20117 0,0.1 -0.0992,0.0992 -0.19922,0.19922 -0.1,0 -0.20078,0.0996 -0.30078,0.0996 h -0.30078 c -0.2,0 -0.3,3.8e-4 -0.5,-0.0996 -0.2,-0.1 -0.29844,-0.19883 -0.39844,-0.29883 -0.1,-0.1 -0.20078,-0.30039 -0.30078,-0.40039 -0.1,-0.1 -0.0996,-0.3 -0.0996,-0.5 0,-0.2 -3.8e-4,-0.3 0.0996,-0.5 0.1,-0.1 0.20078,-0.30039 0.30078,-0.40039 0.1,-0.1 0.19844,-0.20078 0.39844,-0.30078 0.2,-0.1 0.3,-0.0996 0.5,-0.0996 0.2,0 0.40156,-3.8e-4 0.60156,0.0996 0.2,0.1 0.29844,0.20039 0.39844,0.40039 l 0.40039,-0.0996 c -0.1,-0.3 -0.3,-0.49961 -0.5,-0.59961 -0.3,-0.1 -0.60039,-0.20117 -0.90039,-0.20117 z m 10.40039,0 c -0.3,0 -0.49922,0.002 -0.69922,0.10156 -0.2,0.1 -0.3,0.19844 -0.5,0.39844 -0.2,0.2 -0.30039,0.40156 -0.40039,0.60156 -0.1,0.2 -0.0996,0.49922 -0.0996,0.69922 0,0.3 -3.8e-4,0.49922 0.0996,0.69922 0.1,0.2 0.30039,0.40156 0.40039,0.60156 0.1,0.2 0.3,0.29844 0.5,0.39844 0.2,0.1 0.39922,0.10156 0.69922,0.10156 0.3,0 0.50117,-0.002 0.70117,-0.10156 0.2,-0.1 0.3,-0.19844 0.5,-0.39844 0.2,-0.2 0.29844,-0.40156 0.39844,-0.60156 0.1,-0.2 0.10156,-0.49922 0.10156,-0.69922 0,-0.3 -0.002,-0.49922 -0.10156,-0.69922 -0.1,-0.2 -0.19844,-0.40156 -0.39844,-0.60156 -0.1,-0.2 -0.3,-0.29844 -0.5,-0.39844 -0.2,-0.1 -0.40117,-0.10156 -0.70117,-0.10156 z m -41.000003,0.10156 c -0.2,0 -0.3,0.0996 -0.5,0.0996 -0.1,0 -0.30039,0.0992 -0.40039,0.19922 l -0.298828,0.30078 c -0.1,0.2 -0.09961,0.3 -0.09961,0.5 0,0.1 0.09961,0.19883 0.09961,0.29883 0,0.1 0.09922,0.10117 0.199218,0.20117 0.1,0.1 0.300391,0.19922 0.400391,0.19922 0.1,0 0.3,0.0996 0.5,0.0996 0.2,0 0.4,0.10156 0.5,0.10156 0.1,0 0.200781,0.0996 0.300781,0.0996 0.1,0.1 0.199219,0.0992 0.199219,0.19922 0.1,0 0.09961,0.10117 0.09961,0.20117 0,0.2 7.82e-4,0.4 -0.199218,0.5 -0.2,0.1 -0.401172,0.19922 -0.701172,0.19922 -0.2,0 -0.39961,3.8e-4 -0.59961,-0.0996 -0.200002,-0.1 -0.39961,-0.20037 -0.59961,-0.40037 l -0.199219,0.30078 c 0.2,0.2 0.399219,0.29844 0.699219,0.39844 0.3,0.1 0.500781,0.10156 0.800781,0.10156 0.4,0 0.399219,-0.001 0.699219,-0.20117 0.300002,-0.2 0.400392,-0.49883 0.400392,-0.79883 0,-0.2 3.9e-4,-0.30039 -0.0996,-0.40039 l -0.300782,-0.30078 c -0.1,-0.1 -0.200391,-0.0992 -0.400391,-0.19922 -0.2,-0.1 -0.399609,-0.10117 -0.599609,-0.20117 -0.2,0 -0.300391,-0.0996 -0.400391,-0.0996 -0.1,0 -0.198828,-0.0996 -0.298828,-0.0996 -0.1,0 -0.201172,-0.0996 -0.201172,-0.0996 v -0.2012 c 0,-0.1 0.09961,-0.19883 0.09961,-0.29883 l 0.201172,-0.20117 c 0.1,0 0.198828,-0.0996 0.298828,-0.0996 h 0.300781 c 0.2,0 0.399609,-3.8e-4 0.599609,0.0996 0.2,0.1 0.4,0.20078 0.5,0.30078 l 0.201173,-0.30078 c -0.100001,-0.1 -0.300001,-0.19883 -0.500001,-0.29883 -0.2,-0.1 -0.401172,-0.0996 -0.701172,-0.0996 z m 12.500003,0 v 3.39844 h 0.40039 v -3.39844 z m 21.40039,0 c -0.4,0 -0.90078,0.0984 -1.30078,0.39844 l 0.20117,0.30078 0.59961,-0.30078 c 0.1,-0.1 0.3,-0.0996 0.5,-0.0996 0.3,0 0.49922,0.10078 0.69922,0.30078 0.2,0.2 0.30078,0.39922 0.30078,0.69922 v 0.30078 c -0.2,0 -0.4,-0.0996 -0.5,-0.0996 h -0.5 c -0.2,0 -0.39961,-3.8e-4 -0.59961,0.0996 -0.2,0 -0.4,0.0992 -0.5,0.19922 l -0.30078,0.30078 c -0.1,0.1 -0.0996,0.30039 -0.0996,0.40039 0,0.1 -3.8e-4,0.29844 0.0996,0.39844 0,0.1 0.10117,0.20078 0.20117,0.30078 0.1,0.1 0.29844,0.0992 0.39844,0.19922 0.2,0.1 0.3,0.10156 0.5,0.10156 0.3,0 0.60117,-0.002 0.70117,-0.10156 0.2,-0.1 0.39961,-0.3 0.59961,-0.5 v 0.30078 c 0,0.1 -3.8e-4,0.0992 0.0996,0.19922 0.1,0.1 0.20078,0.10156 0.30078,0.10156 h 0.19922 v -0.40039 c -0.1,0 -0.19922,-0.10117 -0.19922,-0.20117 v -1.5 c 0,-0.4 -0.20039,-0.8 -0.40039,-1 -0.2,-0.3 -0.6,-0.39844 -1,-0.39844 z m 3.40039,0 c -0.2,0 -0.3,0.0996 -0.5,0.0996 -0.1,0 -0.30039,0.0992 -0.40039,0.19922 l -0.30078,0.30078 c -0.1,0.2 -0.0996,0.3 -0.0996,0.5 0,0.1 0.0996,0.19883 0.0996,0.29883 0,0.1 0.10117,0.10117 0.20117,0.20117 0.1,0.1 0.30039,0.19922 0.40039,0.19922 0.1,0 0.3,0.0996 0.5,0.0996 0.2,0 0.4,0.10156 0.5,0.10156 0.1,0 0.19883,0.0996 0.29883,0.0996 0.1,0.1 0.20117,0.0992 0.20117,0.19922 0.1,0 0.0996,0.10117 0.0996,0.20117 0,0.2 -0.001,0.4 -0.20117,0.5 -0.19999,0.10003 -0.39922,0.19922 -0.69922,0.19922 -0.2,0 -0.39961,3.8e-4 -0.59961,-0.0996 -0.2,-0.1 -0.39961,-0.20039 -0.59961,-0.40039 l -0.20117,0.30078 c 0.2,0.2 0.40117,0.29844 0.70117,0.39844 0.3,0.1 0.49883,0.10156 0.79883,0.10156 0.4,0 0.40117,-0.001 0.70117,-0.20117 0.3,-0.2 0.39844,-0.49883 0.39844,-0.79883 0,-0.2 3.8e-4,-0.30039 -0.0996,-0.40039 l -0.29883,-0.30078 c -0.1,-0.1 -0.20039,-0.0992 -0.40039,-0.19922 -0.2,-0.1 -0.39961,-0.10117 -0.59961,-0.20117 -0.2,0 -0.30039,-0.0996 -0.40039,-0.0996 -0.1,0 -0.20078,-0.0996 -0.30078,-0.0996 -0.1,0 -0.19922,-0.0996 -0.19922,-0.0996 v -0.20118 c 0,-0.1 0.0996,-0.19883 0.0996,-0.29883 l 0.19923,-0.20117 c 0.1,0 0.20078,-0.0996 0.30078,-0.0996 h 0.30078 c 0.2,0 0.39961,-3.8e-4 0.59961,0.0996 0.2,0.1 0.4,0.20078 0.5,0.30078 l 0.19922,-0.30078 c -0.1,-0.1 -0.3,-0.19883 -0.5,-0.29883 -0.2,-0.1 -0.39922,-0.0996 -0.69922,-0.0996 z m -12.30078,0.19922 c 0.2,0 0.4,-3.8e-4 0.5,0.0996 0.2,0.1 0.30039,0.20078 0.40039,0.30078 0.1,0.1 0.20078,0.20039 0.30078,0.40039 0,0.1 0.0996,0.3 0.0996,0.5 h -2.59961 c 0,-0.2 -3.8e-4,-0.3 0.0996,-0.5 0.1,-0.2 0.19883,-0.30039 0.29883,-0.40039 0.1,-0.2 0.30039,-0.20078 0.40039,-0.30078 0.2,-0.1 0.3,-0.0996 0.5,-0.0996 z m -15.09961,0.0996 c 0.2,0 0.30039,-3.8e-4 0.40039,0.0996 0.1,0.1 0.19883,0.10117 0.29883,0.20117 l 0.30078,0.29884 c 0.1,0.1 0.19922,0.20078 0.19922,0.30078 v 1 c 0,0.1 3.8e-4,0.20078 -0.0996,0.30078 -0.1,0.1 -0.0988,0.19883 -0.29883,0.29883 -0.2,0.1 -0.30039,0.20117 -0.40039,0.20117 -0.2,0.1 -0.30039,0.0996 -0.40039,0.0996 -0.2,0 -0.40039,-7.8e-4 -0.40039,-0.30078 -0.2,-0.1 -0.30039,-0.19883 -0.40039,-0.29883 -0.1,-0.1 -0.19883,-0.30039 -0.29883,-0.40039 -0.1,-0.1 -0.0996,-0.3 -0.0996,-0.5 0,-0.2 0.0996,-0.4 0.0996,-0.5 0,-0.1 0.0992,-0.30039 0.19922,-0.40039 0.1,-0.1 0.30039,-0.20077 0.40039,-0.30077 0.1,-0.1 0.3,-0.0996 0.5,-0.0996 z m 11.09961,0 c 0.2,0 0.30039,-3.8e-4 0.40039,0.0996 0.1,0.1 0.20078,0.10117 0.30078,0.20117 l 0.29883,0.29884 c 0.1,0.1 0.20117,0.20078 0.20117,0.30078 v 1 c 0,0.1 -0.002,0.20078 -0.10156,0.30078 -0.1,0.1 -0.0988,0.19883 -0.29883,0.29883 -0.2,0.1 -0.30039,0.20117 -0.40039,0.20117 -0.2,0.1 -0.30039,0.0996 -0.40039,0.0996 -0.2,0 -0.30039,-7.8e-4 -0.40039,-0.30078 -0.2,-0.1 -0.29844,-0.19883 -0.39844,-0.29883 -0.1,-0.1 -0.20078,-0.30039 -0.30078,-0.40039 -0.1,-0.1 -0.0996,-0.3 -0.0996,-0.5 0,-0.2 0.0996,-0.4 0.0996,-0.5 0,-0.1 0.0992,-0.30039 0.19922,-0.40039 0.1,-0.1 0.30039,-0.20078 0.40039,-0.30078 0.1,-0.1 0.3,-0.0996 0.5,-0.0996 z m -5.59961,0.0996 c 0.2,0 0.3,0.002 0.5,0.10156 0.2,0.1 0.30039,0.19883 0.40039,0.29883 0.1,0.1 0.19883,0.20039 0.29883,0.40039 0.1,0.1 0.10156,0.3 0.10156,0.5 0,0.2 -0.002,0.4 -0.10156,0.5 -0.1,0.1 -0.19883,0.30039 -0.29883,0.40039 -0.1,0.1 -0.20039,0.19883 -0.40039,0.29883 -0.2,0.1 -0.3,0.10156 -0.5,0.10156 -0.2,0 -0.3,-0.002 -0.5,-0.10156 -0.2,-0.1 -0.30039,-0.19883 -0.40039,-0.29883 -0.1,-0.1 -0.19883,-0.20039 -0.29883,-0.40039 -0.1,-0.1 -0.10156,-0.3 -0.10156,-0.5 0,-0.2 0.002,-0.4 0.10156,-0.5 0.1,-0.1 0.19883,-0.30039 0.29883,-0.40039 0.1,-0.1 0.30039,-0.19883 0.40039,-0.29883 0.2,-0.1 0.3,-0.10156 0.5,-0.10156 z m 25.69922,0 c 0.2,0 0.3,0.002 0.5,0.10156 0.2,0.1 0.30039,0.19883 0.40039,0.29883 0.1,0.1 0.20078,0.20039 0.30078,0.40039 0.1,0.1 0.0996,0.3 0.0996,0.5 0,0.2 3.8e-4,0.4 -0.0996,0.5 -0.1,0.1 -0.20078,0.30039 -0.30078,0.40039 -0.1,0.1 -0.20039,0.19883 -0.40039,0.29883 -0.2,0.1 -0.3,0.10156 -0.5,0.10156 -0.2,0 -0.3,-0.002 -0.5,-0.10156 -0.2,-0.1 -0.29844,-0.19883 -0.39844,-0.29883 -0.1,-0.1 -0.20078,-0.20039 -0.30078,-0.40039 -0.1,-0.1 -0.0996,-0.3 -0.0996,-0.5 0,-0.2 -3.8e-4,-0.4 0.0996,-0.5 0.1,-0.1 0.20078,-0.30039 0.30078,-0.40039 0.1,-0.1 0.29844,-0.19883 0.39844,-0.29883 0.2,-0.1 0.3,-0.10156 0.5,-0.10156 z m 98.66211,0.23438 -0.13672,0.4746 2.22266,0.64649 h 0.002 v 0.002 l 0.94531,0.26172 0.13086,-0.47656 -0.93945,-0.25977 v -0.002 h -0.004 z m -76.07227,0.4414 -0.61914,0.0547 v -0.002 l -2.64258,0.13671 h -0.008 -0.004 l 0.01,0.49415 h 0.01 0.006 0.004 l 2.65039,-0.13672 h 0.004 0.004 l 0.62696,-0.0547 z m -29.88867,0.82422 h 0.5 c 0.2,0 0.4,0.002 0.5,0.10156 v 0.59961 0.0996 l -0.0996,0.0996 c -0.1,0.1 -0.20039,0.20078 -0.40039,0.30078 -0.2,0.1 -0.39961,0.0996 -0.59961,0.0996 -0.1,0 -0.30039,0.19962 -0.40039,0.0996 -0.1,-0.1 -0.20078,-0.19922 -0.30078,-0.19922 -0.1,0 -0.19922,-0.10117 -0.19922,-0.20117 -0.1,-0.1 -0.0996,-0.19883 -0.0996,-0.29883 0,-0.2 0.0988,-0.4 0.29883,-0.5 0.2,-0.1 0.50078,-0.20117 0.80078,-0.20117 z m 75.09961,1.36523 -0.49414,0.0156 0.0156,0.47461 v 0.004 l 0.0391,2.8125 0.49414,-0.008 -0.0391,-2.8164 v -0.002 -0.002 z m 40.38477,0 -0.12696,0.47852 1.60742,0.42383 h 0.002 0.002 l 1.58398,0.39648 0.11915,-0.48047 -1.58008,-0.39453 h -0.004 z m -28.61133,0.45313 -2.79688,1.26758 -0.004,0.002 -0.19727,0.0859 0.19531,0.45312 0.20313,-0.0879 h 0.002 0.002 l 2.79883,-1.27148 z m 38.20117,1.91602 -0.11328,0.48242 1.39844,0.32812 h 0.002 l 0.002,0.002 1.81445,0.40039 0.10743,-0.48243 -1.8125,-0.40039 h -0.004 z m -47.24805,2.04687 -3.04297,1.26563 0.18946,0.45703 3.04297,-1.26563 z m 56.90039,0.0606 -0.0996,0.48437 1.5918,0.32813 0.002,0.002 h 0.002 l 1.63867,0.31445 0.0937,-0.48437 -1.63867,-0.31641 v 0.002 z m 30.7461,1.83203 -1.34766,0.89648 -0.002,0.002 -1.4043,0.90625 0.26953,0.41601 1.40625,-0.91015 0.002,-0.002 1.3496,-0.89844 z m -21.04102,0.0137 -0.0859,0.48633 2.1875,0.39062 h 0.002 0.002 l 1.05859,0.17188 0.0801,-0.48828 -1.05469,-0.17188 h -0.004 z m -121.24219,0.17773 -0.43359,0.23829 1.58398,2.89062 0.4336,-0.23828 z m 130.99219,1.41016 -0.0723,0.49023 3.18554,0.47071 h 0.002 l 0.002,0.002 0.0742,0.01 0.0645,-0.49024 -0.0703,-0.01 h -0.004 z m -85.51367,0.22266 -0.36719,0.14648 -0.004,0.002 -2.70313,1.0254 0.17578,0.46093 2.70703,-1.02734 h 0.002 0.002 l 0.37109,-0.14844 z m 95.30078,1.11328 -0.0566,0.49023 3.27148,0.38672 0.0586,-0.49219 z m -89.31641,0.64453 -0.0273,2.08594 v 0.004 l -0.0332,1.20118 0.49414,0.0137 0.0332,-1.20508 v -0.002 -0.002 l 0.0273,-2.08984 z m -15.23632,1.70117 -2.4043,0.87109 -0.004,0.002 -0.68945,0.23828 0.16016,0.4668 0.69531,-0.24024 h 0.002 0.002 l 2.40626,-0.87304 z m 97.75,0.0644 -2.14649,1.34766 h -0.002 l -0.64649,0.39258 0.25782,0.42187 0.64843,-0.39257 v -0.002 h 0.002 l 2.15039,-1.34765 z m -107.08203,3.17579 -3.13086,1.02734 0.15429,0.46875 3.13086,-1.02539 z m -22.33594,0.45312 -0.44532,0.21289 0.99805,2.08008 0.002,0.006 0.39844,0.89258 0.45117,-0.20118 -0.40039,-0.89843 -0.002,-0.002 -0.002,-0.004 z m 120.98047,1.50781 -2.8418,1.66992 0.25,0.42579 2.8418,-1.66993 z m -108.05664,1.05078 -1.78907,0.55664 v -0.002 l -1.35937,0.40235 0.13867,0.47265 1.36133,-0.40039 h 0.002 0.002 l 1.79102,-0.55859 z m 33.68164,1.91993 -0.01,0.22851 h 0.002 l -0.17578,3.0586 0.49219,0.0293 0.17578,-3.0625 v -0.002 -0.002 l 0.01,-0.22852 z m 94.24609,0.0137 -2.04492,0.45117 -0.004,0.002 -0.8125,0.16602 0.0996,0.48437 0.81641,-0.16797 h 0.002 l 1.94341,-0.42979 z m -137.40039,0.86523 -3.17578,0.88281 0.13281,0.47657 3.17578,-0.88477 z m 128.08203,1.05469 -3.23828,0.61328 0.0918,0.48438 3.23828,-0.61328 z m -19.12109,0.0117 -2.89258,1.58008 0.23828,0.43359 2.89063,-1.58008 z m -118.5,1.52148 -2.38867,0.62696 -0.004,0.002 -0.79297,0.19531 0.11914,0.48047 0.79688,-0.19727 h 0.002 0.002 l 2.39258,-0.6289 z m 127.89648,0.22852 -0.32617,0.0586 h -0.004 l -2.91992,0.46875 0.0781,0.48828 2.92382,-0.46875 0.002,-0.002 h 0.002 l 0.33008,-0.0566 z m -117.80273,0.87695 -0.45703,0.18945 0.27539,0.66407 0.002,0.006 0.91601,2.39453 0.46094,-0.17578 -0.91797,-2.40235 v -0.002 l -0.002,-0.004 z m -55.85352,0.29879 v 0.70117 h 0.39844 v -0.70117 z m 4.09961,0 v 2.10156 c -0.1,-0.3 -0.3,-0.40156 -0.5,-0.60156 -0.3,-0.1 -0.50078,-0.19922 -0.80078,-0.19922 -0.2,0 -0.39961,-3.8e-4 -0.59961,0.0996 -0.2,0.1 -0.4,0.20039 -0.5,0.40039 l -0.30078,0.59961 c -0.1,0.2 -0.0996,0.50117 -0.0996,0.70117 0,0.3 -3.8e-4,0.49922 0.0996,0.69922 0,0.2 0.20078,0.39961 0.30078,0.59961 0.1,0.2 0.3,0.30039 0.5,0.40039 0.2,0.1 0.49922,0.0996 0.69922,0.0996 0.2,0 0.30156,-0.0992 0.60156,-0.19922 0.3,-0.1 0.49961,-0.3 0.59961,-0.5 v 0.29885 c 0,0 -3.8e-4,0.10117 0.0996,0.20117 0.1,0.1 0.20078,0.0996 0.30078,0.0996 h 0.19922 v -0.40039 c -0.1,0 -0.19922,-0.0992 -0.19922,-0.19922 v -4.20116 z m 7.69922,0 v 2.10156 c -0.1,-0.3 -0.3,-0.40156 -0.5,-0.60156 -0.3,-0.1 -0.49883,-0.19922 -0.79883,-0.19922 -0.2,0 -0.40156,-3.8e-4 -0.60156,0.0996 -0.2,0.1 -0.4,0.20039 -0.5,0.40039 l -0.29883,0.59961 c -0.1,0.2 -0.0996,0.50117 -0.0996,0.70117 0,0.3 -3.8e-4,0.49922 0.0996,0.69922 0,0.2 0.19883,0.39961 0.29883,0.59961 0.1,0.2 0.3,0.30039 0.5,0.40039 0.2,0.1 0.50117,0.0996 0.70117,0.0996 0.2,0 0.29961,-0.0992 0.59961,-0.19922 0.3,-0.1 0.49961,-0.3 0.59961,-0.5 v 0.29885 c 0,0 -3.8e-4,0.10117 0.0996,0.20117 0.1,0.1 0.20078,0.0996 0.30078,0.0996 h 0.19922 v -0.40039 c -0.1,0 -0.19922,-0.0992 -0.19922,-0.19922 v -4.20116 z m -61.199221,0.10156 v 4.79883 h 0.40039 v -0.69922 c 0,-0.1 -0.101562,-0.20078 -0.101562,-0.30078 v -1.09961 c 0.1,-0.1 0.101172,-0.20078 0.201172,-0.30078 l 0.298828,-0.29883 c 0.1,-0.10002 0.200781,-0.20117 0.300781,-0.20117 0.1,-0.1 0.300391,-0.0996 0.400391,-0.0996 0.2,0 0.3,-3.8e-4 0.5,0.0996 0.2,0.1 0.30039,0.20078 0.40039,0.30078 0.2,0.1 0.198828,0.20039 0.298828,0.40039 0.1,0.1 0.09961,0.3 0.09961,0.5 0,0.2 3.9e-4,0.3 -0.09961,0.5 -0.1,0.1 -0.198828,0.30039 -0.298828,0.40039 -0.1,0.1 -0.20039,0.19883 -0.40039,0.29883 -0.1,0.1 -0.3,0.0996 -0.5,0.0996 -0.1,0 -0.2,0.001 -0.5,0.20117 -0.1,-0.1 -0.200782,-0.10117 -0.300782,-0.20117 l -0.298828,-0.29883 c 0.1,0.2 0.3,0.4 0.5,0.5 0.2,0.1 0.399219,0.19922 0.699219,0.19922 0.2,0 0.500781,-3.8e-4 0.800781,0.0996 0.2,-0.1 0.4,-0.19844 0.5,-0.39844 l 0.298828,-0.60154 c 0.1,-0.2 0.09961,-0.49922 0.09961,-0.69922 0,-0.3 3.9e-4,-0.49922 -0.09961,-0.69922 l -0.298828,-0.60156 c -0.1,-0.2 -0.3,-0.29844 -0.5,-0.39844 -0.1,-0.1 -0.401562,-0.20117 -0.601562,-0.20117 -0.3,0 -0.598828,0.10117 -0.798828,0.20117 -0.3,0.2 -0.39961,0.39961 -0.59961,0.59961 v -2.09961 z m 4,0 v 4.09961 c 0,0.2 0.09922,0.4 0.199218,0.5 0.1,0.1 0.3,0.19922 0.5,0.19922 h 0.300782 c 0.1,0 0.198828,-0.0996 0.298828,-0.0996 l -0.09961,-0.40039 c -0.1,0.1 -0.09922,0.0996 -0.199218,0.0996 h -0.201172 c -0.1,0 -0.198828,3.8e-4 -0.298828,-0.0996 -0.1,-0.1 -0.09961,-0.19883 -0.09961,-0.29883 v -4 z m 25.90039,0 v 4.69922 h 0.5 v -3.80078 l 3.09961,3.80078 h 0.40039 v -4.69922 h -0.5 v 3.89844 l -3.101562,-3.89844 z m -40,0.0996 v 4.59961 h 0.398438 v -1.69922 h 1.5 c 0.3,0 0.401562,-0.002 0.601562,-0.10156 0.1,-0.1 0.298438,-0.0988 0.398438,-0.29883 0.1,-0.2 0.200781,-0.3 0.300781,-0.5 0.1,-0.2 0.09961,-0.39961 0.09961,-0.59961 0,-0.1 3.92e-4,-0.3 -0.09961,-0.5 -0.1,-0.2 -0.200781,-0.4 -0.300781,-0.5 -0.1,-0.1 -0.198438,-0.20078 -0.398438,-0.30078 -0.2,-0.1 -0.401562,-0.0996 -0.601562,-0.0996 z m 37.09961,0 -3.09961,4.69922 h 0.5 l 3.09961,-4.69922 z m 186.294921,0.14844 -2.01172,0.29883 v -0.002 l -1.24609,0.16797 0.0644,0.49024 1.2461,-0.16797 h 0.002 0.002 l 2.01563,-0.29688 z m -222.996093,0.35156 h 1.5 c 0.2,0 0.30039,-3.8e-4 0.40039,0.0996 0.1,0 0.200782,0.0992 0.300782,0.19922 0.1,0.1 0.09922,0.20078 0.199218,0.30078 0.1,0.1 0.09961,0.30039 0.09961,0.40039 0,0.1 -0.09961,0.30039 -0.09961,0.40039 -0.1,0.1 -0.09922,0.19883 -0.199218,0.29883 -0.1,0.1 -0.200782,0.10117 -0.300782,0.20117 -0.1,0.1 -0.30039,0.0996 -0.40039,0.0996 h -1.5 z m 7.201172,0.59961 c -0.3,0 -0.501172,-3.8e-4 -0.701172,0.0996 -0.2,0.1 -0.3,0.20039 -0.5,0.40039 -0.2,0.2 -0.298438,0.39961 -0.398438,0.59961 -0.1,0.2 -0.101562,0.50117 -0.101562,0.70117 0,0.3 0.0016,0.49922 0.101562,0.69922 0.1,0.2 0.298438,0.39961 0.398438,0.59961 0.1,0.2 0.3,0.30039 0.5,0.40039 0.2,0.1 0.401172,0.0996 0.701172,0.0996 0.2,0 0.499218,3.8e-4 0.699218,-0.0996 0.2,-0.1 0.3,-0.20039 0.5,-0.40039 0.2,-0.19999 0.300391,-0.39961 0.400391,-0.59961 0.1,-0.2 0.09961,-0.49922 0.09961,-0.69922 0,-0.3 3.92e-4,-0.50117 -0.09961,-0.70117 -0.1,-0.2 -0.200391,-0.39961 -0.400391,-0.59961 -0.1,-0.2 -0.3,-0.30039 -0.5,-0.40039 -0.2,-0.1 -0.399218,-0.0996 -0.699218,-0.0996 z m 9.798828,0 c -0.3,0 -0.499219,-3.8e-4 -0.699219,0.0996 -0.2,0.1 -0.3,0.20039 -0.5,0.40039 -0.2,0.2 -0.300391,0.39961 -0.400391,0.59961 -0.1,0.2 -0.09961,0.50117 -0.09961,0.70117 0,0.3 -3.92e-4,0.49922 0.09961,0.69922 0.1,0.2 0.200391,0.39961 0.400391,0.59961 0.1,0.2 0.3,0.30039 0.5,0.40039 0.2,0.1 0.399219,0.0996 0.699219,0.0996 h 0.601562 c 0.1,-0.1 0.298438,-0.0992 0.398438,-0.19922 l 0.300781,-0.30075 c 0.1,-0.1 0.09922,-0.19883 0.199219,-0.29883 l -0.398438,-0.10156 c -0.1,0.1 -0.101172,0.20078 -0.201172,0.30078 -0.1,0.1 -0.198828,0.19922 -0.298828,0.19922 -0.1,0 -0.200781,0.10156 -0.300781,0.10156 h -0.300781 c -0.2,0 -0.4,-0.002 -0.5,-0.10156 -0.2,-0.1 -0.298438,-0.19883 -0.398438,-0.29883 -0.1,-0.1 -0.200781,-0.20039 -0.300781,-0.40039 0,-0.1 -0.09961,-0.3 -0.09961,-0.5 h 2.90039 v -0.0996 -0.0996 c 0,-0.3 -0.101562,-0.40117 -0.101562,-0.70117 0,-0.3 -0.198828,-0.39961 -0.298828,-0.59961 -0.1,-0.2 -0.3,-0.30039 -0.5,-0.40039 -0.2,-0.1 -0.401172,-0.0996 -0.701172,-0.0996 z m 29.101562,0 c -0.3,0 -0.501172,-3.8e-4 -0.701172,0.0996 -0.2,0.1 -0.3,0.20039 -0.5,0.40039 -0.2,0.2 -0.30039,0.39961 -0.40039,0.59961 -0.1,0.2 -0.09961,0.50117 -0.09961,0.70117 0,0.3 -3.9e-4,0.49922 0.09961,0.69922 0.1,0.2 0.20039,0.39961 0.40039,0.59961 0.1,0.2 0.3,0.30039 0.5,0.40039 0.2,0.1 0.401172,0.0996 0.701172,0.0996 h 0.59961 c 0.1,-0.1 0.30039,-0.0992 0.40039,-0.19922 l 0.298828,-0.30078 c 0.1,-0.1 0.101172,-0.19883 0.201172,-0.29883 l -0.40039,-0.10153 c -0.1,0.1 -0.101172,0.20078 -0.201172,0.30078 -0.1,0.1 -0.198828,0.19922 -0.298828,0.19922 -0.1,0 -0.200782,0.10156 -0.300782,0.10156 h -0.298828 c -0.2,0 -0.4,-0.002 -0.5,-0.10156 -0.2,-0.1 -0.30039,-0.19883 -0.40039,-0.29883 -0.1,-0.1 -0.200782,-0.20039 -0.300782,-0.40039 0,-0.1 -0.09961,-0.3 -0.09961,-0.5 h 2.900391 v -0.0996 -0.0996 c 0,-0.3 -0.09961,-0.40117 -0.09961,-0.70117 0,-0.30002 -0.200781,-0.39961 -0.300781,-0.59961 -0.1,-0.2 -0.3,-0.30039 -0.5,-0.40039 -0.2,-0.1 -0.399219,-0.0996 -0.699219,-0.0996 z m 3.798828,0 c -0.3,0 -0.499218,-3.8e-4 -0.699218,0.0996 -0.2,0.1 -0.3,0.20039 -0.5,0.40039 -0.2,0.2 -0.300391,0.39961 -0.400391,0.59961 -0.1,0.2 -0.09961,0.50117 -0.09961,0.70117 0,0.3 0.1,0.49961 0,0.59961 0.1,0.2 0.20039,0.39961 0.40039,0.59961 0.1,0.2 0.3,0.30039 0.5,0.40039 0.2,0.1 0.399219,0.0996 0.699219,0.0996 0.2,0 0.3,-0.0996 0.5,-0.0996 0.1,-0.1 0.300393,-0.10117 0.400393,-0.20117 l 0.29883,-0.29883 c 0.1,-0.1 0.20117,-0.20078 0.20117,-0.30078 l -0.40039,-0.0996 c 0,0.1 -0.0996,0.0992 -0.0996,0.19922 0,0.1 -0.10117,0.10117 -0.201174,0.20117 -0.1,0 -0.198828,0.0996 -0.298828,0.0996 h -0.300782 c -0.2,0 -0.3,3.8e-4 -0.5,-0.0996 -0.2,-0.1 -0.30039,-0.20078 -0.40039,-0.30078 -0.1,-0.1 -0.198828,-0.30039 -0.298828,-0.40039 -0.1,-0.1 -0.09961,-0.3 -0.09961,-0.5 0,-0.2 -3.9e-4,-0.3 0.09961,-0.5 0.1,-0.1 0.198828,-0.29844 0.298828,-0.39844 0.1,-0.1 0.20039,-0.20078 0.40039,-0.30078 0.2,-0.1 0.3,-0.0996 0.5,-0.0996 0.2,0 0.39961,-3.8e-4 0.59961,0.0996 0.200004,0.1 0.300394,0.20039 0.400394,0.40039 l 0.40039,-0.0996 c -0.1,-0.3 -0.3,-0.50156 -0.5,-0.60156 -0.300002,-0.1 -0.600393,-0.19922 -0.900393,-0.19922 z m 3.599613,0 c -0.3,0 -0.49922,-3.8e-4 -0.69922,0.0996 -0.2,0.1 -0.3,0.20039 -0.5,0.40039 -0.2,0.2 -0.30039,0.39961 -0.40039,0.59961 -0.10001,0.2 -0.0996,0.50117 -0.0996,0.70117 0,0.3 -3.9e-4,0.49922 0.0996,0.69922 0.1,0.2 0.20039,0.39961 0.40039,0.59961 0.1,0.2 0.3,0.30039 0.5,0.40039 0.2,0.1 0.39922,0.0996 0.69922,0.0996 h 0.60156 c 0.1,-0.1 0.29844,-0.0992 0.39844,-0.19922 l 0.30078,-0.30075 c 0.1,-0.1 0.0992,-0.19883 0.19922,-0.29883 l -0.39844,-0.10156 c -0.1,0.1 -0.10117,0.20078 -0.20117,0.30078 -0.1,0.1 -0.19883,0.19922 -0.29883,0.19922 -0.1,0 -0.20078,0.10156 -0.30078,0.10156 h -0.30078 c -0.2,0 -0.4,-0.002 -0.5,-0.10156 -0.2,-0.1 -0.29844,-0.19883 -0.39844,-0.29883 -0.1,-0.1 -0.20078,-0.20039 -0.30078,-0.40039 0,-0.1 -0.0996,-0.3 -0.0996,-0.5 h 2.90039 v -0.0996 -0.0996 c 0,-0.3 -0.10156,-0.40117 -0.10156,-0.70117 0,-0.3 -0.19883,-0.39961 -0.29883,-0.59961 -0.1,-0.2 -0.3,-0.30039 -0.5,-0.40039 -0.2,-0.1 -0.40117,-0.0996 -0.70117,-0.0996 z m 20.30078,0 c -0.3,0 -0.49922,-3.8e-4 -0.69922,0.0996 -0.2,0.1 -0.3,0.20039 -0.5,0.40039 -0.2,0.2 -0.30039,0.39961 -0.40039,0.59961 -0.1,0.2 -0.0996,0.50117 -0.0996,0.70117 0,0.3 -3.8e-4,0.49922 0.0996,0.69922 0.1,0.2 0.20039,0.39961 0.40039,0.59961 0.1,0.2 0.3,0.30039 0.5,0.40039 0.2,0.1 0.39922,0.0996 0.69922,0.0996 h 0.59961 c 0.1,-0.1 0.30039,-0.0992 0.40039,-0.19922 l 0.30078,-0.30078 c 0.1,-0.1 0.0992,-0.19883 0.19922,-0.29883 l -0.40039,-0.10153 c -0.1,0.1 -0.0992,0.20078 -0.19922,0.30078 -0.1,0.1 -0.20078,0.19922 -0.30078,0.19922 -0.1,0 -0.19883,0.10156 -0.29883,0.10156 h -0.30078 c -0.2,0 -0.4,-0.002 -0.5,-0.10156 -0.2,-0.1 -0.30039,-0.19883 -0.40039,-0.29883 -0.1,-0.1 -0.19883,-0.20039 -0.29883,-0.40039 0,-0.1 -0.10156,-0.3 -0.10156,-0.5 h 2.90039 v -0.0996 -0.0996 c 0,-0.3 -0.0996,-0.40117 -0.0996,-0.70117 0,-0.3 -0.20078,-0.39961 -0.30078,-0.59961 -0.1,-0.2 -0.3,-0.30039 -0.5,-0.40039 -0.20001,-0.1 -0.39922,-0.0996 -0.69922,-0.0996 z m -50.300783,0.0996 c -0.5,0 -0.998828,0.30039 -1.298828,0.90039 0,-0.2 -0.100782,-0.39961 -0.300782,-0.59961 -0.2,-0.1 -0.399218,-0.20117 -0.699218,-0.20117 -0.3,0 -0.600782,0.10117 -0.800782,0.20117 -0.3,0.10001 -0.499609,0.29961 -0.599609,0.59961 v -0.80076 h -0.400391 v 3.40039 h 0.400391 v -2.09961 c 0.1,-0.3 0.200391,-0.49922 0.400391,-0.69922 0.2,-0.2 0.399218,-0.30078 0.699218,-0.30078 0.3,0 0.49961,0.10078 0.59961,0.30078 0.1,0.2 0.201172,0.49844 0.201172,0.89844 v 1.90039 h 0.40039 v -2.09961 c 0.1,-0.1 0.09922,-0.30039 0.199219,-0.40039 l 0.300781,-0.29883 c 0.1,-0.1 0.198828,-0.20117 0.298828,-0.20117 0.1,-0.1 0.300391,-0.0996 0.400391,-0.0996 0.3,0 0.499609,0.10078 0.599609,0.30078 0.1,0.2 0.201172,0.49844 0.201172,0.89844 v 1.90039 h 0.398438 0.101562 v -2 c 0,-0.2 -0.101562,-0.39961 -0.101562,-0.59961 -0.1,-0.2 -0.09922,-0.4 -0.199219,-0.5 l -0.300781,-0.30079 c -0.1,-0.1 -0.3,-0.0996 -0.5,-0.0996 z m 3.101562,0 c -0.4,1e-5 -0.900781,0.10039 -1.300781,0.40039 l 0.199219,0.30078 0.601562,-0.30078 c 0.1,-0.1 0.3,-0.0996 0.5,-0.0996 0.3,0 0.499219,0.0988 0.699219,0.29883 0.2,0.2 0.300781,0.40117 0.300781,0.70117 v 0.29884 c -0.2,0 -0.4,-0.0996 -0.5,-0.0996 h -0.5 c -0.2,0 -0.401562,-3.8e-4 -0.601562,0.0996 -0.2,0 -0.4,0.10117 -0.5,0.20117 l -0.298828,0.29883 c -0.1,0.1 -0.09961,0.30039 -0.09961,0.40039 0,0.1 -3.9e-4,0.30039 0.09961,0.40039 0,0.1 0.09922,0.20078 0.199218,0.30078 0.1,0.1 0.300391,0.0992 0.400391,0.19922 0.2,0.1 0.3,0.0996 0.5,0.0996 0.3,0 0.499219,3.8e-4 0.699219,-0.0996 0.2,-0.1 0.401562,-0.3 0.601562,-0.5 v 0.30078 c 0,0.1 -3.9e-4,0.0992 0.09961,0.19922 0.1,0.1 0.198828,0.0996 0.298828,0.0996 h 0.201172 v -0.40038 c -0.1,0 -0.201172,-0.0992 -0.201172,-0.19922 v -1.5 c 0,-0.4 -0.198438,-0.8 -0.398438,-1 -0.2,-0.3 -0.6,-0.40039 -1,-0.40039 z m 3.398438,0 c -0.2,0 -0.3,0.0996 -0.5,0.0996 -0.1,0 -0.298438,0.10117 -0.398438,0.20117 l -0.300781,0.29886 c -0.1,0.2 -0.09961,0.3 -0.09961,0.5 0,0.1 0.09961,0.20078 0.09961,0.30078 0,0.1 0.09922,0.0992 0.199219,0.19922 0.1,0.1 0.30039,0.20117 0.40039,0.20117 0.1,0 0.3,0.0996 0.5,0.0996 0.2,0 0.4,0.0996 0.5,0.0996 0.1,0 0.200782,0.0996 0.300782,0.0996 0.1,0.1 0.199218,0.10117 0.199218,0.20117 0.1,0 0.09961,0.0992 0.09961,0.19922 0,0.2 7.81e-4,0.4 -0.199219,0.5 -0.2,0.1 -0.399219,0.20117 -0.699219,0.20117 -0.2,0 -0.401562,-0.002 -0.601562,-0.10156 -0.2,-0.1 -0.39961,-0.19844 -0.59961,-0.39844 l -0.199218,0.29883 c 0.2,0.2 0.399218,0.30039 0.699218,0.40039 0.3,0.1 0.500782,0.0996 0.800782,0.0996 0.4,0 0.399218,7.8e-4 0.699218,-0.19922 0.3,-0.2 0.400391,-0.50078 0.400391,-0.80078 0,-0.2 3.92e-4,-0.30039 -0.09961,-0.40039 l -0.300782,-0.29883 c -0.1,-0.1 -0.20039,-0.10117 -0.40039,-0.20117 -0.2,-0.1 -0.39961,-0.0992 -0.59961,-0.19922 -0.2,0 -0.30039,-0.0996 -0.40039,-0.0996 -0.1,0 -0.198828,-0.0996 -0.298828,-0.0996 -0.1,0 -0.201172,-0.10156 -0.201172,-0.10156 v -0.19922 c 0,-0.1 0.101562,-0.20078 0.101562,-0.30078 l 0.19922,-0.1992 c 0.1,0 0.200781,-0.0996 0.300781,-0.0996 h 0.298828 c 0.2,0 0.39961,-3.8e-4 0.59961,0.0996 0.2,0.1 0.4,0.20078 0.5,0.30078 l 0.201172,-0.30078 c -0.1,-0.1 -0.3,-0.20078 -0.5,-0.30078 -0.2,-0.1 -0.401172,-0.0996 -0.701172,-0.0996 z m 26.900393,0 c -0.2,0 -0.3,0.0996 -0.5,0.0996 -0.1,0 -0.30039,0.10117 -0.40039,0.20117 l -0.29883,0.29886 c -0.1,0.2 -0.0996,0.3 -0.0996,0.5 0,0.1 0.0996,0.20078 0.0996,0.30078 0,0.1 0.0992,0.0992 0.19922,0.19922 0.1,0.1 0.30039,0.20117 0.40039,0.20117 0.1,0 0.3,0.0996 0.5,0.0996 0.2,0 0.4,0.0996 0.5,0.0996 0.1,0 0.20078,0.0996 0.30078,0.0996 0.1,0.1 0.19922,0.10117 0.19922,0.20117 0.1,0 0.0996,0.0992 0.0996,0.19922 0,0.2 7.8e-4,0.4 -0.19922,0.5 -0.2,0.1 -0.40117,0.20117 -0.70117,0.20117 -0.2,0 -0.39961,-0.002 -0.59961,-0.10156 -0.2,-0.1 -0.39961,-0.19841 -0.59961,-0.39841 l -0.19922,0.29883 c 0.2,0.2 0.39922,0.30039 0.69922,0.40039 0.3,0.1 0.50078,0.0996 0.80078,0.0996 0.4,0 0.39922,7.8e-4 0.69922,-0.19922 0.3,-0.2 0.40039,-0.50078 0.40039,-0.80078 0,-0.2 3.8e-4,-0.30039 -0.0996,-0.40039 l -0.30078,-0.29882 c -0.1,-0.1 -0.20039,-0.10117 -0.40039,-0.20117 -0.2,-0.1 -0.39961,-0.0992 -0.59961,-0.19922 -0.2,0 -0.30039,-0.0996 -0.40039,-0.0996 -0.1,0 -0.19883,-0.0996 -0.29883,-0.0996 -0.1,0 -0.20117,-0.10156 -0.20117,-0.10156 v -0.19922 c 0,-0.1 0.0996,-0.20078 0.0996,-0.30078 l 0.20117,-0.19922 c 0.1,0 0.19883,-0.0996 0.29883,-0.0996 h 0.30078 c 0.2,0 0.39961,-3.8e-4 0.59961,0.0996 0.2,0.1 0.4,0.20078 0.5,0.30078 l 0.20117,-0.30078 c -0.1,-0.1 -0.3,-0.20078 -0.5,-0.30078 -0.2,-0.1 -0.40117,-0.0996 -0.70117,-0.0996 z m 8.90039,0 c -0.4,0 -0.90078,0.10039 -1.30078,0.40039 l 0.20117,0.30078 0.59961,-0.30076 c 0.1,-0.1 0.3,-0.0996 0.5,-0.0996 0.3,0 0.49922,0.0988 0.69922,0.29883 0.2,0.2 0.30078,0.40117 0.30078,0.70117 v 0.29882 c -0.2,0 -0.4,-0.0996 -0.5,-0.0996 h -0.5 c -0.2,0 -0.39961,-3.8e-4 -0.59961,0.0996 -0.2,0 -0.4,0.10117 -0.5,0.20117 l -0.30078,0.29883 c -0.1,0.1 -0.0996,0.30039 -0.0996,0.40039 0,0.1 -3.8e-4,0.30039 0.0996,0.40039 0,0.1 0.10117,0.20078 0.20117,0.30078 0.1,0.1 0.29844,0.0992 0.39844,0.19922 0.2,0.1 0.3,0.0996 0.5,0.0996 0.3,0 0.60117,3.8e-4 0.70117,-0.0996 0.2,-0.1 0.39961,-0.3 0.59961,-0.5 v 0.30078 c 0,0.1 -3.8e-4,0.0992 0.0996,0.19922 0.1,0.1 0.20078,0.0996 0.30078,0.0996 h 0.19922 v -0.40038 c -0.1,0 -0.19922,-0.0992 -0.19922,-0.19922 v -1.5 c 0,-0.4 -0.20039,-0.8 -0.40039,-1 -0.2,-0.3 -0.6,-0.40039 -1,-0.40039 z m 11.40039,0 c -0.2,0 -0.3,0.0996 -0.5,0.0996 -0.1,0 -0.30039,0.10117 -0.40039,0.20117 l -0.30078,0.29886 c -0.1,0.2 -0.0996,0.3 -0.0996,0.5 0,0.1 0.0996,0.20078 0.0996,0.30078 0,0.1 0.10117,0.0992 0.20117,0.19922 0.1,0.1 0.30039,0.20117 0.40039,0.20117 0.1,0 0.3,0.0996 0.5,0.0996 0.2,0 0.4,0.0996 0.5,0.0996 0.1,0 0.19883,0.0996 0.29883,0.0996 0.1,0.1 0.20117,0.10117 0.20117,0.20117 0.1,0 0.0996,0.0992 0.0996,0.19922 0,0.2 -0.001,0.4 -0.20117,0.5 -0.2,0.1 -0.39922,0.20117 -0.69922,0.20117 -0.2,0 -0.39961,-0.002 -0.59961,-0.10156 -0.2,-0.1 -0.39961,-0.19844 -0.59961,-0.39844 l -0.20117,0.29883 c 0.2,0.2 0.40117,0.30039 0.70117,0.40039 0.3,0.1 0.49883,0.0996 0.79883,0.0996 0.4,0 0.40117,7.8e-4 0.70117,-0.19922 0.3,-0.2 0.39844,-0.50078 0.39844,-0.80078 0,-0.2 3.8e-4,-0.30039 -0.0996,-0.40039 l -0.29883,-0.29883 c -0.1,-0.1 -0.20039,-0.10117 -0.40039,-0.20117 -0.2,-0.1 -0.39961,-0.0992 -0.59961,-0.19922 -0.2,0 -0.30039,-0.0996 -0.40039,-0.0996 -0.1,0 -0.20078,-0.0996 -0.30078,-0.0996 -0.1,0 -0.19922,-0.10156 -0.19922,-0.10156 v -0.19922 c 0,-0.1 0.0996,-0.20078 0.0996,-0.30078 l 0.19922,-0.19922 c 0.1,0 0.20078,-0.0996 0.30078,-0.0996 h 0.30078 c 0.2,0 0.39961,-3.8e-4 0.59961,0.0996 0.2,0.1 0.4,0.20078 0.5,0.30078 l 0.19922,-0.30078 c -0.1,-0.1 -0.3,-0.20078 -0.5,-0.30078 -0.2,-0.1 -0.39922,-0.0996 -0.69922,-0.0996 z m -73.599611,0.0996 v 3.40039 h 0.398438 v -2.09961 c 0.1,-0.3 0.3,-0.49922 0.5,-0.69922 0.2,-0.2 0.500781,-0.30078 0.800781,-0.30078 v -0.30078 h -0.09961 c -0.3,0 -0.501172,0.10117 -0.701172,0.20117 -0.2,0.1 -0.4,0.29961 -0.5,0.59961 v -0.80078 z m 55.500001,0 v 3.40039 h 0.39844 v -3.40039 z m 3,0.10156 c 0.2,0 0.29844,-3.8e-4 0.39844,0.0996 0.1,0.1 0.20078,0.0992 0.30078,0.19922 l 0.30078,0.30078 c 0.1,0.1 0.19922,0.19883 0.19922,0.29883 v 1.10156 c 0,0.1 3.8e-4,0.19883 -0.0996,0.29883 -0.1,0.1 -0.10078,0.20078 -0.30078,0.30078 -0.2,0.1 -0.30039,0.19922 -0.40039,0.19922 -0.2,0.1 -0.29844,0.0996 -0.39844,0.0996 -0.2,0 -0.40039,0.002 -0.40039,-0.39844 -0.2,-0.1 -0.30039,-0.20078 -0.40039,-0.30078 -0.1,-0.1 -0.20078,-0.30039 -0.30078,-0.40039 -0.1,-0.1 -0.0996,-0.3 -0.0996,-0.5 0,-0.2 0.0996,-0.4 0.0996,-0.5 0,-0.1 0.10117,-0.30039 0.20117,-0.40039 0.1,-0.1 0.30039,-0.19883 0.40039,-0.29883 0.1,-0.1 0.3,-0.0996 0.5,-0.0996 z m 7.69922,0 c 0.2,0 0.30039,-3.8e-4 0.40039,0.0996 0.1,0.1 0.19883,0.0992 0.29883,0.19922 l 0.30078,0.30079 c 0.1,0.1 0.19922,0.19883 0.19922,0.29883 v 1.10156 c 0,0.1 3.8e-4,0.19883 -0.0996,0.29883 -0.1,0.1 -0.0988,0.20078 -0.29883,0.30078 -0.2,0.1 -0.30039,0.19922 -0.40039,0.19922 -0.2,0.1 -0.30039,0.0996 -0.40039,0.0996 -0.2,0 -0.40039,0.002 -0.40039,-0.39844 -0.2,-0.1 -0.30039,-0.20078 -0.40039,-0.30078 -0.1,-0.1 -0.19883,-0.30039 -0.29883,-0.40039 -0.1,-0.1 -0.0996,-0.3 -0.0996,-0.5 0,-0.2 0.0996,-0.4 0.0996,-0.5 0,-0.1 0.0992,-0.30039 0.19922,-0.40039 0.1,-0.1 0.30039,-0.19883 0.40039,-0.29883 0.1,-0.1 0.3,-0.0996 0.5,-0.0996 z m 143.4043,0.0664 -3.27149,0.39844 0.0606,0.49218 3.27148,-0.40039 z m -196.304693,0.0332 c 0.2,0 0.4,-3.8e-4 0.5,0.0996 0.2,0.1 0.300391,0.20078 0.400391,0.30078 0.1,0.1 0.200781,0.19844 0.300781,0.39844 0,0.1 0.09961,0.3 0.09961,0.5 h -2.59961 c 0,-0.2 -3.9e-4,-0.3 0.09961,-0.5 0.1,-0.2 0.198828,-0.29844 0.298828,-0.39844 0.1,-0.2 0.30039,-0.20078 0.40039,-0.30078 0.2,-0.1 0.3,-0.0996 0.5,-0.0996 z m 29.201172,0 c 0.2,0 0.4,-3.8e-4 0.5,0.0996 0.2,0.1 0.298438,0.20078 0.398438,0.30078 0.1,0.1 0.200781,0.19844 0.300781,0.39844 0,0.1 0.09961,0.3 0.09961,0.5 h -2.59961 c 0,-0.2 -3.92e-4,-0.3 0.09961,-0.5 0.1,-0.2 0.200782,-0.29844 0.300782,-0.39844 0.1,-0.2 0.30039,-0.20078 0.40039,-0.30078 0.2,-0.1 0.300001,-0.0996 0.499999,-0.0996 z m 7.398441,0 c 0.2,0 0.4,-3.8e-4 0.5,0.0996 0.2,0.1 0.30039,0.20078 0.40039,0.30078 0.1,0.1 0.20078,0.19844 0.30078,0.39844 0,0.1 0.0996,0.3 0.0996,0.5 h -2.59961 c 0,-0.2 -3.8e-4,-0.3 0.0996,-0.5 0.1,-0.2 0.20078,-0.29844 0.30078,-0.39844 0.1,-0.2 0.29844,-0.20078 0.39844,-0.30078 0.2,-0.1 0.3,-0.0996 0.5,-0.0996 z m 20.30078,0 c 0.2,0 0.4,-3.8e-4 0.5,0.0996 0.2,0.1 0.30039,0.20078 0.40039,0.30078 0.1,0.1 0.19883,0.19844 0.29883,0.39844 0,0.1 0.10156,0.3 0.10156,0.5 h -2.60156 c 0,-0.2 0.002,-0.3 0.10156,-0.5 0.1,-0.2 0.19883,-0.29844 0.29883,-0.39844 0.1,-0.2 0.30039,-0.20078 0.40039,-0.30078 0.2,-0.1 0.3,-0.0996 0.5,-0.0996 z m 140.85352,0.0469 -0.86133,0.45117 v 0.002 l -2.06836,1.04492 0.22265,0.44141 2.07227,-1.04883 h 0.002 l 0.002,-0.002 0.86132,-0.45117 z m -207.453131,0.15234 c 0.2,0 0.3,-3.8e-4 0.5,0.0996 0.2,0.1 0.30039,0.20078 0.40039,0.30078 0.1,0.1 0.198828,0.20039 0.298828,0.40039 0.1,0.1 0.09961,0.3 0.09961,0.5 0,0.2 3.9e-4,0.4 -0.09961,0.5 -0.1,0.1 -0.198828,0.30039 -0.298828,0.40039 -0.1,0.1 -0.20039,0.19883 -0.40039,0.29883 -0.2,0.1 -0.3,0.0996 -0.5,0.0996 -0.2,0 -0.3,3.8e-4 -0.5,-0.0996 -0.2,-0.1 -0.300391,-0.19883 -0.400391,-0.29883 -0.1,-0.1 -0.200781,-0.20039 -0.300781,-0.40039 -0.1,-0.1 -0.09961,-0.3 -0.09961,-0.5 0,-0.2 -3.9e-4,-0.4 0.09961,-0.5 0.1,-0.1 0.200781,-0.30039 0.300781,-0.40039 0.1,-0.1 0.300391,-0.20078 0.400391,-0.30078 0.2,-0.1 0.3,-0.0996 0.5,-0.0996 z m 196.187501,0.88281 -3.2793,0.32422 0.0488,0.49219 3.2793,-0.32422 z m -176.888673,0.41797 h 0.5 c 0.2,0 0.4,-3.8e-4 0.5,0.0996 v 0.69922 0.10156 l -0.09961,0.0996 c -0.1,0.1 -0.20039,0.19883 -0.40039,0.29883 -0.2,0.1 -0.39961,0.10156 -0.59961,0.10156 -0.1,0 -0.30039,0.1 -0.40039,0 -0.1,-0.1 -0.198828,-0.20117 -0.298828,-0.20117 -0.1,0 -0.201172,-0.0992 -0.201172,-0.19922 -0.1,-0.1 -0.09961,-0.20078 -0.09961,-0.30078 0,-0.2 0.100782,-0.4 0.300782,-0.5 0.2,-0.1 0.498828,-0.19922 0.798828,-0.19922 z m 39.201173,0 h 0.5 c 0.2,0 0.4,-3.8e-4 0.5,0.0996 v 0.69922 0.10156 l -0.0996,0.0996 c -0.1,0.1 -0.20039,0.19883 -0.40039,0.29883 -0.2,0.1 -0.39961,0.10156 -0.59961,0.10156 -0.1,0 -0.30039,0.1 -0.40039,0 -0.1,-0.1 -0.20078,-0.20117 -0.30078,-0.20117 -0.1,0 -0.19922,-0.0992 -0.19922,-0.19922 -0.1,-0.1 -0.0996,-0.20078 -0.0996,-0.30078 0,-0.2 0.0988,-0.4 0.29883,-0.5 0.2,-0.1 0.50078,-0.19922 0.80078,-0.19922 z m 127.8457,0.5 -0.45312,0.041 h -0.002 l -2.82618,0.21875 0.0371,0.49218 2.83008,-0.21874 h 0.002 l 0.45704,-0.0391 z m -92.13086,0.11133 -0.0371,0.49219 3.28516,0.25195 0.0371,-0.49414 z m 82.27735,0.61523 -1.32813,0.0899 h -0.002 l -1.95703,0.11133 0.0293,0.49414 1.95703,-0.11328 h 0.002 0.002 l 1.33008,-0.0879 z m -72.41992,0.084 -0.0312,0.49219 1.11328,0.0723 h 0.002 0.002 l 2.17579,0.11719 0.0254,-0.49414 -2.17188,-0.11524 h -0.004 z m 62.55468,0.46289 -1.86914,0.0898 h -0.004 l -1.41602,0.0488 0.0156,0.49414 1.41992,-0.0488 h 0.002 0.002 l 1.87305,-0.0898 z m -16.9414,0.006 -0.25391,2.8457 v 0.004 l -0.0449,0.42773 0.49023,0.0527 0.0469,-0.43164 v -0.002 -0.002 l 0.2539,-2.84961 z m -35.7461,0.0449 -0.0195,0.49414 3.29297,0.13477 0.0195,-0.49414 z m 42.81055,0.31445 -2.0293,0.0703 h -0.004 l -1.25586,0.0215 0.008,0.49414 1.25977,-0.0215 h 0.002 0.002 l 2.03516,-0.0703 z m -32.93359,0.0312 -0.0137,0.49414 3.29493,0.0918 0.0137,-0.49414 z m 23.05468,0.17383 -1.76367,0.0312 h -0.004 l -1.52344,0.002 v 0.49415 l 1.52734,-0.002 h 0.002 0.002 l 1.76758,-0.0312 z m -13.17382,0.0117 -0.008,0.49414 2.27344,0.0312 h 0.002 0.002 l 1.02148,-0.002 v -0.49414 l -1.01953,0.002 h -0.004 z m 64.92187,0.61133 -2.42187,1.17187 -0.004,0.002 -0.54102,0.25 0.20704,0.44726 0.54492,-0.25 0.002,-0.002 h 0.002 l 2.42774,-1.17578 z m -87.4707,2.83789 -0.47071,0.15234 0.84961,2.64844 0.002,0.006 0.14062,0.48047 0.47266,-0.13867 -0.14063,-0.48633 -0.002,-0.004 v -0.002 z m 78.51562,1.32812 -3.01562,1.32813 0.19922,0.45117 3.01562,-1.32812 z m -101.91992,0.0645 -0.40625,0.28125 1.23047,1.76758 0.004,0.004 v 0.002 l 0.62109,0.94336 0.41211,-0.27148 -0.625,-0.94922 -0.002,-0.002 -0.002,-0.004 z m 92.83789,3.82617 -0.62109,0.26172 -0.006,0.002 -2.42774,0.96094 0.18165,0.45898 2.43359,-0.96289 0.002,-0.002 h 0.002 l 0.62695,-0.26172 z m -31.93359,0.57812 -0.19727,1.59961 v 0.004 l -0.23242,1.66016 0.48828,0.0684 0.23438,-1.66407 v -0.002 -0.002 l 0.19726,-1.60352 z m 22.73242,3.01172 -2.65039,0.98828 -0.004,0.002 -0.43164,0.15039 0.16407,0.4668 0.43554,-0.15235 0.002,-0.002 h 0.002 l 2.65625,-0.99024 z m -57.47461,0.69727 -0.47852,0.125 0.14258,0.54492 0.002,0.006 0.62109,2.64844 0.48047,-0.11328 -0.6211,-2.6543 -0.002,-0.004 v -0.002 z m -20.82031,0.22461 -0.42774,0.24805 0.92969,1.5996 0.004,0.006 0.67969,1.25977 0.43554,-0.23633 -0.68359,-1.26367 -0.002,-0.004 -0.002,-0.004 z m 68.98633,2.375 -3.13086,1.02344 0.15234,0.4707 3.13281,-1.02344 z m -9.42188,2.97265 -1.3457,0.40625 v 0.002 l -1.81446,0.50586 0.13282,0.47461 1.82031,-0.50782 h 0.002 0.002 l 1.3457,-0.4082 z m -5.41601,0.49414 -0.0918,0.57227 v 0.006 l -0.46875,2.64453 h 0.50195 l 0.45313,-2.5625 0.002,-0.004 v -0.002 l 0.0918,-0.57617 z m -4.10157,2.13868 -3.19336,0.8125 0.0703,0.27148 h 0.87304 l 2.37305,-0.60547 z m -45.41992,0.77929 -0.44922,0.20703 0.0449,0.0977 h 0.54297 z"
   id="path4170"
   inkscape:connector-curvature="0" /></svg>