<?xml version="1.0" encoding="UTF-8" standalone="no"?>
<!-- Generator: Adobe Illustrator 19.0.0, SVG Export Plug-In . SVG Version: 6.00 Build 0)  -->

<svg
   xmlns:dc="http://purl.org/dc/elements/1.1/"
   xmlns:cc="http://creativecommons.org/ns#"
   xmlns:rdf="http://www.w3.org/1999/02/22-rdf-syntax-ns#"
   xmlns:svg="http://www.w3.org/2000/svg"
   xmlns="http://www.w3.org/2000/svg"
   xmlns:xlink="http://www.w3.org/1999/xlink"
   xmlns:sodipodi="http://sodipodi.sourceforge.net/DTD/sodipodi-0.dtd"
   xmlns:inkscape="http://www.inkscape.org/namespaces/inkscape"
   version="1.1"
   x="0px"
   y="0px"
   viewBox="0 0 300.97138 224.43118"
   xml:space="preserve"
   id="svg453"
   sodipodi:docname="G-FASE4.svg"
   width="300.97137"
   height="224.43118"
   inkscape:version="0.92.3 (2405546, 2018-03-11)"><metadata
   id="metadata459"><rdf:RDF><cc:Work
       rdf:about=""><dc:format>image/svg+xml</dc:format><dc:type
         rdf:resource="http://purl.org/dc/dcmitype/StillImage" /><dc:title></dc:title></cc:Work></rdf:RDF></metadata><defs
   id="defs457">
	
	
	
	
	
	
	
	
	
	
	
	
	
	
	
	
	
	
	
	
	
	
	
	
	
	
	
	
	
	
	
	
	
	
	
	
	
	
	
	
	
	
	
	
	
	
	
	
	
	
	
	
	
	
	
	
	
	
	
	
	

		<defs
   id="defs439">
			<path
   id="XMLID_141_"
   d="m 294.8,409.6 c -90.3,0 -163.5,-73.2 -163.5,-163.5 0,-90.3 73.2,-163.4 163.5,-163.4 90.3,0 163.5,73.2 163.5,163.5 0,90.3 -73.2,163.4 -163.5,163.4 z M 489,246.1 C 489,138.9 402,51.9 294.8,51.9 c -107.2,0 -194.2,86.9 -194.2,194.2 0,107.3 86.9,194.2 194.2,194.2 107.3,0 194.2,-86.9 194.2,-194.2 z"
   inkscape:connector-curvature="0" />
		</defs>
		<clipPath
   id="XMLID_60_">
			<use
   xlink:href="#XMLID_141_"
   style="overflow:visible"
   id="use441"
   x="0"
   y="0"
   width="100%"
   height="100%" />
		</clipPath>
		
		
		
		
	
		
	
		
		
		
		
		
		
	
		
		
		
		
		
		
		
		
		
		
	
		
		
		
		
		
		
		
		
		
		
		
		
		
		
		
		
	
		
		
		
		
		
		
		
		
		
		
		
		
		
		
		
		
		
		
	
		
	
		
		
		
		
		
		
		
		
		
		
	
		
	
		
	
		
		
		
		
		
		
		
	
		
		
		
		
		
		
		
		
		
	
		
	
		
		
		
		
		
		
		
		
		
		
		
		
		
		
		
		
		
		
		
		
		
		
		
		
		
		
		
		
		
		
		
		
	
		
		
		
		
		
		
		
		
		
		
	
		
		
		
		
		
		
		
		
		
		
	
		
		
		
		
		
		
		
		
		
		
		
		
		
		
		
		
		
		
	
		
		
		
		
		
		
		
		
		
		
	
		
		
		
		
		
		
		
		
		
		
	
		
		
		
		
		
		
		
		
		
		
		
		
		
		
		
		
		
		
		
		
		
		
		
	
		
		
		
		
		
		
		
		
		
		
		
	
		
		
		
		
		
		
		
		
		
		
		
		
		
	
		
		
		
		
		
		
		
		
		
		
		
	
		
		
		
		
		
		
		
		
		
		
		
		
	
		
		
		
		
		
		
		
		
		
		
		
		
		
		
		
		
		
		
	
		
		
		
		
		
		
		
		
		
		
		
		
		
		
		
		
		
		
		
		
		
		
		
		
		
		
		
		
		
		
		
		
		
		
		
	
		
		
		
		
		
		
		
		
		
		
	
			
			
			
			
			
			
			
			
			
			
			
			
			
			
			
			
			
			
			
			
			
			
		
			
			
			
			
			
			
			
			
			
			
			
			
			
		
			
			
			
			
			
			
			
			
			
			
			
			
			
			
			
			
			
			
			
			
			
		
			
			
			
			
			
			
			
			
			
			
		
			
			
		
			
			
		</defs><sodipodi:namedview
   pagecolor="#ffffff"
   bordercolor="#666666"
   borderopacity="1"
   objecttolerance="10"
   gridtolerance="10"
   guidetolerance="10"
   inkscape:pageopacity="0"
   inkscape:pageshadow="2"
   inkscape:window-width="1366"
   inkscape:window-height="705"
   id="namedview455"
   showgrid="false"
   fit-margin-top="0"
   fit-margin-left="0"
   fit-margin-right="0"
   fit-margin-bottom="0"
   inkscape:snap-bbox="true"
   inkscape:bbox-paths="true"
   inkscape:bbox-nodes="true"
   inkscape:snap-bbox-edge-midpoints="true"
   inkscape:snap-bbox-midpoints="true"
   inkscape:object-paths="true"
   inkscape:snap-intersection-paths="true"
   inkscape:snap-smooth-nodes="true"
   inkscape:snap-midpoints="true"
   inkscape:snap-object-midpoints="true"
   inkscape:snap-center="true"
   inkscape:snap-text-baseline="true"
   inkscape:snap-page="true"
   inkscape:zoom="1.0901288"
   inkscape:cx="122.60121"
   inkscape:cy="120.91292"
   inkscape:window-x="-8"
   inkscape:window-y="-8"
   inkscape:window-maximized="1"
   inkscape:current-layer="svg453"
   showguides="true"
   inkscape:guide-bbox="true"
   inkscape:snap-global="true"><sodipodi:guide
     position="300.97138,203.80083"
     orientation="1,0"
     id="guide3128"
     inkscape:locked="false" /><sodipodi:guide
     position="14.971377,4.7227318e-006"
     orientation="0,1"
     id="guide3130"
     inkscape:locked="false" /></sodipodi:namedview>
<style
   type="text/css"
   id="style2">
	.st0{fill:none;stroke:#4F4754;stroke-width:0.4943;stroke-miterlimit:10;stroke-dasharray:3.2954,6.5908;}
	.st1{fill:none;stroke:#FFFFFF;stroke-width:2.6363;stroke-miterlimit:10;}
	.st2{fill:#FFFFFF;}
	.st3{fill:none;stroke:#4F4754;stroke-width:1.3182;stroke-miterlimit:10;stroke-dasharray:6.5908,6.5908;}
	.st4{fill:none;stroke:#1D1D1B;stroke-width:3.2954;stroke-miterlimit:10;}
	.st5{fill:none;stroke:#FFFFFF;stroke-width:0.6591;stroke-miterlimit:10;}
	.st6{fill:none;stroke:#009540;stroke-width:6.590837e-002;}
	.st7{clip-path:url(#XMLID_60_);fill:#FFFFFF;}
	.st8{clip-path:url(#XMLID_60_);}
</style>
<path
   style="opacity:0.5;fill:#ffffff;fill-opacity:1;stroke:none;stroke-width:3.77952766;stroke-miterlimit:4;stroke-dasharray:none;stroke-opacity:1"
   d="m 258.77452,0 c 23.37706,0 45.23183,19.017644 42.19685,42.19685 l 0,182.23433 -300.97137,0 V 0 Z"
   id="rect4225"
   inkscape:connector-curvature="0"
   sodipodi:nodetypes="sscccs" /><g
   id="Capa_1"
   transform="translate(0.97137737,1.9311254)">
</g>
<g
   id="Capa_2"
   transform="translate(0.97137737,1.9311254)">
</g>

<g
   id="Modo_de_aislamiento"
   transform="translate(0.97137737,1.9311254)">
</g>
<path
   style="fill:#000000;stroke:#ffffff;stroke-width:2.63630009;stroke-miterlimit:10"
   inkscape:connector-curvature="0"
   d="M 242.27138,91.831128"
   class="st1"
   id="XMLID_253_" /><path
   style="fill:#000000;stroke:#1d1d1b;stroke-width:3.2953999;stroke-miterlimit:10"
   inkscape:connector-curvature="0"
   d="M 250.77138,120.23113"
   class="st4"
   id="XMLID_248_" /><path
   style="fill:#000000;stroke:#4f4754;stroke-width:1.31819999;stroke-miterlimit:10;stroke-dasharray:6.5908, 6.5908"
   inkscape:connector-curvature="0"
   d="M 27.071377,402.93113"
   class="st3"
   id="XMLID_217_" /><path
   style="fill:#000000;stroke:#4f4754;stroke-width:0.49430001;stroke-miterlimit:10;stroke-dasharray:3.2954, 6.5908"
   inkscape:connector-curvature="0"
   d="M 199.67138,113.63113"
   class="st0"
   id="XMLID_135_" /><path
   inkscape:connector-curvature="0"
   d="M 284.07138,412.63113"
   class="st6"
   id="XMLID_118_"
   style="fill:#000000" /><path
   inkscape:connector-curvature="0"
   style="color:#000000;font-style:normal;font-variant:normal;font-weight:normal;font-stretch:normal;font-size:medium;line-height:normal;font-family:sans-serif;font-variant-ligatures:normal;font-variant-position:normal;font-variant-caps:normal;font-variant-numeric:normal;font-variant-alternates:normal;font-feature-settings:normal;text-indent:0;text-align:start;text-decoration:none;text-decoration-line:none;text-decoration-style:solid;text-decoration-color:#000000;letter-spacing:normal;word-spacing:normal;text-transform:none;writing-mode:lr-tb;direction:ltr;text-orientation:mixed;dominant-baseline:auto;baseline-shift:baseline;text-anchor:start;white-space:normal;shape-padding:0;clip-rule:nonzero;display:inline;overflow:visible;visibility:visible;opacity:1;isolation:auto;mix-blend-mode:normal;color-interpolation:sRGB;color-interpolation-filters:linearRGB;solid-color:#000000;solid-opacity:1;vector-effect:none;fill:#000000;fill-opacity:1;fill-rule:nonzero;stroke:none;stroke-width:2.63630009;stroke-linecap:butt;stroke-linejoin:miter;stroke-miterlimit:10;stroke-dasharray:none;stroke-dashoffset:0;stroke-opacity:1;color-rendering:auto;image-rendering:auto;shape-rendering:auto;text-rendering:auto;enable-background:accumulate"
   d="m 36.30078,70.731023 v 4.09961 c 0,0.2 0.0992,0.4 0.19922,0.5 0.1,0.1 0.3,0.19921 0.5,0.19921 h 0.30078 c 0.1,0 0.19883,-0.0996 0.29883,-0.0996 l -0.0996,-0.40039 c -0.1,0.1 -0.0992,0.0996 -0.19922,0.0996 h -0.20117 c -0.1,0 -0.19883,4e-4 -0.29883,-0.0996 -0.1,-0.1 -0.10156,-0.19882 -0.10156,-0.29882 v -4 z m 10.19922,0 v 2.09961 c -0.1,-0.3 -0.3,-0.39961 -0.5,-0.59961 -0.3,-0.1 -0.50078,-0.20118 -0.80078,-0.20118 -0.2,0 -0.39961,-3.9e-4 -0.59961,0.0996 -0.2,0.1 -0.4,0.2004 -0.5,0.4004 l -0.29883,0.5996 c -0.1,0.2 -0.10156,0.50118 -0.10156,0.70118 0,0.3 0.002,0.49922 0.10156,0.69922 0,0.2 0.19883,0.3996 0.29883,0.5996 0.1,0.2 0.3,0.3004 0.5,0.4004 0.2,0.1 0.50117,0.0996 0.70117,0.0996 0.2,0 0.39961,-0.0992 0.59961,-0.19922 0.3,-0.1 0.49961,-0.3 0.59961,-0.5 v 0.30078 c 0,0 -3.7e-4,0.0992 0.0996,0.19922 0.1,0.1 0.20078,0.0996 0.30078,0.0996 h 0.19922 v -0.40039 c -0.1,0 -0.19922,-0.0992 -0.19922,-0.19922 v -4.19922 z m -25.40039,0.0996 v 4.59961 h 0.5 v -1.69922 H 23 l 1.09961,1.69922 h 0.5 L 23.5,73.629443 c 0.1,-0.1 0.30039,-0.0992 0.40039,-0.19921 l 0.29883,-0.30079 c 0.1,-0.1 0.10117,-0.19843 0.20117,-0.39843 0.1,-0.2 0.0996,-0.3 0.0996,-0.5 0,-0.1 3.7e-4,-0.3 -0.0996,-0.5 -0.1,-0.2 -0.20078,-0.4 -0.30078,-0.5 -0.1,-0.1 -0.20039,-0.20078 -0.40039,-0.30078 -0.2,-0.1 -0.39961,-0.0996 -0.59961,-0.0996 z m 17,0.0996 v 1.19921 h -0.5 v 0.4004 h 0.5 v 2.5 c 0,0.1 0.0996,0.20078 0.0996,0.30078 l 0.20117,0.19922 c 0,0 0.0992,0.0996 0.19922,0.0996 h 0.30078 0.29883 c 0.1,-0.1 0.10117,-0.0996 0.20117,-0.0996 0.1,-0.1 0.19922,-0.0996 0.19922,-0.0996 0,-0.1 0.0996,-0.0996 0.0996,-0.0996 l -0.29883,-0.30079 c 0,0 -0.10117,0.0996 -0.20117,0.0996 -0.1,0.1 -0.19883,0.10157 -0.29883,0.10157 -0.1,0 -0.20078,-0.002 -0.30078,-0.10157 0,-0.1 -0.0996,-0.19882 -0.0996,-0.29882 v -2.30079 h 0.80078 v -0.40039 h -0.80078 v -1.19921 z m -16.5,0.5 h 1.5 c 0.2,0 0.30039,0.0996 0.40039,0.0996 0.1,0 0.20078,0.10117 0.30078,0.20117 0.1,0.1 0.0992,0.19883 0.19922,0.29883 0.1,0.1 0.0996,0.30039 0.0996,0.40039 0,0.1 3.7e-4,0.30039 -0.0996,0.40039 -0.1,0.1 -0.0992,0.19883 -0.19922,0.29883 -0.1,0.1 -0.20078,0.10117 -0.30078,0.20117 -0.1,0.1 -0.30039,0.0996 -0.40039,0.0996 h -1.5 z m 5.09961,0.59961 c -0.3,0 -0.49922,-4e-4 -0.69922,0.0996 -0.2,0.1 -0.3,0.20039 -0.5,0.40039 -0.2,0.2 -0.30039,0.39961 -0.40039,0.59961 -0.1,0.2 -0.0996,0.50117 -0.0996,0.70117 0,0.3 -3.7e-4,0.49922 0.0996,0.69922 0.1,0.2 0.20039,0.39961 0.40039,0.59961 0.1,0.2 0.3,0.30039 0.5,0.40039 0.2,0.1 0.39922,0.0996 0.69922,0.0996 0.2,0 0.40156,-0.1 0.60156,0 0.1,-0.1 0.29844,-0.0992 0.39844,-0.19922 L 28,75.129423 c 0.1,-0.1 0.0992,-0.19883 0.19922,-0.29883 l -0.39844,-0.0996 c -0.1,0.1 -0.10117,0.19883 -0.20117,0.29883 -0.1,0.1 -0.19883,0.10117 -0.29883,0.20117 -0.1,0 -0.20078,0.0996 -0.30078,0.0996 h -0.30078 c -0.2,0 -0.4,3.9e-4 -0.5,-0.0996 -0.2,-0.1 -0.29844,-0.20078 -0.39844,-0.30078 -0.1,-0.1 -0.20078,-0.20039 -0.30078,-0.40039 0,-0.1 -0.0996,-0.3 -0.0996,-0.5 h 2.90039 v -0.0996 -0.0996 c 0,-0.3 -0.002,-0.50118 -0.10156,-0.70118 0,-0.3 -0.19883,-0.3996 -0.29883,-0.5996 -0.1,-0.2 -0.3,-0.3004 -0.5,-0.4004 -0.2,-0.1 -0.40117,-0.0996 -0.70117,-0.0996 z m 8.10156,0 v 2.20117 c 0,0.2 -0.10117,0.29843 -0.20117,0.39843 -0.1,0.1 -0.0988,0.20079 -0.29883,0.30079 -0.2,0.1 -0.30039,0.19921 -0.40039,0.19921 -0.1,0.1 -0.30039,0.10157 -0.40039,0.10157 -0.5,0 -0.80078,-0.40117 -0.80078,-1.20117 v -1.9004 h -0.39844 v 2 c 0,0.5 0.0988,0.90157 0.29883,1.10157 0.1,0.3 0.40078,0.39843 0.80078,0.39843 0.3,0 0.59883,-0.0988 0.79883,-0.29882 0.2,-0.1 0.50156,-0.29961 0.60156,-0.59961 v 0.39843 c 0,0.1 -3.7e-4,0.20079 0.0996,0.30079 0.1,0.1 0.19883,0.0996 0.29883,0.0996 h 0.10156 0.0996 v -0.40039 c -0.1,0 -0.20117,-0.0992 -0.20117,-0.19922 v -2.9004 z m 14.59961,0 c -0.3,0 -0.50117,-4e-4 -0.70117,0.0996 -0.2,0.1 -0.3,0.20039 -0.5,0.40039 -0.2,0.2 -0.29844,0.39961 -0.39844,0.59961 -0.1,0.2 -0.10156,0.50117 -0.10156,0.70117 0,0.3 0.002,0.49922 0.10156,0.69922 0.1,0.2 0.19844,0.39961 0.39844,0.59961 0.1,0.2 0.3,0.30039 0.5,0.40039 0.2,0.1 0.40117,0.0996 0.70117,0.0996 0.3,0 0.49922,-0.0996 0.69922,-0.0996 0.2,-0.1 0.3,-0.20039 0.5,-0.40039 0.2,-0.2 0.30039,-0.39961 0.40039,-0.59961 0.1,-0.2 0.0996,-0.49922 0.0996,-0.69922 0,-0.3 3.7e-4,-0.50117 -0.0996,-0.70117 -0.1,-0.2 -0.20039,-0.39961 -0.40039,-0.59961 -0.1,-0.2 -0.3,-0.30039 -0.5,-0.40039 -0.2,-0.1 -0.39922,-0.0996 -0.69922,-0.0996 z m -19.30078,0.0996 c -0.2,0 -0.4,0.10156 -0.5,0.10156 -0.1,0 -0.30039,0.0992 -0.40039,0.19922 -0.1,0.1 -0.19883,0.10078 -0.29883,0.30078 -0.1,0.2 -0.0996,0.3 -0.0996,0.5 0,0.1 0.0996,0.19883 0.0996,0.29883 0,0.1 0.0992,0.10117 0.19922,0.20117 0.1,0.1 0.30039,0.19922 0.40039,0.19922 0.1,0 0.3,0.0996 0.5,0.0996 0.2,0 0.4,0.0996 0.5,0.0996 0.1,0 0.20078,0.10156 0.30078,0.10156 0.1,0.1 0.19922,0.0992 0.19922,0.19922 0.1,0 0.0996,0.0992 0.0996,0.19922 0,0.2 7.8e-4,0.4 -0.19922,0.5 -0.2,0.1 -0.40117,0.20117 -0.70117,0.20117 -0.2,0 -0.39961,3.9e-4 -0.59961,-0.0996 -0.2,-0.1 -0.39961,-0.20039 -0.59961,-0.40039 l -0.19922,0.29883 c 0.2,0.2 0.39922,0.30039 0.69922,0.40039 0.3,0.1 0.50078,0.0996 0.80078,0.0996 0.4,0 0.69922,-0.0992 0.69922,-0.19922 0.3,-0.2 0.40039,-0.50078 0.40039,-0.80078 0,-0.2 3.7e-4,-0.29844 -0.0996,-0.39844 L 31,73.930193 c -0.1,-0.1 -0.20039,-0.0992 -0.40039,-0.19922 -0.2,-0.1 -0.39961,-0.10117 -0.59961,-0.20117 -0.2,0 -0.30039,-0.0996 -0.40039,-0.0996 -0.1,0 -0.19883,-0.0996 -0.29883,-0.0996 -0.1,0 -0.20117,3.9e-4 -0.20117,-0.0996 v -0.20118 c 0,-0.1 0.0996,-0.19882 0.0996,-0.29882 l 0.20117,-0.20118 c 0.1,0 0.19883,-0.0996 0.29883,-0.0996 h 0.30078 c 0.2,0 0.39961,-3.9e-4 0.59961,0.0996 0.2,0.1 0.4,0.20079 0.5,0.30079 l 0.20117,-0.30079 c -0.1,-0.1 -0.3,-0.19882 -0.5,-0.29882 -0.2,-0.1 -0.40117,-0.10157 -0.70117,-0.10157 z m 11.30078,0 c -0.4,0 -0.90078,0.10039 -1.30078,0.40039 l 0.20117,0.30078 0.59961,-0.30078 c 0.1,-0.1 0.3,-0.0996 0.5,-0.0996 0.3,0 0.49922,0.10078 0.69922,0.30078 0.2,0.2 0.30078,0.39922 0.30078,0.69922 v 0.30078 c -0.2,0 -0.3,-0.10157 -0.5,-0.10157 h -0.5 c -0.2,0 -0.39961,0.002 -0.59961,0.10157 -0.2,0 -0.4,0.0992 -0.5,0.19922 L 40,74.231003 c -0.1,0.1 -0.0996,0.29843 -0.0996,0.39843 0,0.1 -3.7e-4,0.3004 0.0996,0.4004 0,0.1 0.0992,0.20078 0.19922,0.30078 0.1,0.1 0.30039,0.0992 0.40039,0.19922 0.2,0.1 0.3,0.0996 0.5,0.0996 0.3,0 0.50117,-0.0992 0.70117,-0.19922 0.2,-0.1 0.39961,-0.3 0.59961,-0.5 v 0.30078 c 0,0.1 -3.7e-4,0.0992 0.0996,0.19922 0.1,0.1 0.20078,0.0996 0.30078,0.0996 h 0.19922 v -0.40039 c -0.1,0 -0.19922,-0.0992 -0.19922,-0.19922 v -1.4004 c 0,-0.4 -0.20039,-0.8 -0.40039,-1 -0.2,-0.3 -0.6,-0.40039 -1,-0.40039 z m 11.40039,0 c -0.2,0 -0.4,0.10156 -0.5,0.10156 -0.1,0 -0.30039,0.0992 -0.40039,0.19922 -0.1,0.1 -0.20078,0.10078 -0.30078,0.30078 -0.1,0.2 -0.0996,0.3 -0.0996,0.5 0,0.1 0.0996,0.19883 0.0996,0.29883 0,0.1 0.10117,0.10117 0.20117,0.20117 0.1,0.1 0.29844,0.19922 0.39844,0.19922 0.1,0 0.3,0.0996 0.5,0.0996 0.2,0 0.4,0.0996 0.5,0.0996 0.1,0 0.20078,0.10156 0.30078,0.10156 0.1,0.1 0.19922,0.0992 0.19922,0.19922 0.1,0 0.10156,0.0992 0.10156,0.19922 0,0.2 -0.001,0.4 -0.20117,0.5 -0.2,0.1 -0.39922,0.20117 -0.69922,0.20117 -0.2,0 -0.39961,3.9e-4 -0.59961,-0.0996 -0.2,-0.1 -0.40156,-0.20039 -0.60156,-0.40039 L 51.5,75.129423 c 0.2,0.2 0.39922,0.30039 0.69922,0.40039 0.3,0.1 0.50078,0.0996 0.80078,0.0996 0.4,0 0.69922,-0.0992 0.69922,-0.19922 0.3,-0.2 0.40039,-0.50078 0.40039,-0.80078 0,-0.2 3.7e-4,-0.29844 -0.0996,-0.39844 l -0.30078,-0.30078 c -0.1,-0.1 -0.19844,-0.0992 -0.39844,-0.19922 -0.2,-0.1 -0.40156,-0.10117 -0.60156,-0.20117 -0.2,0 -0.29844,-0.0996 -0.39844,-0.0996 -0.1,0 -0.20078,-0.0996 -0.30078,-0.0996 -0.1,0 -0.19922,3.9e-4 -0.19922,-0.0996 v -0.20118 c 0,-0.1 0.0996,-0.19882 0.0996,-0.29882 l 0.19922,-0.20118 c 0.1,0 0.20078,-0.0996 0.30078,-0.0996 h 0.29883 c 0.2,0 0.40156,-3.9e-4 0.60156,0.0996 0.2,0.1 0.4,0.20079 0.5,0.30079 L 54,72.529823 c -0.1,-0.1 -0.3,-0.19882 -0.5,-0.29882 -0.2,-0.1 -0.39922,-0.10157 -0.69922,-0.10157 z m -26.10156,0.20117 c 0.2,0 0.4,-3.9e-4 0.5,0.0996 0.2,0.1 0.30039,0.20078 0.40039,0.30078 0.1,0.1 0.30078,0.29844 0.30078,0.39844 0,0.1 0.0996,0.3 0.0996,0.5 h -2.59961 c 0,-0.2 -3.7e-4,-0.3 0.0996,-0.5 0.1,-0.2 0.20078,-0.19844 0.30078,-0.39844 0.1,-0.2 0.29844,-0.20078 0.39844,-0.30078 0.2,-0.1 0.3,-0.0996 0.5,-0.0996 z m 18.70117,0 c 0.2,0 0.30039,-3.9e-4 0.40039,0.0996 0.1,0.1 0.19883,0.0992 0.29883,0.19922 l 0.30078,0.30078 c 0.1,0.1 0.19922,0.20078 0.19922,0.30078 v 1.09961 c 0,0.1 3.7e-4,0.19883 -0.0996,0.29883 l -0.30078,0.30078 -0.39844,0.19922 c -0.2,0.1 -0.30039,0.10156 -0.40039,0.10156 -0.2,0 -0.40039,-0.10039 -0.40039,-0.40039 -0.1,-0.1 -0.30039,-0.20078 -0.40039,-0.30078 -0.1,-0.1 -0.19883,-0.20039 -0.29883,-0.40039 -0.1,-0.1 -0.10156,-0.3 -0.10156,-0.5 0,-0.2 0.002,-0.3 0.10156,-0.5 0,-0.1 0.0992,-0.29844 0.19922,-0.39844 0.1,-0.1 0.30039,-0.20078 0.40039,-0.30078 0.1,-0.1 0.3,-0.0996 0.5,-0.0996 z M 49.5,72.529823 c 0.2,0 0.3,-4e-4 0.5,0.0996 0.2,0.1 0.30039,0.20078 0.40039,0.30078 0.1,0.1 0.19883,0.20039 0.29883,0.40039 0.1,0.1 0.10156,0.3 0.10156,0.5 0,0.2 -0.002,0.3 -0.10156,0.5 -0.1,0.1 -0.19883,0.30039 -0.29883,0.40039 -0.1,0.1 -0.20039,0.19883 -0.40039,0.29883 -0.2,0.1 -0.3,0.0996 -0.5,0.0996 -0.2,0 -0.3,3.9e-4 -0.5,-0.0996 -0.2,-0.1 -0.30039,-0.19883 -0.40039,-0.29883 -0.1,-0.1 -0.19883,-0.20039 -0.29883,-0.40039 -0.1,-0.1 -0.10156,-0.3 -0.10156,-0.5 0,-0.2 0.002,-0.4 0.10156,-0.5 0.1,-0.1 0.19883,-0.30039 0.29883,-0.40039 0.1,-0.1 0.30039,-0.20078 0.40039,-0.30078 0.2,-0.1 0.3,-0.0996 0.5,-0.0996 z m -8.19922,1.30078 h 0.5 c 0.2,0 0.4,-3.9e-4 0.5,0.0996 v 0.69922 0.10156 l -0.10156,0.0996 c -0.1,0.1 -0.19844,0.19883 -0.39844,0.29883 -0.2,0.1 -0.40156,0.10156 -0.60156,0.10156 h -0.39844 c -0.1,-0.1 -0.20078,-0.20117 -0.30078,-0.20117 -0.1,0 -0.19922,-0.0992 -0.19922,-0.19922 -0.1,-0.1 -0.10156,-0.20078 -0.10156,-0.30078 0,-0.2 0.10078,-0.4 0.30078,-0.5 0.2,-0.1 0.50078,-0.19922 0.80078,-0.19922 z m -19.26757,5.37109 c -2.23261,0.11887 -4.24571,1.52891 -5.03321,3.62891 -0.0394,0.0985 -0.066,0.19783 -0.0996,0.29687 -0.1842,-0.0256 -0.3682,-0.052 -0.55273,-0.0762 -0.55062,-0.0721 -1.10259,-0.13649 -1.6543,-0.20312 -0.54078,-0.0653 -1.08124,-0.13334 -1.62304,-0.19336 -0.5669,-0.0628 -1.13516,-0.11684 -1.70313,-0.17383 -0.49872,-0.05 -0.99657,-0.10485 -1.49609,-0.15039 -0.52777,-0.0481 -1.05732,-0.0858 -1.58594,-0.12891 -0.5776,-0.0471 -1.15384,-0.0996 -1.73242,-0.14062 l -0.0547,-0.004 c -0.40109,-0.0283 -0.80354,-0.0488 -1.20508,-0.0742 -0.65406,-0.0414 -1.30769,-0.0855 -1.96289,-0.11914 -0.87685,-0.045 -1.75598,-0.0783 -2.63476,-0.10938 -0.19475,-0.007 -0.38915,-0.0172 -0.58399,-0.0234 -0.006,-1.8e-4 -0.0117,1.9e-4 -0.0176,0 -0.0312,-9.9e-4 -0.0626,-9.5e-4 -0.0937,-0.002 v 2.64649 c 0.30523,0.01 0.6111,0.014 0.91602,0.0254 0.0208,7.7e-4 0.0417,0.001 0.0625,0.002 0.0521,0.002 0.10413,0.006 0.15625,0.008 1.01186,0.0391 2.02204,0.0867 3.03125,0.14453 0.0136,7.8e-4 0.0274,0.001 0.041,0.002 0.0319,0.002 0.0638,0.004 0.0957,0.006 1.0278,0.0597 2.05334,0.12797 3.07812,0.20703 0.015,10e-4 0.03,0.003 0.0449,0.004 0.0417,0.003 0.0833,0.008 0.125,0.0117 1.01406,0.0793 2.02823,0.16751 3.03907,0.26562 0.0156,0.002 0.0313,0.002 0.0469,0.004 0.0359,0.004 0.0716,0.008 0.10742,0.0117 1.03197,0.10116 2.0615,0.21141 3.08985,0.33204 0.94081,0.11035 1.87897,0.23095 2.8164,0.35742 0.34626,2.46985 2.27791,4.58425 4.94922,4.87304 2.30553,0.27667 4.59556,-0.98722 5.72461,-3.0664 0.76847,0.15604 1.53701,0.31146 2.30274,0.47851 1.04048,0.227 2.07839,0.46393 3.11328,0.71094 1.0349,0.24701 2.06667,0.50461 3.0957,0.77149 1.02841,0.26672 2.0539,0.54364 3.07617,0.83007 h 0.002 c 10e-4,3.9e-4 0.003,0.002 0.004,0.002 1.02148,0.28626 2.03963,0.58093 3.05469,0.88672 1.00263,0.30205 2.00391,0.61262 3,0.9336 0.0137,0.004 0.0273,0.009 0.041,0.0137 0.0496,0.016 0.0989,0.0328 0.14843,0.0488 0.94605,0.30612 1.88825,0.62027 2.82813,0.94336 0.0136,0.005 0.0274,0.009 0.041,0.0137 0.0477,0.0164 0.0949,0.0343 0.14258,0.0508 0.94823,0.3272 1.89424,0.66345 2.83594,1.00781 0.006,0.002 0.0131,0.004 0.0195,0.006 0.0256,0.009 0.0506,0.0199 0.0762,0.0293 0.95317,0.34923 1.9034,0.70558 2.84961,1.07226 0.0163,0.006 0.0325,0.0132 0.0488,0.0195 0.0635,0.0246 0.12601,0.0515 0.18945,0.0762 0.909415,0.35407 1.816015,0.7139 2.718745,1.08399 0.0143,0.006 0.0287,0.0117 0.043,0.0176 0.0524,0.0215 0.10391,0.0449 0.15625,0.0664 0.91797,0.37775 1.83334,0.76204 2.74414,1.15625 0.009,0.004 0.0183,0.008 0.0274,0.0117 0.0489,0.0212 0.0976,0.0432 0.14648,0.0645 0.87397,0.37947 1.74424,0.76562 2.61133,1.16015 0.22668,0.10315 0.45153,0.21028 0.67773,0.31446 0.7665,0.35295 1.53203,0.709537 2.29297,1.074207 0.0168,0.008 0.034,0.0154 0.0508,0.0234 0.0811,0.0389 0.16113,0.0801 0.24219,0.11914 0.83862,0.40395 1.67422,0.81235 2.50586,1.23047 0.20915,0.10516 0.41629,0.21425 0.625,0.32031 0.71288,0.36223 1.42525,0.72702 2.13281,1.09961 0.26382,0.13894 0.52599,0.2815 0.78906,0.42188 0.70948,0.37854 1.41717,0.75958 2.1211,1.14843 -0.0229,0.0554 -0.057,0.10381 -0.0781,0.16016 -1.4,3.5 0.89961,7.40078 4.59961,7.80078 0.0313,0.004 0.0625,5.4e-4 0.0937,0.004 l -0.0332,0.89062 v 0.002 0.004 l -0.0273,1.48633 0.49414,0.01 0.0273,-1.48243 v -0.006 l 0.0332,-0.8789 c 1.74979,0.014 3.43562,-0.82563 4.54883,-2.20703 0.41646,0.26818 0.83424,0.53418 1.24805,0.80664 0.007,0.005 0.0144,0.009 0.0215,0.0137 0.038,0.025 0.0753,0.0511 0.11328,0.0762 0.8411,0.55502 1.67863,1.11682 2.50977,1.6875 0.006,0.004 0.0118,0.008 0.0176,0.0117 0.0485,0.0333 0.096,0.0682 0.14453,0.10156 0.7879,0.5424 1.57091,1.0901 2.34961,1.64649 0.26122,0.18665 0.51918,0.37819 0.77929,0.5664 0.602,0.43548 1.20451,0.87063 1.80079,1.31446 0.23516,0.17505 0.4663,0.3549 0.70117,0.53125 0.62123,0.46759 1.24256,0.93545 1.85742,1.41211 0.21679,0.16808 0.43049,0.34055 0.64648,0.50976 0.61581,0.48238 1.23066,0.9656 1.83985,1.45703 0.24366,0.19656 0.48399,0.3977 0.72656,0.59571 0.58891,0.48068 1.17723,0.96199 1.759765,1.45117 0.20254,0.17008 0.40176,0.34452 0.60351,0.51562 0.60316,0.5115 1.20662,1.02433 1.80274,1.54493 0.32713,0.28569 0.64963,0.5768 0.97461,0.86523 0.45632,0.40496 0.91319,0.80844 1.36523,1.21875 0.3279,0.29766 0.65093,0.60188 0.97656,0.90234 0.48667,0.44903 0.9755,0.89636 1.45703,1.35157 0.0181,0.0171 0.0366,0.0337 0.0547,0.0508 0.15414,0.14587 0.30539,0.29489 0.45899,0.4414 0.60064,0.57285 1.1986,1.14793 1.79101,1.73047 0.0187,0.0184 0.0379,0.0363 0.0566,0.0547 0.15249,0.1501 0.3012,0.30433 0.45313,0.45508 0.45376,0.45015 0.90399,0.90435 1.35351,1.35937 -0.32655,0.42388 -0.60531,0.88825 -0.79883,1.4043 -0.41883,1.04709 -0.50016,2.12822 -0.31836,3.14258 l -1.26953,0.29492 0.11133,0.48047 1.26953,-0.29297 c 0.0938,0.34778 0.21581,0.68566 0.3711,1.00781 l -0.48828,0.29688 0.25585,0.42187 0.46094,-0.28125 c 0.86319,1.45841 2.36057,2.53085 4.20703,2.73047 1.34258,0.16111 2.67685,-0.2095 3.78711,-0.94726 0.49235,0.57341 0.98422,1.14707 1.46875,1.72851 0.0125,0.0149 0.0247,0.03 0.0371,0.0449 0.16566,0.19895 0.32741,0.40174 0.49219,0.60157 0.50329,0.6103 1.00496,1.22135 1.5,1.83984 0.35916,0.44875 0.71165,0.90438 1.06641,1.35742 0.28274,0.36105 0.56969,0.71827 0.84961,1.08203 0.0145,0.0188 0.0285,0.0378 0.043,0.0566 0.42052,0.54697 0.83396,1.10124 1.24805,1.6543 0.24337,0.32503 0.48933,0.64748 0.73047,0.97461 0.29182,0.39591 0.57672,0.79832 0.86523,1.19726 0.36237,0.50107 0.72688,1.00001 1.08399,1.50586 0.009,0.0126 0.0185,0.0245 0.0273,0.0371 0.1781,0.25246 0.35057,0.51006 0.52735,0.76367 0.43027,0.61732 0.86277,1.23312 1.28515,1.85743 0.22904,0.33855 0.45104,0.68284 0.67774,1.02343 0.38689,0.58126 0.77624,1.16087 1.15625,1.74805 0.006,0.009 0.0117,0.0182 0.0176,0.0273 0.56652,0.87581 1.12477,1.75757 1.67578,2.64648 0.0112,0.0181 0.022,0.0365 0.0332,0.0547 0.34623,0.55904 0.68342,1.12527 1.02344,1.68945 0.2186,0.3627 0.44219,0.72113 0.6582,1.08594 0.01,0.0168 0.0193,0.0339 0.0293,0.0508 0.33046,0.55857 0.65221,1.124 0.97656,1.6875 0.21807,0.37886 0.44096,0.75371 0.65625,1.13476 0.0195,0.0346 0.0391,0.0689 0.0586,0.10352 0.0813,0.14418 0.1593,0.29105 0.24024,0.43555 -0.7072,0.59887 -1.27819,1.359 -1.61524,2.25781 -0.4095,1.02377 -0.49415,2.07953 -0.32812,3.07423 l -2.05664,0.48437 h -0.004 l -0.79492,0.17188 0.10547,0.48437 0.79883,-0.17382 h 0.002 l 0.002,-0.002 2.04883,-0.48242 c 0.0241,0.094 0.0455,0.18884 0.0742,0.28125 l -1.82813,0.68359 h -0.002 l -0.002,0.002 -1.06836,0.42187 0.18164,0.46094 1.06445,-0.42188 0.004,-0.002 1.82226,-0.68164 c 0.74938,1.84024 2.42266,3.26677 4.58008,3.5 0.71617,0.0859 1.42848,0.0105 2.10938,-0.17773 0.0877,0.18675 0.17797,0.37185 0.26562,0.55859 0.14707,0.31335 0.30009,0.62285 0.44531,0.9375 0.007,0.0156 0.0143,0.0312 0.0215,0.0469 0.46363,1.00513 0.91635,2.0169 1.36133,3.03515 0.34218,0.783 0.67486,1.5726 1.00586,2.36328 0.10613,0.25351 0.21729,0.50353 0.32226,0.75781 0.003,0.007 0.005,0.013 0.008,0.0195 0.86025,2.08466 1.67971,4.19514 2.46093,6.33203 0.002,0.005 0.006,0.009 0.008,0.0137 0.18539,0.50723 0.36012,1.02107 0.54102,1.53125 a 16.858299,16.858299 0 0 0 -5.85156,12.74219 16.858299,16.858299 0 0 0 13.26953,16.46093 c 0.11272,0.63006 0.23578,1.24259 0.3418,1.87891 h 2.90039 c -0.074,-0.51078 -0.15856,-1.00781 -0.23828,-1.51172 a 16.858299,16.858299 0 0 0 0.58593,0.0293 16.858299,16.858299 0 0 0 16.85743,-16.85742 16.858299,16.858299 0 0 0 -16.85743,-16.85938 16.858299,16.858299 0 0 0 -8.78711,2.48828 c -0.0904,-0.25117 -0.1761,-0.50534 -0.26757,-0.75586 -0.26173,-0.71679 -0.53415,-1.42761 -0.80469,-2.13867 -0.13469,-0.35392 -0.26354,-0.71196 -0.40039,-1.06445 -0.004,-0.0112 -0.009,-0.022 -0.0137,-0.0332 -0.14833,-0.38183 -0.30421,-0.75853 -0.45508,-1.13868 -0.28122,-0.70859 -0.56158,-1.41837 -0.85156,-2.12109 -0.003,-0.006 -0.005,-0.013 -0.008,-0.0195 -0.0706,-0.17102 -0.14567,-0.3391 -0.21679,-0.50977 -0.35723,-0.85735 -0.71778,-1.71206 -1.08789,-2.56054 -0.1771,-0.40594 -0.361,-0.80705 -0.54102,-1.21094 -0.2882,-0.64658 -0.5735,-1.29424 -0.86914,-1.93555 -0.14709,-0.31906 -0.30031,-0.63342 -0.44922,-0.95117 -0.12268,-0.26176 -0.24794,-0.52169 -0.37109,-0.7832 0.66438,-0.58434 1.21202,-1.31551 1.5664,-2.16602 1.4,-3.5 -0.89961,-7.40079 -4.59961,-7.80079 -0.325,-0.0375 -0.64784,-0.0463 -0.96679,-0.0293 -0.36573,0.0195 -0.72079,0.0857 -1.07032,0.17188 -0.0875,-0.15799 -0.17315,-0.31741 -0.26171,-0.47461 -0.212,-0.37616 -0.42988,-0.74705 -0.64454,-1.1211 -0.33328,-0.58072 -0.66423,-1.16268 -1.0039,-1.73828 -0.28601,-0.48466 -0.57864,-0.9643 -0.86914,-1.44531 -0.27321,-0.45239 -0.54512,-0.90633 -0.82227,-1.35547 -0.29592,-0.47955 -0.59806,-0.95385 -0.89844,-1.42968 -0.31134,-0.49319 -0.62141,-0.98739 -0.9375,-1.47657 -0.25267,-0.39102 -0.50995,-0.77757 -0.76562,-1.16601 -0.34025,-0.51693 -0.68047,-1.03455 -1.02539,-1.54688 -0.29564,-0.43836 -0.59702,-0.87166 -0.89649,-1.30664 -0.33152,-0.48153 -0.66186,-0.96404 -0.99804,-1.4414 -0.31699,-0.45014 -0.63984,-0.89539 -0.96094,-1.3418 -0.30909,-0.42972 -0.61683,-0.86086 -0.92969,-1.28711 -0.33914,-0.46206 -0.68384,-0.91898 -1.02734,-1.37695 -0.32532,-0.43369 -0.64931,-0.86883 -0.97852,-1.29883 -0.33509,-0.43768 -0.67458,-0.87085 -1.01367,-1.30469 -0.32334,-0.41368 -0.64572,-0.8281 -0.97266,-1.23828 -0.34736,-0.4358 -0.69938,-0.86701 -1.05078,-1.29883 -0.36784,-0.45203 -0.7352,-0.90391 -1.10742,-1.35156 -0.30419,-0.36583 -0.61284,-0.72694 -0.91992,-1.08985 -0.2864,-0.33843 -0.57323,-0.67675 -0.86133,-1.01367 0.14092,-0.23685 0.27492,-0.47935 0.38281,-0.73828 1.4,-3.5 -0.89961,-7.40078 -4.59961,-7.80078 -1.10439,-0.12743 -2.18336,0.0859 -3.13671,0.53906 -0.22204,-0.22519 -0.4432,-0.45133 -0.66602,-0.67578 -0.3994,-0.40232 -0.79986,-0.80326 -1.20313,-1.20117 -0.36322,-0.35844 -0.72941,-0.71351 -1.0957,-1.06836 -0.40434,-0.39172 -0.80874,-0.7826 -1.2168,-1.16992 -0.37801,-0.35884 -0.75945,-0.71331 -1.14062,-1.06836 -0.41412,-0.38574 -0.8283,-0.77111 -1.24609,-1.15234 -0.37156,-0.33908 -0.7447,-0.67621 -1.11914,-1.01172 -0.43896,-0.39333 -0.87941,-0.78543 -1.32227,-1.17383 -0.3679,-0.32266 -0.7388,-0.6417 -1.10938,-0.96094 -0.45668,-0.39345 -0.91431,-0.78559 -1.375,-1.17383 -0.35536,-0.29946 -0.7126,-0.59621 -1.07031,-0.89258 -0.44828,-0.3714 -0.89768,-0.74092 -1.349605,-1.10742 -0.43575,-0.35337 -0.87339,-0.70393 -1.3125,-1.05273 -0.38304,-0.30426 -0.76678,-0.60744 -1.15234,-0.90821 -0.46425,-0.36212 -0.93058,-0.72107 -1.39844,-1.07812 -0.40502,-0.30909 -0.81105,-0.6166 -1.21875,-0.92188 -0.42632,-0.31918 -0.85399,-0.63617 -1.2832,-0.95117 -0.44585,-0.3272 -0.89287,-0.65196 -1.3418,-0.97461 -0.433,-0.31119 -0.86689,-0.6208 -1.30273,-0.92773 -0.42942,-0.30242 -0.86084,-0.60213 -1.29297,-0.90039 -0.46008,-0.31755 -0.92166,-0.63249 -1.38477,-0.94531 -0.44265,-0.299 -0.88664,-0.59596 -1.33203,-0.89063 -0.42912,-0.2839 -0.85938,-0.56584 -1.29101,-0.8457 -0.1843,-0.1195 -0.36998,-0.2367 -0.55469,-0.35547 0.67323,-3.21609 -1.52385,-6.46674 -4.88477,-6.83008 -1.60926,-0.18569 -3.1785,0.32084 -4.35547,1.30078 -0.42559,-0.23645 -0.85164,-0.47249 -1.27929,-0.70508 -0.50939,-0.27704 -1.02099,-0.55055 -1.53321,-0.82226 -0.42117,-0.22342 -0.84258,-0.44622 -1.26562,-0.66602 -0.53329,-0.27707 -1.06925,-0.548997 -1.60547,-0.820307 -0.44485,-0.22507 -0.8891,-0.45078 -1.33594,-0.67187 -0.46396,-0.22956 -0.93041,-0.45445 -1.39648,-0.67969 -0.51148,-0.24718 -1.02313,-0.49436 -1.53711,-0.73633 -0.47067,-0.22157 -0.94329,-0.43906 -1.41602,-0.65625 -0.49724,-0.22844 -0.99465,-0.45612 -1.49414,-0.67968 -0.47066,-0.21067 -0.94338,-0.41673 -1.41601,-0.62305 -0.51693,-0.22566 -1.0335,-0.45144 -1.55274,-0.67188 -0.43821,-0.18603 -0.87854,-0.36652 -1.31836,-0.54882 -0.57396,-0.23791 -1.14795,-0.47551 -1.72461,-0.70704 -0.40796,-0.16379 -0.81727,-0.32378 -1.22656,-0.48437 -0.5656,-0.22193 -1.13112,-0.44437 -1.699215,-0.66016 -0.46948,-0.17832 -0.94095,-0.35127 -1.41211,-0.52539 -0.53897,-0.19918 -1.07803,-0.39814 -1.61914,-0.59179 -0.50769,-0.18169 -1.01781,-0.35641 -1.52734,-0.53321 -0.47949,-0.16637 -0.95836,-0.33406 -1.43945,-0.49609 -0.52861,-0.17804 -1.05933,-0.35066 -1.58985,-0.52344 -0.50827,-0.16553 -1.01541,-0.33346 -1.52539,-0.49414 -0.51569,-0.16248 -1.03339,-0.31905 -1.55078,-0.47656 -0.50406,-0.15345 -1.00803,-0.30832 -1.51367,-0.45703 -0.5481,-0.16119 -1.09852,-0.3151 -1.64844,-0.47071 -0.48212,-0.13642 -0.96376,-0.27413 -1.44726,-0.40625 -0.54672,-0.14938 -1.0961,-0.29168 -1.64454,-0.43554 -0.50065,-0.13133 -0.9999,-0.26588 -1.50195,-0.39258 -0.48727,-0.12297 -0.97629,-0.23882 -1.46484,-0.35742 -0.58226,-0.14135 -1.16401,-0.2848 -1.74805,-0.41992 -0.42353,-0.098 -0.849,-0.18851 -1.27344,-0.28321 -0.61598,-0.13743 -1.23176,-0.27577 -1.84961,-0.40625 -0.35867,-0.0757 -0.71856,-0.14653 -1.07812,-0.21875 0.0578,-2.84058 -2.01595,-5.45564 -5.00977,-5.77929 -0.325,-0.0375 -0.64784,-0.0463 -0.96679,-0.0293 z m -4.75196,14.28125 -0.93945,1.51562 h -0.002 l -0.82813,1.25586 0.41211,0.27344 0.83008,-1.25781 0.002,-0.002 0.002,-0.004 0.94336,-1.51953 z m 7.86914,1.10156 -0.44921,0.20508 0.24023,0.52734 0.004,0.006 0.002,0.006 0.77734,1.48047 0.004,0.006 0.006,0.006 0.53711,0.89649 0.42383,-0.25391 -0.53711,-0.89648 h -0.004 l -0.76367,-1.45704 -0.002,-0.004 -0.004,-0.008 z m -13.38867,7.072257 -1.9707,2.64063 0.39648,0.29687 1.97071,-2.64258 z m 18.91992,0.94922 -0.34179,0.35742 1.34765,1.28321 0.006,0.006 0.01,0.006 1.11328,0.9082 0.3125,-0.38281 -1.09961,-0.89649 -0.006,-0.004 -0.01,-0.008 z m 75.41796,1.125 v 0.69922 h 0.40039 v -0.69922 z m -16.999995,0.0996 v 4.69922 h 0.5 v -4.69922 z m 1.5,0.0996 v 1.19922 h -0.5 v 0.40039 h 0.5 v 2.5 c 0,0.1 0.0996,0.20078 0.0996,0.30078 l 0.20117,0.19922 c 0,0 0.0992,0.0996 0.19922,0.0996 h 0.30078 0.29883 c 0.1,-0.1 0.10117,-0.0996 0.20117,-0.0996 0.1,-0.1 0.19922,-0.0996 0.19922,-0.0996 0,-0.1 0.0996,-0.0996 0.0996,-0.0996 l -0.29883,-0.30078 c 0,0 -0.10117,0.0996 -0.20117,0.0996 -0.1,0.1 -0.19883,0.10156 -0.29883,0.10156 -0.1,0 -0.20078,-0.002 -0.30078,-0.10156 0,-0.1 -0.0996,-0.19883 -0.0996,-0.29883 v -2.30078 h 0.80078 v -0.40039 h -0.80078 v -1.19922 z m 3.59961,1.09961 c -0.3,0 -0.49922,-3.7e-4 -0.69922,0.0996 -0.2,0.1 -0.3,0.20039 -0.5,0.40039 -0.2,0.2 -0.30039,0.39961 -0.40039,0.59961 -0.1,0.2 -0.0996,0.50117 -0.0996,0.70117 0,0.3 -3.7e-4,0.49922 0.0996,0.69922 0.1,0.2 0.20039,0.39961 0.40039,0.59961 0.1,0.2 0.3,0.30039 0.5,0.40039 0.2,0.1 0.39922,0.0996 0.69922,0.0996 h 0.70117 c 0.1,-0.1 0.30039,-0.0992 0.40039,-0.19922 l 0.29883,-0.30078 c 0.1,-0.1 0.10117,-0.19883 0.20117,-0.29883 l -0.40039,-0.0996 c -0.1,0.1 -0.10117,0.19883 -0.20117,0.29883 -0.1,0.1 -0.19883,0.10117 -0.29883,0.20117 -0.1,0 -0.20078,0.0996 -0.30078,0.0996 h -0.29883 c -0.2,0 -0.4,3.7e-4 -0.5,-0.0996 -0.2,-0.1 -0.30039,-0.20078 -0.40039,-0.30078 -0.1,-0.1 -0.20078,-0.20039 -0.30078,-0.40039 0,-0.1 -0.0996,-0.3 -0.0996,-0.5 h 2.80078 v -0.0996 -0.0996 c 0,-0.3 -0.002,-0.50117 -0.10156,-0.70117 0,-0.3 -0.19883,-0.39961 -0.29883,-0.59961 -0.1,-0.2 -0.3,-0.30039 -0.5,-0.40039 -0.2,-0.1 -0.40117,-0.0996 -0.70117,-0.0996 z m 9.701165,0 c -0.3,0 -0.50117,-3.7e-4 -0.70117,0.0996 -0.2,0.1 -0.3,0.20039 -0.5,0.40039 -0.2,0.2 -0.29844,0.39961 -0.39844,0.59961 -0.1,0.2 -0.10156,0.50117 -0.10156,0.70117 0,0.2 -0.19963,0.39961 -0.0996,0.59961 0.1,0.2 0.20039,0.39961 0.40039,0.59961 0.1,0.2 0.3,0.30039 0.5,0.40039 0.2,0.1 0.39922,0.0996 0.69922,0.0996 0.2,0 0.3,-0.0996 0.5,-0.0996 0.1,-0.1 0.30039,-0.0992 0.40039,-0.19922 l 0.30078,-0.30078 c 0.1,-0.1 0.19922,-0.20078 0.19922,-0.30078 l -0.40039,-0.0996 c 0,0.1 3.7e-4,0.10117 -0.0996,0.20117 0,0.1 -0.0992,0.0992 -0.19922,0.19922 -0.1,0 -0.20078,0.0996 -0.30078,0.0996 h -0.29883 c -0.2,0 -0.3,3.7e-4 -0.5,-0.0996 -0.2,-0.1 -0.30039,-0.20078 -0.40039,-0.30078 -0.1,-0.1 -0.20078,-0.19844 -0.30078,-0.39844 -0.1,-0.1 -0.0996,-0.3 -0.0996,-0.5 0,-0.2 -3.7e-4,-0.3 0.0996,-0.5 0.1,-0.1 0.20078,-0.30039 0.30078,-0.40039 0.1,-0.1 0.20039,-0.20078 0.40039,-0.30078 0.2,-0.1 0.3,-0.0996 0.5,-0.0996 0.2,0 0.39961,-3.7e-4 0.59961,0.0996 0.2,0.1 0.30039,0.20039 0.40039,0.40039 l 0.39844,-0.0996 c -0.1,-0.3 -0.3,-0.49961 -0.5,-0.59961 -0.2,-0.1 -0.49883,-0.20117 -0.79883,-0.20117 z m 5.09961,0 c -0.3,0 -0.49922,-3.7e-4 -0.69922,0.0996 -0.2,0.1 -0.3,0.20039 -0.5,0.40039 -0.2,0.2 -0.30039,0.39961 -0.40039,0.59961 -0.1,0.2 -0.0996,0.50117 -0.0996,0.70117 0,0.3 -3.7e-4,0.49922 0.0996,0.69922 0.1,0.2 0.20039,0.39961 0.40039,0.59961 0.1,0.2 0.3,0.30039 0.5,0.40039 0.2,0.1 0.39922,0.0996 0.69922,0.0996 0.2,0 0.39922,-0.0996 0.69922,-0.0996 0.2,-0.1 0.3,-0.20039 0.5,-0.40039 0.2,-0.2 0.30039,-0.39961 0.40039,-0.59961 0.1,-0.2 0.0996,-0.49922 0.0996,-0.69922 0,-0.3 3.7e-4,-0.50117 -0.0996,-0.70117 -0.1,-0.2 -0.20039,-0.39961 -0.40039,-0.59961 -0.1,-0.2 -0.3,-0.30039 -0.5,-0.40039 -0.2,-0.1 -0.39922,-0.0996 -0.69922,-0.0996 z m 7.80078,0 c -0.3,0 -0.50117,-3.7e-4 -0.70117,0.0996 -0.2,0.1 -0.3,0.20039 -0.5,0.40039 -0.2,0.2 -0.30039,0.39961 -0.40039,0.59961 -0.1,0.2 -0.0996,0.50117 -0.0996,0.70117 0,0.3 -3.7e-4,0.49922 0.0996,0.69922 0.1,0.2 0.20039,0.39961 0.40039,0.59961 0.1,0.2 0.3,0.30039 0.5,0.40039 0.2,0.1 0.40117,0.0996 0.70117,0.0996 h 0.59961 c 0.1,-0.1 0.30039,-0.0992 0.40039,-0.19922 l 0.29883,-0.30078 c 0.1,-0.1 0.10117,-0.19883 0.20117,-0.29883 l -0.40039,-0.0996 c -0.1,0.1 -0.10117,0.19883 -0.20117,0.29883 -0.1,0.1 -0.19883,0.10117 -0.29883,0.20117 -0.1,0 -0.20078,0.0996 -0.30078,0.0996 h -0.29883 c -0.2,0 -0.4,3.7e-4 -0.5,-0.0996 -0.2,-0.1 -0.30039,-0.20078 -0.40039,-0.30078 -0.1,-0.1 -0.20078,-0.20039 -0.30078,-0.40039 0,-0.1 -0.0996,-0.3 -0.0996,-0.5 h 2.90039 v -0.0996 -0.0996 c 0,-0.3 3.7e-4,-0.50117 -0.0996,-0.70117 0,-0.3 -0.20078,-0.39961 -0.30078,-0.59961 -0.1,-0.2 -0.3,-0.30039 -0.5,-0.40039 -0.2,-0.1 -0.39922,-0.0996 -0.69922,-0.0996 z m -16.800775,0.0996 c -0.4,0 -0.90078,0.10039 -1.30078,0.40039 l 0.20117,0.30078 0.59961,-0.30078 c 0.1,-0.1 0.3,-0.0996 0.5,-0.0996 0.299995,0 0.499215,0.10078 0.699215,0.30078 0.2,0.2 0.30078,0.39922 0.30078,0.69922 v 0.30078 c -0.2,0 -0.3,-0.10156 -0.5,-0.10156 h -0.499995 c -0.2,0 -0.39961,0.002 -0.59961,0.10156 -0.2,0 -0.4,0.0992 -0.5,0.19922 l -0.30078,0.30078 c -0.1,0.1 -0.0996,0.29844 -0.0996,0.39844 0,0.1 -3.7e-4,0.30039 0.0996,0.40039 0,0.1 0.10117,0.20078 0.20117,0.30078 0.1,0.1 0.29844,0.0992 0.39844,0.19922 0.2,0.1 0.3,0.0996 0.5,0.0996 0.3,0 0.601165,-0.0996 0.701165,-0.0996 0.2,-0.1 0.39961,-0.3 0.59961,-0.5 v 0.30078 c 0,0.1 -3.7e-4,0.0992 0.0996,0.19922 0.1,0.1 0.20078,0.0996 0.30078,0.0996 h 0.19922 v -0.39844 c -0.1,0 -0.19922,-0.10117 -0.19922,-0.20117 v -1.5 c 0,-0.4 -0.20039,-0.8 -0.40039,-1 -0.2,-0.3 -0.6,-0.40039 -0.999995,-0.40039 z m 6.099605,0 v 3.40039 h 0.40039 v -3.40039 z m 5.30078,0 v 3.40039 h 0.40039 v -2.09961 c 0,-0.1 0.0992,-0.30039 0.19922,-0.40039 l 0.30078,-0.29883 c 0.1,-0.1 0.29844,-0.20117 0.39844,-0.20117 0.1,-0.1 0.30039,-0.0996 0.40039,-0.0996 0.3,0 0.49961,0.10078 0.59961,0.30078 0.1,0.2 0.20117,0.49844 0.20117,0.89844 v 1.90039 h 0.40039 0.0996 v -1.90039 c 0,-0.2 3.7e-4,-0.39961 -0.0996,-0.59961 -0.1,-0.2 -0.10117,-0.4 -0.20117,-0.5 -0.1,-0.1 -0.0988,-0.19883 -0.29883,-0.29883 -0.2,-0.1 -0.3,-0.10156 -0.5,-0.10156 -0.4,0 -0.60039,10e-4 -0.90039,0.20117 -0.3,0.1 -0.49961,0.29961 -0.59961,0.59961 v -0.80078 z m 8.69922,0 c -0.2,0 -0.4,0.10156 -0.5,0.10156 -0.1,0 -0.30039,0.0992 -0.40039,0.19922 -0.1,0.1 -0.19883,0.10078 -0.29883,0.30078 -0.1,0.2 -0.0996,0.3 -0.0996,0.5 0,0.1 0.0996,0.19883 0.0996,0.29883 0,0.1 0.0992,0.10117 0.19922,0.20117 0.1,0.1 0.30039,0.19922 0.40039,0.19922 0.1,0 0.3,0.0996 0.5,0.0996 0.2,0 0.4,0.0996 0.5,0.0996 0.1,0 0.20078,0.10156 0.30078,0.10156 0.1,0.1 0.19922,0.0992 0.19922,0.19922 0.1,0 0.0996,0.0992 0.0996,0.19922 0,0.2 7.8e-4,0.4 -0.19922,0.5 -0.2,0.1 -0.40117,0.20117 -0.70117,0.20117 -0.2,0 -0.39961,3.7e-4 -0.59961,-0.0996 -0.2,-0.1 -0.39961,-0.20039 -0.59961,-0.40039 l -0.19922,0.29883 c 0.2,0.2 0.39922,0.30039 0.69922,0.40039 0.3,0.1 0.50078,0.0996 0.80078,0.0996 0.4,0 0.69922,-0.0992 0.69922,-0.19922 0.3,-0.2 0.40039,-0.50078 0.40039,-0.80078 0,-0.2 3.7e-4,-0.29844 -0.0996,-0.39844 l -0.30078,-0.30078 c -0.1,-0.1 -0.20039,-0.0992 -0.40039,-0.19922 -0.2,-0.1 -0.39961,-0.10117 -0.59961,-0.20117 -0.2,0 -0.30039,-0.0996 -0.40039,-0.0996 -0.1,0 -0.19883,-0.0996 -0.29883,-0.0996 -0.1,0 -0.20117,3.7e-4 -0.20117,-0.0996 v -0.20117 c 0,-0.1 0.0996,-0.19883 0.0996,-0.29883 l 0.20117,-0.20117 c 0.1,0 0.19883,-0.0996 0.29883,-0.0996 h 0.30078 c 0.2,0 0.39961,-3.7e-4 0.59961,0.0996 0.2,0.1 0.4,0.20078 0.5,0.30078 l 0.20117,-0.30078 c -0.1,-0.1 -0.3,-0.19883 -0.5,-0.29883 -0.2,-0.1 -0.40117,-0.10156 -0.70117,-0.10156 z m -23.499995,0.10156 v 3.39844 h 0.40039 v -2.09961 c 0.1,-0.3 0.3,-0.49922 0.5,-0.69922 0.2,-0.2 0.50078,-0.30078 0.80078,-0.30078 v -0.29883 h -0.10156 c -0.3,0 -0.49922,0.0992 -0.69922,0.19922 -0.2,0.1 -0.4,0.29961 -0.5,0.59961 v -0.79883 z m -2.40039,0.0996 c 0.2,0 0.4,-3.7e-4 0.5,0.0996 0.2,0.1 0.30039,0.20078 0.40039,0.30078 0.1,0.1 0.30078,0.29844 0.30078,0.39844 0,0.1 0.0996,0.3 0.0996,0.5 h -2.59961 c 0,-0.2 -3.7e-4,-0.3 0.0996,-0.5 0.1,-0.2 0.20078,-0.19844 0.30078,-0.39844 0.1,-0.2 0.29844,-0.20078 0.39844,-0.30078 0.2,-0.1 0.3,-0.0996 0.5,-0.0996 z m 22.499995,0 c 0.2,0 0.4,-3.7e-4 0.5,0.0996 0.2,0.1 0.30039,0.20078 0.40039,0.30078 0.1,0.1 0.30078,0.29844 0.30078,0.39844 0,0.1 0.0996,0.3 0.0996,0.5 h -2.59961 c 0,-0.2 -3.7e-4,-0.3 0.0996,-0.5 0.1,-0.2 0.20078,-0.19844 0.30078,-0.39844 0.1,-0.2 0.29844,-0.20078 0.39844,-0.30078 0.2,-0.1 0.3,-0.0996 0.5,-0.0996 z m -7.69922,0.19922 c 0.2,0 0.3,-3.7e-4 0.5,0.0996 0.2,0.1 0.30039,0.20078 0.40039,0.30078 0.1,0.1 0.19883,0.20039 0.29883,0.40039 0.1,0.1 0.10156,0.3 0.10156,0.5 0,0.2 -0.002,0.3 -0.10156,0.5 -0.1,0.1 -0.19883,0.30039 -0.29883,0.40039 -0.1,0.1 -0.20039,0.19883 -0.40039,0.29883 -0.2,0.1 -0.3,0.0996 -0.5,0.0996 -0.2,0 -0.3,3.7e-4 -0.5,-0.0996 -0.2,-0.1 -0.30039,-0.19883 -0.40039,-0.29883 -0.1,-0.1 -0.19883,-0.20039 -0.29883,-0.40039 -0.1,-0.1 -0.10156,-0.3 -0.10156,-0.5 0,-0.2 0.10156,-0.4 0.10156,-0.5 0.1,-0.1 0.19883,-0.30039 0.29883,-0.40039 0.1,-0.1 0.30039,-0.20078 0.40039,-0.30078 0.2,-0.1 0.3,-0.0996 0.5,-0.0996 z m -9.099605,1.30078 h 0.499995 c 0.2,0 0.4,-3.7e-4 0.5,0.0996 v 0.69922 0.10156 l -0.0996,0.0996 c -0.1,0.1 -0.20039,0.19883 -0.40039,0.29883 -0.2,0.1 -0.39961,0.10156 -0.599605,0.10156 h -0.40039 c -0.1,-0.1 -0.20078,-0.20117 -0.30078,-0.20117 -0.1,0 -0.19922,-0.0992 -0.19922,-0.19922 -0.1,-0.1 -0.0996,-0.20078 -0.0996,-0.30078 0,-0.2 0.0988,-0.4 0.29883,-0.5 0.2,-0.1 0.50078,-0.19922 0.80078,-0.19922 z m -61.240225,1.38086 -0.20117,0.44922 0.99219,0.44727 0.006,0.002 0.004,0.002 1.17969,0.47266 h 0.006 l 0.006,0.002 0.88086,0.31445 0.16601,-0.46679 -0.87304,-0.3086 -0.0117,-0.004 -1.16016,-0.46485 -0.01,-0.004 z m -32.99219,1.20899 -2.125,2.51757 0.37695,0.32032 2.125,-2.51954 z m 65.183595,0.16992 -1.27149,0.28125 -0.006,0.002 -1.94531,0.38086 0.0957,0.48437 1.95117,-0.38281 h 0.002 0.004 l 1.27539,-0.2832 z m -22.804685,1.38476 -0.0723,0.48828 0.92383,0.13868 h 0.006 0.004 l 1.5664,0.17578 h 0.006 l 0.004,0.002 0.78125,0.0586 0.0391,-0.49218 -0.7832,-0.0606 -1.54688,-0.17188 -0.0117,-0.002 z m 13.087885,0.21485 -1.90039,0.16211 v -0.002 l -1.37891,0.0762 0.0274,0.49415 1.3789,-0.0762 h 0.004 0.004 l 1.90625,-0.16211 z m 16.58203,1.6582 -0.004,0.0195 v 0.002 l -0.002,0.004 -0.63867,3.21289 0.48437,0.0977 0.63868,-3.20703 0.002,-0.006 0.002,-0.0137 z m -5.55273,1.81641 -0.5293,0.57421 -0.002,0.004 -0.29883,0.31641 -0.0527,-0.0469 -1.16211,1.33008 -0.0156,0.0176 -0.0156,0.0156 -0.17968,0.18946 0.008,0.008 -0.80469,0.91992 0.37305,0.32617 1.02344,-1.16797 v -0.002 l 1.48632,-1.57031 0.002,-0.002 0.53125,-0.57617 z m 7,7.04296 -0.49415,0.0117 0.0332,1.37891 v 0.004 0.002 l 0.0898,1.91406 0.49414,-0.0234 -0.0898,-1.9082 v -0.006 z m -13.82618,0.0996 -0.68164,0.69922 -1.63867,1.63477 0.34961,0.35156 1.44531,-1.44336 -2.08593,2.49805 0.38085,0.31836 2.11133,-2.5293 -0.37695,-0.31641 0.16602,-0.16601 0.002,-0.002 0.002,-0.002 0.67969,-0.69922 z m 10.5586,0.77149 -0.30664,1.80469 v 0.004 0.002 l -0.20313,1.45118 0.48828,0.0684 0.20313,-1.44336 v -0.006 l 0.30469,-1.79883 z m -17.57227,6.18359 -2.36914,2.29102 0.34375,0.35547 2.36914,-2.29102 z m 0.26953,1.92774 -1.84179,2.31054 -0.002,0.002 -0.002,0.002 -0.20508,0.26953 0.39258,0.30078 0.20117,-0.26758 0.002,0.002 1.84179,-2.3125 z m 21.1211,0.86914 -0.49219,0.0469 0.32031,3.2793 0.49024,-0.0469 z m 75.285145,0.17187 v 0.69922 h 0.40039 v -0.69922 z m 9.30078,0 v 2.09961 c -0.1,-0.3 -0.3,-0.39961 -0.5,-0.59961 -0.3,-0.1 -0.50078,-0.20117 -0.80078,-0.20117 -0.2,0 -0.39961,-3.7e-4 -0.59961,0.0996 -0.2,0.1 -0.4,0.20039 -0.5,0.40039 l -0.30078,0.59961 c -0.1,0.2 -0.0996,0.50117 -0.0996,0.70117 0,0.3 -3.7e-4,0.49922 0.0996,0.69922 0,0.2 0.20078,0.39961 0.30078,0.59961 0.1,0.2 0.3,0.30039 0.5,0.40039 0.2,0.1 0.49922,0.0996 0.69922,0.0996 0.3,0 0.49961,7.8e-4 0.59961,-0.19922 0.3,-0.1 0.50156,-0.3 0.60156,-0.5 v 0.30078 c 0,0 -3.7e-4,0.0992 0.0996,0.19922 0.1,0.1 0.19883,0.0996 0.29883,0.0996 h 0.20117 v -0.40039 c -0.1,0 -0.20117,-0.0992 -0.20117,-0.19922 v -4.19922 z m 19.59961,0 v 2.09961 c -0.1,-0.3 -0.3,-0.39961 -0.5,-0.59961 -0.3,-0.1 -0.50078,-0.20117 -0.80078,-0.20117 -0.2,0 -0.39961,-3.7e-4 -0.59961,0.0996 -0.2,0.1 -0.4,0.20039 -0.5,0.40039 l -0.30078,0.59961 c -0.1,0.2 -0.0996,0.50117 -0.0996,0.70117 0,0.3 -3.7e-4,0.49922 0.0996,0.69922 0,0.2 0.20078,0.39961 0.30078,0.59961 0.1,0.2 0.3,0.30039 0.5,0.40039 0.2,0.1 0.49922,0.0996 0.69922,0.0996 0.2,0 0.50156,7.8e-4 0.60156,-0.19922 0.3,-0.1 0.49961,-0.3 0.59961,-0.5 v 0.30078 c 0,0 -3.7e-4,0.0992 0.0996,0.19922 0.1,0.1 0.20078,0.0996 0.30078,0.0996 h 0.19922 v -0.40039 c -0.1,0 -0.19922,-0.0992 -0.19922,-0.19922 v -4.19922 z m 1.5,0 v 0.69922 h 0.40039 v -0.69922 z m -55.59961,0.19922 v 4.69922 h 3.09961 v -0.39844 h -2.59961 v -1.80078 h 2.29883 v -0.40039 h -2.29883 v -1.69922 h 2.59961 v -0.40039 z m 7.09961,0.0996 v 1.20117 h -0.5 v 0.39844 h 0.5 v 2.5 c 0,0.1 0.0996,0.20078 0.0996,0.30078 l 0.19922,0.19922 c 0,0 0.10117,0.10156 0.20117,0.10156 h 0.29883 0.30078 c 0.1,-0.1 0.0992,-0.10156 0.19922,-0.10156 0.1,-0.1 0.20117,-0.0996 0.20117,-0.0996 0,-0.1 0.0996,-0.0996 0.0996,-0.0996 l -0.30078,-0.30078 c 0,0 -0.0992,0.10156 -0.19922,0.10156 -0.1,0.1 -0.20078,0.0996 -0.30078,0.0996 -0.1,0 -0.19883,3.7e-4 -0.29883,-0.0996 0,-0.1 -0.0996,-0.20078 -0.0996,-0.30078 v -2.30078 h 0.79883 v -0.39844 h -0.79883 v -1.20117 z m 8.09961,0 v 1.20117 h -0.5 v 0.39844 h 0.5 v 2.5 c 0,0.1 0.0996,0.20078 0.0996,0.30078 l 0.20117,0.19922 c 0,0 0.0992,0.10156 0.19922,0.10156 h 0.30078 0.29883 c 0.1,-0.1 0.10117,-0.10156 0.20117,-0.10156 0.1,-0.1 0.19922,-0.0996 0.19922,-0.0996 0,-0.1 0.0996,-0.0996 0.0996,-0.0996 l -0.29883,-0.30078 c 0,0 -0.10117,0.10156 -0.20117,0.10156 -0.1,0.1 -0.19883,0.0996 -0.29883,0.0996 -0.1,0 -0.20078,3.7e-4 -0.30078,-0.0996 0,-0.1 -0.0996,-0.20078 -0.0996,-0.30078 v -2.30078 h 0.79883 v -0.39844 h -0.79883 v -1.20117 z m -70.458975,0.35352 -0.34766,3.14062 v 0.004 0.004 l -0.0117,0.13477 0.49219,0.0391 0.0117,-0.12695 v -0.008 l 0.3457,-3.13282 z m 73.958975,0.64648 c -0.3,0 -0.49922,-3.7e-4 -0.69922,0.0996 -0.2,0.1 -0.3,0.20039 -0.5,0.40039 -0.2,0.2 -0.30039,0.39961 -0.40039,0.59961 -0.1,0.2 -0.0996,0.50117 -0.0996,0.70117 0,0.3 -3.7e-4,0.49922 0.0996,0.69922 0.1,0.2 0.20039,0.39961 0.40039,0.59961 0.1,0.2 0.3,0.30039 0.5,0.40039 0.2,0.1 0.39922,0.0996 0.69922,0.0996 h 0.59961 c 0.1,-0.1 0.30039,-0.0992 0.40039,-0.19922 l 0.30078,-0.30078 c 0.1,-0.1 0.0992,-0.19883 0.19922,-0.29883 l -0.40039,-0.0996 c -0.1,0.1 -0.0992,0.19883 -0.19922,0.29883 -0.1,0.1 -0.20078,0.10117 -0.30078,0.20117 -0.1,0 -0.19883,0.0996 -0.29883,0.0996 h -0.30078 c -0.2,0 -0.4,3.7e-4 -0.5,-0.0996 -0.2,-0.1 -0.30039,-0.20078 -0.40039,-0.30078 -0.1,-0.1 -0.19883,-0.20039 -0.29883,-0.40039 0,-0.1 -0.10156,-0.3 -0.10156,-0.5 h 2.90039 v -0.0996 -0.0996 c 0,-0.3 3.7e-4,-0.50117 -0.0996,-0.70117 0,-0.3 -0.20078,-0.39961 -0.30078,-0.59961 -0.1,-0.2 -0.3,-0.30039 -0.5,-0.40039 -0.2,-0.1 -0.39922,-0.0996 -0.69922,-0.0996 z m 3.80078,0 c -0.2,0 -0.40156,-3.7e-4 -0.60156,0.0996 -0.2,0.1 -0.4,0.20039 -0.5,0.40039 l -0.29883,0.59961 c -0.1,0.2 -0.0996,0.50117 -0.0996,0.70117 0,0.3 0.0996,0.39922 0.0996,0.69922 0,0.3 0.19883,0.39961 0.29883,0.59961 0.1,0.2 0.3,0.30039 0.5,0.40039 0.1,0.1 0.40156,0.0996 0.60156,0.0996 0.2,0 0.69844,-0.0992 0.89844,-0.19922 0.2,-0.1 0.4,-0.3 0.5,-0.5 v 0.69922 c 0,0.2 3.7e-4,0.4 -0.0996,0.5 l -0.29883,0.30078 c -0.1,0.1 -0.30039,0.19922 -0.40039,0.19922 -0.2,0.1 -0.3,0.10156 -0.5,0.10156 -0.2,0 -0.50117,-0.10117 -0.70117,-0.20117 -0.2,-0.1 -0.4,-0.3 -0.5,-0.5 l -0.29883,0.20117 c 0.2,0.3 0.39961,0.49961 0.59961,0.59961 0.3,0.1 0.6,0.19922 1,0.19922 0.2,0 0.39961,3.7e-4 0.59961,-0.0996 0.2,-0.1 0.3,-0.10078 0.5,-0.30078 0.2,-0.2 0.30039,-0.3 0.40039,-0.5 0.1,-0.2 0.0996,-0.39961 0.0996,-0.59961 v -3.40039 h -0.40039 v 0.70117 c -0.2,-0.3 -0.39961,-0.49961 -0.59961,-0.59961 -0.3,-0.1 -0.49883,-0.20117 -0.79883,-0.20117 z m 15,0 c -0.3,0 -0.50117,-3.7e-4 -0.70117,0.0996 -0.2,0.1 -0.3,0.20039 -0.5,0.40039 -0.2,0.2 -0.30039,0.39961 -0.40039,0.59961 -0.1,0.2 -0.0996,0.50117 -0.0996,0.70117 0,0.3 -3.7e-4,0.49922 0.0996,0.69922 0.1,0.2 0.20039,0.39961 0.40039,0.59961 0.1,0.2 0.3,0.30039 0.5,0.40039 0.2,0.1 0.40117,0.0996 0.70117,0.0996 h 0.59961 c 0.1,-0.1 0.30039,-0.0992 0.40039,-0.19922 l 0.29883,-0.30078 c 0.1,-0.1 0.10117,-0.19883 0.20117,-0.29883 l -0.40039,-0.0996 c -0.1,0.1 -0.10117,0.19883 -0.20117,0.29883 -0.1,0.1 -0.19883,0.10117 -0.29883,0.20117 -0.1,0 -0.20078,0.0996 -0.30078,0.0996 h -0.29883 c -0.2,0 -0.4,3.7e-4 -0.5,-0.0996 -0.2,-0.1 -0.30039,-0.20078 -0.40039,-0.30078 -0.1,-0.1 -0.20078,-0.20039 -0.30078,-0.40039 0,-0.1 -0.0996,-0.3 -0.0996,-0.5 h 2.90039 v -0.0996 -0.0996 c 0,-0.3 3.7e-4,-0.50117 -0.0996,-0.70117 0,-0.3 -0.20078,-0.39961 -0.30078,-0.59961 -0.1,-0.2 -0.3,-0.30039 -0.5,-0.40039 -0.2,-0.1 -0.39922,-0.0996 -0.69922,-0.0996 z m 11.59961,0 c -0.3,0 -0.50117,-3.7e-4 -0.70117,0.0996 -0.2,0.1 -0.3,0.20039 -0.5,0.40039 -0.2,0.2 -0.29844,0.39961 -0.39844,0.59961 -0.1,0.2 -0.10156,0.50117 -0.10156,0.70117 0,0.3 0.002,0.49922 0.10156,0.69922 0.1,0.2 0.19844,0.39961 0.39844,0.59961 0.1,0.2 0.3,0.30039 0.5,0.40039 0.2,0.1 0.40117,0.0996 0.70117,0.0996 h 0.59961 c 0.1,-0.1 0.30039,-0.0992 0.40039,-0.19922 l 0.29883,-0.30078 c 0.1,-0.1 0.10117,-0.19883 0.20117,-0.29883 l -0.40039,-0.0996 c -0.1,0.1 -0.0992,0.19883 -0.19922,0.29883 -0.1,0.1 -0.20078,0.10117 -0.30078,0.20117 -0.1,0 -0.20078,0.0996 -0.30078,0.0996 h -0.29883 c -0.2,0 -0.4,3.7e-4 -0.5,-0.0996 -0.2,-0.1 -0.30039,-0.20078 -0.40039,-0.30078 -0.1,-0.1 -0.20078,-0.20039 -0.30078,-0.40039 0,-0.1 -0.0996,-0.3 -0.0996,-0.5 H 180.5 v -0.0996 -0.0996 c 0,-0.3 3.7e-4,-0.50117 -0.0996,-0.70117 0,-0.3 -0.20078,-0.39961 -0.30078,-0.59961 -0.1,-0.2 -0.3,-0.30039 -0.5,-0.40039 -0.2,-0.1 -0.39922,-0.0996 -0.69922,-0.0996 z m 9.40039,0 c -0.3,0 -0.50117,-3.7e-4 -0.70117,0.0996 -0.2,0.1 -0.3,0.20039 -0.5,0.40039 -0.2,0.2 -0.30039,0.39961 -0.40039,0.59961 -0.1,0.2 -0.0996,0.50117 -0.0996,0.70117 0,0.3 -3.7e-4,0.49922 0.0996,0.69922 0.1,0.2 0.20039,0.39961 0.40039,0.59961 0.1,0.2 0.3,0.30039 0.5,0.40039 0.2,0.1 0.40117,0.0996 0.70117,0.0996 0.2,0 0.39922,3.7e-4 0.69922,-0.0996 0.2,-0.1 0.3,-0.20039 0.5,-0.40039 0.2,-0.2 0.30039,-0.39961 0.40039,-0.59961 0.1,-0.2 0.0996,-0.49922 0.0996,-0.69922 0,-0.3 3.7e-4,-0.50117 -0.0996,-0.70117 -0.1,-0.2 -0.20039,-0.39961 -0.40039,-0.59961 -0.1,-0.2 -0.3,-0.30039 -0.5,-0.40039 -0.2,-0.1 -0.39922,-0.0996 -0.69922,-0.0996 z m -53.70117,0.0996 c -0.2,0 -0.4,0.10156 -0.5,0.10156 -0.1,0 -0.30039,0.0992 -0.40039,0.19922 -0.1,0.1 -0.19883,0.10078 -0.29883,0.30078 -0.1,0.2 -0.0996,0.3 -0.0996,0.5 0,0.1 0.0996,0.19883 0.0996,0.29883 0,0.1 0.0992,0.10117 0.19922,0.20117 0.1,0.1 0.30039,0.19922 0.40039,0.19922 0.1,0 0.3,0.0996 0.5,0.0996 0.2,0 0.4,0.0996 0.5,0.0996 0.1,0 0.20078,0.10156 0.30078,0.10156 0.1,0.1 0.19922,0.0992 0.19922,0.19922 0.1,0 0.0996,0.0992 0.0996,0.19922 0,0.2 7.8e-4,0.4 -0.19922,0.5 -0.2,0.1 -0.40117,0.20117 -0.70117,0.20117 -0.2,0 -0.39961,3.7e-4 -0.59961,-0.0996 -0.2,-0.1 -0.39961,-0.20039 -0.59961,-0.40039 l -0.19922,0.29883 c 0.2,0.2 0.39922,0.30039 0.69922,0.40039 0.3,0.1 0.50078,0.0996 0.80078,0.0996 0.4,0 0.69922,-0.0992 0.69922,-0.19922 0.3,-0.2 0.40039,-0.50078 0.40039,-0.80078 0,-0.2 3.7e-4,-0.29844 -0.0996,-0.39844 l -0.30078,-0.30078 c -0.1,-0.1 -0.20039,-0.0992 -0.40039,-0.19922 -0.2,-0.1 -0.39961,-0.10117 -0.59961,-0.20117 -0.2,0 -0.30039,-0.0996 -0.40039,-0.0996 -0.1,0 -0.19883,-0.0996 -0.29883,-0.0996 -0.1,0 -0.20117,3.7e-4 -0.20117,-0.0996 v -0.20117 c 0,-0.1 0.0996,-0.19883 0.0996,-0.29883 l 0.20117,-0.20117 c 0.1,0 0.19883,-0.0996 0.29883,-0.0996 h 0.30078 c 0.2,0 0.39961,-3.7e-4 0.59961,0.0996 0.2,0.1 0.4,0.20078 0.5,0.30078 l 0.20117,-0.30078 c -0.1,-0.1 -0.3,-0.19883 -0.5,-0.29883 -0.2,-0.1 -0.40117,-0.10156 -0.70117,-0.10156 z m 7.90039,0 c -0.4,0 -0.90078,0.10039 -1.30078,0.40039 l 0.20117,0.30078 0.59961,-0.30078 c 0.1,-0.1 0.3,-0.0996 0.5,-0.0996 0.3,0 0.49922,0.10078 0.69922,0.30078 0.2,0.2 0.30078,0.39922 0.30078,0.69922 v 0.30078 c -0.2,-1e-5 -0.3,-0.10156 -0.5,-0.10156 h -0.5 c -0.2,0 -0.39961,0.002 -0.59961,0.10156 -0.2,0 -0.4,0.0992 -0.5,0.19922 l -0.30078,0.30078 c -0.1,0.1 -0.0996,0.29844 -0.0996,0.39844 0,0.1 -3.7e-4,0.30039 0.0996,0.40039 0,0.1 0.10117,0.20078 0.20117,0.30078 0.1,0.1 0.29844,0.0992 0.39844,0.19922 0.2,0.1 0.3,0.0996 0.5,0.0996 0.3,0 0.60117,3.7e-4 0.70117,-0.0996 0.2,-0.1 0.39961,-0.3 0.59961,-0.5 v 0.30078 c 0,0.1 -3.7e-4,0.0992 0.0996,0.19922 0.1,0.1 0.20078,0.0996 0.30078,0.0996 h 0.19922 v -0.39844 c -0.1,0 -0.19922,-0.10117 -0.19922,-0.20117 v -1.5 c 0,-0.4 -0.20039,-0.8 -0.40039,-1 -0.2,-0.3 -0.6,-0.40039 -1,-0.40039 z m 15.09961,0 c -0.4,0 -0.89883,0.10039 -1.29883,0.40039 l 0.19922,0.30078 0.59961,-0.30078 c 0.1,-0.1 0.3,-0.0996 0.5,-0.0996 0.3,0 0.50117,0.10078 0.70117,0.30078 0.2,0.2 0.29883,0.39922 0.29883,0.69922 v 0.30078 c -0.2,0 -0.3,-0.10156 -0.5,-0.10156 h -0.5 c -0.2,0 -0.39961,0.002 -0.59961,0.10156 -0.2,0 -0.4,0.0992 -0.5,0.19922 l -0.30078,0.30078 c -0.1,0.1 -0.0996,0.29844 -0.0996,0.39844 0,0.1 -3.7e-4,0.30039 0.0996,0.40039 0,0.1 0.10117,0.20078 0.20117,0.30078 0.1,0.1 0.30039,0.0992 0.40039,0.19922 0.2,0.1 0.3,0.0996 0.5,0.0996 0.3,0 0.49922,3.7e-4 0.69922,-0.0996 0.2,-0.1 0.39961,-0.3 0.59961,-0.5 v 0.30078 c 0,0.1 -3.7e-4,0.0992 0.0996,0.19922 0.1,0.1 0.20078,0.0996 0.30078,0.0996 h 0.19922 v -0.39844 c -0.1,0 -0.19922,-0.10117 -0.19922,-0.20117 v -1.5 c 0,-0.4 -0.20039,-0.8 -0.40039,-1 -0.2,-0.3 -0.6,-0.40039 -1,-0.40039 z m 17.80078,0 c -0.5,0 -1.00078,0.30039 -1.30078,0.90039 0,-0.2 -0.0988,-0.39961 -0.29883,-0.59961 -0.2,-0.1 -0.40117,-0.19922 -0.70117,-0.19922 -0.3,0 -0.59883,0.0992 -0.79883,0.19922 -0.3,0.1 -0.50156,0.29961 -0.60156,0.59961 v -0.79883 h -0.39844 v 3.39844 h 0.39844 v -2.09961 c 0.1,-0.3 0.20039,-0.49922 0.40039,-0.69922 0.2,-0.2 0.40117,-0.30078 0.70117,-0.30078 0.3,0 0.49961,0.10078 0.59961,0.30078 0.1,0.2 0.19922,0.50039 0.19922,0.90039 v 1.89844 h 0.40039 v -2.09961 c 0.1,-0.1 0.0992,-0.30039 0.19922,-0.40039 l 0.30078,-0.29883 c 0.1,-0.1 0.20078,-0.20117 0.30078,-0.20117 0.1,-0.1 0.29844,-0.0996 0.39844,-0.0996 0.3,0 0.50156,0.10078 0.60156,0.30078 0.1,0.2 0.19922,0.50039 0.19922,0.90039 v 1.89844 h 0.40039 0.0996 v -2 c 0,-0.2 -0.0996,-0.39961 -0.0996,-0.59961 -0.1,-0.2 -0.10117,-0.4 -0.20117,-0.5 l -0.29883,-0.29883 c -0.1,-0.1 -0.3,-0.10156 -0.5,-0.10156 z m 16.29883,0 c -0.2,0 -0.4,0.10156 -0.5,0.10156 -0.1,0 -0.29844,0.0992 -0.39844,0.19922 -0.1,0.1 -0.20078,0.10078 -0.30078,0.30078 -0.1,0.2 -0.0996,0.3 -0.0996,0.5 0,0.1 0.0996,0.19883 0.0996,0.29883 0,0.1 0.0992,0.10117 0.19922,0.20117 0.1,0.1 0.30039,0.19922 0.40039,0.19922 0.1,0 0.3,0.0996 0.5,0.0996 0.2,0 0.4,0.0996 0.5,0.0996 0.1,0 0.20078,0.10156 0.30078,0.10156 0.1,0.1 0.19922,0.0992 0.19922,0.19922 0.1,0 0.0996,0.0992 0.0996,0.19922 0,0.2 7.8e-4,0.4 -0.19922,0.5 -0.2,0.1 -0.39922,0.20117 -0.69922,0.20117 -0.2,0 -0.40156,3.7e-4 -0.60156,-0.0996 -0.2,-0.1 -0.39961,-0.20039 -0.59961,-0.40039 l -0.19922,0.29883 c 0.2,0.2 0.39922,0.30039 0.69922,0.40039 0.3,0.1 0.50078,0.0996 0.80078,0.0996 0.4,0 0.69922,-0.0992 0.69922,-0.19922 0.3,-0.19999 0.40039,-0.50078 0.40039,-0.80078 0,-0.2 3.7e-4,-0.29844 -0.0996,-0.39844 l -0.30078,-0.30078 c -0.1,-0.1 -0.20039,-0.0992 -0.40039,-0.19922 -0.2,-0.1 -0.39961,-0.10117 -0.59961,-0.20117 -0.2,0 -0.30039,-0.0996 -0.40039,-0.0996 -0.1,0 -0.19883,-0.0996 -0.29883,-0.0996 -0.1,0 -0.20117,3.7e-4 -0.20117,-0.0996 v -0.20117 c 0,-0.1 0.10156,-0.19883 0.10156,-0.29883 l 0.19922,-0.20117 c 0.1,0 0.20078,-0.0996 0.30078,-0.0996 h 0.29883 c 0.2,0 0.39961,-3.7e-4 0.59961,0.0996 0.2,0.1 0.4,0.20078 0.5,0.30078 l 0.20117,-0.30078 c -0.1,-0.1 -0.3,-0.19883 -0.5,-0.29883 -0.2,-0.1 -0.40117,-0.10156 -0.70117,-0.10156 z m -52.59961,0.10156 v 3.39844 h 0.40039 v -2.09961 c 0.1,-0.3 0.3,-0.49922 0.5,-0.69922 0.2,-0.2 0.50078,-0.30078 0.80078,-0.30078 v -0.29883 h -0.10156 c -0.3,0 -0.49922,0.0992 -0.69922,0.19922 -0.2,0.1 -0.4,0.29961 -0.5,0.59961 v -0.79883 z m 15.90039,0 v 3.39844 h 0.40039 v -3.39844 z m 30.40039,0 v 3.39844 h 0.40039 v -3.39844 z m -33.09961,0.0996 c 0.2,0 0.29844,0.0996 0.39844,0.0996 0.1,0.1 0.20078,0.0992 0.30078,0.19922 l 0.30078,0.30078 c 0.1,0.1 0.19922,0.20078 0.19922,0.30078 v 1.09961 c 0,0.1 3.7e-4,0.19883 -0.0996,0.29883 l -0.30078,0.30078 c -0.1,0.1 -0.19883,0.19922 -0.29883,0.19922 -0.1,0.1 -0.30039,0.10156 -0.40039,0.10156 -0.2,0 -0.3,-3.9e-4 -0.5,-0.40039 -0.1,-0.1 -0.30039,-0.20078 -0.40039,-0.30078 -0.1,-0.1 -0.20078,-0.20039 -0.30078,-0.40039 -0.1,-0.1 -0.0996,-0.3 -0.0996,-0.5 0,-0.2 0.0996,-0.4 0.0996,-0.5 0,-0.1 0.10117,-0.29844 0.20117,-0.39844 0.1,-0.1 0.20039,-0.20078 0.40039,-0.30078 0.1,-0.1 0.3,-0.0996 0.5,-0.0996 z m 10.89844,0 c 0.2,0 0.30039,-3.7e-4 0.40039,0.0996 0.1,0.1 0.20078,0.0992 0.30078,0.19922 l 0.29883,0.30078 c 0.1,0.1 0.20117,0.20078 0.20117,0.30078 v 1.09961 c 0,0.1 3.7e-4,0.19883 -0.0996,0.29883 L 164,135.93011 l -0.40039,0.19922 c -0.2,0.1 -0.30039,0.10156 -0.40039,0.10156 -0.2,0 -0.29844,-3.9e-4 -0.39844,-0.40039 -0.1,-0.1 -0.30039,-0.20078 -0.40039,-0.30078 -0.1,-0.1 -0.20078,-0.20039 -0.30078,-0.40039 -0.1,-0.1 -0.0996,-0.3 -0.0996,-0.5 0,-0.2 -3.7e-4,-0.3 0.0996,-0.5 0,-0.1 0.10117,-0.29844 0.20117,-0.39844 0.1,-0.1 0.29844,-0.20078 0.39844,-0.30078 0.1,-0.1 0.3,-0.0996 0.5,-0.0996 z m 19.60156,0 c 0.2,0 0.29844,-3.7e-4 0.39844,0.0996 0.1,0.1 0.20078,0.0992 0.30078,0.19922 l 0.30078,0.30078 c 0.1,0.1 0.19922,0.20078 0.19922,0.30078 v 1.09961 c 0,0.1 3.7e-4,0.19883 -0.0996,0.29883 l -0.30078,0.30078 -0.40039,0.19922 c -0.2,0.1 -0.29844,0.10156 -0.39844,0.10156 -0.2,0 -0.40039,-3.9e-4 -0.40039,-0.40039 -0.1,-0.1 -0.30039,-0.20078 -0.40039,-0.30078 -0.1,-0.1 -0.20078,-0.20039 -0.30078,-0.40039 -0.1,-0.1 -0.0996,-0.3 -0.0996,-0.5 0,-0.2 -3.7e-4,-0.3 0.0996,-0.5 0,-0.1 0.10117,-0.29844 0.20117,-0.39844 0.1,-0.1 0.30039,-0.20078 0.40039,-0.30078 0.1,-0.1 0.3,-0.0996 0.5,-0.0996 z m -34.30078,0.0996 c 0.2,0 0.4,-3.7e-4 0.5,0.0996 0.2,0.1 0.30039,0.20078 0.40039,0.30078 0.1,0.1 0.29883,0.30039 0.29883,0.40039 0,0.1 0.10156,0.3 0.10156,0.5 h -2.60156 c 0,-0.2 0.002,-0.3 0.10156,-0.5 0.1,-0.2 0.19883,-0.20039 0.29883,-0.40039 0.1,-0.2 0.30039,-0.20078 0.40039,-0.30078 0.2,-0.1 0.3,-0.0996 0.5,-0.0996 z m 18.69922,0 c 0.2,0 0.4,-3.7e-4 0.5,0.0996 0.2,0.1 0.30039,0.20078 0.40039,0.30078 0.1,0.1 0.30078,0.30039 0.30078,0.40039 0,0.1 0.0996,0.3 0.0996,0.5 h -2.59961 c 0,-0.2 -3.7e-4,-0.3 0.0996,-0.5 0.1,-0.2 0.20078,-0.20039 0.30078,-0.40039 0.1,-0.2 0.29844,-0.20078 0.39844,-0.30078 0.2,-0.1 0.3,-0.0996 0.5,-0.0996 z m 11.60156,0 c 0.2,0 0.4,-3.7e-4 0.5,0.0996 0.2,0.1 0.29844,0.20078 0.39844,0.30078 0.1,0.1 0.30078,0.30039 0.30078,0.40039 0,0.1 0.0996,0.3 0.0996,0.5 h -2.59961 c 0,-0.2 -3.7e-4,-0.3 0.0996,-0.5 0.1,-0.2 0.20078,-0.20039 0.30078,-0.40039 0.1,-0.2 0.30039,-0.20078 0.40039,-0.30078 0.2,-0.1 0.3,-0.0996 0.5,-0.0996 z m 9.5,0.19922 c 0.2,0 0.3,0.002 0.5,0.10156 0.2,0.1 0.29844,0.19883 0.39844,0.29883 0.1,0.1 0.20078,0.20039 0.30078,0.40039 0.1,0.1 0.0996,0.3 0.0996,0.5 0,0.2 3.7e-4,0.3 -0.0996,0.5 -0.1,0.1 -0.20078,0.30039 -0.30078,0.40039 -0.1,0.1 -0.19844,0.19883 -0.39844,0.29883 -0.2,0.1 -0.3,0.10156 -0.5,0.10156 -0.2,0 -0.3,-0.002 -0.5,-0.10156 -0.2,-0.1 -0.30039,-0.19883 -0.40039,-0.29883 -0.1,-0.1 -0.20078,-0.20039 -0.30078,-0.40039 -0.1,-0.1 -0.0996,-0.3 -0.0996,-0.5 0,-0.2 0.0996,-0.4 0.0996,-0.5 0.1,-0.1 0.20078,-0.30039 0.30078,-0.40039 0.1,-0.1 0.30039,-0.19883 0.40039,-0.29883 0.2,-0.1 0.3,-0.10156 0.5,-0.10156 z m -45.90039,1.40039 h 0.5 c 0.2,0 0.4,-3.7e-4 0.5,0.0996 v 0.60156 0.0996 l -0.0996,0.0996 c -0.1,0.1 -0.20039,0.20078 -0.40039,0.30078 -0.2,0.1 -0.39961,0.0996 -0.59961,0.0996 -0.1,0 -0.20039,-3.7e-4 -0.40039,0.0996 -0.1,-0.1 -0.20078,-0.19922 -0.30078,-0.19922 -0.1,0 -0.19922,-0.10117 -0.19922,-0.20117 -0.1,-0.1 -0.0996,-0.19883 -0.0996,-0.29883 0,-0.2 0.0988,-0.4 0.29883,-0.5 0.2,-0.1 0.50078,-0.20117 0.80078,-0.20117 z m 15.09961,0 h 0.5 c 0.2,0 0.4,-3.7e-4 0.5,0.0996 v 0.60156 0.0996 l -0.0996,0.0996 c -0.1,0.1 -0.20039,0.20078 -0.40039,0.30078 -0.2,0.1 -0.39961,0.0996 -0.59961,0.0996 -0.1,0 -0.20039,-3.7e-4 -0.40039,0.0996 -0.1,-0.1 -0.20078,-0.19922 -0.30078,-0.19922 -0.1,0 -0.19922,-0.10117 -0.19922,-0.20117 -0.1,-0.1 -0.0996,-0.19883 -0.0996,-0.29883 0,-0.2 0.0988,-0.4 0.29883,-0.5 0.2,-0.1 0.50078,-0.20117 0.80078,-0.20117 z m -106.34764,0.53125 -0.90821,0.84961 -0.004,0.002 -1.51563,1.3711 0.33203,0.36718 1.51954,-1.37304 v -0.002 l 0.002,-0.002 0.91211,-0.85156 z m 1.39843,2.95898 -0.83203,1.0918 -0.002,0.002 -0.002,0.004 -1.12891,1.55469 0.40039,0.28906 1.125,-1.54883 0.004,-0.006 0.82812,-1.08789 z m -51.375,0.59961 -0.0703,0.48829 3.26172,0.4707 0.0703,-0.49024 z m 101.60351,0.32032 -3.242185,0.59179 0.0879,0.48633 3.242185,-0.5918 z m 4.75391,0.54687 -2.89453,1.00781 v 0.002 l -0.21485,0.0684 0.1543,0.4707 0.21875,-0.0723 h 0.002 l 0.002,-0.002 2.89454,-1.00781 z m -96.56835,0.46875 -0.0605,0.49024 3.27148,0.40625 0.0605,-0.49024 z m 82.074215,0.61524 -3.26368,0.44921 0.0684,0.49024 3.26367,-0.44922 z m -12.19532,0.29296 -0.48828,0.0762 0.16602,1.07812 -0.5625,0.043 0.0391,0.49414 0.58594,-0.0469 h 0.002 0.002 0.01 l 0.25976,1.6875 0.49024,-0.0742 -0.25586,-1.66211 2.19336,-0.21289 -0.0488,-0.49219 -2.22265,0.2168 z m -60.062495,0.23438 -0.0527,0.49219 0.0176,0.002 h 0.002 0.002 l 3.26172,0.31445 0.0469,-0.49218 -3.25782,-0.31446 h -0.004 z m 23.04688,0.58984 -1.16602,1.01563 -2.18164,-0.10352 -0.0234,0.49414 1.66602,0.0781 -0.78125,0.67969 0.32617,0.37304 1.16992,-1.01953 0.84961,0.041 h 0.002 l 0.0625,0.002 0.0156,-0.49414 -0.0566,-0.002 h -0.004 l -0.33007,-0.0156 0.77539,-0.67578 z m 29.859365,0.0586 -0.16992,3.29101 0.49414,0.0254 0.16797,-3.29101 z m -43.068355,0.23047 -0.0351,0.49414 3.28711,0.23828 0.0352,-0.49414 z m 42.771485,0.55273 -1.99219,0.12109 h -0.006 l -1.28906,0.0547 0.0215,0.49414 1.29297,-0.0566 h 0.002 0.004 l 1.99609,-0.11914 z m 24.76953,0.0703 -3.15039,0.96485 0.14453,0.47265 3.15039,-0.96484 z m 6.749995,0.008 -2.74024,1.83007 0.2754,0.41211 2.74023,-1.83008 z m -41.388665,0.32617 -1.33203,0.0351 h -0.004 l -1.95508,0.0215 0.006,0.49414 1.95899,-0.0215 h 0.002 0.002 l 1.33594,-0.0352 z m -13.169915,0.0117 -0.01,0.49414 2.59961,0.0508 h 0.002 l 0.69727,0.004 0.004,-0.49414 -0.69531,-0.004 h -0.002 z m 57.05663,0.0527 -1.5625,1.29102 -0.004,0.004 -0.98828,0.77539 0.30469,0.38867 0.99414,-0.77929 0.002,-0.002 0.002,-0.002 1.56837,-1.29492 z m -18.720705,2.41602 -1.47851,0.42187 -0.004,0.002 -1.68945,0.44922 0.12695,0.47852 1.69336,-0.45117 0.002,-0.002 h 0.002 l 1.48437,-0.42383 z m -41.970695,0.5996 -1.87695,2.70899 0.40625,0.28125 1.87695,-2.70898 z m 32.423825,1.92774 -3.19922,0.79102 0.11914,0.48046 3.19922,-0.79101 z m -42.794915,0.19922 -2.52735,2.11523 0.31836,0.37891 2.52539,-2.11524 z m 60.427725,0.0996 -2.65234,1.95508 0.29297,0.39843 2.65234,-1.95508 z m 2.86328,0.84179 -2.65625,1.94922 0.29102,0.39844 2.6582,-1.94922 z m -30.11133,1.11719 -3.22656,0.67774 0.10352,0.48437 3.22461,-0.67969 z m 12.98633,0.39258 -0.48242,0.10547 0.70312,3.21875 0.48243,-0.10547 z m -8.64844,1.04297 -0.49414,0.004 0.0234,3.29688 0.4961,-0.004 z m -14.02343,0.52539 -1.3086,0.25391 h -0.004 l -1.92578,0.33789 0.0859,0.48828 1.92969,-0.33985 h 0.002 0.002 l 1.3125,-0.2539 z m -9.732425,1.6875 -2.85156,0.45508 h -0.004 l -0.39649,0.0566 0.0703,0.48828 0.4004,-0.0566 h 0.002 0.002 l 2.85547,-0.45508 z m -8.98437,0.32227 -0.78125,1.18164 -0.01,-0.082 -3.26953,0.41602 0.0625,0.49023 2.91797,-0.37109 -0.73633,1.11524 0.41211,0.27343 1.81641,-2.75 z m 47.755855,0.0312 -1.87109,1.45313 h -0.002 l -0.002,0.002 -0.7207,0.58203 0.31054,0.38477 0.7168,-0.57812 0.004,-0.004 1.86718,-1.45117 z m -60.144525,0.24219 -0.89844,0.72852 -0.002,0.002 -1.66992,1.32617 0.30664,0.38867 1.67382,-1.33007 0.002,-0.002 0.89843,-0.72851 z m 62.833975,0.32422 -2.77148,1.78125 0.26758,0.41602 2.77148,-1.78125 z m -61.046865,1.6582 -3.2793,0.31641 0.0469,0.49219 3.27929,-0.31641 z m -9.8418,0.88282 -0.92969,0.0762 h -0.002 l -2.35352,0.1582 0.0332,0.49219 2.35547,-0.1582 h 0.002 0.002 l 0.93164,-0.0762 z m -9.85937,0.625 -1.74024,0.0937 v -0.002 l -1.54883,0.0625 0.0195,0.49414 1.54883,-0.0625 h 0.002 0.002 l 1.74219,-0.0918 z m -9.87305,0.375 L 0,158.83249 v 0.49414 l 0.96094,-0.0234 z m 82.248045,1.69726 -1.64649,0.99024 v 0.002 l -0.78711,0.44336 0.7461,-0.63867 -0.32227,-0.375 -2.50391,2.14062 0.32032,0.37696 1.40039,-1.19727 0.19726,0.35156 1.19727,-0.67578 0.004,-0.002 0.002,-0.002 1.64648,-0.99024 z m 1.55273,0.20313 -0.47656,0.12695 0.38867,1.48242 0.002,0.002 v 0.002 l 0.47852,1.69531 0.47656,-0.13476 -0.47851,-1.69141 v -0.004 z m -63.771475,0.35351 -0.57618,0.44727 -0.002,0.002 -2.04102,1.54688 0.29883,0.39453 2.04297,-1.55078 h 0.002 v -0.002 l 0.57812,-0.44726 z m 53.126945,0.93946 -0.49219,0.0332 0.21875,3.28906 0.49414,-0.0332 z m -38.357415,0.9707 -1.75586,2.78906 0.41992,0.26367 1.75391,-2.78906 z m 38.849605,2.38086 -2.91407,1.53906 0.23243,0.4375 2.91211,-1.53906 z m -61.517575,1.64648 -0.54883,0.40821 -0.004,0.002 -2.11132,1.52344 0.28906,0.40039 2.11523,-1.52539 v -0.002 h 0.002 l 0.55273,-0.41015 z m 60.662105,0.44141 -1.73828,1.57812 h -0.002 l -0.002,0.002 -0.69141,0.64648 0.33789,0.36133 0.68946,-0.64453 0.002,-0.002 1.73633,-1.57422 z m 80.660145,1.38867 v 4.09962 c 0,0.2 0.0992,0.4 0.19922,0.5 0.1,0.1 0.3,0.19922 0.5,0.19922 h 0.30078 c 0.1,0 0.19883,-0.0996 0.29883,-0.0996 l -0.0996,-0.40039 c -0.1,0.1 -0.0992,0.10156 -0.19922,0.10156 h -0.20116 c -0.1,0 -0.19883,-0.002 -0.29884,-0.10156 -0.1,-0.1 -0.0996,-0.19883 -0.0996,-0.29883 v -4.00001 z m 20.29883,0 v 0.69922 h 0.40039 v -0.69922 z m -24.39843,0.0996 v 4.59962 h 0.39843 v -1.69922 h 1.5 c 0.30001,0 0.50157,3.7e-4 0.60157,-0.0996 0.1,-0.1 0.29844,-0.20078 0.39843,-0.30078 0.1,-0.2 0.20079,-0.3 0.30079,-0.5 0.1,-0.20001 0.0996,-0.39962 0.0996,-0.59962 0,-0.1 3.7e-4,-0.3 -0.0996,-0.5 -0.1,-0.2 -0.20079,-0.4 -0.30079,-0.5 -0.1,-0.1 -0.19844,-0.20078 -0.39843,-0.30078 -0.2,-0.1 -0.40156,-0.0996 -0.60157,-0.0996 z m 27.39843,0 -0.39843,0.59961 0.29883,0.0996 0.59961,-0.69922 z m -26.89843,0.59961 h 1.5 c 0.19999,0 0.29844,-3.7e-4 0.39843,0.0996 0.1,0 0.20079,0.10117 0.30079,0.20117 0.1,0.1 0.0992,0.19883 0.19921,0.29883 0.1,0.1 0.10157,0.30039 0.10157,0.40039 0,0.1 -0.10157,0.3004 -0.10157,0.4004 -0.1,0.1 -0.0992,0.20078 -0.19921,0.30078 -0.1,0.1 -0.20079,0.0992 -0.30079,0.19922 -0.1,0.1 -0.29844,0.0996 -0.39843,0.0996 h -1.5 z m -85.005865,0.29883 -2.98828,1.38868 0.20899,0.44727 2.98828,-1.38869 z m 99.304695,0.30078 c -0.3,0 -0.49922,0.002 -0.69922,0.10156 -0.2,0.1 -0.3,0.19844 -0.5,0.39844 -0.2,0.20001 -0.30039,0.40157 -0.40039,0.60157 -0.1,0.2 -0.0996,0.49922 -0.0996,0.69922 0,0.3 -3.7e-4,0.49922 0.0996,0.69922 0.1,0.2 0.20039,0.40156 0.40039,0.60156 0.1,0.2 0.3,0.29844 0.5,0.39844 0.2,0.1 0.39922,0.10156 0.69922,0.10156 h 0.59961 c 0.1,-0.1 0.30039,-0.10117 0.40039,-0.20117 l 0.30078,-0.29883 c 0.1,-0.1 0.0992,-0.20078 0.19922,-0.30078 l -0.40039,-0.0996 c -0.1,0.1 -0.0992,0.19883 -0.19922,0.29883 -0.1,0.1 -0.20078,0.10117 -0.30078,0.20117 -0.1,0 -0.19883,0.0996 -0.29883,0.0996 h -0.30078 c -0.2,0 -0.4,3.7e-4 -0.5,-0.0996 -0.2,-0.1 -0.30039,-0.20078 -0.40039,-0.30078 -0.1,-0.1 -0.19883,-0.20039 -0.29883,-0.40039 0,-0.1 -0.0996,-0.3 -0.0996,-0.5 h 2.89844 v -0.0996 -0.0996 c 0,-0.3 3.7e-4,-0.49922 -0.0996,-0.69922 0,-0.3 -0.19882,-0.40156 -0.29883,-0.60157 -0.1,-0.2 -0.3,-0.29844 -0.5,-0.39844 -0.2,-0.1 -0.40117,-0.10156 -0.70117,-0.10156 z m 7.40039,0 c -0.30001,0 -0.49923,0.002 -0.69922,0.10156 -0.2,0.1 -0.30001,0.19844 -0.5,0.39844 -0.2,0.20001 -0.30039,0.40157 -0.40039,0.60157 -0.1,0.2 -0.0996,0.49922 -0.0996,0.69922 0,0.3 -0.20156,0.39961 -0.10156,0.59961 0.1,0.2 0.20038,0.39961 0.40038,0.59961 0.1,0.2 0.3,0.30039 0.5,0.40039 0.2,0.1 0.40117,0.0996 0.70117,0.0996 0.2,0 0.3,-0.0996 0.5,-0.0996 0.1,-0.1 0.29844,-0.0992 0.39844,-0.19922 L 173.5,173.02979 c 0.1,-0.1 0.19922,-0.19883 0.19922,-0.29883 l -0.39844,-0.10156 c 0,0.1 -0.002,0.10117 -0.10156,0.20117 0,0.1 -0.0992,0.0992 -0.19922,0.19922 -0.1,0 -0.20078,0.0996 -0.30078,0.0996 h -0.29883 c -0.2,0 -0.3,3.7e-4 -0.5,-0.0996 -0.2,-0.1 -0.30039,-0.19883 -0.40039,-0.29883 -0.1,-0.1 -0.20078,-0.20039 -0.30078,-0.40039 -0.1,-0.1 -0.0996,-0.3 -0.0996,-0.5 0,-0.2 -3.7e-4,-0.3 0.0996,-0.5 0.1,-0.1 0.20078,-0.30039 0.30078,-0.40039 0.1,-0.1 0.20039,-0.20079 0.40039,-0.30079 0.2,-0.1 0.3,-0.0996 0.5,-0.0996 0.2,0 0.39961,-3.7e-4 0.59961,0.0996 0.2,0.1 0.30039,0.2004 0.40039,0.4004 l 0.40039,-0.0996 c -0.1,-0.30001 -0.3,-0.49962 -0.5,-0.59962 -0.2,-0.1 -0.50078,-0.20117 -0.80078,-0.20117 z m 5.09961,0 c -0.3,0 -0.49922,0.002 -0.69922,0.10156 -0.2,0.1 -0.3,0.19844 -0.5,0.39844 -0.2,0.20001 -0.30039,0.40157 -0.40039,0.60157 -0.1,0.2 -0.0996,0.49922 -0.0996,0.69922 0,0.3 -3.7e-4,0.49922 0.0996,0.69922 0.1,0.2 0.20039,0.40156 0.40039,0.60156 0.1,0.2 0.3,0.29844 0.5,0.39844 0.2,0.1 0.39922,0.10156 0.69922,0.10156 0.2,0 0.40117,-0.002 0.70117,-0.10156 0.19999,-0.1 0.3,-0.19844 0.5,-0.39844 0.19999,-0.2 0.29844,-0.40156 0.39843,-0.60156 0.1,-0.2 0.10157,-0.49922 0.10157,-0.69922 0,-0.3 -0.002,-0.49922 -0.10157,-0.69922 -0.1,-0.2 -0.19844,-0.40156 -0.39843,-0.60157 -0.1,-0.2 -0.30001,-0.29844 -0.5,-0.39844 -0.2,-0.1 -0.40118,-0.10156 -0.70117,-0.10156 z m -90.058595,0.0488 -0.4707,0.15234 0.26367,0.81642 v 0.002 l 0.002,0.002 0.79297,2.30469 0.46875,-0.16211 -0.79297,-2.29883 -0.002,-0.004 z m 69.759765,0.0527 c -0.4,0 -0.90078,0.0984 -1.30078,0.39844 l 0.19922,0.30079 0.60156,-0.30079 c 0.1,-0.1 0.3,-0.0996 0.5,-0.0996 0.3,0 0.49922,0.10078 0.69922,0.30079 0.2,0.2 0.30078,0.39922 0.30078,0.69922 v 0.30078 c -0.2,0 -0.3,-0.0996 -0.5,-0.0996 h -0.5 c -0.2,0 -0.40156,-3.7e-4 -0.60156,0.0996 -0.2,0 -0.4,0.0992 -0.5,0.19922 l -0.29883,0.30078 c -0.1,0.1 -0.0996,0.30039 -0.0996,0.40039 0,0.1 -3.7e-4,0.29844 0.0996,0.39844 0,0.1 0.0992,0.20078 0.19922,0.30078 0.1,0.1 0.30039,0.0992 0.40039,0.19922 0.19999,0.1 0.3,0.10156 0.5,0.10156 0.3,0 0.49922,-0.002 0.69921,-0.10156 0.2,-0.1 0.40156,-0.3 0.60157,-0.5 v 0.30078 c 0,0.1 -3.8e-4,0.0992 0.0996,0.19922 0.1,0.1 0.19882,0.10156 0.29883,0.10156 h 0.20117 v -0.40036 c -0.1,0 -0.20117,-0.10117 -0.20117,-0.20117 v -1.5 c 0,-0.4 -0.19844,-0.8 -0.39844,-1.00001 -0.2,-0.3 -0.6,-0.39844 -1,-0.39844 z m 2.39844,0 v 3.39845 h 0.40039 v -2.09961 c 0,-0.1 0.10117,-0.30039 0.20117,-0.40039 l 0.29883,-0.29883 c 0.1,-0.10001 0.30039,-0.20118 0.40039,-0.20118 0.1,-0.1 0.30038,-0.0996 0.40038,-0.0996 0.3,0 0.49961,0.10078 0.59962,0.30079 0.1,0.2 0.19921,0.50039 0.19921,0.90039 v 1.89844 h 0.40039 0.0996 v -1.89844 c 0,-0.2 3.7e-4,-0.40156 -0.0996,-0.60156 -0.1,-0.2 -0.0992,-0.40001 -0.19922,-0.50001 -0.1,-0.1 -0.10077,-0.19883 -0.30078,-0.29883 -0.2,-0.1 -0.3,-0.0996 -0.5,-0.0996 -0.4,0 -0.60039,-7.8e-4 -0.90039,0.19922 -0.3,0.1 -0.4996,0.29961 -0.59961,0.59962 v -0.79884 z m 8.90039,0 c -0.4,0 -0.89883,0.0984 -1.29883,0.39844 l 0.19922,0.30079 0.59961,-0.30079 c 0.1,-0.1 0.3,-0.0996 0.5,-0.0996 0.3,0 0.50117,0.10078 0.70117,0.30079 0.19999,0.2 0.29883,0.39922 0.29883,0.69922 v 0.30078 c -0.2,0 -0.3,-0.0996 -0.5,-0.0996 h -0.5 c -0.2,0 -0.39961,-3.7e-4 -0.59961,0.0996 -0.2,0 -0.40001,0.0992 -0.5,0.19922 l -0.30079,0.30078 c -0.1,0.1 -0.0996,0.30039 -0.0996,0.40039 0,0.1 -3.7e-4,0.29844 0.0996,0.39844 0,0.1 0.10117,0.20078 0.20117,0.30078 0.1,0.1 0.30039,0.0992 0.40039,0.19922 0.2,0.1 0.3,0.10156 0.5,0.10156 0.3,0 0.49922,-0.002 0.69922,-0.10156 0.2,-0.1 0.39961,-0.3 0.59961,-0.5 v 0.30078 c 0,0.1 -3.7e-4,0.0992 0.0996,0.19922 0.1,0.1 0.20079,0.10156 0.30078,0.10156 h 0.19922 v -0.40036 c -0.1,-10e-6 -0.19922,-0.10117 -0.19922,-0.20117 v -1.5 c 0,-0.4 -0.20039,-0.8 -0.40038,-1.00001 -0.2,-0.3 -0.6,-0.39844 -1,-0.39844 z m 6.09961,0 v 3.39845 h 0.40039 v -3.39845 z m 5.30078,0 v 3.39845 h 0.40039 v -2.09961 c 0,-0.1 0.0992,-0.30039 0.19922,-0.40039 l 0.30078,-0.29883 c 0.1,-0.10001 0.30039,-0.20118 0.40039,-0.20118 0.1,-0.1 0.29844,-0.0996 0.39843,-0.0996 0.30001,0 0.50157,0.10078 0.60157,0.30079 0.1,0.2 0.19922,0.50039 0.19922,0.90039 v 1.89844 h 0.40038 0.0996 v -1.89844 c 0,-0.2 3.8e-4,-0.40156 -0.0996,-0.60156 -0.1,-0.2 -0.10117,-0.40001 -0.20117,-0.50001 -0.1,-0.1 -0.0988,-0.19883 -0.29883,-0.29883 -0.2,-0.1 -0.3,-0.0996 -0.5,-0.0996 -0.4,0 -0.60039,-7.8e-4 -0.90038,0.19922 -0.30001,0.1 -0.49961,0.29961 -0.59962,0.59962 v -0.79884 z m -15,0.19922 c 0.2,0 0.4,-3.7e-4 0.5,0.0996 0.2,0.1 0.30039,0.20078 0.40039,0.30079 0.1,0.1 0.29883,0.30039 0.29883,0.40039 0,0.1 0.10156,0.3 0.10156,0.5 h -2.60156 c 0,-0.2 0.002,-0.3 0.10156,-0.5 0.1,-0.2 0.19883,-0.20039 0.29883,-0.40039 0.1,-0.20001 0.30039,-0.20079 0.40039,-0.30079 0.2,-0.1 0.3,-0.0996 0.5,-0.0996 z m 12.59961,0.19922 c 0.2,0 0.3,0.002 0.5,0.10156 0.2,0.10001 0.30039,0.19884 0.40039,0.29884 0.1,0.1 0.20078,0.20039 0.30078,0.40039 0.1,0.1 0.0996,0.3 0.0996,0.5 0,0.2 3.7e-4,0.3 -0.0996,0.5 -0.1,0.1 -0.20078,0.30039 -0.30078,0.40039 -0.1,0.1 -0.20039,0.19883 -0.40039,0.29883 -0.2,0.1 -0.3,0.10156 -0.5,0.10156 -0.2,0 -0.3,-0.002 -0.5,-0.10156 -0.2,-0.1 -0.30039,-0.19883 -0.40039,-0.29883 -0.1,-0.1 -0.19883,-0.20039 -0.29883,-0.40039 -0.1,-0.1 -0.0996,-0.3 -0.0996,-0.5 0,-0.2 -3.7e-4,-0.3 0.0996,-0.5 0.1,-0.1 0.19883,-0.30039 0.29883,-0.40039 0.1,-0.1 0.30039,-0.19883 0.40039,-0.29884 0.2,-0.1 0.3,-0.10156 0.5,-0.10156 z m -147.00976,0.78321 -0.89649,1.49414 v 0.002 l -0.002,0.002 -0.77149,1.34961 0.42969,0.24609 0.77149,-1.34961 0.89258,-1.49023 z m 44.333975,0.42774 -0.49023,0.0605 0.41211,3.26954 0.49023,-0.0605 z m 82.275395,0.28906 h 0.5 c 0.2,0 0.4,0.002 0.5,0.10156 v 0.59961 0.0996 l -0.0996,0.0996 c -0.1,0.1 -0.20039,0.20078 -0.40039,0.30078 -0.2,0.1 -0.39961,0.0996 -0.59961,0.0996 -0.1,0 -0.20039,-0.10037 -0.40039,0.0996 -0.1,-0.1 -0.19883,-0.19922 -0.29883,-0.19922 -0.1,0 -0.20117,-0.10117 -0.20117,-0.20117 -0.1,-0.1 -0.0996,-0.19883 -0.0996,-0.29883 0,-0.2 0.10078,-0.4 0.30078,-0.5 0.2,-0.1 0.49883,-0.20117 0.79883,-0.20117 z m 11.30078,0 h 0.5 c 0.2,0 0.4,0.002 0.5,0.10156 v 0.59961 0.0996 l -0.0996,0.0996 c -0.1,0.1 -0.20039,0.20078 -0.40039,0.30078 -0.2,0.1 -0.39961,0.0996 -0.59961,0.0996 -0.1,0 -0.20039,-0.10037 -0.40039,0.0996 -0.1,-0.1 -0.20078,-0.19922 -0.30078,-0.19922 -0.1,0 -0.19922,-0.10117 -0.19922,-0.20117 -0.1,-0.1 -0.0996,-0.19883 -0.0996,-0.29883 0,-0.2 0.0988,-0.4 0.29883,-0.5 0.2,-0.1 0.50078,-0.20117 0.80078,-0.20117 z m -163.45508,0.62109 -0.8125,0.57032 -0.002,0.002 -1.89648,1.29687 0.27929,0.40821 1.89844,-1.29883 0.002,-0.002 0.81445,-0.57227 z m 51.751955,1.1543 -1.85547,0.80859 -0.004,0.002 -1.167965,0.47656 0.1875,0.45898 1.171875,-0.48046 h 0.002 l 0.004,-0.002 1.85937,-0.81054 z m 9.72461,0.30078 -0.94141,0.9082 -0.002,0.002 -1.41016,1.40234 0.34961,0.35156 1.40625,-1.40039 0.002,-0.002 0.93946,-0.9043 z m 59.855475,1.05274 -0.3086,0.0684 h -0.004 l -2.91407,0.58008 0.0957,0.48438 2.91992,-0.58008 h 0.002 l 0.002,-0.002 0.31055,-0.0664 z m -9.69336,1.89843 -3.24414,0.58594 0.0879,0.48633 3.24414,-0.58594 z m 10.13672,0.34571 -0.14454,0.0586 h -0.004 l -0.002,0.002 -2.89062,1.22852 0.19336,0.45508 2.88476,-1.22657 0.006,-0.002 0.13868,-0.0547 z m -79.16211,0.14257 -3.07813,1.17774 0.17578,0.46094 3.07813,-1.17774 z m 59.28711,1.19336 -3.00782,0.49024 h -0.004 l -0.23633,0.0332 0.0703,0.49024 0.24024,-0.0352 h 0.002 0.002 l 3.01367,-0.49024 z m 25.8789,0.4961 -1.40625,1.41601 -0.002,0.002 -0.004,0.002 -0.88867,0.94922 0.36133,0.33789 0.88281,-0.94336 0.006,-0.006 1.40234,-1.4082 z m -41.923835,0.12304 -0.46093,0.17969 0.22851,0.58594 0.002,0.002 v 0.004 l 1.02149,2.46289 0.45703,-0.18945 -1.01953,-2.45899 -0.002,-0.004 z m 44.199225,0.46875 -1.84961,2.72657 0.40821,0.27734 1.85156,-2.72656 z m -109.43945,0.0684 -1.57227,2.89649 0.4336,0.23633 1.57226,-2.89649 z m 71.513665,0.3125 -0.44141,0.0645 h -0.004 l -2.81836,0.35937 0.0625,0.49024 2.82226,-0.35938 h 0.002 0.002 l 0.44531,-0.0644 z m -58.787105,0.75391 -0.19336,0.0703 -0.006,0.002 -2.91797,0.98046 0.15625,0.4668 2.92383,-0.98047 h 0.004 l 0.002,-0.002 0.19922,-0.0703 z m 21.152345,0.1543 -0.53125,0.54492 v 0.002 h -0.002 l -1.73828,1.84766 0.19336,0.18164 -2.05664,0.084 h -0.004 l -0.86718,0.0215 0.0137,0.49414 0.86914,-0.0215 h 0.002 0.002 l 2.42383,-0.0996 -0.0215,-0.49414 -0.0332,0.002 1.57421,-1.67383 0.002,-0.002 0.52734,-0.54297 z m 58.189455,0.20117 -3,1.36523 0.20508,0.44922 3,-1.36328 z m -30.357425,0.10742 -3.27539,0.35938 0.0547,0.49023 3.27539,-0.35938 z m -11.03907,0.0859 -0.48632,0.0898 0.17578,0.95508 -0.36719,0.0352 h -0.004 l -1.38867,0.10351 0.0371,0.49414 1.39258,-0.10547 h 0.002 0.002 l 0.41796,-0.0391 0.33204,1.79688 0.48632,-0.0898 -0.32422,-1.75195 0.97852,-0.0918 -0.0449,-0.49219 -1.02344,0.0957 z m 190.875005,0.54687 -0.90039,1.59961 0.90039,0.29883 1.40039,-1.89844 z m -262.01367,0.16211 -0.0508,0.49024 0.50781,0.0527 h 0.002 0.002 l 2.77344,0.24219 0.043,-0.49219 -2.76953,-0.24219 h -0.004 z m 9.84375,0.8125 -0.0351,0.49219 2.48242,0.17773 h 0.002 0.002 l 0.80664,0.0449 0.0274,-0.49219 -0.80664,-0.0469 v 0.002 z m 52.654295,0.13867 -3.28906,0.19141 0.0273,0.49414 3.29102,-0.19141 z m -42.792965,0.42969 -0.0195,0.49414 3.29297,0.13281 0.0195,-0.49414 z m 9.87695,0.31445 -0.0117,0.49415 1.24023,0.0312 h 0.002 0.002 l 2.05468,0.0156 0.004,-0.49414 -2.05078,-0.0156 h -0.004 z m 13.17383,0.0332 -3.29492,0.0273 0.004,0.49414 3.29492,-0.0273 z m -18.94531,0.0937 -2.19531,0.68945 h -0.004 v 0.002 l -0.94531,0.2754 0.13867,0.4746 0.94922,-0.27929 h 0.002 0.002 l 2.20117,-0.69141 z m 237.80273,1.01562 c -0.7,0 -1.39961,0.1 -2.09961,0.5 -0.7,0.4 -1.19921,0.79883 -1.69921,1.29883 -0.5,0.5 -0.80157,1.10078 -1.10157,1.80078 -0.3,0.7 -0.39843,1.49922 -0.39843,2.19922 0,0.7 0.0984,1.39961 0.39843,2.09961 0.3,0.7 0.60157,1.30078 1.10157,1.80078 0.5,0.6 0.99921,1.00078 1.69921,1.30078 0.7,0.3 1.39922,0.5 2.19922,0.5 0.8,0 1.50157,-0.10156 2.10157,-0.60156 0.7,-0.3 1.19921,-0.69922 1.69921,-1.19922 0.5,-0.5 0.79961,-1.10078 1.09961,-1.80078 0.3,-0.7 0.40039,-1.49922 0.40039,-2.19922 0,-0.7 -0.10039,-1.39961 -0.40039,-2.09961 -0.3,-0.7 -0.59961,-1.30078 -1.09961,-1.80078 -0.5,-0.5 -1.09921,-0.99883 -1.69921,-1.29883 -0.7,-0.3 -1.40118,-0.5 -2.20118,-0.5 z m -14.69922,0.0996 c -0.89999,0 -1.60078,0.2 -2.30078,0.5 -0.7,0.3 -1.19922,0.79883 -1.69922,1.29883 -0.39999,0.5 -0.79999,1.10078 -1,1.80078 -0.29999,0.7 -0.40039,1.3 -0.40039,2 0,0.8 0.10039,1.49961 0.40039,2.09961 0.3,0.7 0.59961,1.40039 1.09961,1.90039 0.5,0.5 1.09922,1.00078 1.69922,1.30078 0.6,0.3 1.30157,0.5 2.10157,0.5 0.39999,0 0.79881,-0.10117 1.29881,-0.20117 0.5,-0.1 0.90079,-0.3 1.30078,-0.5 0.4,-0.2 0.69961,-0.49883 1.09961,-0.79883 0.4,-0.3 0.60079,-0.70156 0.80079,-1.10156 l -1.20118,-0.59961 c -0.1,0.39997 -0.39961,0.70039 -0.59961,0.90039 -0.2,0.2 -0.50078,0.39961 -0.80078,0.59961 -0.3,0.2 -0.59843,0.30039 -0.89843,0.40039 -0.3,0.1 -0.60039,0.0996 -0.9004,0.0996 -0.6,0 -1.0996,-0.20039 -1.5996,-0.40039 -0.4,-0.3 -0.90118,-0.6 -1.20118,-1 -0.3,-0.4 -0.59882,-0.89844 -0.79882,-1.39844 -0.2,-0.5 -0.30079,-1.10117 -0.30079,-1.70117 0,-0.6 -7.8e-4,-1.09961 0.19922,-1.59961 0.1,-0.5 0.40117,-1.00039 0.70117,-1.40039 0.3,-0.4 0.69922,-0.7 1.19922,-1 0.5,-0.3 1.10118,-0.40039 1.70119,-0.40039 0.3,0 0.59843,0.002 0.89843,0.10156 0.3,0 0.60039,0.19883 0.90039,0.29883 0.3,0.2 0.60078,0.39961 0.80078,0.59961 0.20001,0.2 0.39961,0.50039 0.59961,0.90039 l 1.09961,-0.69922 c -0.3,-0.8 -0.89962,-1.30078 -1.59961,-1.80078 -0.7,-0.5 -1.59961,-0.69922 -2.59961,-0.69922 z m -67.0996,0.0996 v 11.19922 h 1.5 v -4 h 3.39843 c 0.5,0 1.00039,-0.0988 1.40038,-0.29883 0.4,-0.2 0.7,-0.40078 1,-0.80078 0.3,-0.4 0.50118,-0.79922 0.70118,-1.19922 0.1,-0.4 0.19921,-0.80078 0.19921,-1.30078 0,-0.4 -0.10078,-0.89883 -0.30078,-1.29883 -0.2,-0.5 -0.39922,-0.90117 -0.69922,-1.20117 -0.3,-0.3 -0.69961,-0.59883 -1.09961,-0.79883 -0.39999,-0.2 -0.90039,-0.30078 -1.40039,-0.30078 z m 9.79882,0 v 11.19922 0.10156 h 7.70118 v -1.30078 h -6.30079 v -10 z m 12.80078,0 -4.5996,11.19922 h 1.5996 l 1.29883,-3.29883 h 4.70117 l 1.29883,3.29883 h 1.5 l -4.59961,-11.19922 z m 7.29883,0 v 11.30078 h 1.40039 v -8.60156 l 6.90039,8.5 h 1.19922 v -11.19919 h -1.39843 v 8.69922 l -7,-8.69922 z m 12.20117,0 v 11.30078 h 7.59961 v -1.30078 h -6.19921 v -3.90039 h 5.29881 v -1.19922 h -5.29881 v -3.59961 h 6.0996 v -1.30078 z m 13,0 -4.5996,11.19922 h 1.5996 l 1.29883,-3.29883 h 4.70117 l 1.29883,3.29883 h 1.5 l -4.59961,-11.19922 z m 18.09961,0 v 11.19922 h 1.40039 v -11.19919 z m 16,0 v 11.30078 h 1.40039 v -8.60156 l 6.9004,8.5 h 1.19921 v -11.19919 h -1.40039 v 8.69922 l -7,-8.69922 z m -165.4414,0.2461 -2.96485,1.4375 0.21485,0.44336 2.96679,-1.43555 z m 77.64062,0.95312 h 3.20117 c 0.30001,0 0.59883,0.10117 0.79883,0.20117 0.2,0.1 0.50157,0.3 0.60157,0.5 0.1,0.2 0.29843,0.39922 0.39843,0.69922 0.1,0.3 0.20118,0.60039 0.20117,0.90039 0,0.3 3.7e-4,0.60039 -0.0996,0.90039 -0.1,0.3 -0.20039,0.59883 -0.4004,0.79883 -0.19999,0.2 -0.3996,0.4 -0.5996,0.5 -0.2,0.1 -0.50079,0.20117 -0.80079,0.20117 h -3.30078 z m 80.60157,0 c 0.6,0 1.0996,0.20039 1.5996,0.40039 0.5,0.3 0.89922,0.6 1.19922,1 0.4,0.4 0.60078,0.90039 0.80078,1.40039 0.20001,0.6 0.29883,1.09922 0.29883,1.69922 0,0.5 -0.0988,1.10156 -0.29883,1.60156 -0.2,0.5 -0.50078,0.99844 -0.80078,1.39844 -0.3,0.4 -0.69922,0.7 -1.19922,1 -0.5,0.3 -0.9996,0.40039 -1.5996,0.40039 -0.6,0 -1.10157,-0.20039 -1.60157,-0.40039 -0.5,-0.3 -0.89922,-0.6 -1.19922,-1 -0.4,-0.4 -0.60078,-0.89844 -0.80078,-1.39844 -0.2,-0.6 -0.29882,-1.10117 -0.29883,-1.70117 0,-0.5 0.0988,-1.09961 0.29883,-1.59961 0.2,-0.5 0.50078,-1.00039 0.80078,-1.40039 0.3,-0.4 0.69922,-0.7 1.19922,-1 0.5,-0.3 1.00157,-0.40039 1.60157,-0.40039 z m -140.89844,0.0508 -0.0312,0.0371 -0.004,0.002 -0.002,0.004 -2.06445,2.50781 0.38281,0.3125 2.05859,-2.5 0.004,-0.006 0.0273,-0.0312 z m -106.57813,0.33008 -3.17773,0.87109 0.1289,0.47657 3.17969,-0.8711 z m 188.67578,0.0195 2,5.20117 h -4.09962 z m 32.5,0 2,5.20117 h -4.09961 z m -111.02344,1.25586 -1.68945,2.83008 0.42382,0.25391 1.68945,-2.83008 z m -76.88085,0.25 -0.45703,0.50391 -0.002,0.002 -0.002,0.002 -1.72461,1.96485 0.37109,0.32617 1.72266,-1.96289 0.004,-0.004 0.45312,-0.49804 z m 42.033195,0.0469 -0.44922,0.20898 0.3457,0.74023 0.002,0.004 v 0.002 l 1.09765,2.22071 0.44336,-0.21875 -1.09375,-2.21485 -0.004,-0.006 z m -73.843745,0.20703 -1.51172,2.92773 0.43945,0.22656 1.51172,-2.92773 z m -11.01562,0.74023 -0.44532,0.11328 h -0.004 l -2.75196,0.6543 0.11524,0.48047 2.75586,-0.6543 h 0.002 l 0.002,-0.002 0.44727,-0.11328 z m 89.955065,0.5957 -1.13281,0.58204 -0.002,0.002 -0.004,0.002 -1.77539,0.9668 0.23828,0.43359 1.76953,-0.96484 0.004,-0.002 1.128905,-0.58008 z m -21.60156,1.22461 -0.48047,0.11719 0.75977,3.10156 v 0.004 0.004 l 0.0273,0.0977 0.47656,-0.13086 -0.0254,-0.0976 h -0.002 z M 0.35547,191.69372 0,191.77182 v 0.50586 l 0.46094,-0.10157 z m 119.60352,2.6836 -1.91211,2.68359 0.40234,0.28711 1.91211,-2.68555 z m -28.720715,0.40429 -2.85546,1.64453 0.24609,0.42774 2.85547,-1.64258 z m 73.394545,0.8418 h 1.42187 v 14.16016 h 2.7207 v 1.91796 h -2.7207 v 5.50391 h -2.10351 v -5.50391 h -10.29493 v -1.85546 z m -118.3086,0.31641 -0.67383,0.79687 -0.002,0.002 -0.002,0.002 -1.42188,1.74609 0.38281,0.31055 1.41993,-1.74219 0.002,-0.002 0.67188,-0.79297 z m 78.47461,0.88086 -1.3125,2.52734 -0.002,0.004 -0.002,0.002 -0.19532,0.4043 0.44532,0.21484 0.1914,-0.39649 0.002,-0.004 0.002,-0.004 1.31054,-2.51953 z m -25.453125,0.46289 -0.4336,0.24023 0.68555,1.23828 v 0.002 l 0.002,0.004 0.949225,1.62305 0.42578,-0.25 -0.94531,-1.61719 -0.002,-0.006 z m -82.794925,0.26953 -0.97851,1.99609 -0.002,0.002 v 0.002 l -0.45313,0.97265 0.44922,0.20704 0.44922,-0.9668 0.002,-0.004 0.97656,-1.99219 z m 147.61719,1.3789 -8.28515,10.85157 h 8.28515 z m -81.460945,0.85352 -1.77539,1.07617 -0.0195,-0.0606 -0.47265,0.14454 0.0547,0.18164 -0.60546,0.36718 0.25585,0.42188 0.49805,-0.30274 0.42578,1.40039 v 0.004 l 0.002,0.002 0.35937,1.07618 0.46875,-0.15625 -0.35742,-1.07032 -0.002,-0.006 -0.46094,-1.51367 1.88476,-1.14062 z m 100.900395,2.66992 4.29883,7.09961 v 4.10156 h 1.40039 v -4.10156 l 4.30078,-7.09961 h -1.5 l -3.40039,5.90039 -3.40039,-5.90039 z m 35.59961,0 v 1.30078 h 3.90039 v 10 h 1.4004 v -10 h 3.89843 v -1.30078 z m 35.5,0 c -0.80001,0 -1.4996,0.2 -2.09961,0.5 -0.7,0.3 -1.20117,0.70117 -1.70117,1.20117 -0.5,0.5 -0.79961,1.09883 -1.09961,1.79883 -0.3,0.7 -0.40039,1.40117 -0.40039,2.20117 0,0.7 0.10039,1.39961 0.40039,2.09961 0.3,0.7 0.59961,1.29883 1.09961,1.79883 0.5,0.5 1.10117,1.00078 1.70117,1.30078 0.70001,0.3 1.39961,0.5 2.09961,0.5 1.3,0 2.40039,-0.49961 3.40039,-1.59961 v 1.5 h 1.19922 v -5.59961 h -3.59961 v 1.09961 h 2.30079 v 1.59961 c -1,1.2 -2.10079,1.80078 -3.30079,1.80078 -0.5,0 -1,-0.10078 -1.5,-0.30078 -0.4,-0.3 -0.89921,-0.6 -1.19921,-1 -0.3,-0.4 -0.60079,-0.90039 -0.80079,-1.40039 -0.2,-0.5 -0.30078,-1.09922 -0.30078,-1.69922 0,-0.6 0.10078,-1.20117 0.30078,-1.70117 0.2,-0.5 0.50079,-0.99844 0.80079,-1.39844 0.3,-0.4 0.69921,-0.8 1.19921,-1 0.4,-0.3 0.9,-0.40039 1.5,-0.40039 0.7,0 1.30039,0.2 1.90039,0.5 0.5,0.4 0.99883,0.8 1.29883,1.5 l 1.10157,-0.80078 c -0.4,-0.8 -0.90157,-1.29883 -1.60157,-1.79883 -0.7,-0.5 -1.59922,-0.70117 -2.69922,-0.70117 z m -140.34961,0.0781 -0.42773,0.66406 -0.002,0.002 v 0.002 l -1.31836,2.13086 0.41992,0.25977 1.31641,-2.12695 0.002,-0.004 0.42578,-0.6582 z m 84.04882,0.0215 v 11.20117 h 7.60157 v -1.20117 h -6.20118 v -3.89844 h 5.30078 v -1.20117 h -5.30078 v -3.59961 h 6.09962 v -1.30078 z m 9.70117,0 v 11.20117 h 1.4004 v -8.59961 l 6.89843,8.59961 h 1.20117 v -11.20117 h -1.40039 v 8.70117 l -7,-8.70117 z m 21.9004,0 v 11.20117 0.0996 h 1.39843 v -4 h 3 l 2.60157,4 h 1.5996 l -2.70117,-4.30078 c 0.4,-0.1 0.8,-0.2 1,-0.5 0.2,-0.3 0.50117,-0.49883 0.70117,-0.79883 0.20001,-0.3 0.40001,-0.6 0.5,-1 0.10001,-0.3 0.19922,-0.69961 0.19922,-1.09961 0,-0.4 -0.0988,-0.90078 -0.29881,-1.30078 -0.2,-0.5 -0.40119,-0.89922 -0.70119,-1.19922 -0.3,-0.3 -0.69961,-0.60078 -1.0996,-0.80078 -0.4,-0.2 -0.9004,-0.30078 -1.4004,-0.30078 z m 10.5,0 v 11.20117 h 7.5996 v -1.20117 h -6.20117 v -3.89844 h 5.30078 v -1.20117 h -5.30078 v -3.59961 h 6.10157 v -1.30078 z m 24.39844,0 -4.59961,11.20117 h 1.59961 l 1.30077,-3.30078 h 4.69923 l 1.30077,3.30078 h 1.5 l -4.59961,-11.20117 z m -224.79687,1.08594 -1.12891,1.43945 -0.002,0.002 v 0.002 l -0.88281,1.16992 0.39453,0.29883 0.8789,-1.16797 0.004,-0.004 1.125,-1.43554 z m 191.29686,0.11523 h 3.30078 c 0.3,0 0.60079,0.0992 0.80079,0.19922 0.2,0.1 0.3996,0.3 0.5996,0.5 0.10001,0.2 0.3004,0.40117 0.4004,0.70117 0.1,0.3 0.19921,0.59844 0.19921,0.89844 0,0.3 3.6e-4,0.60039 -0.0996,0.90039 -0.1,0.3 -0.20039,0.60078 -0.40039,0.80078 -0.2,0.2 -0.39961,0.4 -0.59961,0.5 -0.2,0.1 -0.50078,0.19922 -0.80078,0.19922 h -3.40039 z m 34.10157,0.40039 2,5.19922 h -4.10156 z m -191.187495,0.875 -1.03711,0.66211 h -0.004 l -0.002,0.002 -1.71485,1.14843 0.27539,0.41016 1.71094,-1.14453 0.004,-0.004 1.0332,-0.6582 z m 46.171865,0.70118 -0.60351,1.3496 -0.002,0.002 -0.002,0.004 -0.69141,1.68164 0.45703,0.1875 0.6875,-1.67382 h 0.002 l 0.60351,-1.34961 z m -16.07227,0.0117 -0.41406,0.26953 1.32422,2.03126 0.002,0.004 0.002,0.002 0.49414,0.7168 0.40625,-0.2793 -0.49024,-0.71289 -0.002,-0.004 -0.002,-0.002 z m -92.07811,0.76368 -1.33008,3.01562 0.45313,0.19922 1.33007,-3.01563 z m 71.722655,3.64843 -0.46485,0.16797 0.30274,0.83399 0.002,0.002 0.002,0.004 0.87891,2.24218 0.46094,-0.18164 -0.87891,-2.23633 -0.002,-0.006 z m -17.9668,0.38086 -2.69922,1.89258 0.28516,0.4043 2.69726,-1.89258 z m 43.193355,0.5 -0.0352,0.0606 v 0.002 l -0.002,0.002 -1.53125,2.83789 -0.002,0.004 -0.002,0.002 0.22071,0.11328 0.0195,0.0117 0.19726,0.10546 0.002,-0.004 v -0.002 l 1.52929,-2.83008 0.002,-0.004 0.0312,-0.0547 z m -75.12109,0.51563 -1.77148,2.45117 -0.002,0.002 -0.002,0.002 -0.15429,0.22265 0.40625,0.28125 0.15234,-0.21875 0.002,-0.004 1.76954,-2.44727 z m 75.87695,2.30273 -0.40039,0.29102 0.0234,0.0332 0.002,0.002 0.002,0.002 1.98047,2.58398 0.39258,-0.30078 -1.98047,-2.58398 h -0.002 z m 6.75,1.06836 -1.07617,3.11524 0.46875,0.16015 1.07422,-3.11523 z m -108.39257,0.6582 -1.26953,3.03907 0.45508,0.1914 1.27148,-3.04101 z m 49.644525,0.70508 -2.39648,1.75782 -0.002,0.002 h -0.004 l -0.25586,0.19726 0.30078,0.39258 0.25195,-0.19336 0.004,-0.004 2.39453,-1.75391 z m 127.257805,1.16797 v 5.59961 0.10156 h 2 c 0.4,0 0.79961,-0.10117 1.09962,-0.20117 0.3,-0.2 0.60077,-0.29961 0.80078,-0.59961 0.19999,-0.3 0.4,-0.60039 0.5,-0.90039 0.1,-0.4 0.19922,-0.79922 0.19922,-1.19922 0,-0.4 -0.0992,-0.69961 -0.19922,-1.09961 -0.1,-0.4 -0.30001,-0.60039 -0.5,-0.90039 -0.2,-0.3 -0.40078,-0.49961 -0.80078,-0.59961 -0.40001,-0.1 -0.79922,-0.20117 -1.19922,-0.20117 z m 5.59962,0 v 5.59961 h 3.80078 v -0.5 h -3.19921 v -2.09961 h 2.69921 v -0.5 h -2.69921 v -2 h 3.0996 v -0.5 z m 6.90038,0 v 5.59961 0.10156 h 0.5 v -2.10156 h 1.70118 l 1.29882,2.10156 h 0.59962 l -1.39843,-2.20117 c 0.19999,0 0.3,-0.0992 0.5,-0.19922 0.19999,-0.1 0.29843,-0.30039 0.39843,-0.40039 0.19999,-0.1 0.20078,-0.3 0.30078,-0.5 0.1,-0.2 0.0996,-0.39961 0.0996,-0.59961 0,-0.2 3.6e-4,-0.39961 -0.0996,-0.59961 0,-0.2 -0.20079,-0.40156 -0.30078,-0.60156 -0.1,-0.2 -0.30001,-0.29844 -0.5,-0.39844 -0.2,-0.1 -0.49923,-0.20117 -0.69922,-0.20117 z m 5.09962,0 v 5.59961 h 3.80078 v -0.5 h -3.19921 v -2.09961 h 2.69921 v -0.5 h -2.69921 v -2 h 3.0996 v -0.5 z m 15.49999,0 v 5.59961 h 3.80078 v -0.5 h -3.19921 v -5.09961 z m 3.10157,0 v 0.5 h 2 v 5.09961 h 0.5996 v -5.09961 h 2 v -0.5 z m 6.5996,0 -2.30078,5.59961 h 0.59961 l 0.70117,-1.79883 h 2.5 l 0.69922,1.79883 h 0.59961 l -2.29883,-5.59961 z m 3.59961,0 v 5.59961 0.10156 h 2 c 0.4,0 0.79961,-0.10117 1.09961,-0.20117 0.3,-0.2 0.60078,-0.29961 0.80078,-0.59961 0.20001,-0.3 0.40001,-0.60039 0.5,-0.90039 0.10001,-0.4 0.19922,-0.79922 0.19922,-1.19922 0,-0.4 -0.0992,-0.69961 -0.19922,-1.09961 -0.1,-0.4 -0.29999,-0.60039 -0.5,-0.90039 -0.2,-0.3 -0.40078,-0.49961 -0.80078,-0.59961 -0.4,-0.1 -0.79921,-0.20117 -1.19922,-0.20117 z m 7.90039,0.0996 c -0.29999,0 -0.7,10e-4 -1,0.20117 -0.29999,0.1 -0.50078,0.29961 -0.80078,0.59961 -0.3,0.3 -0.49961,0.60039 -0.5996,0.90039 -0.10001,0.4 -0.19921,0.69961 -0.19921,1.09961 0,0.4 0.0992,0.79961 0.19921,1.09961 0.1,0.3 0.3,0.60039 0.5,0.90039 0.19999,0.2 0.50078,0.39961 0.80079,0.59961 0.39999,0.1 0.69961,0.20117 1.0996,0.20117 0.39999,0 0.8,-0.10117 1,-0.20117 0.3,-0.1 0.59883,-0.29961 0.79883,-0.59961 0.3,-0.3 0.50157,-0.60039 0.60157,-0.90039 0.1,-0.4 0.19921,-0.69961 0.19921,-1.09961 0,-0.3 -0.0992,-0.7 -0.19921,-1 -0.10001,-0.3 -0.30001,-0.60039 -0.5,-0.90039 -0.2,-0.3 -0.50079,-0.49922 -0.80079,-0.69922 -0.4,-0.1 -0.69962,-0.20117 -1.09962,-0.20117 z m -30.20117,0.10156 c -0.3,0 -0.59883,-3.6e-4 -0.79883,0.0996 l -0.5996,0.29883 c -0.2,0.1 -0.30039,0.3 -0.4004,0.5 -0.1,0.2 -0.0996,0.40117 -0.0996,0.70117 0,0.3 -3.6e-4,0.39961 0.0996,0.59961 0,0.2 0.0988,0.30039 0.29883,0.40039 l 0.60157,0.29883 c 0.2,0.1 0.49882,0.10117 0.79882,0.20117 0.2,0.1 0.50118,0.19922 0.70118,0.19922 0.2,0 0.4,0.10117 0.50001,0.20117 l 0.29881,0.29883 c 0.10001,0.1 0.0996,0.20039 0.0996,0.40039 0,0.3 -0.0984,0.49922 -0.39843,0.69922 -0.2,0.1 -0.6,0.20117 -1,0.20117 -0.2,0 -0.40157,-0.0996 -0.60157,-0.0996 -0.1,-0.1 -0.3,-0.10117 -0.5,-0.20117 -0.2,0 -0.4,-0.0992 -0.5,-0.19922 -0.2,-0.1 -0.29843,-0.20078 -0.39843,-0.30078 l -0.30079,0.5 c 0.7,0.5 1.40079,0.80078 2.30079,0.80078 0.3,0 0.59882,3.6e-4 0.79882,-0.0996 l 0.59961,-0.30078 c 0.2,-0.2 0.30039,-0.3 0.4004,-0.5 0.1,-0.2 0.20118,-0.39922 0.20118,-0.69922 0,-0.2 -0.002,-0.50156 -0.10157,-0.60156 -0.1,-0.1 -0.19843,-0.29844 -0.39843,-0.39844 l -0.60157,-0.30078 c -0.2,-0.1 -0.49882,-0.0992 -0.79883,-0.19922 -0.3,-0.1 -0.50117,-0.10117 -0.70117,-0.20117 -0.2,-0.1 -0.4,-0.0992 -0.5,-0.19922 l -0.29883,-0.30078 c -0.1,-0.1 -0.0996,-0.20039 -0.0996,-0.40039 0,-0.4 0.0988,-0.59883 0.29882,-0.79883 0.2,-0.2 0.59961,-0.30078 1.09961,-0.30078 0.3,0 0.60039,0.10117 0.90039,0.20117 0.2,0.1 0.39961,0.19844 0.59961,0.39844 l 0.30078,-0.19922 c -0.2,-0.2 -0.50078,-0.4 -0.80078,-0.5 -0.3,-0.1 -0.6,-0.19922 -1,-0.19922 z m 7.20117,0 v 2.79883 c 0,0.2 3.7e-4,0.60078 -0.0996,0.80078 -0.1,0.2 -0.10079,0.49922 -0.30079,0.69922 -0.2,0.2 -0.39961,0.4 -0.59961,0.5 -0.29999,0.1 -0.50039,0.20117 -0.90039,0.20117 -0.3,0 -0.59961,-0.1 -0.59961,0 -0.29999,-0.1 -0.4996,-0.3 -0.5996,-0.5 -0.1,-0.2 -0.20079,-0.40117 -0.30079,-0.70117 -0.1,-0.3 -0.0996,-0.60039 -0.0996,-0.90039 v -2.79883 h -0.5 v 2.79883 c 0,0.3 -3.6e-4,0.7 0.0996,1 0.1,0.3 0.20039,0.70039 0.40039,0.90039 0.20001,0.2 0.39922,0.39961 0.69922,0.59961 0.3,0.1 0.69961,0.20117 1.09961,0.20117 0.4,0 0.80157,-0.001 1.10157,-0.20117 0.3,-0.1 0.49921,-0.29961 0.69921,-0.59961 0.2,-0.3 0.30039,-0.60039 0.40039,-0.90039 0.10001,-0.4 0.0996,-0.69961 0.0996,-1.09961 v -2.79883 z m 28.5,0 c -0.29999,0 -0.60078,-3.6e-4 -0.80078,0.0996 l -0.5996,0.29883 c -0.2,0.1 -0.30039,0.3 -0.4004,0.5 -0.1,0.2 -0.0996,0.40117 -0.0996,0.70117 0,0.3 -3.6e-4,0.39961 0.0996,0.59961 0,0.2 0.10078,0.30039 0.30078,0.40039 l 0.59961,0.29883 c 0.2,0.1 0.50079,0.10117 0.80079,0.20117 0.2,0.1 0.49921,0.19922 0.69921,0.19922 0.2,0 0.4,0.10117 0.5,0.20117 l 0.30079,0.29883 c 0.1,0.1 0.0996,0.20039 0.0996,0.40039 0,0.3 -0.10039,0.49922 -0.40039,0.69922 -0.2,0.1 -0.6,0.20117 -1,0.20117 -0.2,0 -0.39961,-0.0996 -0.59961,-0.0996 -0.1,-0.1 -0.29999,-0.10117 -0.5,-0.20117 -0.2,0 -0.4,-0.0992 -0.5,-0.19922 -0.2,-0.1 -0.30039,-0.20078 -0.40039,-0.30078 l -0.30078,0.5 c 0.7,0.5 1.40078,0.80078 2.30078,0.80078 0.3,0 0.60079,3.6e-4 0.80079,-0.0996 l 0.5996,-0.30078 c 0.20001,-0.2 0.3004,-0.3 0.4004,-0.5 0.1,-0.2 0.19921,-0.39922 0.19921,-0.69922 0,-0.2 3.6e-4,-0.50156 -0.0996,-0.60156 -0.1,-0.1 -0.20039,-0.29844 -0.40039,-0.39844 l -0.59961,-0.30078 c -0.2,-0.1 -0.50078,-0.0992 -0.80078,-0.19922 -0.3,-0.1 -0.49922,-0.10117 -0.69922,-0.20117 -0.2,-0.1 -0.4,-0.0992 -0.5,-0.19922 l -0.30078,-0.30078 c -0.1,-0.10002 -0.0996,-0.20039 -0.0996,-0.40039 0,-0.4 0.10079,-0.59883 0.30079,-0.79883 0.2,-0.2 0.5996,-0.30078 1.0996,-0.30078 0.3,0 0.6004,0.10117 0.9004,0.20117 0.2,0.1 0.39961,0.19844 0.5996,0.39844 l 0.29883,-0.19922 c -0.2,-0.2 -0.49883,-0.4 -0.79883,-0.5 -0.29999,-0.1 -0.59999,-0.19922 -1,-0.19922 z m -59.20117,0.29883 h 1.40039 c 0.3,0 0.60039,0.10117 0.90039,0.20117 0.3,0.1 0.49922,0.3 0.69922,0.5 0.2,0.2 0.30039,0.39922 0.40039,0.69922 0.1,0.3 0.0996,0.60039 0.0996,0.90039 0,0.3 -0.0996,0.60039 -0.0996,0.90039 -0.1,0.2 -0.20039,0.49922 -0.40039,0.69922 -0.2,0.2 -0.39922,0.4 -0.69922,0.5 -0.2,0.1 -0.60039,0.19922 -0.90039,0.19922 h -1.40039 z m 12.40039,0 h 1.80078 c 0.10001,0 0.3004,-3.6e-4 0.4004,0.0996 0.2,0.1 0.29843,0.20078 0.39843,0.30078 0.1,0.1 0.10118,0.20039 0.20117,0.40039 0.10001,0.2 0.0996,0.3 0.0996,0.5 0,0.2 -0.0996,0.4 -0.0996,0.5 0,0.1 -0.10117,0.30039 -0.20117,0.40039 l -0.29883,0.29883 c -0.1,0.1 -0.20039,0.0996 -0.40039,0.0996 h -1.80078 -0.0996 z m 34,0 h 1.4004 c 0.3,0 0.60039,0.10117 0.90039,0.20117 0.3,0.1 0.49921,0.3 0.69922,0.5 0.2,0.2 0.30039,0.39922 0.40039,0.69922 0.1,0.3 0.0996,0.60039 0.0996,0.90039 0,0.3 -0.0996,0.60039 -0.0996,0.90039 -0.1,0.2 -0.20039,0.49922 -0.40039,0.69922 -0.2,0.2 -0.39922,0.4 -0.69922,0.5 -0.2,0.1 -0.60039,0.19922 -0.90039,0.19922 h -1.4004 z m 7.4004,0 c 0.3,0 0.50078,0.10117 0.80079,0.20117 0.3,0.1 0.49921,0.3 0.69921,0.5 0.19999,0.2 0.30038,0.39922 0.40039,0.69922 0.10001,0.3 0.19922,0.60039 0.19922,0.90039 0,0.3 3.6e-4,0.60039 -0.0996,0.90039 -0.1,0.3 -0.20039,0.59883 -0.40039,0.79883 -0.2,0.2 -0.39922,0.4 -0.69923,0.5 -0.29998,0.1 -0.60039,0.20117 -0.90039,0.20117 -0.3,0 -0.50078,-0.10117 -0.80077,-0.20117 -0.30001,-0.1 -0.49922,-0.2 -0.69923,-0.5 -0.2,-0.3 -0.30039,-0.49883 -0.40039,-0.79883 -0.2,-0.3 -0.19922,-0.60039 -0.19922,-0.90039 0,-0.3 -3.6e-4,-0.50078 0.0996,-0.80078 0.1,-0.3 0.20039,-0.59883 0.40039,-0.79883 0.20001,-0.2 0.39922,-0.4 0.69922,-0.5 0.3,-0.1 0.60039,-0.20117 0.9004,-0.20117 z m -11.30078,0.0996 1.10157,2.80078 h -2.20119 z m -140.628905,1.24024 -0.44922,0.20507 1.35742,3.00196 0.45117,-0.20313 z m -59.271485,0.37304 -1.81836,2.74805 0.41211,0.27344 1.81836,-2.74805 z m 76.25977,0.17578 -0.0508,0.10352 v 0.002 l -0.002,0.002 -1.33398,2.88672 0.44922,0.20704 1.33203,-2.88282 0.002,-0.004 0.0488,-0.0977 z m 11.45312,1.70703 -0.375,0.32032 1.16211,1.35742 0.002,0.004 0.002,0.002 1.01172,1.11914 0.36523,-0.33008 -1.00586,-1.11523 -0.004,-0.006 z m -66.06054,0.69922 -0.10352,0.0801 h -0.002 l -0.002,0.002 -2.47265,1.97657 0.0976,0.12109 h 0.54102 l 2.13867,-1.70703 0.004,-0.004 0.0996,-0.0762 z m 63.63281,2.10352 -0.0215,0.0762 h 0.29102 z"
   id="path4231" /><path
   style="fill:#000000;stroke:#4f4754;stroke-width:1.31819999;stroke-miterlimit:10;stroke-dasharray:6.5908, 6.5908"
   inkscape:connector-curvature="0"
   d="M 205.17871,282.22818"
   class="st3"
   id="XMLID_347_" /><path
   style="fill:#000000;stroke:#1d1d1b;stroke-width:3.2953999;stroke-miterlimit:10"
   inkscape:connector-curvature="0"
   d="M 39.378715,285.02818"
   class="st4"
   id="XMLID_247_" /></svg>