<?xml version="1.0" encoding="UTF-8" standalone="no"?>
<!-- Created with Inkscape (http://www.inkscape.org/) -->

<svg
   xmlns:dc="http://purl.org/dc/elements/1.1/"
   xmlns:cc="http://creativecommons.org/ns#"
   xmlns:rdf="http://www.w3.org/1999/02/22-rdf-syntax-ns#"
   xmlns:svg="http://www.w3.org/2000/svg"
   xmlns="http://www.w3.org/2000/svg"
   xmlns:sodipodi="http://sodipodi.sourceforge.net/DTD/sodipodi-0.dtd"
   xmlns:inkscape="http://www.inkscape.org/namespaces/inkscape"
   width="105.67609mm"
   height="114.34306mm"
   viewBox="0 0 105.67608 114.34306"
   version="1.1"
   id="svg14904"
   inkscape:version="0.92.3 (2405546, 2018-03-11)"
   sodipodi:docname="logo_bienvenido.svg">
  <defs
     id="defs14898" />
  <sodipodi:namedview
     id="base"
     pagecolor="#ffffff"
     bordercolor="#666666"
     borderopacity="1.0"
     inkscape:pageopacity="0.0"
     inkscape:pageshadow="2"
     inkscape:zoom="0.98994949"
     inkscape:cx="276.56949"
     inkscape:cy="196.30545"
     inkscape:document-units="mm"
     inkscape:current-layer="layer1"
     showgrid="false"
     fit-margin-top="0"
     fit-margin-left="0"
     fit-margin-right="0"
     fit-margin-bottom="0"
     inkscape:window-width="1366"
     inkscape:window-height="705"
     inkscape:window-x="-8"
     inkscape:window-y="-8"
     inkscape:window-maximized="1" />
  <metadata
     id="metadata14901">
    <rdf:RDF>
      <cc:Work
         rdf:about="">
        <dc:format>image/svg+xml</dc:format>
        <dc:type
           rdf:resource="http://purl.org/dc/dcmitype/StillImage" />
        <dc:title></dc:title>
      </cc:Work>
    </rdf:RDF>
  </metadata>
  <g
     inkscape:label="Capa 1"
     inkscape:groupmode="layer"
     id="layer1"
     transform="translate(-107.14634,-69.931035)">
    <g
       aria-label="DISEÑO PARA LA
SOSTENIBILIDAD"
       style="font-variant:normal;font-weight:normal;font-stretch:normal;font-size:12.83638477px;font-family:Raleway;-inkscape-font-specification:Raleway-Regular;writing-mode:lr-tb;fill:#ffffff;fill-opacity:1;fill-rule:nonzero;stroke:none;stroke-width:0.35277778"
       id="text11060">
      <path
         d="m 108.54256,150.57053 v -9.11384 h 3.09357 q 1.09109,0 1.89979,0.35942 0.82152,0.35942 1.36065,0.97557 0.55197,0.61614 0.82153,1.45051 0.2824,0.82153 0.2824,1.75858 0,1.03975 -0.30807,1.88695 -0.30808,0.83437 -0.88571,1.43768 -0.5648,0.59047 -1.3735,0.92422 -0.79585,0.32091 -1.79709,0.32091 z m 6.55939,-4.56976 q 0,-0.82153 -0.23105,-1.50185 -0.23106,-0.69317 -0.68033,-1.19379 -0.43644,-0.50062 -1.07826,-0.77018 -0.64181,-0.2824 -1.47618,-0.2824 h -2.19502 v 7.52212 h 2.19502 q 0.8472,0 1.48902,-0.2824 0.65466,-0.29524 1.09109,-0.79586 0.43644,-0.51345 0.65466,-1.19378 0.23105,-0.69316 0.23105,-1.50186 z"
         style="fill:#ffffff;stroke-width:0.35277778"
         id="path15009" />
      <path
         d="m 117.7206,150.57053 v -9.11384 h 0.89855 v 9.11384 z"
         style="fill:#ffffff;stroke-width:0.35277778"
         id="path15011" />
      <path
         d="m 126.23111,143.16393 q -0.38509,-0.43643 -1.02691,-0.706 -0.64182,-0.26956 -1.46335,-0.26956 -1.20662,0 -1.75858,0.46211 -0.55197,0.44927 -0.55197,1.23229 0,0.41076 0.1412,0.68033 0.15404,0.25673 0.46211,0.44927 0.30808,0.19255 0.78302,0.33375 0.48779,0.1412 1.14244,0.2824 0.73168,0.15403 1.30931,0.34658 0.59048,0.19255 1.00124,0.48778 0.41077,0.2824 0.62898,0.69317 0.21822,0.41076 0.21822,1.02691 0,0.62898 -0.24389,1.09109 -0.24389,0.46211 -0.68033,0.77018 -0.43643,0.30808 -1.03974,0.46211 -0.60331,0.1412 -1.32215,0.1412 -2.11801,0 -3.65837,-1.32214 l 0.44927,-0.73168 q 0.24389,0.25673 0.57764,0.48779 0.34658,0.23105 0.75735,0.41076 0.4236,0.16687 0.89854,0.26956 0.47495,0.0899 1.00124,0.0899 1.09109,0 1.6944,-0.38509 0.61615,-0.39793 0.61615,-1.19379 0,-0.4236 -0.17971,-0.706 -0.16687,-0.29523 -0.51345,-0.50062 -0.34659,-0.21822 -0.86004,-0.37225 -0.51346,-0.15404 -1.19379,-0.30808 -0.71883,-0.16687 -1.25796,-0.34658 -0.53913,-0.17971 -0.91139,-0.44927 -0.37225,-0.26957 -0.5648,-0.64182 -0.17971,-0.38509 -0.17971,-0.93706 0,-0.62898 0.23106,-1.11676 0.24389,-0.50062 0.68033,-0.82153 0.43643,-0.33375 1.02691,-0.50062 0.59047,-0.17971 1.30931,-0.17971 0.91138,0 1.61738,0.2824 0.71884,0.26957 1.29648,0.77018 z"
         style="fill:#ffffff;stroke-width:0.35277778"
         id="path15013" />
      <path
         d="m 134.81865,149.77467 v 0.79586 h -6.12295 v -9.11384 h 6.00743 v 0.79586 h -5.10888 v 3.28611 h 4.45422 v 0.75735 h -4.45422 v 3.47866 z"
         style="fill:#ffffff;stroke-width:0.35277778"
         id="path15015" />
      <path
         d="m 137.41159,143.12542 v 7.44511 h -0.89855 v -9.11384 h 0.69317 l 6.0331,7.58631 v -7.57347 h 0.89855 v 9.101 h -0.78302 z m 3.74823,-3.14491 q -0.29524,0 -0.51346,-0.077 -0.20538,-0.077 -0.39793,-0.16687 -0.17971,-0.10269 -0.35942,-0.17971 -0.16687,-0.0899 -0.37225,-0.0899 -0.21822,0 -0.34658,0.0899 -0.11553,0.0899 -0.19255,0.20538 -0.0642,0.10269 -0.0899,0.20538 -0.0128,0.0899 -0.0128,0.11553 h -0.53913 q 0,-0.0642 0.0385,-0.25673 0.0513,-0.20538 0.17971,-0.41076 0.12836,-0.20538 0.35942,-0.35942 0.23105,-0.16687 0.59047,-0.16687 0.26957,0 0.46211,0.0899 0.20538,0.077 0.38509,0.17971 0.17971,0.10269 0.35942,0.19255 0.19255,0.077 0.43644,0.077 0.24389,0 0.38509,-0.0898 0.15404,-0.0899 0.23106,-0.20538 0.077,-0.11553 0.0899,-0.20538 0.0257,-0.1027 0.0257,-0.12837 h 0.53913 q 0,0.0642 -0.0513,0.25673 -0.0514,0.19254 -0.19255,0.39793 -0.12836,0.20538 -0.38509,0.37225 -0.24389,0.15404 -0.62898,0.15404 z"
         style="fill:#ffffff;stroke-width:0.35277778"
         id="path15017" />
      <path
         d="m 150.09395,150.63471 q -0.94989,0 -1.74575,-0.38509 -0.78302,-0.39793 -1.34782,-1.03975 -0.5648,-0.65466 -0.87287,-1.48902 -0.30808,-0.83437 -0.30808,-1.70724 0,-0.91138 0.32091,-1.74575 0.33375,-0.83436 0.91139,-1.47618 0.57763,-0.64182 1.36065,-1.01408 0.78302,-0.38509 1.6944,-0.38509 0.9499,0 1.73292,0.41077 0.79585,0.39792 1.34782,1.05258 0.5648,0.65465 0.87287,1.48902 0.30807,0.82153 0.30807,1.68157 0,0.91138 -0.33374,1.74574 -0.32091,0.83437 -0.89855,1.47619 -0.5648,0.62898 -1.34782,1.01407 -0.78302,0.37226 -1.6944,0.37226 z m -3.37597,-4.6211 q 0,0.74451 0.24389,1.43767 0.24389,0.68033 0.69317,1.21946 0.44927,0.52629 1.06542,0.8472 0.61614,0.30808 1.37349,0.30808 0.77018,0 1.39916,-0.33375 0.62899,-0.33375 1.06542,-0.87287 0.43644,-0.53913 0.6675,-1.21946 0.24389,-0.68033 0.24389,-1.38633 0,-0.74451 -0.25673,-1.42484 -0.24389,-0.69316 -0.69317,-1.21946 -0.44927,-0.52629 -1.06541,-0.83436 -0.61615,-0.32091 -1.36066,-0.32091 -0.77018,0 -1.39917,0.33375 -0.62898,0.32091 -1.06542,0.86003 -0.43643,0.53913 -0.68033,1.21946 -0.23105,0.68033 -0.23105,1.38633 z"
         style="fill:#ffffff;stroke-width:0.35277778"
         id="path15019" />
      <path
         d="m 159.33613,150.57053 v -9.11384 h 3.7739 q 0.59047,0 1.07826,0.25673 0.50062,0.24389 0.86003,0.65466 0.35942,0.39792 0.56481,0.91138 0.20538,0.51345 0.20538,1.03975 0,0.5648 -0.19255,1.09109 -0.19254,0.51345 -0.53913,0.91138 -0.34658,0.39793 -0.83436,0.64182 -0.47495,0.24389 -1.06542,0.24389 h -2.95237 v 3.36314 z m 0.89855,-4.15899 h 2.91386 q 0.39793,0 0.71884,-0.16688 0.33374,-0.1797 0.5648,-0.46211 0.23105,-0.29523 0.35942,-0.66749 0.12836,-0.38509 0.12836,-0.79585 0,-0.4236 -0.15404,-0.79586 -0.1412,-0.38509 -0.39792,-0.66749 -0.2439,-0.2824 -0.59048,-0.43644 -0.33374,-0.16687 -0.706,-0.16687 h -2.83684 z"
         style="fill:#ffffff;stroke-width:0.35277778"
         id="path15021" />
      <path
         d="m 169.56672,141.45669 h 0.75735 l 3.78673,9.11384 h -0.94989 l -1.18095,-2.84968 h -4.0948 l -1.16811,2.84968 h -0.96273 z m 2.20786,5.55816 -1.8356,-4.50557 -1.86128,4.50557 z"
         style="fill:#ffffff;stroke-width:0.35277778"
         id="path15023" />
      <path
         d="m 175.42013,150.57053 v -9.11384 h 3.85092 q 0.59047,0 1.07825,0.25673 0.50062,0.24389 0.86004,0.65466 0.35942,0.39792 0.55197,0.91138 0.20538,0.51345 0.20538,1.03975 0,0.50062 -0.15404,0.96273 -0.1412,0.44927 -0.41076,0.82152 -0.25673,0.35942 -0.62898,0.61615 -0.37226,0.24389 -0.83437,0.33375 l 2.23353,3.51717 H 181.158 l -2.14368,-3.36314 h -2.69564 v 3.36314 z m 0.89855,-4.15899 h 2.97804 q 0.39793,0 0.71884,-0.16688 0.33374,-0.1797 0.5648,-0.47494 0.23105,-0.29524 0.35942,-0.66749 0.12836,-0.37226 0.12836,-0.78302 0,-0.41077 -0.15403,-0.78302 -0.1412,-0.38509 -0.39793,-0.66749 -0.24389,-0.28241 -0.59048,-0.44928 -0.33374,-0.16687 -0.706,-0.16687 h -2.90102 z"
         style="fill:#ffffff;stroke-width:0.35277778"
         id="path15025" />
      <path
         d="m 186.48639,141.45669 h 0.75734 l 3.78674,9.11384 h -0.9499 l -1.18094,-2.84968 h -4.09481 l -1.16811,2.84968 h -0.96273 z m 2.20785,5.55816 -1.8356,-4.50557 -1.86127,4.50557 z"
         style="fill:#ffffff;stroke-width:0.35277778"
         id="path15027" />
      <path
         d="m 195.21383,150.57053 v -9.11384 h 0.89855 v 8.31798 h 5.26292 v 0.79586 z"
         style="fill:#ffffff;stroke-width:0.35277778"
         id="path15029" />
      <path
         d="m 205.52148,141.45669 h 0.75735 l 3.78673,9.11384 h -0.94989 l -1.18095,-2.84968 h -4.09481 l -1.16811,2.84968 h -0.96272 z m 2.20786,5.55816 -1.8356,-4.50557 -1.86128,4.50557 z"
         style="fill:#ffffff;stroke-width:0.35277778"
         id="path15031" />
      <path
         d="m 113.29202,154.20321 q -0.38509,-0.43644 -1.02691,-0.706 -0.64182,-0.26957 -1.46334,-0.26957 -1.20662,0 -1.75859,0.46211 -0.55196,0.44928 -0.55196,1.2323 0,0.41076 0.1412,0.68032 0.15403,0.25673 0.46211,0.44928 0.30807,0.19254 0.78302,0.33374 0.48778,0.1412 1.14243,0.2824 0.73168,0.15404 1.30932,0.34659 0.59047,0.19254 1.00123,0.48778 0.41077,0.2824 0.62899,0.69316 0.21822,0.41077 0.21822,1.02691 0,0.62899 -0.2439,1.0911 -0.24389,0.46211 -0.68032,0.77018 -0.43644,0.30807 -1.03975,0.46211 -0.60331,0.1412 -1.32215,0.1412 -2.118,0 -3.65837,-1.32215 l 0.44927,-0.73167 q 0.2439,0.25673 0.57764,0.48778 0.34658,0.23106 0.75735,0.41077 0.4236,0.16687 0.89855,0.26956 0.47494,0.0899 1.00123,0.0899 1.0911,0 1.69441,-0.38509 0.61614,-0.39792 0.61614,-1.19378 0,-0.4236 -0.17971,-0.706 -0.16687,-0.29524 -0.51345,-0.50062 -0.34658,-0.21822 -0.86004,-0.37226 -0.51346,-0.15403 -1.19378,-0.30807 -0.71884,-0.16687 -1.25797,-0.34658 -0.53913,-0.17971 -0.91138,-0.44928 -0.37226,-0.26956 -0.5648,-0.64181 -0.17971,-0.3851 -0.17971,-0.93706 0,-0.62898 0.23105,-1.11677 0.24389,-0.50061 0.68033,-0.82152 0.43644,-0.33375 1.02691,-0.50062 0.59047,-0.17971 1.30931,-0.17971 0.91139,0 1.61739,0.2824 0.71883,0.26956 1.29647,0.77018 z"
         style="fill:#ffffff;stroke-width:0.35277778"
         id="path15033" />
      <path
         d="m 119.42781,161.67398 q -0.94989,0 -1.74575,-0.38509 -0.78302,-0.39793 -1.34782,-1.03974 -0.5648,-0.65466 -0.87287,-1.48903 -0.30808,-0.83436 -0.30808,-1.70723 0,-0.91139 0.32091,-1.74575 0.33375,-0.83437 0.91139,-1.47619 0.57763,-0.64182 1.36065,-1.01407 0.78302,-0.38509 1.69441,-0.38509 0.94989,0 1.73291,0.41076 0.79585,0.39793 1.34782,1.05258 0.5648,0.65466 0.87287,1.48903 0.30808,0.82152 0.30808,1.68156 0,0.91139 -0.33375,1.74575 -0.32091,0.83437 -0.89855,1.47618 -0.5648,0.62899 -1.34782,1.01408 -0.78302,0.37225 -1.6944,0.37225 z m -3.37597,-4.62109 q 0,0.74451 0.24389,1.43767 0.24389,0.68033 0.69317,1.21946 0.44927,0.52629 1.06542,0.8472 0.61614,0.30807 1.37349,0.30807 0.77018,0 1.39917,-0.33374 0.62898,-0.33375 1.06542,-0.87288 0.43643,-0.53913 0.66749,-1.21945 0.24389,-0.68033 0.24389,-1.38633 0,-0.74451 -0.25673,-1.42484 -0.24389,-0.69317 -0.69316,-1.21946 -0.44928,-0.52629 -1.06542,-0.83436 -0.61615,-0.32091 -1.36066,-0.32091 -0.77018,0 -1.39917,0.33374 -0.62898,0.32091 -1.06542,0.86004 -0.43643,0.53913 -0.68032,1.21946 -0.23106,0.68032 -0.23106,1.38633 z"
         style="fill:#ffffff;stroke-width:0.35277778"
         id="path15035" />
      <path
         d="m 130.72385,154.20321 q -0.38509,-0.43644 -1.02691,-0.706 -0.64182,-0.26957 -1.46335,-0.26957 -1.20662,0 -1.75858,0.46211 -0.55197,0.44928 -0.55197,1.2323 0,0.41076 0.1412,0.68032 0.15404,0.25673 0.46211,0.44928 0.30807,0.19254 0.78302,0.33374 0.48778,0.1412 1.14244,0.2824 0.73167,0.15404 1.30931,0.34659 0.59047,0.19254 1.00124,0.48778 0.41076,0.2824 0.62898,0.69316 0.21822,0.41077 0.21822,1.02691 0,0.62899 -0.24389,1.0911 -0.24389,0.46211 -0.68033,0.77018 -0.43644,0.30807 -1.03975,0.46211 -0.60331,0.1412 -1.32215,0.1412 -2.118,0 -3.65837,-1.32215 l 0.44928,-0.73167 q 0.24389,0.25673 0.57764,0.48778 0.34658,0.23106 0.75734,0.41077 0.4236,0.16687 0.89855,0.26956 0.47495,0.0899 1.00124,0.0899 1.09109,0 1.6944,-0.38509 0.61615,-0.39792 0.61615,-1.19378 0,-0.4236 -0.17971,-0.706 -0.16688,-0.29524 -0.51346,-0.50062 -0.34658,-0.21822 -0.86004,-0.37226 -0.51345,-0.15403 -1.19378,-0.30807 -0.71884,-0.16687 -1.25797,-0.34658 -0.53912,-0.17971 -0.91138,-0.44928 -0.37225,-0.26956 -0.5648,-0.64181 -0.17971,-0.3851 -0.17971,-0.93706 0,-0.62898 0.23106,-1.11677 0.24389,-0.50061 0.68032,-0.82152 0.43644,-0.33375 1.02692,-0.50062 0.59047,-0.17971 1.30931,-0.17971 0.91138,0 1.61738,0.2824 0.71884,0.26956 1.29648,0.77018 z"
         style="fill:#ffffff;stroke-width:0.35277778"
         id="path15037" />
      <path
         d="m 139.59379,153.29182 h -3.24761 v 8.31798 h -0.89854 v -8.31798 h -3.24761 v -0.79585 h 7.39376 z"
         style="fill:#ffffff;stroke-width:0.35277778"
         id="path15039" />
      <path
         d="m 147.07741,160.81395 v 0.79585 h -6.12296 v -9.11383 h 6.00743 v 0.79585 H 141.853 v 3.28612 h 4.45422 v 0.75735 H 141.853 v 3.47866 z"
         style="fill:#ffffff;stroke-width:0.35277778"
         id="path15041" />
      <path
         d="m 149.67035,154.1647 v 7.4451 h -0.89855 v -9.11383 h 0.69317 l 6.0331,7.5863 v -7.57346 h 0.89854 v 9.10099 h -0.78301 z"
         style="fill:#ffffff;stroke-width:0.35277778"
         id="path15043" />
      <path
         d="m 158.68147,161.6098 v -9.11383 h 0.89855 v 9.11383 z"
         style="fill:#ffffff;stroke-width:0.35277778"
         id="path15045" />
      <path
         d="m 168.71956,159.26074 q 0,0.51346 -0.20539,0.9499 -0.20538,0.4236 -0.55196,0.74451 -0.34658,0.30807 -0.80869,0.48778 -0.46211,0.16687 -0.9884,0.16687 h -4.30019 v -9.11383 h 4.39004 q 0.47495,0 0.86004,0.20538 0.38509,0.20538 0.65465,0.53913 0.26957,0.32091 0.41077,0.74451 0.15403,0.41076 0.15403,0.83436 0,0.69317 -0.34658,1.27081 -0.34658,0.5648 -0.96273,0.8472 0.78302,0.23105 1.2323,0.86004 0.46211,0.62898 0.46211,1.46334 z m -0.89855,-0.15403 q 0,-0.33375 -0.11553,-0.64182 -0.11553,-0.32091 -0.33374,-0.55197 -0.20539,-0.24389 -0.50062,-0.38509 -0.2824,-0.15403 -0.61615,-0.15403 h -3.4915 v 3.45298 h 3.40165 q 0.34658,0 0.64181,-0.1412 0.30808,-0.1412 0.5263,-0.37225 0.23105,-0.24389 0.35942,-0.55197 0.12836,-0.32091 0.12836,-0.65465 z m -5.05754,-5.82772 v 3.36313 h 3.13208 q 0.33375,0 0.61615,-0.1412 0.29523,-0.1412 0.50062,-0.37225 0.20538,-0.23106 0.32091,-0.5263 0.11552,-0.30807 0.11552,-0.64182 0,-0.34658 -0.11552,-0.65465 -0.10269,-0.30807 -0.30808,-0.52629 -0.19254,-0.23106 -0.46211,-0.35942 -0.26956,-0.1412 -0.59047,-0.1412 z"
         style="fill:#ffffff;stroke-width:0.35277778"
         id="path15047" />
      <path
         d="m 170.41392,161.6098 v -9.11383 h 0.89855 v 9.11383 z"
         style="fill:#ffffff;stroke-width:0.35277778"
         id="path15049" />
      <path
         d="m 173.59738,161.6098 v -9.11383 h 0.89855 v 8.31798 h 5.26291 v 0.79585 z"
         style="fill:#ffffff;stroke-width:0.35277778"
         id="path15051" />
      <path
         d="m 181.08096,161.6098 v -9.11383 h 0.89855 v 9.11383 z"
         style="fill:#ffffff;stroke-width:0.35277778"
         id="path15053" />
      <path
         d="m 184.26443,161.6098 v -9.11383 h 3.09357 q 1.09109,0 1.89979,0.35942 0.82152,0.35942 1.36065,0.97556 0.55197,0.61615 0.82153,1.45051 0.2824,0.82153 0.2824,1.75859 0,1.03975 -0.30807,1.88695 -0.30807,0.83436 -0.88571,1.43767 -0.5648,0.59048 -1.3735,0.92422 -0.79585,0.32091 -1.79709,0.32091 z m 6.55939,-4.56975 q 0,-0.82153 -0.23105,-1.50186 -0.23105,-0.69316 -0.68033,-1.19378 -0.43644,-0.50062 -1.07825,-0.77018 -0.64182,-0.28241 -1.47619,-0.28241 h -2.19502 v 7.52213 h 2.19502 q 0.8472,0 1.48902,-0.2824 0.65466,-0.29524 1.09109,-0.79586 0.43644,-0.51346 0.65466,-1.19378 0.23105,-0.69317 0.23105,-1.50186 z"
         style="fill:#ffffff;stroke-width:0.35277778"
         id="path15055" />
      <path
         d="m 195.94549,152.49597 h 0.75735 l 3.78673,9.11383 h -0.94989 l -1.18095,-2.84968 h -4.0948 l -1.16811,2.84968 h -0.96273 z m 2.20786,5.55815 -1.8356,-4.50557 -1.86128,4.50557 z"
         style="fill:#ffffff;stroke-width:0.35277778"
         id="path15057" />
      <path
         d="m 201.79892,161.6098 v -9.11383 h 3.09357 q 1.09109,0 1.89978,0.35942 0.82153,0.35942 1.36066,0.97556 0.55196,0.61615 0.82153,1.45051 0.2824,0.82153 0.2824,1.75859 0,1.03975 -0.30808,1.88695 -0.30807,0.83436 -0.88571,1.43767 -0.5648,0.59048 -1.37349,0.92422 -0.79586,0.32091 -1.79709,0.32091 z m 6.55939,-4.56975 q 0,-0.82153 -0.23106,-1.50186 -0.23105,-0.69316 -0.68032,-1.19378 -0.43644,-0.50062 -1.07826,-0.77018 -0.64182,-0.28241 -1.47618,-0.28241 h -2.19503 v 7.52213 h 2.19503 q 0.8472,0 1.48902,-0.2824 0.65465,-0.29524 1.09109,-0.79586 0.43644,-0.51346 0.65465,-1.19378 0.23106,-0.69317 0.23106,-1.50186 z"
         style="fill:#ffffff;stroke-width:0.35277778"
         id="path15059" />
    </g>
    <g
       aria-label="COLOMBIA"
       style="font-variant:normal;font-weight:bold;font-stretch:normal;font-size:17.58540726px;font-family:Raleway;-inkscape-font-specification:Raleway-Bold;writing-mode:lr-tb;fill:#ffffff;fill-opacity:1;fill-rule:nonzero;stroke:none;stroke-width:0.35277778"
       id="text11076">
      <path
         d="m 107.14634,170.49071 q 0,-1.14305 0.40447,-2.25093 0.42205,-1.12547 1.21339,-2.00474 0.79134,-0.87927 1.9344,-1.42442 1.14305,-0.54514 2.60264,-0.54514 1.72337,0 2.97193,0.75617 1.26615,0.75617 1.88164,1.96956 l -1.86405,1.28374 q -0.2462,-0.52756 -0.59791,-0.87927 -0.35171,-0.36929 -0.75617,-0.58032 -0.40447,-0.21102 -0.8441,-0.29895 -0.43964,-0.10551 -0.86169,-0.10551 -0.91444,0 -1.60027,0.36929 -0.66824,0.36929 -1.12546,0.9672 -0.43964,0.58032 -0.66825,1.33649 -0.22861,0.73858 -0.22861,1.47717 0,0.82652 0.26378,1.60027 0.26378,0.75618 0.73859,1.33649 0.49239,0.58032 1.16064,0.93203 0.68583,0.35171 1.49476,0.35171 0.42205,0 0.87927,-0.10551 0.45722,-0.10552 0.86168,-0.33413 0.42205,-0.22861 0.77376,-0.58031 0.35171,-0.3693 0.56273,-0.87927 l 1.98715,1.14305 q -0.29895,0.70341 -0.86168,1.24856 -0.54515,0.52756 -1.24857,0.89686 -0.68583,0.36929 -1.47717,0.56273 -0.79134,0.19344 -1.54752,0.19344 -1.33649,0 -2.44437,-0.56273 -1.10788,-0.56274 -1.91681,-1.45959 -0.79134,-0.91444 -1.24856,-2.0575 -0.43964,-1.16063 -0.43964,-2.35644 z"
         style="fill:#ffffff;stroke-width:0.35277778"
         id="path14992" />
      <path
         d="m 126.92994,176.90938 q -1.37166,0 -2.49713,-0.52756 -1.10788,-0.54515 -1.91681,-1.42442 -0.79134,-0.89685 -1.23098,-2.0399 -0.43963,-1.14305 -0.43963,-2.33886 0,-1.24857 0.45722,-2.39162 0.4748,-1.14305 1.28373,-2.02232 0.82652,-0.87927 1.95198,-1.38925 1.12547,-0.52756 2.44437,-0.52756 1.35408,0 2.46196,0.56273 1.12547,0.54515 1.91681,1.44201 0.79134,0.89685 1.23098,2.0399 0.43963,1.14306 0.43963,2.32128 0,1.24856 -0.45722,2.39161 -0.45722,1.12547 -1.26615,2.00474 -0.80892,0.86168 -1.93439,1.38925 -1.12547,0.50997 -2.44437,0.50997 z m -3.6226,-6.33074 q 0,0.80893 0.2462,1.5651 0.2462,0.75617 0.70342,1.33649 0.4748,0.58032 1.14305,0.93203 0.68583,0.3517 1.54751,0.3517 0.87927,0 1.54752,-0.3517 0.68583,-0.3693 1.14305,-0.9672 0.47481,-0.59791 0.70342,-1.33649 0.24619,-0.75617 0.24619,-1.52993 0,-0.80893 -0.26378,-1.5651 -0.24619,-0.75618 -0.721,-1.33649 -0.45722,-0.58032 -1.14305,-0.91445 -0.66825,-0.3517 -1.51235,-0.3517 -0.87927,0 -1.5651,0.36929 -0.68583,0.35171 -1.14305,0.94961 -0.45722,0.58032 -0.70342,1.33649 -0.22861,0.73859 -0.22861,1.51235 z"
         style="fill:#ffffff;stroke-width:0.35277778"
         id="path14994" />
      <path
         d="m 136.65465,176.82146 v -12.48564 h 2.42679 v 10.3578 h 6.36592 v 2.12784 z"
         style="fill:#ffffff;stroke-width:0.35277778"
         id="path14996" />
      <path
         d="m 153.22011,176.90938 q -1.37166,0 -2.49713,-0.52756 -1.10788,-0.54515 -1.91681,-1.42442 -0.79134,-0.89685 -1.23098,-2.0399 -0.43963,-1.14305 -0.43963,-2.33886 0,-1.24857 0.45722,-2.39162 0.4748,-1.14305 1.28373,-2.02232 0.82652,-0.87927 1.95198,-1.38925 1.12547,-0.52756 2.44437,-0.52756 1.35408,0 2.46196,0.56273 1.12547,0.54515 1.91681,1.44201 0.79134,0.89685 1.23098,2.0399 0.43963,1.14306 0.43963,2.32128 0,1.24856 -0.45722,2.39161 -0.45722,1.12547 -1.26615,2.00474 -0.80893,0.86168 -1.93439,1.38925 -1.12547,0.50997 -2.44437,0.50997 z m -3.6226,-6.33074 q 0,0.80893 0.2462,1.5651 0.24619,0.75617 0.70341,1.33649 0.47481,0.58032 1.14306,0.93203 0.68583,0.3517 1.54751,0.3517 0.87927,0 1.54752,-0.3517 0.68583,-0.3693 1.14305,-0.9672 0.47481,-0.59791 0.70342,-1.33649 0.24619,-0.75617 0.24619,-1.52993 0,-0.80893 -0.26378,-1.5651 -0.2462,-0.75618 -0.721,-1.33649 -0.45722,-0.58032 -1.14305,-0.91445 -0.66825,-0.3517 -1.51235,-0.3517 -0.87927,0 -1.5651,0.36929 -0.68583,0.35171 -1.14305,0.94961 -0.45722,0.58032 -0.70342,1.33649 -0.22861,0.73859 -0.22861,1.51235 z"
         style="fill:#ffffff;stroke-width:0.35277778"
         id="path14998" />
      <path
         d="m 173.1268,176.82146 v -8.26514 l -3.21813,6.15489 h -1.31891 l -3.21813,-6.15489 v 8.26514 h -2.42679 v -12.48564 h 2.60264 l 3.69294,7.1045 3.72811,-7.1045 h 2.58505 v 12.48564 z"
         style="fill:#ffffff;stroke-width:0.35277778"
         id="path15000" />
      <path
         d="m 189.97362,173.60333 q 0,0.79134 -0.31654,1.38924 -0.31653,0.59791 -0.87927,1.00237 -0.54514,0.40447 -1.28373,0.61549 -0.721,0.21103 -1.54752,0.21103 h -6.03179 v -12.48564 h 6.68245 q 0.65066,0 1.17823,0.28136 0.52756,0.28137 0.89685,0.73859 0.3693,0.43964 0.56274,1.01995 0.21102,0.56274 0.21102,1.14306 0,0.91444 -0.45722,1.72337 -0.45722,0.79134 -1.33649,1.17822 1.07271,0.31654 1.6882,1.14305 0.63307,0.80893 0.63307,2.03991 z m -2.44437,-0.45722 q 0,-0.33413 -0.1231,-0.63308 -0.10551,-0.31654 -0.29895,-0.54515 -0.19344,-0.22861 -0.45722,-0.3517 -0.26378,-0.14069 -0.58032,-0.14069 h -3.7281 v 3.28847 h 3.605 q 0.33413,0 0.61549,-0.12309 0.29896,-0.1231 0.50998,-0.33413 0.21102,-0.22861 0.33412,-0.52756 0.1231,-0.29895 0.1231,-0.63307 z m -5.18769,-6.73521 v 3.14778 h 3.23571 q 0.61549,0 1.03754,-0.42205 0.43963,-0.42205 0.43963,-1.16063 0,-0.721 -0.40446,-1.14305 -0.38688,-0.42205 -0.9672,-0.42205 z"
         style="fill:#ffffff;stroke-width:0.35277778"
         id="path15002" />
      <path
         d="m 193.63138,176.82146 v -12.48564 h 2.42679 v 12.48564 z"
         style="fill:#ffffff;stroke-width:0.35277778"
         id="path15004" />
      <path
         d="m 203.9716,164.33582 h 2.14542 l 4.74806,12.48564 h -2.49713 l -1.16064,-3.11262 h -4.36118 l -1.14305,3.11262 h -2.49713 z m 2.79608,7.66724 -1.72337,-4.90633 -1.79371,4.90633 z"
         style="fill:#ffffff;stroke-width:0.35277778"
         id="path15006" />
    </g>
    <path
       inkscape:connector-curvature="0"
       id="path11088"
       style="fill:#ffffff;stroke:#ffffff;stroke-width:0.6925028;stroke-linecap:butt;stroke-linejoin:miter;stroke-miterlimit:10;stroke-dasharray:none;stroke-opacity:1"
       d="M 212.23076,134.34225 H 108.21354" />
    <path
       inkscape:connector-curvature="0"
       id="path11092"
       style="fill:#ffffff;stroke:#ffffff;stroke-width:0.6925028;stroke-linecap:butt;stroke-linejoin:miter;stroke-miterlimit:10;stroke-dasharray:none;stroke-opacity:1"
       d="M 212.23076,183.92784 H 108.21354" />
    <g
       aria-label="KIT DE HERRAMIENTAS"
       style="font-variant:normal;font-weight:bold;font-stretch:normal;font-size:9.5192852px;font-family:Raleway;-inkscape-font-specification:Raleway-Bold;writing-mode:lr-tb;fill:#ffffff;fill-opacity:1;fill-rule:nonzero;stroke:none;stroke-width:0.35277778"
       id="text11096">
      <path
         d="m 108.92896,129.80881 v -6.74918 h 1.31366 v 3.208 l 2.83675,-3.21752 h 1.44693 l -2.58925,2.99858 2.75108,3.76012 h -1.47549 l -2.10376,-2.92242 -0.86626,0.90433 v 2.01809 z"
         style="fill:#ffffff;stroke-width:0.35277778"
         id="path15062" />
      <path
         d="m 115.29736,129.80881 v -6.7587 h 1.31366 v 6.7587 z"
         style="fill:#ffffff;stroke-width:0.35277778"
         id="path15064" />
      <path
         d="m 123.0746,124.20195 h -2.16087 v 5.60686 h -1.30414 v -5.60686 h -2.16088 v -1.15184 h 5.62589 z"
         style="fill:#ffffff;stroke-width:0.35277778"
         id="path15066" />
      <path
         d="m 125.93042,129.80881 v -6.7587 h 2.45597 q 0.82818,0 1.44693,0.26654 0.62828,0.26654 1.04713,0.72347 0.41884,0.45693 0.62827,1.07568 0.20942,0.60923 0.20942,1.30414 0,0.77106 -0.23798,1.39934 -0.22846,0.61875 -0.66635,1.06616 -0.43789,0.43788 -1.05664,0.68539 -0.60923,0.23798 -1.37078,0.23798 z m 4.46454,-3.38887 q 0,-0.48548 -0.13327,-0.89481 -0.13327,-0.40933 -0.39029,-0.70443 -0.25702,-0.2951 -0.63779,-0.45692 -0.37125,-0.16183 -0.84722,-0.16183 h -1.14231 v 4.45502 h 1.14231 q 0.48549,0 0.85674,-0.17134 0.38077,-0.17135 0.62827,-0.46645 0.25702,-0.30462 0.39029,-0.71394 0.13327,-0.40933 0.13327,-0.8853 z"
         style="fill:#ffffff;stroke-width:0.35277778"
         id="path15068" />
      <path
         d="m 137.43921,128.65697 v 1.15184 h -4.693 v -6.7587 h 4.60733 v 1.15184 h -3.29367 v 1.6278 h 2.84626 v 1.06616 h -2.84626 v 1.76106 z"
         style="fill:#ffffff;stroke-width:0.35277778"
         id="path15070" />
      <path
         d="m 146.43493,123.05011 v 6.7587 h -1.30415 v -2.88435 h -3.06521 v 2.88435 h -1.31366 v -6.7587 h 1.31366 v 2.73204 h 3.06521 v -2.73204 z"
         style="fill:#ffffff;stroke-width:0.35277778"
         id="path15072" />
      <path
         d="m 152.53682,128.65697 v 1.15184 h -4.693 v -6.7587 h 4.60733 v 1.15184 h -3.29367 v 1.6278 h 2.84626 v 1.06616 h -2.84626 v 1.76106 z"
         style="fill:#ffffff;stroke-width:0.35277778"
         id="path15074" />
      <path
         d="m 153.56489,129.80881 v -6.7587 h 2.98905 q 0.46645,0 0.85674,0.19991 0.39981,0.19039 0.68539,0.51404 0.28557,0.31414 0.4474,0.72347 0.16183,0.39981 0.16183,0.80914 0,0.65683 -0.33318,1.19943 -0.32365,0.53308 -0.88529,0.77106 l 1.54213,2.54165 h -1.47549 l -1.3803,-2.26559 h -1.29462 v 2.26559 z m 1.31366,-3.41743 h 1.64683 q 0.18087,0 0.33318,-0.0857 0.16183,-0.0857 0.27606,-0.22846 0.11423,-0.15231 0.18086,-0.35222 0.0666,-0.1999 0.0666,-0.42836 0,-0.23799 -0.0762,-0.43789 -0.0762,-0.19991 -0.20942,-0.3427 -0.12375,-0.1523 -0.2951,-0.22846 -0.16183,-0.0857 -0.33317,-0.0857 h -1.58972 z"
         style="fill:#ffffff;stroke-width:0.35277778"
         id="path15076" />
      <path
         d="m 159.89519,129.80881 v -6.7587 h 2.98906 q 0.46644,0 0.85673,0.19991 0.39981,0.19039 0.68539,0.51404 0.28558,0.31414 0.44741,0.72347 0.16183,0.39981 0.16183,0.80914 0,0.65683 -0.33318,1.19943 -0.32365,0.53308 -0.88529,0.77106 l 1.54212,2.54165 h -1.47549 l -1.38029,-2.26559 h -1.29463 v 2.26559 z m 1.31366,-3.41743 h 1.64684 q 0.18087,0 0.33318,-0.0857 0.16182,-0.0857 0.27605,-0.22846 0.11424,-0.15231 0.18087,-0.35222 0.0666,-0.1999 0.0666,-0.42836 0,-0.23799 -0.0762,-0.43789 -0.0761,-0.19991 -0.20942,-0.3427 -0.12375,-0.1523 -0.2951,-0.22846 -0.16183,-0.0857 -0.33318,-0.0857 h -1.58972 z"
         style="fill:#ffffff;stroke-width:0.35277778"
         id="path15078" />
      <path
         d="m 168.0437,123.05011 h 1.16136 l 2.5702,6.7587 h -1.35173 l -0.62828,-1.68492 h -2.36078 l -0.61875,1.68492 h -1.35174 z m 1.51357,4.15041 -0.93289,-2.65588 -0.97097,2.65588 z"
         style="fill:#ffffff;stroke-width:0.35277778"
         id="path15080" />
      <path
         d="m 178.02946,129.80881 v -4.47407 l -1.74203,3.33175 h -0.71394 l -1.74203,-3.33175 v 4.47407 h -1.31366 v -6.7587 h 1.40885 l 1.99905,3.8458 2.01809,-3.8458 h 1.39933 v 6.7587 z"
         style="fill:#ffffff;stroke-width:0.35277778"
         id="path15082" />
      <path
         d="m 180.75196,129.80881 v -6.7587 h 1.31366 v 6.7587 z"
         style="fill:#ffffff;stroke-width:0.35277778"
         id="path15084" />
      <path
         d="m 188.1675,128.65697 v 1.15184 h -4.69301 v -6.7587 h 4.60734 v 1.15184 h -3.29368 v 1.6278 h 2.84627 v 1.06616 h -2.84627 v 1.76106 z"
         style="fill:#ffffff;stroke-width:0.35277778"
         id="path15086" />
      <path
         d="m 190.50922,125.47753 v 4.33128 h -1.31366 v -6.7587 h 1.01857 l 3.52213,4.43599 v -4.42647 h 1.31366 v 6.74918 h -1.06616 z"
         style="fill:#ffffff;stroke-width:0.35277778"
         id="path15088" />
      <path
         d="m 201.51355,124.20195 h -2.16088 v 5.60686 h -1.30414 v -5.60686 h -2.16088 v -1.15184 h 5.6259 z"
         style="fill:#ffffff;stroke-width:0.35277778"
         id="path15090" />
      <path
         d="m 203.60778,123.05011 h 1.16135 l 2.57021,6.7587 h -1.35174 l -0.62828,-1.68492 h -2.36078 l -0.61875,1.68492 h -1.35174 z m 1.51356,4.15041 -0.93289,-2.65588 -0.97096,2.65588 z"
         style="fill:#ffffff;stroke-width:0.35277778"
         id="path15092" />
      <path
         d="m 212.00377,124.8207 q -0.0666,-0.0666 -0.2475,-0.18086 -0.17134,-0.11424 -0.42836,-0.21895 -0.24751,-0.11423 -0.5426,-0.19038 -0.2951,-0.0762 -0.59972,-0.0762 -0.5426,0 -0.80914,0.19991 -0.26654,0.1999 -0.26654,0.56163 0,0.20943 0.0952,0.35222 0.10472,0.13327 0.2951,0.23798 0.19039,0.10471 0.47597,0.19039 0.29509,0.0857 0.67587,0.18086 0.495,0.13327 0.89481,0.28558 0.40933,0.15231 0.68539,0.38077 0.28558,0.22847 0.43788,0.55212 0.15231,0.31414 0.15231,0.78058 0,0.5426 -0.20942,0.93289 -0.19991,0.38077 -0.55212,0.61876 -0.34269,0.23798 -0.79962,0.35221 -0.44741,0.10471 -0.94241,0.10471 -0.76154,0 -1.50405,-0.22846 -0.7425,-0.22846 -1.3327,-0.64731 l 0.58068,-1.1328 q 0.0857,0.0857 0.30462,0.22847 0.22846,0.13327 0.53308,0.27605 0.30461,0.13327 0.67587,0.22847 0.37125,0.0952 0.76154,0.0952 1.0852,0 1.0852,-0.69491 0,-0.21894 -0.12375,-0.37125 -0.12375,-0.15231 -0.35222,-0.26654 -0.22846,-0.11423 -0.55211,-0.20942 -0.32366,-0.0952 -0.72347,-0.20943 -0.48548,-0.13327 -0.84722,-0.28558 -0.35221,-0.16182 -0.59019,-0.37125 -0.23798,-0.21894 -0.36174,-0.495 -0.11423,-0.28558 -0.11423,-0.67587 0,-0.51404 0.19039,-0.91385 0.19038,-0.39981 0.52356,-0.66635 0.34269,-0.26654 0.7901,-0.39981 0.44741,-0.14279 0.96145,-0.14279 0.71394,0 1.31366,0.22846 0.59971,0.21894 1.04712,0.52356 z"
         style="fill:#ffffff;stroke-width:0.35277778"
         id="path15094" />
    </g>
    <path
       style="fill:#ffffff;fill-opacity:1;fill-rule:nonzero;stroke:none;stroke-width:1.33333337"
       d="M 249.78516 78.46875 C 228.3998 78.46875 211.0625 95.806083 211.0625 117.19141 C 211.0625 135.63041 223.95474 151.04669 241.21289 154.94922 L 249.78516 169.79883 L 258.35742 154.94922 C 275.6161 151.0471 288.50781 135.6308 288.50781 117.19141 C 288.50781 95.806083 271.17048 78.46875 249.78516 78.46875 z M 238.18945 92.275391 L 248.93555 107.87109 L 249.69727 109.58398 L 250.64844 107.87109 L 261.30078 92.275391 L 270.31641 98.050781 L 256.64062 117.28516 L 270.31641 136.0293 L 261.58594 142.10938 L 250.55273 126.60742 L 249.69727 124.99023 L 248.93555 126.60742 L 238 142.10938 L 229.11523 136.25195 L 242.84961 117.28516 L 229.11133 97.861328 L 238.18945 92.275391 z "
       transform="matrix(0.26458333,0,0,0.26458333,107.14634,69.931035)"
       id="path11108" />
    <path
       inkscape:connector-curvature="0"
       id="path11116"
       style="fill:#ffffff;fill-opacity:1;fill-rule:nonzero;stroke:none;stroke-width:0.35277778"
       d="m 129.77886,101.77186 c 0,-1.800221 -0.25329,-3.453338 -0.75953,-4.95864 -0.50659,-1.50495 -1.24495,-2.806347 -2.2158,-3.903839 -0.97049,-1.097492 -2.15935,-1.947686 -3.56588,-2.553406 -1.40723,-0.604308 -3.02471,-0.906991 -4.85351,-0.906991 h -7.21642 v 24.730426 h 7.21642 c 1.85702,0 3.49567,-0.31644 4.91666,-0.94968 1.42029,-0.63288 2.60915,-1.50459 3.56623,-2.61655 0.95603,-1.11125 1.68064,-2.41935 2.17311,-3.92465 0.49213,-1.50495 0.73872,-3.14431 0.73872,-4.91667 m -21.56531,15.0241 V 86.832431 h 10.17059 c 2.39113,0 4.48028,0.394053 6.2671,1.181453 1.78646,0.788105 3.2773,1.857022 4.47357,3.207455 1.19556,1.350434 2.0955,2.932995 2.70087,4.747683 0.60466,1.814689 0.90734,3.749323 0.90734,5.802838 0,2.27895 -0.33761,4.34023 -1.01282,6.18279 -0.67522,1.84291 -1.63936,3.41841 -2.89102,4.72651 -1.25201,1.30846 -2.75731,2.32128 -4.51555,3.03883 -1.7586,0.7172 -3.73486,1.07597 -5.92949,1.07597 z" />
    <path
       inkscape:connector-curvature="0"
       id="path11120"
       style="fill:#ffffff;fill-opacity:1;fill-rule:nonzero;stroke:none;stroke-width:0.35277778"
       d="m 155.90195,92.44509 c -0.8442,-0.956028 -1.96956,-1.730375 -3.37608,-2.320925 -1.40723,-0.590903 -3.01096,-0.886178 -4.81119,-0.886178 -2.64477,0 -4.57235,0.499534 -5.78167,1.497895 -1.21003,0.999066 -1.81469,2.356908 -1.81469,4.072466 0,0.900995 0.16157,1.639359 0.48542,2.215797 0.32279,0.577145 0.82268,1.075973 1.4979,1.498248 0.67557,0.421922 1.54058,0.787752 2.59538,1.097139 1.05516,0.309738 2.30011,0.619128 3.73521,0.928508 1.60373,0.33761 3.04518,0.71755 4.32576,1.13948 1.27988,0.42192 2.36961,0.94967 3.27061,1.58256 0.89993,0.63288 1.58926,1.39982 2.06798,2.30011 0.47801,0.90064 0.7172,2.02565 0.7172,3.37608 0,1.37901 -0.26741,2.57457 -0.80187,3.58705 -0.53445,1.01317 -1.28058,1.85702 -2.23661,2.53223 -0.95673,0.67522 -2.0962,1.17511 -3.41841,1.49825 -1.32257,0.32314 -2.77143,0.48542 -4.34658,0.48542 -4.64255,0 -8.65187,-1.44886 -12.02796,-4.34693 l 1.47708,-2.40559 c 0.53411,0.56339 1.1744,1.09714 1.92017,1.60373 0.74542,0.50659 1.57551,0.94933 2.48991,1.32927 0.91405,0.37994 1.89195,0.67522 2.93335,0.88618 1.04034,0.21131 2.13783,0.31679 3.29177,0.31679 2.39077,0 4.2552,-0.42862 5.59188,-1.28729 1.33561,-0.85795 2.00448,-2.159 2.00448,-3.90383 0,-0.92816 -0.19015,-1.70921 -0.56974,-2.3421 -0.37994,-0.63323 -0.94967,-1.18145 -1.70921,-1.6457 -0.75953,-0.46461 -1.7025,-0.86537 -2.82751,-1.20298 -1.12571,-0.3376 -2.43381,-0.67521 -3.925,-1.01282 -1.57586,-0.36548 -2.95417,-0.74507 -4.13562,-1.13947 -1.1818,-0.3937 -2.18087,-0.88618 -2.99649,-1.47708 -0.81633,-0.590907 -1.4284,-1.301049 -1.83586,-2.131135 -0.40816,-0.829381 -0.61207,-1.849614 -0.61207,-3.059642 0,-1.378302 0.26,-2.609497 0.78105,-3.692877 0.52035,-1.082675 1.25871,-1.983317 2.21545,-2.700867 0.95638,-0.71755 2.08174,-1.266119 3.37643,-1.645708 1.29364,-0.379942 2.72839,-0.569736 4.3046,-0.569736 1.99742,0 3.77684,0.30233 5.33858,0.906991 1.5614,0.605367 2.97533,1.456267 4.2411,2.553406 z" />
    <path
       inkscape:connector-curvature="0"
       id="path11124"
       style="fill:#ffffff;fill-opacity:1;fill-rule:nonzero;stroke:none;stroke-width:0.35277778"
       d="m 186.49995,101.60299 c 0,-1.800226 0.31644,-3.593748 0.94968,-5.38092 0.63288,-1.786114 1.55398,-3.382434 2.76401,-4.789664 1.20968,-1.406525 2.70122,-2.553406 4.47358,-3.439583 1.7727,-0.886178 3.78354,-1.329267 6.03497,-1.329267 2.67264,0 4.95864,0.605014 6.858,1.814689 1.899,1.210028 3.29812,2.78518 4.19911,4.726516 l -2.32128,1.434748 c -0.47872,-0.98425 -1.06221,-1.814689 -1.75119,-2.489906 -0.69003,-0.675217 -1.42839,-1.223786 -2.21579,-1.645708 -0.78811,-0.421922 -1.60373,-0.724253 -2.44758,-0.907345 -0.84419,-0.182739 -1.67428,-0.274461 -2.49025,-0.274461 -1.80058,0 -3.39055,0.366184 -4.76885,1.097492 -1.37866,0.731661 -2.5393,1.688042 -3.48157,2.869494 -0.94297,1.181806 -1.65312,2.511072 -2.13113,3.988153 -0.47872,1.477081 -0.71755,2.975332 -0.71755,4.494742 0,1.66053 0.28822,3.24944 0.86501,4.76885 0.57644,1.51906 1.36455,2.86314 2.36361,4.03013 0.99836,1.16805 2.17982,2.09656 3.54471,2.78554 1.36455,0.68968 2.84904,1.03399 4.45241,1.03399 0.8442,0 1.70921,-0.10548 2.59539,-0.31644 0.88653,-0.21132 1.74413,-0.54857 2.57457,-1.01318 0.82938,-0.46426 1.59632,-1.04034 2.30011,-1.73038 0.70274,-0.68862 1.29364,-1.52576 1.77236,-2.51107 l 2.44757,1.26612 c -0.47872,1.12571 -1.15394,2.11773 -2.02565,2.97533 -0.87242,0.85866 -1.84291,1.58256 -2.91183,2.17346 -1.06962,0.5909 -2.20168,1.0414 -3.39725,1.35044 -1.19627,0.30938 -2.37066,0.46425 -3.5239,0.46425 -2.05422,0 -3.93946,-0.44944 -5.65502,-1.35043 -1.71662,-0.89994 -3.1937,-2.07434 -4.4316,-3.5239 -1.23825,-1.44851 -2.20168,-3.09457 -2.89066,-4.93748 -0.68968,-1.84256 -1.03399,-3.72039 -1.03399,-5.63421" />
    <g
       aria-label="BIENVENIDO A"
       transform="matrix(0.37281678,0,0,0.37281678,-522.91925,96.074261)"
       style="font-style:normal;font-weight:normal;font-size:40px;line-height:1.25;font-family:sans-serif;letter-spacing:0px;word-spacing:0px;fill:#ffffff;fill-opacity:1;stroke:none"
       id="flowRoot14883">
      <path
         d="m 1717.8576,-48.843524 q 0,1.8 -0.72,3.16 -0.72,1.36 -2,2.28 -1.24,0.92 -2.92,1.4 -1.64,0.48 -3.52,0.48 h -13.72 v -28.4 h 15.2 q 1.48,0 2.68,0.64 1.2,0.64 2.04,1.68 0.84,1 1.28,2.32 0.48,1.28 0.48,2.6 0,2.08 -1.04,3.92 -1.04,1.8 -3.04,2.68 2.44,0.72 3.84,2.6 1.44,1.84 1.44,4.64 z m -5.56,-1.04 q 0,-0.76 -0.28,-1.44 -0.24,-0.72 -0.68,-1.24 -0.44,-0.52 -1.04,-0.8 -0.6,-0.32 -1.32,-0.32 h -8.48 v 7.48 h 8.2 q 0.76,0 1.4,-0.28 0.68,-0.28 1.16,-0.76 0.48,-0.52 0.76,-1.2 0.28,-0.68 0.28,-1.44 z m -11.8,-15.32 v 7.16 h 7.36 q 1.4,0 2.36,-0.96 1,-0.96 1,-2.64 0,-1.64 -0.92,-2.6 -0.88,-0.96 -2.2,-0.96 z"
         style="font-style:normal;font-variant:normal;font-weight:bold;font-stretch:normal;font-family:Raleway;-inkscape-font-specification:'Raleway Bold';fill:#ffffff"
         id="path15097" />
      <path
         d="m 1722.1651,-41.523524 v -28.4 h 5.52 v 28.4 z"
         style="font-style:normal;font-variant:normal;font-weight:bold;font-stretch:normal;font-family:Raleway;-inkscape-font-specification:'Raleway Bold';fill:#ffffff"
         id="path15099" />
      <path
         d="m 1753.2913,-46.363524 v 4.84 h -19.72 v -28.4 h 19.36 v 4.84 h -13.84 v 6.84 h 11.96 v 4.48 h -11.96 v 7.4 z"
         style="font-style:normal;font-variant:normal;font-weight:bold;font-stretch:normal;font-family:Raleway;-inkscape-font-specification:'Raleway Bold';fill:#ffffff"
         id="path15101" />
      <path
         d="m 1763.1538,-59.723524 v 18.2 h -5.52 v -28.4 h 4.28 l 14.8,18.64 v -18.6 h 5.52 v 28.36 h -4.48 z"
         style="font-style:normal;font-variant:normal;font-weight:bold;font-stretch:normal;font-family:Raleway;-inkscape-font-specification:'Raleway Bold';fill:#ffffff"
         id="path15103" />
      <path
         d="m 1791.1007,-69.923524 7.68,21.48 7.6,-21.48 h 5.8 l -11.08,28.4 h -4.64 l -11.16,-28.4 z"
         style="font-style:normal;font-variant:normal;font-weight:bold;font-stretch:normal;font-family:Raleway;-inkscape-font-specification:'Raleway Bold';fill:#ffffff"
         id="path15105" />
      <path
         d="m 1834.932,-46.363524 v 4.84 h -19.72 v -28.4 h 19.36 v 4.84 h -13.84 v 6.84 h 11.96 v 4.48 h -11.96 v 7.4 z"
         style="font-style:normal;font-variant:normal;font-weight:bold;font-stretch:normal;font-family:Raleway;-inkscape-font-specification:'Raleway Bold';fill:#ffffff"
         id="path15107" />
      <path
         d="m 1844.7945,-59.723524 v 18.2 h -5.52 v -28.4 h 4.28 l 14.8,18.64 v -18.6 h 5.52 v 28.36 h -4.48 z"
         style="font-style:normal;font-variant:normal;font-weight:bold;font-stretch:normal;font-family:Raleway;-inkscape-font-specification:'Raleway Bold';fill:#ffffff"
         id="path15109" />
      <path
         d="m 1869.8213,-41.523524 v -28.4 h 5.52 v 28.4 z"
         style="font-style:normal;font-variant:normal;font-weight:bold;font-stretch:normal;font-family:Raleway;-inkscape-font-specification:'Raleway Bold';fill:#ffffff"
         id="path15111" />
      <path
         d="m 1881.2276,-41.523524 v -28.4 h 10.32 q 3.48,0 6.08,1.12 2.64,1.12 4.4,3.04 1.76,1.92 2.64,4.52 0.88,2.56 0.88,5.48 0,3.24 -1,5.88 -0.96,2.6 -2.8,4.48 -1.84,1.84 -4.44,2.88 -2.56,1 -5.76,1 z m 18.76,-14.24 q 0,-2.04 -0.56,-3.76 -0.56,-1.72 -1.64,-2.96 -1.08,-1.24 -2.68,-1.92 -1.56,-0.68 -3.56,-0.68 h -4.8 v 18.72 h 4.8 q 2.04,0 3.6,-0.72 1.6,-0.72 2.64,-1.96 1.08,-1.28 1.64,-3 0.56,-1.72 0.56,-3.72 z"
         style="font-style:normal;font-variant:normal;font-weight:bold;font-stretch:normal;font-family:Raleway;-inkscape-font-specification:'Raleway Bold';fill:#ffffff"
         id="path15113" />
      <path
         d="m 1922.0195,-41.323524 q -3.12,0 -5.68,-1.2 -2.52,-1.24 -4.36,-3.24 -1.8,-2.04 -2.8,-4.64 -1,-2.6 -1,-5.32 0,-2.84 1.04,-5.44 1.08,-2.6 2.92,-4.6 1.88,-2 4.44,-3.16 2.56,-1.2 5.56,-1.2 3.08,0 5.6,1.28 2.56,1.24 4.36,3.28 1.8,2.04 2.8,4.64 1,2.6 1,5.28 0,2.84 -1.04,5.44 -1.04,2.56 -2.88,4.56 -1.84,1.96 -4.4,3.16 -2.56,1.16 -5.56,1.16 z m -8.24,-14.4 q 0,1.84 0.56,3.56 0.56,1.72 1.6,3.04 1.08,1.32 2.6,2.12 1.56,0.8 3.52,0.8 2,0 3.52,-0.8 1.56,-0.84 2.6,-2.2 1.08,-1.36 1.6,-3.04 0.56,-1.72 0.56,-3.48 0,-1.84 -0.6,-3.56 -0.56,-1.72 -1.64,-3.04 -1.04,-1.32 -2.6,-2.08 -1.52,-0.8 -3.44,-0.8 -2,0 -3.56,0.84 -1.56,0.8 -2.6,2.16 -1.04,1.32 -1.6,3.04 -0.52,1.68 -0.52,3.44 z"
         style="font-style:normal;font-variant:normal;font-weight:bold;font-stretch:normal;font-family:Raleway;-inkscape-font-specification:'Raleway Bold';fill:#ffffff"
         id="path15115" />
      <path
         d="m 1956.5732,-69.923524 h 4.88 l 10.8,28.4 h -5.68 l -2.64,-7.08 h -9.92 l -2.6,7.08 h -5.68 z m 6.36,17.44 -3.92,-11.16 -4.08,11.16 z"
         style="font-style:normal;font-variant:normal;font-weight:bold;font-stretch:normal;font-family:Raleway;-inkscape-font-specification:'Raleway Bold';fill:#ffffff"
         id="path15117" />
    </g>
  </g>
</svg>
