<?xml version="1.0" encoding="UTF-8" standalone="no"?>
<!-- Created with Inkscape (http://www.inkscape.org/) -->

<svg
   xmlns:dc="http://purl.org/dc/elements/1.1/"
   xmlns:cc="http://creativecommons.org/ns#"
   xmlns:rdf="http://www.w3.org/1999/02/22-rdf-syntax-ns#"
   xmlns:svg="http://www.w3.org/2000/svg"
   xmlns="http://www.w3.org/2000/svg"
   xmlns:sodipodi="http://sodipodi.sourceforge.net/DTD/sodipodi-0.dtd"
   xmlns:inkscape="http://www.inkscape.org/namespaces/inkscape"
   width="146.19778mm"
   height="36.474789mm"
   viewBox="0 0 146.19778 36.474789"
   version="1.1"
   id="svg9514"
   inkscape:version="0.92.3 (2405546, 2018-03-11)"
   sodipodi:docname="logo_dsxc_virtual.svg">
  <defs
     id="defs9508" />
  <sodipodi:namedview
     id="base"
     pagecolor="#ffffff"
     bordercolor="#666666"
     borderopacity="1.0"
     inkscape:pageopacity="0.0"
     inkscape:pageshadow="2"
     inkscape:zoom="0.7"
     inkscape:cx="188.77879"
     inkscape:cy="60.307802"
     inkscape:document-units="mm"
     inkscape:current-layer="layer1"
     showgrid="false"
     fit-margin-top="0"
     fit-margin-left="0"
     fit-margin-right="0"
     fit-margin-bottom="0"
     inkscape:window-width="1366"
     inkscape:window-height="705"
     inkscape:window-x="-8"
     inkscape:window-y="-8"
     inkscape:window-maximized="1" />
  <metadata
     id="metadata9511">
    <rdf:RDF>
      <cc:Work
         rdf:about="">
        <dc:format>image/svg+xml</dc:format>
        <dc:type
           rdf:resource="http://purl.org/dc/dcmitype/StillImage" />
        <dc:title></dc:title>
      </cc:Work>
    </rdf:RDF>
  </metadata>
  <g
     inkscape:label="Capa 1"
     inkscape:groupmode="layer"
     id="layer1"
     transform="translate(-32.734438,-102.6257)">
    <path
       style="fill:#ffffff;fill-opacity:1;stroke-width:0.38057533"
       d="m 38.403858,102.6257 c -3.140982,0 -5.66942,2.52896 -5.66942,5.66994 v 25.13543 c -3e-6,3.14098 2.528438,5.66942 5.66942,5.66942 H 173.26281 c 3.14098,0 5.66942,-2.52844 5.66942,-5.66942 v -25.13543 c 0,-3.14098 -2.52844,-5.66994 -5.66942,-5.66994 z m 65.550522,5.94279 h 0.49971 v 24.58972 h -0.49971 z m -34.740515,0.39636 c 1.508826,0 2.853653,0.22821 4.033345,0.68471 1.17933,0.45755 2.2474,1.10006 3.203422,1.92908 l -1.083657,1.78542 c -0.637468,-0.72214 -1.488022,-1.30711 -2.550231,-1.75338 -1.062919,-0.44626 -2.274443,-0.66921 -3.634404,-0.66921 -1.997779,0 -3.453479,0.37732 -4.367173,1.1312 -0.91404,0.7546 -1.370978,1.7807 -1.370978,3.07682 0,0.68014 0.122076,1.23795 0.366903,1.67328 0.243771,0.43568 0.621427,0.8128 1.131197,1.13171 0.510114,0.31856 1.163674,0.59535 1.960605,0.82889 0.796919,0.23425 1.737804,0.46772 2.821532,0.70125 1.21144,0.25506 2.300182,0.54237 3.267501,0.86093 0.96661,0.31891 1.790142,0.71726 2.47065,1.19528 0.67981,0.47801 1.200589,1.0572 1.56218,1.73736 0.361249,0.68015 0.541567,1.52999 0.541567,2.55023 0,1.0414 -0.202067,1.94474 -0.605647,2.70991 -0.403929,0.76518 -0.967171,1.40244 -1.689301,1.91256 -0.722842,0.51012 -1.583552,0.88758 -2.582272,1.1317 -0.999059,0.24412 -2.093601,0.3669 -3.283522,0.3669 -3.506959,0 -6.535002,-1.0947 -9.085233,-3.28404 l 1.115179,-1.81642 c 0.403569,0.42545 0.887166,0.82853 1.450557,1.21129 0.56303,0.38241 1.190281,0.71728 1.881021,1.00408 0.69038,0.28681 1.429197,0.50975 2.215885,0.66921 0.785992,0.15911 1.614445,0.23926 2.486155,0.23926 1.80622,0 3.21438,-0.32413 4.22403,-0.97255 1.008952,-0.64805 1.514121,-1.63068 1.514121,-2.94866 0,-0.70132 -0.143666,-1.29103 -0.430464,-1.7694 -0.286811,-0.47801 -0.71691,-0.89268 -1.290878,-1.24333 -0.57362,-0.35066 -1.285947,-0.65325 -2.135789,-0.90796 -0.850188,-0.25506 -1.838616,-0.51028 -2.964674,-0.76533 -1.190631,-0.27588 -2.23183,-0.56319 -3.124359,-0.86093 -0.89253,-0.29739 -1.647129,-0.66942 -2.263428,-1.11569 -0.61666,-0.44626 -1.078508,-0.98284 -1.386478,-1.60972 -0.30798,-0.62654 -0.462505,-1.39745 -0.462505,-2.31149 0,-1.04105 0.196445,-1.97104 0.590145,-2.78949 0.393002,-0.81774 0.950445,-1.49832 1.673284,-2.04019 0.72214,-0.54187 1.572683,-0.95601 2.550231,-1.24282 0.977191,-0.28716 2.061213,-0.43046 3.251483,-0.43046 z m 21.6085,0 c 5.572119,0 10.089825,4.51683 10.089825,10.08931 0,4.80447 -3.359161,8.82161 -7.856372,9.83867 l -2.233453,3.86851 -2.233457,-3.86851 c -4.49721,-1.01706 -7.856368,-5.0342 -7.856368,-9.83867 0,-5.57248 4.517345,-10.08931 10.089825,-10.08931 z m -51.478514,0.15916 h 7.683254 c 1.805869,0 3.383481,0.29768 4.73356,0.89245 1.34938,0.59514 2.475653,1.40287 3.379123,2.42311 0.903108,1.01988 1.582984,2.21545 2.040184,3.58635 0.45685,1.37054 0.685747,2.83203 0.685747,4.38319 0,1.72156 -0.255217,3.27846 -0.765329,4.67052 -0.510119,1.39207 -1.238395,2.58184 -2.183844,3.57032 -0.94615,0.98814 -2.082787,1.75326 -3.410646,2.29547 -1.32856,0.54188 -2.821445,0.81235 -4.478795,0.81235 h -7.683254 z m 2.23139,1.97663 v 18.68051 h 5.451864 c 1.402638,0 2.639968,-0.23837 3.713467,-0.71675 1.072801,-0.47801 1.971053,-1.13667 2.693892,-1.97663 0.72214,-0.83926 1.269582,-1.82766 1.641761,-2.96467 0.371469,-1.137 0.557588,-2.3752 0.557588,-3.71399 0,-1.35961 -0.190847,-2.60816 -0.573609,-3.74551 -0.382407,-1.13665 -0.940369,-2.12015 -1.673799,-2.94917 -0.73307,-0.82868 -1.631323,-1.47101 -2.693892,-1.92857 -1.062919,-0.45648 -2.284288,-0.68522 -3.665408,-0.68522 z m 46.225603,1.46141 -2.365232,1.4552 3.579627,5.06171 -3.578592,4.94234 2.315104,1.52548 2.849438,-4.03903 0.198437,-0.42116 0.222727,0.42116 2.875274,4.03903 2.274798,-1.5844 -3.563607,-4.88342 3.563607,-5.0121 -2.349728,-1.50481 -2.77554,4.06383 -0.247531,0.44597 -0.198437,-0.44597 z m 19.694916,2.6975 h 1.14412 l 3.98115,9.76478 3.96513,-9.76478 h 1.14412 l -4.639,11.12853 h -0.95653 z m 11.84424,0 h 1.09709 v 11.12853 H 119.34 Z m 3.88762,0 h 4.70203 c 0.48066,0 0.91965,0.1047 1.31672,0.31368 0.40751,0.19853 0.75749,0.46507 1.05007,0.79943 0.29257,0.32393 0.51712,0.69463 0.67386,1.1126 0.16718,0.41797 0.25114,0.84128 0.25114,1.26969 0,0.40752 -0.0627,0.79947 -0.1881,1.17564 -0.11494,0.36571 -0.28234,0.70001 -0.50178,1.00304 -0.20898,0.29257 -0.46489,0.54343 -0.76791,0.75241 -0.30302,0.19853 -0.64238,0.33406 -1.01854,0.40721 l 2.72697,4.29483 h -1.23817 l -2.61741,-4.10673 h -3.29179 v 4.10673 h -1.09709 z m 8.91263,0 h 9.02787 v 0.97204 h -3.96513 v 10.15649 h -1.09761 v -10.15649 h -3.96513 z m 10.52287,0 h 1.08159 v 5.61155 c 0,0.58514 0.0571,1.15462 0.17208,1.70842 0.11494,0.5538 0.30865,1.04488 0.58034,1.4733 0.28212,0.42841 0.65282,0.77333 1.11258,1.03456 0.45977,0.26123 1.03429,0.39171 1.72393,0.39171 0.70009,0 1.28019,-0.13048 1.73995,-0.39171 0.4702,-0.27167 0.84091,-0.62217 1.11259,-1.05058 0.28212,-0.43886 0.47584,-0.935 0.58032,-1.4888 0.11494,-0.5538 0.17209,-1.11265 0.17209,-1.6769 v -5.61155 h 1.09709 v 5.61155 c 0,0.75233 -0.0834,1.46797 -0.25063,2.14715 -0.16719,0.66875 -0.43877,1.25896 -0.81494,1.77096 -0.36572,0.512 -0.84616,0.91963 -1.44177,1.22266 -0.5956,0.30302 -1.32186,0.45475 -2.17868,0.45475 -0.87773,0 -1.61966,-0.15678 -2.2257,-0.47025 -0.5956,-0.32392 -1.07657,-0.74724 -1.44229,-1.26969 -0.36573,-0.52246 -0.62669,-1.11824 -0.78342,-1.78697 -0.15674,-0.66875 -0.23513,-1.35808 -0.23513,-2.06861 z m 14.99289,0 h 0.92449 l 4.624,11.12853 h -1.16013 l -1.44178,-3.47938 h -5.0002 l -1.42628,3.47938 H 153.001 Z m 7.14375,0 h 1.0971 v 10.15649 h 6.42595 v 0.97204 h -7.52305 z m -40.47505,0.97204 v 5.07824 h 3.63647 c 0.32392,0 0.61624,-0.0678 0.87746,-0.2036 0.27168,-0.14629 0.5018,-0.34 0.68988,-0.58033 0.18809,-0.24033 0.33425,-0.51192 0.43874,-0.81494 0.10449,-0.30302 0.15709,-0.62164 0.15709,-0.95601 0,-0.33437 -0.0627,-0.65299 -0.1881,-0.95601 -0.11494,-0.31348 -0.27729,-0.58506 -0.48627,-0.81494 -0.19854,-0.22988 -0.43877,-0.41297 -0.72089,-0.54881 -0.27168,-0.13584 -0.55894,-0.2036 -0.86196,-0.2036 z m 33.78553,0.31368 -2.27273,5.50095 h 4.51446 z"
       id="rect4940"
       inkscape:connector-curvature="0" />
  </g>
</svg>
