<?xml version="1.0" encoding="UTF-8" standalone="no"?>
<!-- Created with Inkscape (http://www.inkscape.org/) -->

<svg
   xmlns:dc="http://purl.org/dc/elements/1.1/"
   xmlns:cc="http://creativecommons.org/ns#"
   xmlns:rdf="http://www.w3.org/1999/02/22-rdf-syntax-ns#"
   xmlns:svg="http://www.w3.org/2000/svg"
   xmlns="http://www.w3.org/2000/svg"
   xmlns:sodipodi="http://sodipodi.sourceforge.net/DTD/sodipodi-0.dtd"
   xmlns:inkscape="http://www.inkscape.org/namespaces/inkscape"
   version="1.1"
   id="svg987"
   xml:space="preserve"
   width="383.52393"
   height="231.65984"
   viewBox="0 0 383.52393 231.65984"
   sodipodi:docname="spssde-method.svg"
   inkscape:version="0.92.3 (2405546, 2018-03-11)"><metadata
     id="metadata993"><rdf:RDF><cc:Work
         rdf:about=""><dc:format>image/svg+xml</dc:format><dc:type
           rdf:resource="http://purl.org/dc/dcmitype/StillImage" /><dc:title></dc:title></cc:Work></rdf:RDF></metadata><defs
     id="defs991"><clipPath
       clipPathUnits="userSpaceOnUse"
       id="clipPath1015"><path
         d="M 0,792 H 612 V 0 H 0 Z"
         id="path1013"
         inkscape:connector-curvature="0" /></clipPath><clipPath
       clipPathUnits="userSpaceOnUse"
       id="clipPath1083"><path
         d="M 0,792 H 612 V 0 H 0 Z"
         id="path1081"
         inkscape:connector-curvature="0" /></clipPath><clipPath
       clipPathUnits="userSpaceOnUse"
       id="clipPath1103"><path
         d="M 0,792 H 612 V 0 H 0 Z"
         id="path1101"
         inkscape:connector-curvature="0" /></clipPath><clipPath
       clipPathUnits="userSpaceOnUse"
       id="clipPath1121"><path
         d="M 0,792 H 612 V 0 H 0 Z"
         id="path1119"
         inkscape:connector-curvature="0" /></clipPath><clipPath
       clipPathUnits="userSpaceOnUse"
       id="clipPath1157"><path
         d="M 0,792 H 612 V 0 H 0 Z"
         id="path1155"
         inkscape:connector-curvature="0" /></clipPath><clipPath
       clipPathUnits="userSpaceOnUse"
       id="clipPath1177"><path
         d="M 0,792 H 612 V 0 H 0 Z"
         id="path1175"
         inkscape:connector-curvature="0" /></clipPath><clipPath
       clipPathUnits="userSpaceOnUse"
       id="clipPath1199"><path
         d="M 0,792 H 612 V 0 H 0 Z"
         id="path1197"
         inkscape:connector-curvature="0" /></clipPath><clipPath
       clipPathUnits="userSpaceOnUse"
       id="clipPath1227"><path
         d="M 0,792 H 612 V 0 H 0 Z"
         id="path1225"
         inkscape:connector-curvature="0" /></clipPath><clipPath
       clipPathUnits="userSpaceOnUse"
       id="clipPath1249"><path
         d="M 0,792 H 612 V 0 H 0 Z"
         id="path1247"
         inkscape:connector-curvature="0" /></clipPath><clipPath
       clipPathUnits="userSpaceOnUse"
       id="clipPath1277"><path
         d="M 0,792 H 612 V 0 H 0 Z"
         id="path1275"
         inkscape:connector-curvature="0" /></clipPath><clipPath
       clipPathUnits="userSpaceOnUse"
       id="clipPath1301"><path
         d="M 0,792 H 612 V 0 H 0 Z"
         id="path1299"
         inkscape:connector-curvature="0" /></clipPath><clipPath
       clipPathUnits="userSpaceOnUse"
       id="clipPath1321"><path
         d="M 0,792 H 612 V 0 H 0 Z"
         id="path1319"
         inkscape:connector-curvature="0" /></clipPath><clipPath
       clipPathUnits="userSpaceOnUse"
       id="clipPath1351"><path
         d="M 0,792 H 612 V 0 H 0 Z"
         id="path1349"
         inkscape:connector-curvature="0" /></clipPath><clipPath
       clipPathUnits="userSpaceOnUse"
       id="clipPath1371"><path
         d="M 0,792 H 612 V 0 H 0 Z"
         id="path1369"
         inkscape:connector-curvature="0" /></clipPath><clipPath
       clipPathUnits="userSpaceOnUse"
       id="clipPath1391"><path
         d="M 0,792 H 612 V 0 H 0 Z"
         id="path1389"
         inkscape:connector-curvature="0" /></clipPath><clipPath
       clipPathUnits="userSpaceOnUse"
       id="clipPath1411"><path
         d="M 0,792 H 612 V 0 H 0 Z"
         id="path1409"
         inkscape:connector-curvature="0" /></clipPath><clipPath
       clipPathUnits="userSpaceOnUse"
       id="clipPath1469"><path
         d="M 0,792 H 612 V 0 H 0 Z"
         id="path1467"
         inkscape:connector-curvature="0" /></clipPath><clipPath
       clipPathUnits="userSpaceOnUse"
       id="clipPath1529"><path
         d="M 0,792 H 612 V 0 H 0 Z"
         id="path1527"
         inkscape:connector-curvature="0" /></clipPath><clipPath
       clipPathUnits="userSpaceOnUse"
       id="clipPath1541"><path
         d="m 497.282,66.173 h 38.14 v 38.268 h -38.14 z"
         id="path1539"
         inkscape:connector-curvature="0" /></clipPath><clipPath
       clipPathUnits="userSpaceOnUse"
       id="clipPath1549"><path
         d="m 490.986,103.566 h 50.961 V 67.1649 h -50.961 z"
         id="path1547"
         inkscape:connector-curvature="0" /></clipPath><clipPath
       clipPathUnits="userSpaceOnUse"
       id="clipPath1733"><path
         d="M 0,792 H 612 V 0 H 0 Z"
         id="path1731"
         inkscape:connector-curvature="0" /></clipPath><clipPath
       clipPathUnits="userSpaceOnUse"
       id="clipPath1785"><path
         d="M 0,792 H 612 V 0 H 0 Z"
         id="path1783"
         inkscape:connector-curvature="0" /></clipPath></defs><sodipodi:namedview
     pagecolor="#ffffff"
     bordercolor="#666666"
     borderopacity="1"
     objecttolerance="10"
     gridtolerance="10"
     guidetolerance="10"
     inkscape:pageopacity="0"
     inkscape:pageshadow="2"
     inkscape:window-width="1296"
     inkscape:window-height="704"
     id="namedview989"
     showgrid="false"
     fit-margin-top="0"
     fit-margin-left="0"
     fit-margin-right="0"
     fit-margin-bottom="0"
     inkscape:zoom="1.2642212"
     inkscape:cx="177.9269"
     inkscape:cy="90.099558"
     inkscape:window-x="70"
     inkscape:window-y="27"
     inkscape:window-maximized="1"
     inkscape:current-layer="g995" /><g
     id="g995"
     inkscape:groupmode="layer"
     inkscape:label="1_2_METODOLOGÍAS"
     transform="matrix(1.3333333,0,0,-1.3333333,-154.3543,788.11429)"><g
       id="g1009"
       inkscape:export-filename="/home/chdznel/github/dsxc_old/img/spssde-method.png"
       inkscape:export-xdpi="150"
       inkscape:export-ydpi="150"><g
         id="g1011"
         clip-path="url(#clipPath1015)"><g
           id="g1017"
           transform="translate(180.9129,501.0287)"><path
             d="m 0,0 c -0.318,7.328 0.442,14.743 2.312,22.049 6.717,26.259 26.557,45.747 50.712,53.274 l 0.041,1.825 C 28.109,69.576 7.567,49.535 0.645,22.476 -1.352,14.674 -2.095,6.752 -1.653,-1.065 Z"
             style="fill:#359c89;fill-opacity:1;fill-rule:nonzero;stroke:none"
             id="path1019"
             inkscape:connector-curvature="0" /></g><g
           id="g1021"
           transform="translate(227.4865,434.7377)"><path
             d="m 0,0 c -15.054,6.175 -27.647,17.002 -36.087,31.247 -6.226,10.507 -9.724,22.106 -10.413,33.958 l -1.679,-0.671 c 0.782,-11.925 4.344,-23.586 10.612,-34.164 8.568,-14.46 21.317,-25.484 36.56,-31.823 z"
             style="fill:#24544f;fill-opacity:1;fill-rule:nonzero;stroke:none"
             id="path1023"
             inkscape:connector-curvature="0" /></g><g
           id="g1025"
           transform="translate(327.7384,480.6764)"><path
             d="m 0,0 c -5.703,-17.273 -17.293,-31.746 -33.092,-41.107 -17.316,-10.26 -37.592,-13.163 -57.093,-8.176 -3.315,0.849 -6.532,1.924 -9.652,3.182 l -0.986,-1.461 c 3.296,-1.348 6.701,-2.489 10.211,-3.387 6.373,-1.631 12.828,-2.437 19.238,-2.437 13.653,0 27.107,3.657 39.159,10.799 16.251,9.629 28.15,24.545 33.947,42.343 z"
             style="fill:#ee213f;fill-opacity:1;fill-rule:nonzero;stroke:none"
             id="path1027"
             inkscape:connector-curvature="0" /></g><g
           id="g1029"
           transform="translate(329.2372,485.7225)"><path
             d="m 0,0 c -0.244,-0.954 -0.52,-1.895 -0.799,-2.834 l 1.658,-0.459 c 0.282,0.95 0.561,1.901 0.808,2.866 7.167,28.013 -2.085,56.436 -21.696,75.065 l -1.159,-1.271 C -2.031,55.154 7.004,27.377 0,0"
             style="fill:#bf1e40;fill-opacity:1;fill-rule:nonzero;stroke:none"
             id="path1031"
             inkscape:connector-curvature="0" /></g><g
           id="g1033"
           transform="translate(231.7781,575.655)"><path
             d="m 0,0 c 7.77,2.68 16.025,4.112 24.462,4.112 6.165,0 12.428,-0.764 18.668,-2.36 13.259,-3.392 24.793,-10.13 33.934,-19.078 l 1.964,0.47 C 69.561,-7.325 57.491,-0.146 43.557,3.419 28.351,7.309 13.025,6.359 -0.792,1.543 Z"
             style="fill:#4f2047;fill-opacity:1;fill-rule:nonzero;stroke:none"
             id="path1035"
             inkscape:connector-curvature="0" /></g><g
           id="g1037"
           transform="translate(238.3639,577.1949)"><path
             d="m 0,0 c 0,3.544 -2.873,6.418 -6.418,6.418 -3.544,0 -6.418,-2.874 -6.418,-6.418 0,-3.544 2.874,-6.418 6.418,-6.418 C -2.873,-6.418 0,-3.544 0,0"
             style="fill:#359c89;fill-opacity:1;fill-rule:nonzero;stroke:none"
             id="path1039"
             inkscape:connector-curvature="0" /></g><g
           id="g1041"
           transform="translate(314.7914,559.1705)"><path
             d="m 0,0 c 0,3.544 -2.873,6.418 -6.418,6.418 -3.544,0 -6.418,-2.874 -6.418,-6.418 0,-3.544 2.874,-6.418 6.418,-6.418 C -2.873,-6.418 0,-3.544 0,0"
             style="fill:#4f2047;fill-opacity:1;fill-rule:nonzero;stroke:none"
             id="path1043"
             inkscape:connector-curvature="0" /></g><g
           id="g1045"
           transform="translate(239.0986,432.3213)"><path
             d="m 0,0 c 0,3.544 -2.873,6.418 -6.418,6.418 -3.544,0 -6.418,-2.874 -6.418,-6.418 0,-3.544 2.874,-6.418 6.418,-6.418 C -2.873,-6.418 0,-3.544 0,0"
             style="fill:#ee213f;fill-opacity:1;fill-rule:nonzero;stroke:none"
             id="path1047"
             inkscape:connector-curvature="0" /></g></g></g><text
       transform="matrix(1,0,0,-1,168.3828,585.5527)"
       style="font-variant:normal;font-weight:normal;font-stretch:normal;font-size:7.5795002px;font-family:Raleway;-inkscape-font-specification:Raleway-Regular;writing-mode:lr-tb;fill:#231f20;fill-opacity:1;fill-rule:nonzero;stroke:none"
       id="text1063"
       inkscape:export-filename="/home/chdznel/github/dsxc_old/img/spssde-method.png"
       inkscape:export-xdpi="150"
       inkscape:export-ydpi="150"><tspan
         x="0 5.1237421 9.5425901 13.673418 15.735042 17.387373 21.07859 22.730921 26.422136 28.35491 32.925346 36.616566 39.155697 41.763802 45.864311 48.304153 52.753319 57.43745 59.089783 63.212273"
         y="0"
         sodipodi:role="line"
         id="tspan1049">Análisis Estratégico</tspan><tspan
         x="-38.223419 -33.607502 -29.787436 -25.110884 -23.049259 -18.539457 -15.932109 -11.801282 -7.3824329 -2.667984"
         y="99.708321"
         sodipodi:role="line"
         id="tspan1051">Explorando</tspan><tspan
         x="-49.327385 -44.817585 -40.141033 -35.631229 -32.970825 -30.431692 -25.92947 -21.51062 -19.85829 -15.143841 -11.013014 -6.2985644 -1.849398"
         y="108.80372"
         sodipodi:role="line"
         id="tspan1053">oportunidades</tspan><tspan
         x="-28.961269 -23.541927 -21.889597 -18.19838 -13.749213 -9.3303642 -5.1995368 -0.78068852 3.9337604 8.4435635 10.376335 14.825502 16.651403 18.584175 22.707424 27.217226 31.636076 35.759323 40.208488 44.831226 47.271824"
         y="159.04065"
         sodipodi:role="line"
         id="tspan1055">Diseñando el concepto</tspan><tspan
         x="11.839179 16.553629 21.002794 22.830212 24.762985 28.454201 30.106531 33.797749 36.239105 40.688271 47.653831"
         y="168.13605"
         sodipodi:role="line"
         id="tspan1057">del sistema</tspan><tspan
         x="169.36392 174.78326 176.43561 180.12682 184.57599 188.99483 193.50464 195.43741 200.15186 204.60103 206.42844 208.36121 212.05243 213.70476 217.39598 219.83658 224.28574 231.2513"
         y="104.71079"
         sodipodi:role="line"
         id="tspan1059">Diseño del sistema</tspan><tspan
         x="149.30099 154.50053 159.01033 165.97589 170.47812 174.89696 176.54929 180.71043 184.84126 189.00241 190.65474 195.16455"
         y="28.241217"
         sodipodi:role="line"
         id="tspan1061">Comunicación</tspan></text>
<text
       transform="matrix(1,0,0,-1,156.0957,570.2812)"
       style="font-variant:normal;font-weight:normal;font-stretch:normal;font-size:5.68459988px;font-family:Raleway;-inkscape-font-specification:Raleway-Regular;writing-mode:lr-tb;fill:#4f4c4d;fill-opacity:1;fill-rule:nonzero;stroke:none"
       id="text1071"
       inkscape:export-filename="/home/chdznel/github/dsxc_old/img/spssde-method.png"
       inkscape:export-xdpi="150"
       inkscape:export-ydpi="150"><tspan
         x="0 3.8427896 5.3890009 8.5098457 11.607953 14.922075 18.014498 21.351358 22.80093 26.336752 29.673613 31.0436 32.493176 36.000572 37.8475 41.127514 44.106243 47.443104 50.56395 52.39439"
         y="0"
         sodipodi:role="line"
         id="tspan1065">Alcance del proyecto</tspan><tspan
         x="17.360769 21.260405 24.64274 27.92844 29.758881 32.988304 35.85334 37.683212 41.065552"
         y="12.966573"
         sodipodi:role="line"
         id="tspan1067">Contexto </tspan><tspan
         x="-8.0664473 -4.6158953 -3.3766525 -0.60825223 1.2216206 4.5584807 9.7826281 12.880735 14.330308 17.428415 20.549261 22.453602 25.830254 28.928362"
         y="27.251972"
         sodipodi:role="line"
         id="tspan1069">Sistema actual</tspan></text>
<text
       transform="matrix(1,0,0,-1,227.6719,574.8145)"
       style="font-variant:normal;font-weight:normal;font-stretch:normal;font-size:8.10960007px;font-family:Raleway;-inkscape-font-specification:Raleway-Regular;writing-mode:lr-tb;fill:#ffffff;fill-opacity:1;fill-rule:nonzero;stroke:none"
       id="text1075"
       inkscape:export-filename="/home/chdznel/github/dsxc_old/img/spssde-method.png"
       inkscape:export-xdpi="150"
       inkscape:export-ydpi="150"><tspan
         x="0 4.9630752"
         y="0"
         sodipodi:role="line"
         id="tspan1073">01</tspan></text>
<g
       id="g1077"
       inkscape:export-filename="/home/chdznel/github/dsxc_old/img/spssde-method.png"
       inkscape:export-xdpi="150"
       inkscape:export-ydpi="150"><g
         id="g1079"
         clip-path="url(#clipPath1083)"><g
           id="g1085"
           transform="translate(187.8783,487.5049)"><path
             d="m 0,0 c 0,3.544 -2.873,6.418 -6.418,6.418 -3.544,0 -6.417,-2.874 -6.417,-6.418 0,-3.544 2.873,-6.418 6.417,-6.418 C -2.873,-6.418 0,-3.544 0,0"
             style="fill:#24544f;fill-opacity:1;fill-rule:nonzero;stroke:none"
             id="path1087"
             inkscape:connector-curvature="0" /></g></g></g><text
       transform="matrix(1,0,0,-1,176.4326,485.125)"
       style="font-variant:normal;font-weight:normal;font-stretch:normal;font-size:8.10929966px;font-family:Raleway;-inkscape-font-specification:Raleway-Regular;writing-mode:lr-tb;fill:#ffffff;fill-opacity:1;fill-rule:nonzero;stroke:none"
       id="text1091"
       inkscape:export-filename="/home/chdznel/github/dsxc_old/img/spssde-method.png"
       inkscape:export-xdpi="150"
       inkscape:export-ydpi="150"><tspan
         x="0 4.9628916"
         y="0"
         sodipodi:role="line"
         id="tspan1089">02</tspan></text>
<text
       transform="matrix(1,0,0,-1,227.5459,429.9414)"
       style="font-variant:normal;font-weight:normal;font-stretch:normal;font-size:8.10960007px;font-family:Raleway;-inkscape-font-specification:Raleway-Regular;writing-mode:lr-tb;fill:#ffffff;fill-opacity:1;fill-rule:nonzero;stroke:none"
       id="text1095"
       inkscape:export-filename="/home/chdznel/github/dsxc_old/img/spssde-method.png"
       inkscape:export-xdpi="150"
       inkscape:export-ydpi="150"><tspan
         x="0 4.9630752"
         y="0"
         sodipodi:role="line"
         id="tspan1093">03</tspan></text>
<g
       id="g1097"
       inkscape:export-filename="/home/chdznel/github/dsxc_old/img/spssde-method.png"
       inkscape:export-xdpi="150"
       inkscape:export-ydpi="150"><g
         id="g1099"
         clip-path="url(#clipPath1103)"><g
           id="g1105"
           transform="translate(335.5456,483.1235)"><path
             d="m 0,0 c 0,3.544 -2.873,6.418 -6.418,6.418 -3.544,0 -6.418,-2.874 -6.418,-6.418 0,-3.544 2.874,-6.418 6.418,-6.418 C -2.873,-6.418 0,-3.544 0,0"
             style="fill:#bf1e40;fill-opacity:1;fill-rule:nonzero;stroke:none"
             id="path1107"
             inkscape:connector-curvature="0" /></g></g></g><text
       transform="matrix(1,0,0,-1,323.8975,480.8447)"
       style="font-variant:normal;font-weight:normal;font-stretch:normal;font-size:8.10960007px;font-family:Raleway;-inkscape-font-specification:Raleway-Regular;writing-mode:lr-tb;fill:#ffffff;fill-opacity:1;fill-rule:nonzero;stroke:none"
       id="text1113"
       inkscape:export-filename="/home/chdznel/github/dsxc_old/img/spssde-method.png"
       inkscape:export-xdpi="150"
       inkscape:export-ydpi="150"><tspan
         x="0 4.9630752"
         y="0"
         sodipodi:role="line"
         id="tspan1109">04</tspan><tspan
         x="-20.744356 -15.781281"
         y="-75.946404"
         sodipodi:role="line"
         id="tspan1111">05</tspan></text>
<g
       id="g1115"
       inkscape:export-filename="/home/chdznel/github/dsxc_old/img/spssde-method.png"
       inkscape:export-xdpi="150"
       inkscape:export-ydpi="150"><g
         id="g1117"
         clip-path="url(#clipPath1121)"><g
           id="g1123"
           transform="translate(219.9587,568.8333)"><path
             d="M 0,0 C 0.699,1.772 -0.447,3.707 -2.337,3.944 -3.625,4.106 -4.891,3.356 -5.367,2.149 -6.067,0.376 -4.921,-1.558 -3.03,-1.796 -1.742,-1.958 -0.477,-1.208 0,0"
             style="fill:#ffffff;fill-opacity:1;fill-rule:nonzero;stroke:none"
             id="path1125"
             inkscape:connector-curvature="0" /></g><g
           id="g1127"
           transform="translate(219.9587,568.8333)"><path
             d="M 0,0 C 0.699,1.772 -0.447,3.707 -2.337,3.944 -3.625,4.106 -4.891,3.356 -5.367,2.149 -6.067,0.376 -4.921,-1.558 -3.03,-1.796 -1.742,-1.958 -0.477,-1.208 0,0 Z"
             style="fill:none;stroke:#359c89;stroke-width:0.79900002;stroke-linecap:butt;stroke-linejoin:miter;stroke-miterlimit:10;stroke-dasharray:none;stroke-opacity:1"
             id="path1129"
             inkscape:connector-curvature="0" /></g><g
           id="g1131"
           transform="translate(205.1496,557.2546)"><path
             d="M 0,0 C 0.699,1.772 -0.447,3.707 -2.337,3.944 -3.625,4.106 -4.891,3.356 -5.367,2.149 -6.067,0.376 -4.921,-1.558 -3.03,-1.795 -1.742,-1.957 -0.477,-1.208 0,0"
             style="fill:#ffffff;fill-opacity:1;fill-rule:nonzero;stroke:none"
             id="path1133"
             inkscape:connector-curvature="0" /></g><g
           id="g1135"
           transform="translate(205.1496,557.2546)"><path
             d="M 0,0 C 0.699,1.772 -0.447,3.707 -2.337,3.944 -3.625,4.106 -4.891,3.356 -5.367,2.149 -6.067,0.376 -4.921,-1.558 -3.03,-1.795 -1.742,-1.957 -0.477,-1.208 0,0 Z"
             style="fill:none;stroke:#359c89;stroke-width:0.79900002;stroke-linecap:butt;stroke-linejoin:miter;stroke-miterlimit:10;stroke-dasharray:none;stroke-opacity:1"
             id="path1137"
             inkscape:connector-curvature="0" /></g><g
           id="g1139"
           transform="translate(194.3491,543.2408)"><path
             d="M 0,0 C 0.699,1.772 -0.447,3.707 -2.337,3.944 -3.625,4.106 -4.891,3.356 -5.367,2.149 -6.067,0.376 -4.921,-1.558 -3.03,-1.795 -1.742,-1.957 -0.477,-1.208 0,0"
             style="fill:#ffffff;fill-opacity:1;fill-rule:nonzero;stroke:none"
             id="path1141"
             inkscape:connector-curvature="0" /></g><g
           id="g1143"
           transform="translate(194.3491,543.2408)"><path
             d="M 0,0 C 0.699,1.772 -0.447,3.707 -2.337,3.944 -3.625,4.106 -4.891,3.356 -5.367,2.149 -6.067,0.376 -4.921,-1.558 -3.03,-1.795 -1.742,-1.957 -0.477,-1.208 0,0 Z"
             style="fill:none;stroke:#359c89;stroke-width:0.79900002;stroke-linecap:butt;stroke-linejoin:miter;stroke-miterlimit:10;stroke-dasharray:none;stroke-opacity:1"
             id="path1145"
             inkscape:connector-curvature="0" /></g></g></g><text
       transform="matrix(1,0,0,-1,133.2793,528.3291)"
       style="font-variant:normal;font-weight:normal;font-stretch:normal;font-size:5.68459988px;font-family:Raleway;-inkscape-font-specification:Raleway-Regular;writing-mode:lr-tb;fill:#4f4c4d;fill-opacity:1;fill-rule:nonzero;stroke:none"
       id="text1149"
       inkscape:export-filename="/home/chdznel/github/dsxc_old/img/spssde-method.png"
       inkscape:export-xdpi="150"
       inkscape:export-ydpi="150"><tspan
         x="0 3.8996356 6.9977427 9.7661428 13.148479 15.91688 17.366453 20.902275 24.239134 25.688707 29.025568 31.793968 33.698307 37.074963 40.610783 41.850025"
         y="0"
         sodipodi:role="line"
         id="tspan1147">Casos de estudio</tspan></text>
<g
       id="g1151"
       inkscape:export-filename="/home/chdznel/github/dsxc_old/img/spssde-method.png"
       inkscape:export-xdpi="150"
       inkscape:export-ydpi="150"><g
         id="g1153"
         clip-path="url(#clipPath1157)"><g
           id="g1159"
           transform="translate(186.8941,528.7235)"><path
             d="M 0,0 C 0.699,1.772 -0.447,3.707 -2.337,3.944 -3.625,4.106 -4.891,3.356 -5.367,2.149 -6.067,0.376 -4.921,-1.558 -3.03,-1.796 -1.742,-1.957 -0.477,-1.208 0,0"
             style="fill:#ffffff;fill-opacity:1;fill-rule:nonzero;stroke:none"
             id="path1161"
             inkscape:connector-curvature="0" /></g><g
           id="g1163"
           transform="translate(186.8941,528.7235)"><path
             d="M 0,0 C 0.699,1.772 -0.447,3.707 -2.337,3.944 -3.625,4.106 -4.891,3.356 -5.367,2.149 -6.067,0.376 -4.921,-1.558 -3.03,-1.796 -1.742,-1.957 -0.477,-1.208 0,0 Z"
             style="fill:none;stroke:#359c89;stroke-width:0.79900002;stroke-linecap:butt;stroke-linejoin:miter;stroke-miterlimit:10;stroke-dasharray:none;stroke-opacity:1"
             id="path1165"
             inkscape:connector-curvature="0" /></g></g></g><text
       transform="matrix(1,0,0,-1,115.2598,512.7686)"
       style="font-variant:normal;font-weight:normal;font-stretch:normal;font-size:5.68459988px;font-family:Raleway;-inkscape-font-specification:Raleway-Regular;writing-mode:lr-tb;fill:#4f4c4d;fill-opacity:1;fill-rule:nonzero;stroke:none"
       id="text1169"
       inkscape:export-filename="/home/chdznel/github/dsxc_old/img/spssde-method.png"
       inkscape:export-xdpi="150"
       inkscape:export-ydpi="150"><tspan
         x="0 4.0644889 7.3786106 9.2090521 12.545912 14.541206 19.765354 21.004597 24.318718 27.416826 29.276258 30.725832 34.233231 36.228523 37.467766 40.850105 42.845398 44.084641 47.620464 50.718571 54.254391 57.591251"
         y="0"
         sodipodi:role="line"
         id="tspan1167">Determinar prioridades</tspan></text>
<g
       id="g1171"
       inkscape:export-filename="/home/chdznel/github/dsxc_old/img/spssde-method.png"
       inkscape:export-xdpi="150"
       inkscape:export-ydpi="150"><g
         id="g1173"
         clip-path="url(#clipPath1177)"><g
           id="g1179"
           transform="translate(183.2082,513.0591)"><path
             d="M 0,0 C 0.699,1.772 -0.447,3.707 -2.337,3.944 -3.625,4.106 -4.891,3.356 -5.367,2.149 -6.067,0.376 -4.921,-1.558 -3.03,-1.796 -1.742,-1.958 -0.477,-1.208 0,0"
             style="fill:#ffffff;fill-opacity:1;fill-rule:nonzero;stroke:none"
             id="path1181"
             inkscape:connector-curvature="0" /></g><g
           id="g1183"
           transform="translate(183.2082,513.0591)"><path
             d="M 0,0 C 0.699,1.772 -0.447,3.707 -2.337,3.944 -3.625,4.106 -4.891,3.356 -5.367,2.149 -6.067,0.376 -4.921,-1.558 -3.03,-1.796 -1.742,-1.958 -0.477,-1.208 0,0 Z"
             style="fill:none;stroke:#359c89;stroke-width:0.79900002;stroke-linecap:butt;stroke-linejoin:miter;stroke-miterlimit:10;stroke-dasharray:none;stroke-opacity:1"
             id="path1185"
             inkscape:connector-curvature="0" /></g></g></g><text
       transform="matrix(1,0,0,-1,145.9961,498.1738)"
       style="font-variant:normal;font-weight:normal;font-stretch:normal;font-size:5.68459988px;font-family:Raleway;-inkscape-font-specification:Raleway-Regular;writing-mode:lr-tb;fill:#4f4c4d;fill-opacity:1;fill-rule:nonzero;stroke:none"
       id="text1191"
       inkscape:export-filename="/home/chdznel/github/dsxc_old/img/spssde-method.png"
       inkscape:export-xdpi="150"
       inkscape:export-ydpi="150"><tspan
         x="0 3.2862673 6.242259 9.3403664 10.886578 14.26323 17.361338 20.482182 21.721426 25.103762"
         y="0"
         sodipodi:role="line"
         id="tspan1187">Evaluación</tspan><tspan
         x="0.64804441 4.7182178 8.0550785 11.3692 14.70606 16.660994 19.759102 21.618534 23.068108 24.30735 27.84317 31.180031 34.278137"
         y="32.498859"
         sodipodi:role="line"
         id="tspan1189">Generar ideas</tspan></text>
<g
       id="g1193"
       inkscape:export-filename="/home/chdznel/github/dsxc_old/img/spssde-method.png"
       inkscape:export-xdpi="150"
       inkscape:export-ydpi="150"><g
         id="g1195"
         clip-path="url(#clipPath1199)"><g
           id="g1201"
           transform="translate(182.6335,498.8893)"><path
             d="M 0,0 C 0.699,1.772 -0.447,3.707 -2.337,3.944 -3.625,4.106 -4.891,3.356 -5.367,2.149 -6.067,0.376 -4.921,-1.558 -3.03,-1.796 -1.742,-1.957 -0.477,-1.208 0,0"
             style="fill:#ffffff;fill-opacity:1;fill-rule:nonzero;stroke:none"
             id="path1203"
             inkscape:connector-curvature="0" /></g><g
           id="g1205"
           transform="translate(182.6335,498.8893)"><path
             d="M 0,0 C 0.699,1.772 -0.447,3.707 -2.337,3.944 -3.625,4.106 -4.891,3.356 -5.367,2.149 -6.067,0.376 -4.921,-1.558 -3.03,-1.796 -1.742,-1.957 -0.477,-1.208 0,0 Z"
             style="fill:none;stroke:#359c89;stroke-width:0.79900002;stroke-linecap:butt;stroke-linejoin:miter;stroke-miterlimit:10;stroke-dasharray:none;stroke-opacity:1"
             id="path1207"
             inkscape:connector-curvature="0" /></g><g
           id="g1209"
           transform="translate(191.9667,466.4484)"><path
             d="M 0,0 C 0.699,1.772 -0.447,3.707 -2.337,3.944 -3.625,4.106 -4.891,3.356 -5.367,2.149 -6.067,0.376 -4.921,-1.558 -3.03,-1.796 -1.742,-1.958 -0.477,-1.208 0,0"
             style="fill:#ffffff;fill-opacity:1;fill-rule:nonzero;stroke:none"
             id="path1211"
             inkscape:connector-curvature="0" /></g><g
           id="g1213"
           transform="translate(191.9667,466.4484)"><path
             d="M 0,0 C 0.699,1.772 -0.447,3.707 -2.337,3.944 -3.625,4.106 -4.891,3.356 -5.367,2.149 -6.067,0.376 -4.921,-1.558 -3.03,-1.796 -1.742,-1.958 -0.477,-1.208 0,0 Z"
             style="fill:none;stroke:#24544f;stroke-width:0.79900002;stroke-linecap:butt;stroke-linejoin:miter;stroke-miterlimit:10;stroke-dasharray:none;stroke-opacity:1"
             id="path1215"
             inkscape:connector-curvature="0" /></g></g></g><text
       transform="matrix(1,0,0,-1,162.8955,451.3955)"
       style="font-variant:normal;font-weight:normal;font-stretch:normal;font-size:5.68459988px;font-family:Raleway;-inkscape-font-specification:Raleway-Regular;writing-mode:lr-tb;fill:#4f4c4d;fill-opacity:1;fill-rule:nonzero;stroke:none"
       id="text1219"
       inkscape:export-filename="/home/chdznel/github/dsxc_old/img/spssde-method.png"
       inkscape:export-xdpi="150"
       inkscape:export-ydpi="150"><tspan
         x="0 3.4619215 6.3269596 9.8343582 11.380569 14.762906 16.718409 19.816515 22.937361 24.176603 27.558941"
         y="0"
         sodipodi:role="line"
         id="tspan1217">Exploración</tspan></text>
<g
       id="g1221"
       inkscape:export-filename="/home/chdznel/github/dsxc_old/img/spssde-method.png"
       inkscape:export-xdpi="150"
       inkscape:export-ydpi="150"><g
         id="g1223"
         clip-path="url(#clipPath1227)"><g
           id="g1229"
           transform="translate(202.4093,452.1116)"><path
             d="M 0,0 C 0.699,1.772 -0.447,3.707 -2.337,3.944 -3.625,4.106 -4.891,3.356 -5.367,2.149 -6.067,0.376 -4.921,-1.558 -3.03,-1.796 -1.742,-1.958 -0.477,-1.208 0,0"
             style="fill:#ffffff;fill-opacity:1;fill-rule:nonzero;stroke:none"
             id="path1231"
             inkscape:connector-curvature="0" /></g><g
           id="g1233"
           transform="translate(202.4093,452.1116)"><path
             d="M 0,0 C 0.699,1.772 -0.447,3.707 -2.337,3.944 -3.625,4.106 -4.891,3.356 -5.367,2.149 -6.067,0.376 -4.921,-1.558 -3.03,-1.796 -1.742,-1.958 -0.477,-1.208 0,0 Z"
             style="fill:none;stroke:#24544f;stroke-width:0.79900002;stroke-linecap:butt;stroke-linejoin:miter;stroke-miterlimit:10;stroke-dasharray:none;stroke-opacity:1"
             id="path1235"
             inkscape:connector-curvature="0" /></g></g></g><text
       transform="matrix(1,0,0,-1,151.5244,438.7383)"
       style="font-variant:normal;font-weight:normal;font-stretch:normal;font-size:5.68459988px;font-family:Raleway;-inkscape-font-specification:Raleway-Regular;writing-mode:lr-tb;fill:#4f4c4d;fill-opacity:1;fill-rule:nonzero;stroke:none"
       id="text1241"
       inkscape:export-filename="/home/chdznel/github/dsxc_old/img/spssde-method.png"
       inkscape:export-xdpi="150"
       inkscape:export-ydpi="150"><tspan
         x="0 3.4278138 6.1962142 9.2892046 12.626065 15.940187 19.038294 21.033588 22.272831 25.655169 27.104742 29.873142 33.255478 36.02388 37.853752 41.190613 44.504734 45.743977 49.251373 50.797585"
         y="0"
         sodipodi:role="line"
         id="tspan1237">Escenario sostenible</tspan><tspan
         x="103.0618 106.51235 109.84921 111.39542 114.73228 117.82471 120.94555 122.18479 125.56713 128.88126 130.33083 133.86664 137.20351 138.65308 139.89232 143.42815 146.765 149.86311"
         y="20.981859"
         sodipodi:role="line"
         id="tspan1239">Selección de ideas</tspan></text>
<g
       id="g1243"
       inkscape:export-filename="/home/chdznel/github/dsxc_old/img/spssde-method.png"
       inkscape:export-xdpi="150"
       inkscape:export-ydpi="150"><g
         id="g1245"
         clip-path="url(#clipPath1249)"><g
           id="g1251"
           transform="translate(216.0307,439.8724)"><path
             d="M 0,0 C 0.699,1.772 -0.447,3.707 -2.337,3.944 -3.625,4.106 -4.891,3.356 -5.367,2.149 -6.067,0.376 -4.921,-1.558 -3.03,-1.796 -1.742,-1.958 -0.477,-1.208 0,0"
             style="fill:#ffffff;fill-opacity:1;fill-rule:nonzero;stroke:none"
             id="path1253"
             inkscape:connector-curvature="0" /></g><g
           id="g1255"
           transform="translate(216.0307,439.8724)"><path
             d="M 0,0 C 0.699,1.772 -0.447,3.707 -2.337,3.944 -3.625,4.106 -4.891,3.356 -5.367,2.149 -6.067,0.376 -4.921,-1.558 -3.03,-1.796 -1.742,-1.958 -0.477,-1.208 0,0 Z"
             style="fill:none;stroke:#24544f;stroke-width:0.79900002;stroke-linecap:butt;stroke-linejoin:miter;stroke-miterlimit:10;stroke-dasharray:none;stroke-opacity:1"
             id="path1257"
             inkscape:connector-curvature="0" /></g><g
           id="g1259"
           transform="translate(259.8607,426.984)"><path
             d="M 0,0 C 0.699,1.772 -0.447,3.707 -2.337,3.944 -3.625,4.106 -4.891,3.356 -5.367,2.149 -6.067,0.376 -4.921,-1.558 -3.03,-1.796 -1.742,-1.957 -0.477,-1.208 0,0"
             style="fill:#ffffff;fill-opacity:1;fill-rule:nonzero;stroke:none"
             id="path1261"
             inkscape:connector-curvature="0" /></g><g
           id="g1263"
           transform="translate(259.8607,426.984)"><path
             d="M 0,0 C 0.699,1.772 -0.447,3.707 -2.337,3.944 -3.625,4.106 -4.891,3.356 -5.367,2.149 -6.067,0.376 -4.921,-1.558 -3.03,-1.796 -1.742,-1.957 -0.477,-1.208 0,0 Z"
             style="fill:none;stroke:#ee213f;stroke-width:0.79900002;stroke-linecap:butt;stroke-linejoin:miter;stroke-miterlimit:10;stroke-dasharray:none;stroke-opacity:1"
             id="path1265"
             inkscape:connector-curvature="0" /></g></g></g><text
       transform="matrix(1,0,0,-1,288.8643,428.6064)"
       style="font-variant:normal;font-weight:normal;font-stretch:normal;font-size:5.68459988px;font-family:Raleway;-inkscape-font-specification:Raleway-Regular;writing-mode:lr-tb;fill:#4f4c4d;fill-opacity:1;fill-rule:nonzero;stroke:none"
       id="text1269"
       inkscape:export-filename="/home/chdznel/github/dsxc_old/img/spssde-method.png"
       inkscape:export-xdpi="150"
       inkscape:export-ydpi="150"><tspan
         x="0 4.0644889 7.4013491 10.169749 13.267857 15.263151 17.110645 20.492983 22.039194 23.585405 26.967743 28.417315 31.953136 35.289997 36.659416 38.10899 40.877392 42.116634 44.885033 46.71661 50.053471 55.277618"
         y="0"
         sodipodi:role="line"
         id="tspan1267">Desarrollo del sistema</tspan></text>
<g
       id="g1271"
       inkscape:export-filename="/home/chdznel/github/dsxc_old/img/spssde-method.png"
       inkscape:export-xdpi="150"
       inkscape:export-ydpi="150"><g
         id="g1273"
         clip-path="url(#clipPath1277)"><g
           id="g1279"
           transform="translate(287.2169,432.2098)"><path
             d="M 0,0 C 0.699,1.772 -0.447,3.707 -2.337,3.944 -3.625,4.106 -4.891,3.356 -5.367,2.149 -6.067,0.376 -4.921,-1.558 -3.03,-1.796 -1.742,-1.958 -0.477,-1.208 0,0"
             style="fill:#ffffff;fill-opacity:1;fill-rule:nonzero;stroke:none"
             id="path1281"
             inkscape:connector-curvature="0" /></g><g
           id="g1283"
           transform="translate(287.2169,432.2098)"><path
             d="M 0,0 C 0.699,1.772 -0.447,3.707 -2.337,3.944 -3.625,4.106 -4.891,3.356 -5.367,2.149 -6.067,0.376 -4.921,-1.558 -3.03,-1.796 -1.742,-1.958 -0.477,-1.208 0,0 Z"
             style="fill:none;stroke:#ee213f;stroke-width:0.79900002;stroke-linecap:butt;stroke-linejoin:miter;stroke-miterlimit:10;stroke-dasharray:none;stroke-opacity:1"
             id="path1285"
             inkscape:connector-curvature="0" /></g></g></g><text
       transform="matrix(1,0,0,-1,338.6465,501.3467)"
       style="font-variant:normal;font-weight:normal;font-stretch:normal;font-size:5.68459988px;font-family:Raleway;-inkscape-font-specification:Raleway-Regular;writing-mode:lr-tb;fill:#4f4c4d;fill-opacity:1;fill-rule:nonzero;stroke:none"
       id="text1293"
       inkscape:export-filename="/home/chdznel/github/dsxc_old/img/spssde-method.png"
       inkscape:export-xdpi="150"
       inkscape:export-ydpi="150"><tspan
         x="0 4.0644889 5.3037319 8.0721321 11.408992 14.723114 18.105452 19.555023 23.090845 26.404966 28.309307 31.407415 32.953625 34.499836 37.597946 41.133766"
         y="0"
         sodipodi:role="line"
         id="tspan1287">Diseño detallado</tspan><tspan
         x="0 3.5358212 6.8726816 8.2426701 9.6922426 12.460643 13.699886 16.468287 18.298159 21.635019 26.859167"
         y="6.8215199"
         sodipodi:role="line"
         id="tspan1289">del sistema</tspan><tspan
         x="-29.230213 -25.943947 -22.987953 -19.889847 -18.343636 -14.966984 -11.868876 -8.7480307 -7.5087881 -4.126451"
         y="59.716724"
         sodipodi:role="line"
         id="tspan1291">Evaluación</tspan></text>
<g
       id="g1295"
       inkscape:export-filename="/home/chdznel/github/dsxc_old/img/spssde-method.png"
       inkscape:export-xdpi="150"
       inkscape:export-ydpi="150"><g
         id="g1297"
         clip-path="url(#clipPath1301)"><g
           id="g1303"
           transform="translate(306.8414,443.4457)"><path
             d="M 0,0 C 0.699,1.772 -0.447,3.707 -2.337,3.944 -3.625,4.106 -4.891,3.356 -5.367,2.149 -6.067,0.376 -4.921,-1.558 -3.03,-1.796 -1.742,-1.957 -0.477,-1.208 0,0"
             style="fill:#ffffff;fill-opacity:1;fill-rule:nonzero;stroke:none"
             id="path1305"
             inkscape:connector-curvature="0" /></g><g
           id="g1307"
           transform="translate(306.8414,443.4457)"><path
             d="M 0,0 C 0.699,1.772 -0.447,3.707 -2.337,3.944 -3.625,4.106 -4.891,3.356 -5.367,2.149 -6.067,0.376 -4.921,-1.558 -3.03,-1.796 -1.742,-1.957 -0.477,-1.208 0,0 Z"
             style="fill:none;stroke:#ee213f;stroke-width:0.79900002;stroke-linecap:butt;stroke-linejoin:miter;stroke-miterlimit:10;stroke-dasharray:none;stroke-opacity:1"
             id="path1309"
             inkscape:connector-curvature="0" /></g></g></g><text
       transform="matrix(1,0,0,-1,323.8359,458.1035)"
       style="font-variant:normal;font-weight:normal;font-stretch:normal;font-size:5.68459988px;font-family:Raleway;-inkscape-font-specification:Raleway-Regular;writing-mode:lr-tb;fill:#4f4c4d;fill-opacity:1;fill-rule:nonzero;stroke:none"
       id="text1313"
       inkscape:export-filename="/home/chdznel/github/dsxc_old/img/spssde-method.png"
       inkscape:export-xdpi="150"
       inkscape:export-ydpi="150"><tspan
         x="0 4.0644889 5.3037319 8.0721321 11.408992 14.723114 18.105452 19.555023 23.090845 26.427706 27.797693 29.247267 32.015667 33.25491 36.023312 37.853184 41.190044 46.414192"
         y="0"
         sodipodi:role="line"
         id="tspan1311">Diseño del sistema</tspan></text>
<g
       id="g1315"
       inkscape:export-filename="/home/chdznel/github/dsxc_old/img/spssde-method.png"
       inkscape:export-xdpi="150"
       inkscape:export-ydpi="150"><g
         id="g1317"
         clip-path="url(#clipPath1321)"><g
           id="g1323"
           transform="translate(321.2573,458.8211)"><path
             d="M 0,0 C 0.699,1.772 -0.447,3.707 -2.337,3.944 -3.625,4.106 -4.891,3.356 -5.367,2.149 -6.067,0.376 -4.921,-1.558 -3.03,-1.796 -1.742,-1.957 -0.477,-1.208 0,0"
             style="fill:#ffffff;fill-opacity:1;fill-rule:nonzero;stroke:none"
             id="path1325"
             inkscape:connector-curvature="0" /></g><g
           id="g1327"
           transform="translate(321.2573,458.8211)"><path
             d="M 0,0 C 0.699,1.772 -0.447,3.707 -2.337,3.944 -3.625,4.106 -4.891,3.356 -5.367,2.149 -6.067,0.376 -4.921,-1.558 -3.03,-1.796 -1.742,-1.957 -0.477,-1.208 0,0 Z"
             style="fill:none;stroke:#ee213f;stroke-width:0.79900002;stroke-linecap:butt;stroke-linejoin:miter;stroke-miterlimit:10;stroke-dasharray:none;stroke-opacity:1"
             id="path1329"
             inkscape:connector-curvature="0" /></g><g
           id="g1331"
           transform="translate(334.9767,502.3954)"><path
             d="M 0,0 C 0.699,1.772 -0.447,3.707 -2.337,3.944 -3.625,4.106 -4.891,3.356 -5.367,2.149 -6.067,0.376 -4.921,-1.558 -3.03,-1.796 -1.742,-1.958 -0.477,-1.208 0,0"
             style="fill:#ffffff;fill-opacity:1;fill-rule:nonzero;stroke:none"
             id="path1333"
             inkscape:connector-curvature="0" /></g><g
           id="g1335"
           transform="translate(334.9767,502.3954)"><path
             d="M 0,0 C 0.699,1.772 -0.447,3.707 -2.337,3.944 -3.625,4.106 -4.891,3.356 -5.367,2.149 -6.067,0.376 -4.921,-1.558 -3.03,-1.796 -1.742,-1.958 -0.477,-1.208 0,0 Z"
             style="fill:none;stroke:#bf1e40;stroke-width:0.71899998;stroke-linecap:butt;stroke-linejoin:miter;stroke-miterlimit:10;stroke-dasharray:none;stroke-opacity:1"
             id="path1337"
             inkscape:connector-curvature="0" /></g></g></g><text
       transform="matrix(1,0,0,-1,335.1826,521.1777)"
       style="font-variant:normal;font-weight:normal;font-stretch:normal;font-size:5.68459988px;font-family:Raleway;-inkscape-font-specification:Raleway-Regular;writing-mode:lr-tb;fill:#4f4c4d;fill-opacity:1;fill-rule:nonzero;stroke:none"
       id="text1343"
       inkscape:export-filename="/home/chdznel/github/dsxc_old/img/spssde-method.png"
       inkscape:export-xdpi="150"
       inkscape:export-ydpi="150"><tspan
         x="0 4.0644889 7.4013491 10.169749 13.267857 15.263151 17.110645 20.492983 22.039194 23.585405 26.967743 28.417315 31.953136"
         y="0"
         sodipodi:role="line"
         id="tspan1339">Desarrollo de</tspan><tspan
         x="0 1.2392428 6.4633904 9.970788 11.516999 14.85386 20.078007 23.414867 26.700565 28.604908 31.703014 34.82386 36.063103 39.445438"
         y="6.8215199"
         sodipodi:role="line"
         id="tspan1341">implementación</tspan></text>
<g
       id="g1345"
       inkscape:export-filename="/home/chdznel/github/dsxc_old/img/spssde-method.png"
       inkscape:export-xdpi="150"
       inkscape:export-ydpi="150"><g
         id="g1347"
         clip-path="url(#clipPath1351)"><g
           id="g1353"
           transform="translate(332.3959,521.7343)"><path
             d="M 0,0 C 0.699,1.772 -0.447,3.707 -2.337,3.944 -3.625,4.106 -4.891,3.356 -5.367,2.149 -6.067,0.376 -4.921,-1.558 -3.03,-1.796 -1.742,-1.958 -0.477,-1.208 0,0"
             style="fill:#ffffff;fill-opacity:1;fill-rule:nonzero;stroke:none"
             id="path1355"
             inkscape:connector-curvature="0" /></g><g
           id="g1357"
           transform="translate(332.3959,521.7343)"><path
             d="M 0,0 C 0.699,1.772 -0.447,3.707 -2.337,3.944 -3.625,4.106 -4.891,3.356 -5.367,2.149 -6.067,0.376 -4.921,-1.558 -3.03,-1.796 -1.742,-1.958 -0.477,-1.208 0,0 Z"
             style="fill:none;stroke:#bf1e40;stroke-width:0.71899998;stroke-linecap:butt;stroke-linejoin:miter;stroke-miterlimit:10;stroke-dasharray:none;stroke-opacity:1"
             id="path1359"
             inkscape:connector-curvature="0" /></g></g></g><text
       transform="matrix(1,0,0,-1,329.4697,540.6719)"
       style="font-variant:normal;font-weight:normal;font-stretch:normal;font-size:5.68459988px;font-family:Raleway;-inkscape-font-specification:Raleway-Regular;writing-mode:lr-tb;fill:#4f4c4d;fill-opacity:1;fill-rule:nonzero;stroke:none"
       id="text1363"
       inkscape:export-filename="/home/chdznel/github/dsxc_old/img/spssde-method.png"
       inkscape:export-xdpi="150"
       inkscape:export-ydpi="150"><tspan
         x="0 3.2862673 6.242259 9.3403664 10.886578 14.26323 17.361338 20.482182 21.721426 25.103762"
         y="0"
         sodipodi:role="line"
         id="tspan1361">Evaluación</tspan></text>
<g
       id="g1365"
       inkscape:export-filename="/home/chdznel/github/dsxc_old/img/spssde-method.png"
       inkscape:export-xdpi="150"
       inkscape:export-ydpi="150"><g
         id="g1367"
         clip-path="url(#clipPath1371)"><g
           id="g1373"
           transform="translate(325.3936,540.349)"><path
             d="M 0,0 C 0.699,1.772 -0.447,3.707 -2.337,3.944 -3.625,4.106 -4.891,3.356 -5.367,2.149 -6.067,0.376 -4.921,-1.558 -3.03,-1.796 -1.742,-1.958 -0.477,-1.208 0,0"
             style="fill:#ffffff;fill-opacity:1;fill-rule:nonzero;stroke:none"
             id="path1375"
             inkscape:connector-curvature="0" /></g><g
           id="g1377"
           transform="translate(325.3936,540.349)"><path
             d="M 0,0 C 0.699,1.772 -0.447,3.707 -2.337,3.944 -3.625,4.106 -4.891,3.356 -5.367,2.149 -6.067,0.376 -4.921,-1.558 -3.03,-1.796 -1.742,-1.958 -0.477,-1.208 0,0 Z"
             style="fill:none;stroke:#bf1e40;stroke-width:0.71899998;stroke-linecap:butt;stroke-linejoin:miter;stroke-miterlimit:10;stroke-dasharray:none;stroke-opacity:1"
             id="path1379"
             inkscape:connector-curvature="0" /></g></g></g><text
       transform="matrix(1,0,0,-1,289.3828,576.4785)"
       style="font-variant:normal;font-weight:normal;font-stretch:normal;font-size:5.68459988px;font-family:Raleway;-inkscape-font-specification:Raleway-Regular;writing-mode:lr-tb;fill:#4f4c4d;fill-opacity:1;fill-rule:nonzero;stroke:none"
       id="text1383"
       inkscape:export-filename="/home/chdznel/github/dsxc_old/img/spssde-method.png"
       inkscape:export-xdpi="150"
       inkscape:export-ydpi="150"><tspan
         x="0 3.4619215 5.0081325 8.1062393 11.613638 14.995975 16.951477 20.049583 21.909018 23.358589 26.894411 30.276749 33.397594 36.774246 41.998394 45.335255 48.621521 50.52586 53.62397 56.744816 57.984058 61.366394"
         y="0"
         sodipodi:role="line"
         id="tspan1381">Elaborar documentación</tspan></text>
<g
       id="g1385"
       inkscape:export-filename="/home/chdznel/github/dsxc_old/img/spssde-method.png"
       inkscape:export-xdpi="150"
       inkscape:export-ydpi="150"><g
         id="g1387"
         clip-path="url(#clipPath1391)"><g
           id="g1393"
           transform="translate(287.56,573.7409)"><path
             d="M 0,0 C 0.699,1.772 -0.447,3.707 -2.337,3.944 -3.625,4.106 -4.891,3.356 -5.367,2.149 -6.067,0.376 -4.921,-1.558 -3.03,-1.796 -1.742,-1.958 -0.477,-1.208 0,0"
             style="fill:#ffffff;fill-opacity:1;fill-rule:nonzero;stroke:none"
             id="path1395"
             inkscape:connector-curvature="0" /></g><g
           id="g1397"
           transform="translate(287.56,573.7409)"><path
             d="M 0,0 C 0.699,1.772 -0.447,3.707 -2.337,3.944 -3.625,4.106 -4.891,3.356 -5.367,2.149 -6.067,0.376 -4.921,-1.558 -3.03,-1.796 -1.742,-1.958 -0.477,-1.208 0,0 Z"
             style="fill:none;stroke:#4f2047;stroke-width:0.71899998;stroke-linecap:butt;stroke-linejoin:miter;stroke-miterlimit:10;stroke-dasharray:none;stroke-opacity:1"
             id="path1399"
             inkscape:connector-curvature="0" /></g></g></g><text
       transform="matrix(1,0,0,-1,258.4004,586.2373)"
       style="font-variant:normal;font-weight:normal;font-stretch:normal;font-size:5.68459988px;font-family:Raleway;-inkscape-font-specification:Raleway-Regular;writing-mode:lr-tb;fill:#4f4c4d;fill-opacity:1;fill-rule:nonzero;stroke:none"
       id="text1403"
       inkscape:export-filename="/home/chdznel/github/dsxc_old/img/spssde-method.png"
       inkscape:export-xdpi="150"
       inkscape:export-ydpi="150"><tspan
         x="0 3.8996356 7.2819724 12.50612 15.882772 19.196894 20.436136 23.556982 26.65509 29.775934 31.015177 34.397514"
         y="0"
         sodipodi:role="line"
         id="tspan1401">Comunicación</tspan></text>
<g
       id="g1405"
       inkscape:export-filename="/home/chdznel/github/dsxc_old/img/spssde-method.png"
       inkscape:export-xdpi="150"
       inkscape:export-ydpi="150"><g
         id="g1407"
         clip-path="url(#clipPath1411)"><g
           id="g1413"
           transform="translate(262.7513,579.6689)"><path
             d="M 0,0 C 0.699,1.772 -0.447,3.707 -2.337,3.944 -3.625,4.106 -4.891,3.356 -5.367,2.149 -6.067,0.376 -4.921,-1.558 -3.03,-1.796 -1.742,-1.958 -0.477,-1.208 0,0"
             style="fill:#ffffff;fill-opacity:1;fill-rule:nonzero;stroke:none"
             id="path1415"
             inkscape:connector-curvature="0" /></g><g
           id="g1417"
           transform="translate(262.7513,579.6689)"><path
             d="M 0,0 C 0.699,1.772 -0.447,3.707 -2.337,3.944 -3.625,4.106 -4.891,3.356 -5.367,2.149 -6.067,0.376 -4.921,-1.558 -3.03,-1.796 -1.742,-1.958 -0.477,-1.208 0,0 Z"
             style="fill:none;stroke:#4f2047;stroke-width:0.71899998;stroke-linecap:butt;stroke-linejoin:miter;stroke-miterlimit:10;stroke-dasharray:none;stroke-opacity:1"
             id="path1419"
             inkscape:connector-curvature="0" /></g></g></g></g></svg>