<?xml version="1.0" encoding="UTF-8" standalone="no"?>
<!-- Created with Inkscape (http://www.inkscape.org/) -->

<svg
   xmlns:dc="http://purl.org/dc/elements/1.1/"
   xmlns:cc="http://creativecommons.org/ns#"
   xmlns:rdf="http://www.w3.org/1999/02/22-rdf-syntax-ns#"
   xmlns:svg="http://www.w3.org/2000/svg"
   xmlns="http://www.w3.org/2000/svg"
   xmlns:sodipodi="http://sodipodi.sourceforge.net/DTD/sodipodi-0.dtd"
   xmlns:inkscape="http://www.inkscape.org/namespaces/inkscape"
   version="1.1"
   id="svg987"
   xml:space="preserve"
   width="485.48682"
   height="219.17494"
   viewBox="0 0 485.48681 219.17495"
   sodipodi:docname="tns-method.svg"
   inkscape:version="0.92.3 (2405546, 2018-03-11)"><metadata
     id="metadata993"><rdf:RDF><cc:Work
         rdf:about=""><dc:format>image/svg+xml</dc:format><dc:type
           rdf:resource="http://purl.org/dc/dcmitype/StillImage" /><dc:title></dc:title></cc:Work></rdf:RDF></metadata><defs
     id="defs991"><clipPath
       clipPathUnits="userSpaceOnUse"
       id="clipPath1015"><path
         d="M 0,792 H 612 V 0 H 0 Z"
         id="path1013"
         inkscape:connector-curvature="0" /></clipPath><clipPath
       clipPathUnits="userSpaceOnUse"
       id="clipPath1083"><path
         d="M 0,792 H 612 V 0 H 0 Z"
         id="path1081"
         inkscape:connector-curvature="0" /></clipPath><clipPath
       clipPathUnits="userSpaceOnUse"
       id="clipPath1103"><path
         d="M 0,792 H 612 V 0 H 0 Z"
         id="path1101"
         inkscape:connector-curvature="0" /></clipPath><clipPath
       clipPathUnits="userSpaceOnUse"
       id="clipPath1121"><path
         d="M 0,792 H 612 V 0 H 0 Z"
         id="path1119"
         inkscape:connector-curvature="0" /></clipPath><clipPath
       clipPathUnits="userSpaceOnUse"
       id="clipPath1157"><path
         d="M 0,792 H 612 V 0 H 0 Z"
         id="path1155"
         inkscape:connector-curvature="0" /></clipPath><clipPath
       clipPathUnits="userSpaceOnUse"
       id="clipPath1177"><path
         d="M 0,792 H 612 V 0 H 0 Z"
         id="path1175"
         inkscape:connector-curvature="0" /></clipPath><clipPath
       clipPathUnits="userSpaceOnUse"
       id="clipPath1199"><path
         d="M 0,792 H 612 V 0 H 0 Z"
         id="path1197"
         inkscape:connector-curvature="0" /></clipPath><clipPath
       clipPathUnits="userSpaceOnUse"
       id="clipPath1227"><path
         d="M 0,792 H 612 V 0 H 0 Z"
         id="path1225"
         inkscape:connector-curvature="0" /></clipPath><clipPath
       clipPathUnits="userSpaceOnUse"
       id="clipPath1249"><path
         d="M 0,792 H 612 V 0 H 0 Z"
         id="path1247"
         inkscape:connector-curvature="0" /></clipPath><clipPath
       clipPathUnits="userSpaceOnUse"
       id="clipPath1277"><path
         d="M 0,792 H 612 V 0 H 0 Z"
         id="path1275"
         inkscape:connector-curvature="0" /></clipPath><clipPath
       clipPathUnits="userSpaceOnUse"
       id="clipPath1301"><path
         d="M 0,792 H 612 V 0 H 0 Z"
         id="path1299"
         inkscape:connector-curvature="0" /></clipPath><clipPath
       clipPathUnits="userSpaceOnUse"
       id="clipPath1321"><path
         d="M 0,792 H 612 V 0 H 0 Z"
         id="path1319"
         inkscape:connector-curvature="0" /></clipPath><clipPath
       clipPathUnits="userSpaceOnUse"
       id="clipPath1351"><path
         d="M 0,792 H 612 V 0 H 0 Z"
         id="path1349"
         inkscape:connector-curvature="0" /></clipPath><clipPath
       clipPathUnits="userSpaceOnUse"
       id="clipPath1371"><path
         d="M 0,792 H 612 V 0 H 0 Z"
         id="path1369"
         inkscape:connector-curvature="0" /></clipPath><clipPath
       clipPathUnits="userSpaceOnUse"
       id="clipPath1391"><path
         d="M 0,792 H 612 V 0 H 0 Z"
         id="path1389"
         inkscape:connector-curvature="0" /></clipPath><clipPath
       clipPathUnits="userSpaceOnUse"
       id="clipPath1411"><path
         d="M 0,792 H 612 V 0 H 0 Z"
         id="path1409"
         inkscape:connector-curvature="0" /></clipPath><clipPath
       clipPathUnits="userSpaceOnUse"
       id="clipPath1469"><path
         d="M 0,792 H 612 V 0 H 0 Z"
         id="path1467"
         inkscape:connector-curvature="0" /></clipPath><clipPath
       clipPathUnits="userSpaceOnUse"
       id="clipPath1529"><path
         d="M 0,792 H 612 V 0 H 0 Z"
         id="path1527"
         inkscape:connector-curvature="0" /></clipPath><clipPath
       clipPathUnits="userSpaceOnUse"
       id="clipPath1541"><path
         d="m 497.282,66.173 h 38.14 v 38.268 h -38.14 z"
         id="path1539"
         inkscape:connector-curvature="0" /></clipPath><clipPath
       clipPathUnits="userSpaceOnUse"
       id="clipPath1549"><path
         d="m 490.986,103.566 h 50.961 V 67.1649 h -50.961 z"
         id="path1547"
         inkscape:connector-curvature="0" /></clipPath><clipPath
       clipPathUnits="userSpaceOnUse"
       id="clipPath1733"><path
         d="M 0,792 H 612 V 0 H 0 Z"
         id="path1731"
         inkscape:connector-curvature="0" /></clipPath><clipPath
       clipPathUnits="userSpaceOnUse"
       id="clipPath1785"><path
         d="M 0,792 H 612 V 0 H 0 Z"
         id="path1783"
         inkscape:connector-curvature="0" /></clipPath><clipPath
       clipPathUnits="userSpaceOnUse"
       id="clipPath3184"><path
         d="M 0,792 H 612 V 0 H 0 Z"
         id="path3182"
         inkscape:connector-curvature="0" /></clipPath><clipPath
       clipPathUnits="userSpaceOnUse"
       id="clipPath3170"><path
         d="M 0,792 H 612 V 0 H 0 Z"
         id="path3168"
         inkscape:connector-curvature="0" /></clipPath><clipPath
       clipPathUnits="userSpaceOnUse"
       id="clipPath3100"><path
         d="M 0,792 H 612 V 0 H 0 Z"
         id="path3098"
         inkscape:connector-curvature="0" /></clipPath><clipPath
       clipPathUnits="userSpaceOnUse"
       id="clipPath3078"><path
         d="M 0,792 H 612 V 0 H 0 Z"
         id="path3076"
         inkscape:connector-curvature="0" /></clipPath><clipPath
       clipPathUnits="userSpaceOnUse"
       id="clipPath2958"><path
         d="M 0,792 H 612 V 0 H 0 Z"
         id="path2956"
         inkscape:connector-curvature="0" /></clipPath><clipPath
       clipPathUnits="userSpaceOnUse"
       id="clipPath2944"><path
         d="M 0,792 H 612 V 0 H 0 Z"
         id="path2942"
         inkscape:connector-curvature="0" /></clipPath><clipPath
       clipPathUnits="userSpaceOnUse"
       id="clipPath2928"><path
         d="M 0,792 H 612 V 0 H 0 Z"
         id="path2926"
         inkscape:connector-curvature="0" /></clipPath><clipPath
       clipPathUnits="userSpaceOnUse"
       id="clipPath2912"><path
         d="M 0,792 H 612 V 0 H 0 Z"
         id="path2910"
         inkscape:connector-curvature="0" /></clipPath><clipPath
       clipPathUnits="userSpaceOnUse"
       id="clipPath2852"><path
         d="M 0,792 H 612 V 0 H 0 Z"
         id="path2850"
         inkscape:connector-curvature="0" /></clipPath><clipPath
       clipPathUnits="userSpaceOnUse"
       id="clipPath2838"><path
         d="M 0,792 H 612 V 0 H 0 Z"
         id="path2836"
         inkscape:connector-curvature="0" /></clipPath><clipPath
       clipPathUnits="userSpaceOnUse"
       id="clipPath2824"><path
         d="M 0,792 H 612 V 0 H 0 Z"
         id="path2822"
         inkscape:connector-curvature="0" /></clipPath><clipPath
       clipPathUnits="userSpaceOnUse"
       id="clipPath2810"><path
         d="M 0,792 H 612 V 0 H 0 Z"
         id="path2808"
         inkscape:connector-curvature="0" /></clipPath><clipPath
       clipPathUnits="userSpaceOnUse"
       id="clipPath2796"><path
         d="M 0,792 H 612 V 0 H 0 Z"
         id="path2794"
         inkscape:connector-curvature="0" /></clipPath><clipPath
       clipPathUnits="userSpaceOnUse"
       id="clipPath2754"><path
         d="M 0,792 H 612 V 0 H 0 Z"
         id="path2752"
         inkscape:connector-curvature="0" /></clipPath><clipPath
       clipPathUnits="userSpaceOnUse"
       id="clipPath5082"><path
         d="m 162.339,604.88 h 0.713 v -0.713 h -0.713 z"
         id="path5080"
         inkscape:connector-curvature="0" /></clipPath><clipPath
       clipPathUnits="userSpaceOnUse"
       id="clipPath7398"><path
         d="M 0,792 H 612 V 0 H 0 Z"
         id="path7396"
         inkscape:connector-curvature="0" /></clipPath><clipPath
       clipPathUnits="userSpaceOnUse"
       id="clipPath7398-1"><path
         d="M 0,792 H 612 V 0 H 0 Z"
         id="path7396-1"
         inkscape:connector-curvature="0" /></clipPath><clipPath
       clipPathUnits="userSpaceOnUse"
       id="clipPath9920"><path
         d="M 0,792 H 612 V 0 H 0 Z"
         id="path9918"
         inkscape:connector-curvature="0" /></clipPath><clipPath
       clipPathUnits="userSpaceOnUse"
       id="clipPath9876"><path
         d="M 0,792 H 612 V 0 H 0 Z"
         id="path9874"
         inkscape:connector-curvature="0" /></clipPath><clipPath
       clipPathUnits="userSpaceOnUse"
       id="clipPath12069"><path
         d="M 0,792 H 612 V 0 H 0 Z"
         id="path12067"
         inkscape:connector-curvature="0" /></clipPath><clipPath
       clipPathUnits="userSpaceOnUse"
       id="clipPath12069-1"><path
         d="M 0,792 H 612 V 0 H 0 Z"
         id="path12067-7"
         inkscape:connector-curvature="0" /></clipPath><clipPath
       clipPathUnits="userSpaceOnUse"
       id="clipPath12069-7"><path
         d="M 0,792 H 612 V 0 H 0 Z"
         id="path12067-9"
         inkscape:connector-curvature="0" /></clipPath></defs><sodipodi:namedview
     pagecolor="#ffffff"
     bordercolor="#666666"
     borderopacity="1"
     objecttolerance="10"
     gridtolerance="10"
     guidetolerance="10"
     inkscape:pageopacity="0"
     inkscape:pageshadow="2"
     inkscape:window-width="1296"
     inkscape:window-height="704"
     id="namedview989"
     showgrid="false"
     fit-margin-top="0"
     fit-margin-left="0"
     fit-margin-right="0"
     fit-margin-bottom="0"
     inkscape:zoom="0.89393939"
     inkscape:cx="174.51836"
     inkscape:cy="61.557538"
     inkscape:window-x="70"
     inkscape:window-y="27"
     inkscape:window-maximized="1"
     inkscape:current-layer="g995" /><g
     id="g995"
     inkscape:groupmode="layer"
     inkscape:label="1_2_METODOLOGÍAS"
     transform="matrix(1.3333333,0,0,-1.3333333,-745.95805,1213.1026)"><g
       id="g14064"
       transform="translate(-208.06958,121.6228)"><g
         transform="translate(1038.0546,672.53477)"
         id="g12009"><path
           inkscape:connector-curvature="0"
           id="path12011"
           style="fill:none;stroke:#6e7274;stroke-width:1;stroke-linecap:butt;stroke-linejoin:miter;stroke-miterlimit:10;stroke-dasharray:3.6, 2.7;stroke-dashoffset:0;stroke-opacity:1"
           d="m 0,0 c -19.856,-7.159 -37.487,0 -37.487,0 h -9.082 c -20.674,-7.409 -39.443,0.095 -39.443,0.095 l -8.858,-0.171 c -13.476,-6.985 -29.274,-3.515 -35.923,-0.015 -6.649,3.5 -11.085,0 -11.085,0 -16.233,-9.25 -32.401,0 -32.401,0" /></g><text
         transform="scale(1,-1)"
         id="text12035"
         style="font-variant:normal;font-weight:normal;font-stretch:normal;font-size:8.34379959px;font-family:Raleway;-inkscape-font-specification:Raleway-Regular;writing-mode:lr-tb;fill:#231f20;fill-opacity:1;fill-rule:nonzero;stroke:none;stroke-width:0.99999994"
         x="1081.9659"
         y="-676.55579"><tspan
           id="tspan12033"
           sodipodi:role="line"
           y="-676.55579"
           x="1081.9659 1087.6313 1089.4503 1093.5138 1095.3326 1100.2972 1105.1616 1107.2893 1111.9202 1116.8763 1119.6715 1124.6278 1127.498 766.79553 771.98541 774.69714 779.59491 783.65839 788.55615 793.37805 796.06476"
           style="stroke-width:0.99999994">Visión FuturaPresente</tspan></text>
<text
         transform="scale(1,-1)"
         id="text12039"
         style="font-variant:normal;font-weight:normal;font-stretch:normal;font-size:8.34379959px;font-family:Raleway;-inkscape-font-specification:Raleway-Regular;writing-mode:lr-tb;fill:#231f20;fill-opacity:1;fill-rule:nonzero;stroke:none;stroke-width:0.99999994"
         x="846.37036"
         y="-753.61914"><tspan
           id="tspan12037"
           sodipodi:role="line"
           y="-753.61914"
           x="846.37036 852.33618 857.19141 861.39667 866.26111 868.08008"
           style="stroke-width:0.99999994">Deﬁnir</tspan></text>
<text
         transform="scale(1,-1)"
         id="text12055"
         style="font-variant:normal;font-weight:normal;font-stretch:normal;font-size:8.34379959px;font-family:Raleway;-inkscape-font-specification:Raleway-Regular;writing-mode:lr-tb;fill:#231f20;fill-opacity:1;fill-rule:nonzero;stroke:none;stroke-width:0.99999994"
         x="846.57062"
         y="-743.60657"><tspan
           id="tspan12041"
           sodipodi:role="line"
           y="-743.60657"
           x="846.57062 853.84637 858.39294 861.10468 865.64368"
           style="stroke-width:0.99999994">Marco</tspan><tspan
           id="tspan12043"
           sodipodi:role="line"
           y="-753.61914"
           x="1021.5568 1026.5881 1030.6515 1033.4467 1036.317 1040.8302 1043.5168 1048.4147 1053.5712 1055.39 1059.9374"
           style="stroke-width:0.99999994">Estrategias</tspan><tspan
           id="tspan12045"
           sodipodi:role="line"
           y="-743.60657"
           x="1015.6077 1020.6723 1025.637 1029.7003 1032.3871 1037.2849 1042.1493 1043.9683 1049.1163 1050.9353 1053.2048 1055.0238 1060.2136 1064.761"
           style="stroke-width:0.99999994">Sostenibilidad</tspan><tspan
           id="tspan12047"
           sodipodi:role="line"
           y="-754.46185"
           x="961.14764 966.21234 968.03125 970.82648 975.78265 980.33008 984.91083 986.72974 991.69434"
           style="stroke-width:0.99999994">Situación</tspan><tspan
           id="tspan12049"
           sodipodi:role="line"
           y="-744.44928"
           x="958.51105 963.57568 968.54028 972.6037 975.29041 980.18817 985.05267 986.87158 992.01971 994.28925"
           style="stroke-width:0.99999994">Sostenible</tspan><tspan
           id="tspan12051"
           sodipodi:role="line"
           y="-753.61914"
           x="900.03766 905.10236 906.92126 909.71649 914.67267 919.22003 923.80078 925.61975 930.58435"
           style="stroke-width:0.99999994">Situación</tspan><tspan
           id="tspan12053"
           sodipodi:role="line"
           y="-743.60657"
           x="905.53619 911.05981 915.64056 918.43573 923.39197 927.93933"
           style="stroke-width:0.99999994">Actual</tspan></text>
<text
         transform="scale(1,-1)"
         id="text12061"
         style="font-variant:normal;font-weight:bold;font-stretch:normal;font-size:8.34379959px;font-family:Raleway;-inkscape-font-specification:Raleway-Bold;writing-mode:lr-tb;fill:#231f20;fill-opacity:1;fill-rule:nonzero;stroke:none;stroke-width:0.99999994"
         x="905.71143"
         y="-782.06311"><tspan
           id="tspan12057"
           sodipodi:role="line"
           y="-782.06311"
           x="905.71143 912.88715 917.67645 920.68939 925.35278 930.40912 932.41162 936.03284 942.35657 947.11255 950.31659 955.47302 958.64453 963.43384 965.82098 967.82355 972.88824 975.98376 980.98169 986.08813"
           style="stroke-width:0.99999994">Marco “Natural Step”</tspan><tspan
           id="tspan12059"
           sodipodi:role="line"
           y="-625.06622"
           x="909.84998 917.02563 921.815 924.82794 929.49127 934.54761 936.55011 941.93188 946.92981 948.93231 953.55481 955.55731 961.92365 964.05127 968.48187 973.4798 976.12482 981.12274"
           style="stroke-width:0.99999994">Marco de 5 Niveles</tspan></text>
<g
         id="g12063"
         transform="translate(689.9102,198.10657)"><g
           clip-path="url(#clipPath12069-7)"
           id="g12065"><g
             transform="translate(86.7175,505.705)"
             id="g12071"><path
               inkscape:connector-curvature="0"
               id="path12073"
               style="fill:none;stroke:#ee213f;stroke-width:3;stroke-linecap:butt;stroke-linejoin:miter;stroke-miterlimit:10;stroke-dasharray:none;stroke-opacity:1"
               d="M 0,0 H 341.869" /></g><g
             transform="translate(108.4331,505.705)"
             id="g12075"><path
               inkscape:connector-curvature="0"
               id="path12077"
               style="fill:#359c89;fill-opacity:1;fill-rule:nonzero;stroke:none"
               d="m 0,0 c 0,-7.987 -6.475,-14.463 -14.463,-14.463 -7.987,0 -14.462,6.476 -14.462,14.463 0,7.987 6.475,14.463 14.462,14.463 C -6.475,14.463 0,7.987 0,0" /></g><g
             transform="translate(173.7654,534.5255)"
             id="g12079"><path
               inkscape:connector-curvature="0"
               id="path12081"
               style="fill:#ee213f;fill-opacity:1;fill-rule:nonzero;stroke:none"
               d="m 0,0 c 0,-2.809 -2.277,-5.086 -5.086,-5.086 -2.809,0 -5.087,2.277 -5.087,5.086 0,2.809 2.278,5.086 5.087,5.086 C -2.277,5.086 0,2.809 0,0" /></g><g
             transform="translate(357.8849,534.5255)"
             id="g12083"><path
               inkscape:connector-curvature="0"
               id="path12085"
               style="fill:#ee213f;fill-opacity:1;fill-rule:nonzero;stroke:none"
               d="m 0,0 c 0,-2.809 -2.277,-5.086 -5.086,-5.086 -2.809,0 -5.087,2.277 -5.087,5.086 0,2.809 2.278,5.086 5.087,5.086 C -2.277,5.086 0,2.809 0,0" /></g><g
             transform="translate(234.0225,534.2858)"
             id="g12087"><path
               inkscape:connector-curvature="0"
               id="path12089"
               style="fill:#ee213f;fill-opacity:1;fill-rule:nonzero;stroke:none"
               d="m 0,0 c 0,-2.809 -2.277,-5.086 -5.086,-5.086 -2.809,0 -5.087,2.277 -5.087,5.086 0,2.809 2.278,5.086 5.087,5.086 C -2.277,5.086 0,2.809 0,0" /></g><g
             transform="translate(294.585,535.3656)"
             id="g12091"><path
               inkscape:connector-curvature="0"
               id="path12093"
               style="fill:#ee213f;fill-opacity:1;fill-rule:nonzero;stroke:none"
               d="m 0,0 c 0,-2.809 -2.277,-5.086 -5.086,-5.086 -2.809,0 -5.087,2.277 -5.087,5.086 0,2.809 2.278,5.086 5.087,5.086 C -2.277,5.086 0,2.809 0,0" /></g><g
             transform="translate(431.5583,505.705)"
             id="g12095"><path
               inkscape:connector-curvature="0"
               id="path12097"
               style="fill:#ee213f;fill-opacity:1;fill-rule:nonzero;stroke:none"
               d="m 0,0 c 0,-7.987 -6.475,-14.463 -14.463,-14.463 -7.987,0 -14.462,6.476 -14.462,14.463 0,7.987 6.475,14.463 14.462,14.463 C -6.475,14.463 0,7.987 0,0" /></g></g></g><path
         d="m 858.5892,727.54567 v -21.602"
         style="fill:none;stroke:#359c89;stroke-width:1.99999988;stroke-linecap:butt;stroke-linejoin:miter;stroke-miterlimit:10;stroke-dasharray:none;stroke-opacity:1"
         id="path12395"
         inkscape:connector-curvature="0" /><path
         d="m 918.8464,727.54567 v -21.602"
         style="fill:none;stroke:#359c89;stroke-width:1.99999988;stroke-linecap:butt;stroke-linejoin:miter;stroke-miterlimit:10;stroke-dasharray:none;stroke-opacity:1"
         id="path12399"
         inkscape:connector-curvature="0" /><path
         d="m 978.8551,727.54567 v -21.602"
         style="fill:none;stroke:#359c89;stroke-width:1.99999988;stroke-linecap:butt;stroke-linejoin:miter;stroke-miterlimit:10;stroke-dasharray:none;stroke-opacity:1"
         id="path12403"
         inkscape:connector-curvature="0" /><path
         d="m 1042.7781,727.54567 v -21.602"
         style="fill:none;stroke:#359c89;stroke-width:1.99999988;stroke-linecap:butt;stroke-linejoin:miter;stroke-miterlimit:10;stroke-dasharray:none;stroke-opacity:1"
         id="path12407"
         inkscape:connector-curvature="0" /><text
         transform="scale(1,-1)"
         id="text12417"
         style="font-variant:normal;font-weight:normal;font-stretch:normal;font-size:8.34379959px;font-family:Raleway;-inkscape-font-specification:Raleway-Regular;writing-mode:lr-tb;fill:#231f20;fill-opacity:1;fill-rule:nonzero;stroke:none;stroke-width:0.99999994"
         x="843.2149"
         y="-657.11639"><tspan
           id="tspan12409"
           sodipodi:role="line"
           y="-657.11639"
           x="843.2149 848.27954 850.09851 854.16193 856.84863 861.74646 869.41443 1019.4693 1025.5679 1030.4657 1033.3943 1036.2654 1040.8127 1048.4807 1050.2997 1055.1975 1060.0201 1062.8154 1067.3628 977.73364 983.2572 987.79706 992.37781 994.19678 999.16132 1004.0258 1008.9236"
           style="stroke-width:0.99999994">SistemaHerramientasAcciones</tspan><tspan
           id="tspan12411"
           sodipodi:role="line"
           y="-657.95911"
           x="933.28619 938.43347 942.9809 947.93707 950.73224 955.2796"
           style="stroke-width:0.99999994">Pautas</tspan><tspan
           id="tspan12413"
           sodipodi:role="line"
           y="-647.94653"
           x="922.79803 927.82935 931.89282 934.68793 937.55823 942.07141 944.75812 949.65588 954.81238 956.63135 961.21204 965.75946"
           style="stroke-width:0.99999994">Estratégicas</tspan><tspan
           id="tspan12415"
           sodipodi:role="line"
           y="-657.11639"
           x="892.31818 897.39954 901.6048 903.42377 906.10962"
           style="stroke-width:0.99999994">Éxito</tspan></text>
<g
         transform="translate(863.6756,675.87867)"
         id="g12427"><path
           inkscape:connector-curvature="0"
           id="path12429"
           style="fill:#ee213f;fill-opacity:1;fill-rule:nonzero;stroke:none"
           d="m 0,0 c 0,2.809 -2.277,5.086 -5.086,5.086 -2.809,0 -5.087,-2.277 -5.087,-5.086 0,-2.809 2.278,-5.086 5.087,-5.086 C -2.277,-5.086 0,-2.809 0,0" /></g><g
         transform="translate(1047.8644,675.87867)"
         id="g12431"><path
           inkscape:connector-curvature="0"
           id="path12433"
           style="fill:#ee213f;fill-opacity:1;fill-rule:nonzero;stroke:none"
           d="m 0,0 c 0,2.809 -2.277,5.086 -5.086,5.086 -2.809,0 -5.087,-2.277 -5.087,-5.086 0,-2.809 2.278,-5.086 5.087,-5.086 C -2.277,-5.086 0,-2.809 0,0" /></g><g
         transform="translate(906.7846,676.11837)"
         id="g12435"><path
           inkscape:connector-curvature="0"
           id="path12437"
           style="fill:#ee213f;fill-opacity:1;fill-rule:nonzero;stroke:none"
           d="m 0,0 c 0,2.809 -2.277,5.086 -5.086,5.086 -2.809,0 -5.087,-2.277 -5.087,-5.086 0,-2.809 2.278,-5.086 5.087,-5.086 C -2.277,-5.086 0,-2.809 0,0" /></g><g
         transform="translate(952.6487,675.03846)"
         id="g12439"><path
           inkscape:connector-curvature="0"
           id="path12441"
           style="fill:#ee213f;fill-opacity:1;fill-rule:nonzero;stroke:none"
           d="m 0,0 c 0,2.809 -2.277,5.086 -5.086,5.086 -2.809,0 -5.087,-2.277 -5.087,-5.086 0,-2.809 2.278,-5.086 5.087,-5.086 C -2.277,-5.086 0,-2.809 0,0" /></g><g
         transform="translate(858.5892,680.96497)"
         id="g12443"><path
           inkscape:connector-curvature="0"
           id="path12445"
           style="fill:none;stroke:#359c89;stroke-width:2;stroke-linecap:butt;stroke-linejoin:miter;stroke-miterlimit:10;stroke-dasharray:none;stroke-opacity:1"
           d="M 0,0 V 21.602" /></g><g
         transform="translate(901.6983,680.96497)"
         id="g12447"><path
           inkscape:connector-curvature="0"
           id="path12449"
           style="fill:none;stroke:#359c89;stroke-width:2;stroke-linecap:butt;stroke-linejoin:miter;stroke-miterlimit:10;stroke-dasharray:none;stroke-opacity:1"
           d="M 0,0 V 21.602" /></g><g
         transform="translate(947.0086,680.96497)"
         id="g12451"><path
           inkscape:connector-curvature="0"
           id="path12453"
           style="fill:none;stroke:#359c89;stroke-width:2;stroke-linecap:butt;stroke-linejoin:miter;stroke-miterlimit:10;stroke-dasharray:none;stroke-opacity:1"
           d="M 0,0 V 21.602" /></g><g
         transform="translate(1000.9965,675.03846)"
         id="g12455"><path
           inkscape:connector-curvature="0"
           id="path12457"
           style="fill:#ee213f;fill-opacity:1;fill-rule:nonzero;stroke:none"
           d="m 0,0 c 0,2.809 -2.277,5.086 -5.086,5.086 -2.809,0 -5.087,-2.277 -5.087,-5.086 0,-2.809 2.278,-5.086 5.087,-5.086 C -2.277,-5.086 0,-2.809 0,0" /></g><g
         transform="translate(995.3564,680.96497)"
         id="g12459"><path
           inkscape:connector-curvature="0"
           id="path12461"
           style="fill:none;stroke:#359c89;stroke-width:2;stroke-linecap:butt;stroke-linejoin:miter;stroke-miterlimit:10;stroke-dasharray:none;stroke-opacity:1"
           d="M 0,0 V 21.602" /></g><g
         transform="translate(1042.8475,680.96497)"
         id="g12463"><path
           inkscape:connector-curvature="0"
           id="path12465"
           style="fill:none;stroke:#359c89;stroke-width:2;stroke-linecap:butt;stroke-linejoin:miter;stroke-miterlimit:10;stroke-dasharray:none;stroke-opacity:1"
           d="M 0,0 V 21.602" /></g><g
         transform="translate(863.6756,668.33286)"
         id="g12467"><path
           inkscape:connector-curvature="0"
           id="path12469"
           style="fill:none;stroke:#6e7274;stroke-width:1;stroke-linecap:butt;stroke-linejoin:miter;stroke-miterlimit:10;stroke-dasharray:3.6, 2.7;stroke-dashoffset:0;stroke-opacity:1"
           d="M 0,0 -0.794,4.825 2.735,6.706" /></g><g
         transform="translate(893.4102,675.03846)"
         id="g12471"><path
           inkscape:connector-curvature="0"
           id="path12473"
           style="fill:none;stroke:#6e7274;stroke-width:1;stroke-linecap:butt;stroke-linejoin:miter;stroke-miterlimit:10;stroke-dasharray:3.6, 2.7;stroke-dashoffset:0;stroke-opacity:1"
           d="M 0,0 4.383,-2.177 3.202,-6.706" /></g><g
         transform="translate(906.9102,669.95217)"
         id="g12475"><path
           inkscape:connector-curvature="0"
           id="path12477"
           style="fill:none;stroke:#6e7274;stroke-width:1;stroke-linecap:butt;stroke-linejoin:miter;stroke-miterlimit:10;stroke-dasharray:3.6, 2.7;stroke-dashoffset:0;stroke-opacity:1"
           d="m 0,0 -1.112,3.164 3.61,2.762" /></g><g
         transform="translate(939.9102,675.03846)"
         id="g12479"><path
           inkscape:connector-curvature="0"
           id="path12481"
           style="fill:none;stroke:#6e7274;stroke-width:1;stroke-linecap:butt;stroke-linejoin:miter;stroke-miterlimit:10;stroke-dasharray:3.6, 2.7;stroke-dashoffset:0;stroke-opacity:1"
           d="M 0,0 3.274,-2.58 V -5.761" /></g><g
         transform="translate(952.7675,669.27726)"
         id="g12483"><path
           inkscape:connector-curvature="0"
           id="path12485"
           style="fill:none;stroke:#6e7274;stroke-width:1;stroke-linecap:butt;stroke-linejoin:miter;stroke-miterlimit:10;stroke-dasharray:3.6, 2.7;stroke-dashoffset:0;stroke-opacity:1"
           d="M 0,0 -0.725,3.353 2.309,5.761" /></g><g
         transform="translate(987.8616,673.99956)"
         id="g12487"><path
           inkscape:connector-curvature="0"
           id="path12489"
           style="fill:none;stroke:#6e7274;stroke-width:1;stroke-linecap:butt;stroke-linejoin:miter;stroke-miterlimit:10;stroke-dasharray:3.6, 2.7;stroke-dashoffset:0;stroke-opacity:1"
           d="M 0,0 2.962,-1.693 2.159,-5.667" /></g><g
         transform="translate(1003.2435,675.03846)"
         id="g12491"><path
           inkscape:connector-curvature="0"
           id="path12493"
           style="fill:none;stroke:#6e7274;stroke-width:1;stroke-linecap:butt;stroke-linejoin:miter;stroke-miterlimit:10;stroke-dasharray:3.6, 2.7;stroke-dashoffset:0;stroke-opacity:1"
           d="m 0,0 -2.676,-2.504 0.429,-3.257" /></g><g
         transform="translate(1034.9102,675.03846)"
         id="g12495"><path
           inkscape:connector-curvature="0"
           id="path12497"
           style="fill:none;stroke:#6e7274;stroke-width:1;stroke-linecap:butt;stroke-linejoin:miter;stroke-miterlimit:10;stroke-dasharray:3.6, 2.7;stroke-dashoffset:0;stroke-opacity:1"
           d="M 0,0 3.812,-2.225 2.125,-6.428" /></g></g></g></svg>